<svg width="301" height="1160" viewBox="0 0 301 1160" fill="none" xmlns="http://www.w3.org/2000/svg">
<g clip-path="url(#clip0_3_1038)">
<mask id="mask0_3_1038" style="mask-type:alpha" maskUnits="userSpaceOnUse" x="-291" y="44" width="1706" height="1458">
<mask id="mask1_3_1038" style="mask-type:luminance" maskUnits="userSpaceOnUse" x="-543" y="-6" width="2141" height="1848">
<path d="M1106.85 -5.23971L-542.729 709.622L-52.1278 1841.71L1597.45 1126.85L1106.85 -5.23971Z" fill="white"/>
</mask>
<g mask="url(#mask1_3_1038)">
<path d="M594.606 1490.49C565.315 1442.69 566.44 1410.2 598.565 1376.21C605.837 1368.52 605.837 1368.52 595.098 1374.33C584.36 1380.14 584.36 1380.14 596.44 1371.31C617.474 1355.93 623.197 1352.47 620.607 1356.72C618.916 1359.49 622.743 1358.29 634.614 1352.33C643.808 1347.72 666.898 1339.49 687.441 1333.51C783.013 1305.7 808.096 1279.1 804.665 1209.21C801.48 1144.3 815.342 1128.62 880.272 1123.67C956.713 1117.86 976.868 1081.3 964.091 971.657C954.636 890.518 967.3 853.555 1011.44 833.475C1063.88 809.615 1092.72 847.445 1106.98 958.799C1111.39 993.233 1108.61 990.507 1102.71 954.62C1085.33 848.827 1061.33 816.888 1014.69 837.494C972.004 856.352 959.414 893.85 968.975 973.66C981.685 1079.76 957.604 1121.15 879.316 1127.75C817.996 1132.91 808.018 1144.66 808.819 1210.73C809.657 1279.88 786.101 1307.5 705.283 1332.16C608.223 1361.77 573.44 1391.39 578.537 1440.09C580.038 1454.43 594.999 1488.88 603.384 1497.3C605.195 1499.12 605.598 1500.98 604.302 1501.54C603.032 1502.09 598.668 1497.12 594.606 1490.49ZM525.951 1462.56C525.684 1461.95 525.969 1461.23 526.583 1460.96C527.198 1460.69 527.918 1460.98 528.184 1461.59C528.45 1462.21 528.166 1462.93 527.552 1463.19C526.937 1463.46 526.217 1463.17 525.951 1462.56ZM524.314 1452.66C524.047 1452.05 524.332 1451.33 524.945 1451.06C525.559 1450.79 526.279 1451.08 526.545 1451.69C526.811 1452.31 526.526 1453.03 525.912 1453.29C525.299 1453.56 524.579 1453.27 524.314 1452.66ZM524.61 1447.23C524.343 1446.61 524.628 1445.89 525.242 1445.63C525.855 1445.36 526.575 1445.65 526.841 1446.26C527.108 1446.87 526.823 1447.59 526.21 1447.86C525.596 1448.13 524.876 1447.84 524.61 1447.23ZM525.204 1436.36C524.938 1435.75 525.222 1435.03 525.835 1434.76C526.45 1434.49 527.17 1434.78 527.436 1435.39C527.702 1436.01 527.417 1436.73 526.803 1436.99C526.19 1437.26 525.47 1436.97 525.204 1436.36ZM474.16 1453.18C473.893 1452.56 474.178 1451.84 474.792 1451.58C475.407 1451.31 476.127 1451.59 476.393 1452.21C476.659 1452.82 476.375 1453.54 475.76 1453.81C475.146 1454.08 474.426 1453.79 474.16 1453.18ZM526.945 1428.15C526.779 1427.76 528.628 1423.08 531.056 1417.74C535.468 1408.04 535.468 1408.04 532.057 1418.14C528.876 1427.55 527.693 1429.87 526.945 1428.15ZM475.722 1444.54C475.455 1443.93 475.74 1443.21 476.354 1442.94C476.967 1442.68 477.687 1442.96 477.953 1443.58C478.22 1444.19 477.935 1444.91 477.322 1445.18C476.708 1445.44 475.988 1445.16 475.722 1444.54ZM536.64 1407.69C536.377 1407.08 538.275 1403.89 540.857 1400.59C544.825 1395.53 544.852 1394.88 541.033 1396.41C538.549 1397.41 534.593 1397.92 532.243 1397.54C529.264 1397.06 530.498 1396.2 536.316 1394.7C544.634 1392.56 556.25 1381.73 552.021 1380.05C550.874 1379.6 552.313 1378.2 555.218 1376.94C558.673 1375.44 562.627 1368.91 566.658 1358.06C570.046 1348.93 572.25 1344.1 571.559 1347.31C570.867 1350.53 568.468 1358.31 566.226 1364.6C561.733 1377.22 567.302 1378.69 584.041 1369.29C587.769 1367.2 591.681 1366.45 592.732 1367.62C595.464 1370.67 572.021 1383.59 561.275 1384.96C549.622 1386.44 548.601 1387.38 558.418 1387.58C566.444 1387.75 566.444 1387.75 556.89 1392.01C551.635 1394.35 545.037 1399.09 542.227 1402.53C539.417 1405.97 536.904 1408.29 536.64 1407.69ZM569.999 1377.19C564.423 1377.56 559.085 1378.98 558.136 1380.35C556.171 1383.17 566.076 1382.24 574.502 1378.81C578.836 1377.05 577.795 1376.67 569.999 1377.19ZM483.183 1425.83C484.456 1421.41 484.066 1421.04 480.031 1422.78C477.496 1423.88 474.632 1424.23 473.663 1423.55C472.695 1422.88 476.351 1420.62 481.79 1418.54C489.978 1415.4 491.179 1414.24 488.784 1411.79C486.413 1409.37 487.121 1408.64 492.693 1407.72C496.435 1407.11 498.611 1405.99 497.529 1405.24C491.032 1400.71 497.089 1396.19 509.161 1396.56C516.026 1396.77 522.341 1395.94 523.195 1394.71C524.05 1393.49 525.21 1393.55 525.773 1394.85C527.102 1397.92 525.526 1398.46 513.098 1399.25C500.532 1400.04 493.629 1402.27 500.308 1403.39C504.118 1404.02 504.228 1404.27 501.29 1405.65C498.782 1406.83 499.225 1407.35 503.126 1407.82C505.953 1408.15 510.459 1406.93 513.14 1405.1C515.821 1403.28 517.855 1402.88 517.661 1404.21C517.173 1407.56 510.113 1410.32 502.409 1410.17C496.984 1410.07 494.839 1411.7 488.847 1420.46C484.92 1426.21 482.381 1428.62 483.183 1425.83ZM338.668 1484.92C337.605 1484.17 341.189 1481.3 346.632 1478.55C359.241 1472.17 371.908 1458.48 377.474 1445.21C382.472 1433.3 384.225 1419.21 380.51 1420.82C379.178 1421.4 378.276 1420.58 378.507 1419C378.738 1417.41 380.006 1416.28 381.326 1416.47C383.805 1416.83 382.941 1400.86 379.434 1381.51C378.331 1375.42 368.409 1346.9 357.382 1318.13C297.408 1161.62 281.383 1014.2 318.147 957.209C331.301 936.821 342.27 929.855 391.407 910.694C457.493 884.923 469.834 871.775 510.3 784.035C557.805 681.036 582.61 663.58 678.134 665.936C765.278 668.085 781.086 659.072 836.76 575.494C884.45 503.902 901.275 492.485 969.72 485.27C1021.34 479.829 1038.05 465.969 1042.71 424.722C1044.24 411.143 1044.24 411.143 1037.24 423.67C1024.63 446.22 1005.66 456.498 959.838 465.592C907.212 476.037 891.474 486.502 835.709 548.131C764.12 627.245 749.428 634.832 668.278 634.593C565.232 634.291 540.929 651.35 493.957 756.959C455.958 842.389 439.813 861.448 388.259 881.744C299.838 916.556 291.542 922.059 276.794 955.69C247.969 1021.41 260.482 1175.51 303.696 1287.02C305.897 1292.7 305.847 1293.6 303.518 1290.18C285.884 1264.23 259.241 1137.2 257.799 1072.19C255.358 962.268 278.8 916.71 349.915 893.158C432.75 865.724 449.471 849.497 491.449 755.797C540.855 645.52 563.015 630.741 677.976 631.399C747.558 631.797 765.442 621.97 834.531 545.371C890.75 483.042 905.01 473.696 961.14 462.387C1011.71 452.199 1028.88 440.571 1040.21 408.82C1045.23 394.78 1049.08 367.464 1046.89 361.505C1045.68 358.231 1053.85 330.271 1055.79 331.037C1056.66 331.381 1060.42 325.008 1064.14 316.873C1070.54 302.894 1075.73 296.319 1074.69 303.512C1074.39 305.552 1074.93 305.749 1076.12 304.031C1077.17 302.519 1076.87 300.474 1075.45 299.484C1073.77 298.314 1074.43 297.616 1077.34 297.494C1080.04 297.379 1080.87 296.653 1079.43 295.65C1073.88 291.785 1119.62 251.39 1137.32 244.53C1144.91 241.589 1145.21 241.643 1139.71 244.968C1119.45 257.223 1079.05 291.518 1083.03 293.091C1083.59 293.312 1089.65 288.194 1096.51 281.718C1123.27 256.415 1203.96 218.839 1208.58 229.519C1209.11 230.741 1203.05 233.521 1193.66 236.368C1125.69 256.957 1080.98 292.667 1062.18 341.377C1048.68 376.367 1048.52 387.281 1061.82 366.124C1091.01 319.717 1136.58 295.852 1209.16 288.977C1220.37 287.915 1230.87 287.514 1232.51 288.084C1236.92 289.626 1234.9 290.008 1214.49 291.494C1123.73 298.104 1054.15 346.983 1050.56 406.632C1049.56 423.407 1049.97 424.106 1055.47 414.988C1063.6 401.511 1082.32 382.106 1093.13 375.948C1102.78 370.455 1102.44 370.943 1089.34 381.46C1063.34 402.325 1049.18 425.048 1043.49 455.033C1039.5 476.068 1040.77 477.046 1051.11 460.898C1060.67 445.959 1079.87 428.041 1091.05 423.627C1097.65 421.021 1097.05 421.767 1087.7 427.784C1060.88 445.03 1042.2 474.674 1035.48 510.667C1031.38 532.626 1031.38 532.626 1037.24 522.051C1067.71 467.029 1108.63 452.41 1165.86 476.096C1263.7 516.581 1341.54 574.026 1368.24 625.445C1374.98 638.435 1374.98 638.435 1367.15 626.143C1330.84 569.194 1252.59 512.877 1159.51 476.712C1094.82 451.578 1042.46 485.552 1028.31 561.842C1024.29 583.538 1024.29 583.538 1029.68 572.189C1045.47 538.968 1088.59 511.546 1116.11 517.228C1150.41 524.308 1304.65 650.425 1316.72 681.257C1317.39 682.97 1310.23 675.778 1300.8 665.277C1254 613.12 1150.09 530.067 1120.66 521.286C1079.85 509.11 1036.23 548.04 1020.88 610.339C1010.07 654.25 1003.92 662.076 964.717 681.889C928.134 700.376 923.676 705.72 898.258 761.538C868.339 827.244 858.789 836.207 801.422 852.412C754.986 865.532 746.589 871.755 698.821 928.438C649.47 987.001 639.973 995.294 604.568 1010.74C538.635 1039.51 529.687 1058.1 534.394 1156.54C541.096 1296.7 541.363 1360.04 535.307 1373.38C531.631 1381.48 532.821 1383.95 539.172 1381.41C543.992 1379.48 544.063 1379.57 540.565 1383.09C538.534 1385.14 534.24 1387.62 531.023 1388.61C527.805 1389.59 522.618 1391.39 519.496 1392.6C515.026 1394.33 514.333 1394.05 516.238 1391.25C517.567 1389.3 520.975 1387.32 523.812 1386.85C539.799 1384.22 540.558 1364.86 532.185 1173.41C526.989 1054.59 531.112 1044.28 596.944 1011.5C640.89 989.621 651.2 981.045 691.785 932.633C744.896 869.28 753.908 862.528 803.477 848.958C851.702 835.755 866.774 822.995 887.554 777.783C924.044 698.383 928.677 692.759 973.886 672.968C998.274 662.292 1007.47 650.649 1015.59 620.185C1019.49 605.568 1019.34 599.377 1015.3 607.921C1007.81 623.75 1002.46 627.508 966.007 642.553C926.984 658.66 915.644 668.321 899.815 698.949C896.099 706.135 886.373 724.955 878.203 740.769C851.178 793.068 835.074 805.075 777.918 815.534C721.09 825.932 705.87 837.298 657.234 905.654C617.332 961.733 609.653 968.576 558.65 993.493C478.994 1032.41 475.031 1053.93 501.843 1301.94C502.802 1310.8 502.802 1310.8 500.627 1302.46C499.432 1297.88 495.439 1259.86 491.752 1217.98C476.265 1042 479.967 1028.86 555.39 992.088C607.203 966.827 615.351 959.502 657.439 900.35C703.713 835.313 720.445 823.117 777.978 812.473C838.553 801.268 850.376 791.07 886.424 718.933C912.893 665.968 919.619 659.089 962.595 641.045C998.883 625.809 1003.89 622.478 1012.31 608.009C1017.3 599.416 1023.94 574.019 1022.55 568.843C1022.08 567.128 1023.27 558.855 1025.18 550.459C1027.1 542.065 1028.3 533.842 1027.85 532.189C1027.41 530.535 1028.13 524.559 1029.46 518.908C1033.03 503.783 1034.55 492.891 1033 493.56C1032.26 493.884 1033.16 488.03 1035.02 480.551C1039.17 463.79 1038.15 460.756 1031.21 469.26C1021.64 480.986 999.868 488.293 963.472 491.996C902.536 498.193 884.203 511.926 835.191 588.091C787.66 661.958 763.492 674.691 676.406 671.76C586.588 668.735 562.711 685.161 518.813 780.19C474.709 875.66 464.541 886.475 389.479 917.767C342.156 937.495 342.156 937.495 330.941 950.05C286.789 999.473 298.228 1142.97 359.473 1307.94C380.498 1364.57 387.224 1388.78 387.921 1410.32C388.029 1413.68 389.173 1414.43 392.227 1413.13C395.626 1411.69 395.957 1412 394.035 1414.83C392.741 1416.73 390.934 1418.18 390.019 1418.04C387.875 1417.73 383.742 1443.92 385.607 1446C386.384 1446.86 385.863 1447.4 384.451 1447.2C383.039 1446.99 380.19 1449.96 378.119 1453.79C370.941 1467.09 343.777 1488.52 338.668 1484.92ZM1020.4 599.81C1020.62 598.254 1020.31 597.198 1019.69 597.464C1019.08 597.73 1018.39 599.221 1018.17 600.777C1017.94 602.334 1018.26 603.39 1018.87 603.124C1019.48 602.858 1020.17 601.366 1020.4 599.81ZM1041.29 476.711C1041.52 475.152 1041.2 474.096 1040.59 474.362C1039.97 474.628 1039.28 476.12 1039.06 477.678C1038.83 479.234 1039.15 480.29 1039.76 480.024C1040.37 479.758 1041.06 478.267 1041.29 476.711ZM429.402 1444.72C429.628 1443.17 430.316 1441.68 430.929 1441.41C431.543 1441.14 431.86 1442.2 431.633 1443.76C431.407 1445.31 430.719 1446.81 430.105 1447.07C429.492 1447.34 429.174 1446.28 429.402 1444.72ZM526.389 1403.53C527.72 1402.19 529.68 1401.44 530.743 1401.86C531.807 1402.28 530.718 1403.38 528.322 1404.3C525.675 1405.32 524.917 1405.02 526.389 1403.53ZM387.026 1461.28C388.357 1459.93 390.317 1459.18 391.382 1459.6C392.445 1460.02 391.355 1461.12 388.961 1462.04C386.313 1463.06 385.554 1462.76 387.026 1461.28ZM418.277 1447.73C419.608 1446.39 421.568 1445.63 422.631 1446.06C423.694 1446.48 422.606 1447.58 420.21 1448.5C417.563 1449.52 416.805 1449.22 418.277 1447.73ZM444.646 1436.13C443.677 1435.45 445.706 1433.68 449.155 1432.19C452.604 1430.69 455.287 1430.42 455.117 1431.59C454.947 1432.76 452.917 1434.53 450.606 1435.54C448.296 1436.54 445.614 1436.8 444.646 1436.13ZM695.662 1328.01C695.397 1327.4 695.681 1326.68 696.295 1326.41C696.908 1326.15 697.628 1326.43 697.894 1327.04C698.16 1327.66 697.876 1328.38 697.263 1328.64C696.648 1328.91 695.929 1328.63 695.662 1328.01ZM705.856 1320.94C705.59 1320.33 705.874 1319.61 706.487 1319.34C707.101 1319.08 707.821 1319.36 708.088 1319.97C708.354 1320.59 708.07 1321.31 707.455 1321.58C706.843 1321.84 706.122 1321.56 705.856 1320.94ZM429.475 1435.64C430.297 1433.56 431.979 1432.98 434.4 1433.94C437.17 1435.03 436.862 1435.81 433.152 1437.1C429.907 1438.22 428.652 1437.73 429.475 1435.64ZM459.094 1424.53C458.688 1423.59 460.073 1420.9 462.171 1418.55C467.37 1412.73 464.506 1409.53 457.33 1413.14C454.103 1414.77 452.512 1415.06 453.793 1413.79C455.073 1412.51 455.253 1410.87 454.193 1410.13C451.35 1408.15 462.918 1406.69 466.315 1408.6C468.393 1409.77 469.199 1409.41 469.165 1407.3C469.139 1405.69 470.802 1399.6 472.861 1393.77C476.045 1384.74 476.432 1384.32 475.458 1390.95C474.311 1398.74 474.311 1398.74 481.19 1395.76C484.973 1394.12 487.9 1393.94 487.693 1395.37C487.486 1396.79 488.259 1398.05 489.413 1398.17C490.565 1398.28 489.788 1398.54 487.687 1398.73C480.432 1399.42 472.953 1403.32 473.181 1406.3C473.306 1407.94 475.843 1409.04 478.818 1408.74C481.795 1408.44 483.974 1408.83 483.665 1409.62C483.355 1410.4 479.796 1410.98 475.758 1410.91C469.323 1410.78 468.191 1411.51 466.596 1416.77C464.7 1423.01 460.374 1427.48 459.094 1424.53ZM658.013 1339.02C657.747 1338.41 658.031 1337.69 658.644 1337.42C659.258 1337.16 659.978 1337.44 660.245 1338.06C660.51 1338.67 660.226 1339.39 659.611 1339.66C658.999 1339.92 658.279 1339.64 658.013 1339.02ZM713.817 1314.84C713.551 1314.23 713.835 1313.51 714.449 1313.24C715.062 1312.97 715.782 1313.26 716.049 1313.87C716.314 1314.49 716.03 1315.21 715.417 1315.47C714.802 1315.74 714.083 1315.45 713.817 1314.84ZM398.694 1448.31C399.158 1447.13 400.497 1446.55 401.671 1447.02C402.844 1447.48 402.465 1448.44 400.828 1449.15C399.192 1449.86 398.232 1449.48 398.694 1448.31ZM541.555 1386.4C542.018 1385.22 543.358 1384.64 544.531 1385.11C545.703 1385.57 545.324 1386.53 543.688 1387.24C542.051 1387.95 541.091 1387.57 541.555 1386.4ZM623.562 1351.3C623.297 1350.69 623.581 1349.97 624.194 1349.7C624.808 1349.43 625.528 1349.72 625.794 1350.33C626.06 1350.95 625.776 1351.67 625.161 1351.93C624.549 1352.2 623.829 1351.91 623.562 1351.3ZM663.741 1333.89C663.476 1333.27 663.76 1332.55 664.373 1332.29C664.988 1332.02 665.707 1332.31 665.973 1332.92C666.239 1333.54 665.955 1334.26 665.34 1334.52C664.728 1334.79 664.008 1334.5 663.741 1333.89ZM719.545 1309.7C719.28 1309.09 719.564 1308.37 720.179 1308.11C720.791 1307.84 721.511 1308.12 721.777 1308.74C722.043 1309.35 721.759 1310.07 721.146 1310.34C720.532 1310.6 719.812 1310.32 719.545 1309.7ZM438.255 1427.96C437.129 1427.18 437.628 1422.3 439.364 1417.12C441.1 1411.94 443.301 1404.56 444.255 1400.74C445.978 1393.82 445.988 1393.81 445.757 1399.9C445.63 1403.27 446.77 1406.95 448.292 1408.08C449.813 1409.22 449.899 1409.75 448.48 1409.26C445.348 1408.2 440.206 1418.64 442.929 1420.54C443.991 1421.28 446.226 1420.54 447.896 1418.9C450.016 1416.82 450.778 1417 450.418 1419.47C450.104 1421.63 447.517 1423.4 443.777 1424.02C439.837 1424.66 438.524 1425.63 440.094 1426.72C441.436 1427.66 442.033 1428.64 441.419 1428.91C440.806 1429.17 439.381 1428.75 438.255 1427.96ZM452.948 1422.59C452.682 1421.97 452.967 1421.25 453.581 1420.98C454.195 1420.72 454.915 1421 455.182 1421.62C455.448 1422.23 455.164 1422.95 454.549 1423.22C453.935 1423.48 453.215 1423.2 452.948 1422.59ZM591.976 1361.01C592.203 1359.45 592.891 1357.96 593.503 1357.7C594.118 1357.43 594.434 1358.49 594.208 1360.04C593.982 1361.6 593.295 1363.09 592.68 1363.36C592.067 1363.62 591.749 1362.57 591.976 1361.01ZM627.691 1345.53C627.917 1343.98 628.605 1342.48 629.219 1342.22C629.832 1341.95 630.15 1343.01 629.922 1344.56C629.697 1346.12 629.009 1347.61 628.396 1347.88C627.782 1348.15 627.465 1347.09 627.691 1345.53ZM667.237 1329.72C666.971 1329.11 667.255 1328.39 667.87 1328.12C668.484 1327.85 669.204 1328.14 669.471 1328.75C669.737 1329.37 669.452 1330.09 668.838 1330.35C668.224 1330.62 667.504 1330.34 667.237 1329.72ZM725.274 1304.57C725.008 1303.96 725.293 1303.24 725.907 1302.97C726.52 1302.7 727.24 1302.99 727.506 1303.6C727.772 1304.22 727.488 1304.94 726.875 1305.2C726.261 1305.47 725.541 1305.18 725.274 1304.57ZM670.735 1325.55C670.468 1324.94 670.753 1324.22 671.367 1323.95C671.98 1323.69 672.7 1323.97 672.966 1324.59C673.232 1325.2 672.948 1325.92 672.335 1326.19C671.72 1326.45 671 1326.17 670.735 1325.55ZM601.317 1342.37C618.327 1291.87 624.459 1239.38 622.308 1162.7C620.336 1092.35 632.334 1070.37 685.24 1047.4C716.007 1034.04 747.416 1010.85 791.834 968.702C805.415 955.813 822.408 942.141 832.135 936.277C841.384 930.699 856.538 921.617 865.81 916.095C895.472 898.427 900.312 890.122 926.344 812.206C936.794 780.931 943.402 770.928 965.075 753.586C987.788 735.412 991.67 729.763 1005.76 694.395C1037.7 614.235 1089.62 598.987 1133.54 656.87C1153.85 683.643 1202.08 760.998 1202.67 767.745C1202.82 769.4 1195.1 757.572 1185.53 741.46C1118.88 629.318 1096.33 610.758 1054.41 633.577C1033.94 644.72 1023.54 658.87 1008.02 696.674C993.636 731.73 989.58 737.553 966.583 756.162C941.809 776.208 936.497 785.572 920.691 837.041C903.21 893.964 896.917 902.118 850.429 928.058C826.281 941.533 813.135 951.898 772.88 989.205C741.305 1018.47 724.927 1029.95 687.213 1049.27C628.364 1079.42 623.22 1090.36 625.392 1180.76C626.774 1238.26 615.734 1313.93 601.231 1346.39C596.632 1356.68 596.641 1356.26 601.317 1342.37ZM632.452 1338.17C632.678 1336.61 633.366 1335.12 633.98 1334.85C634.593 1334.58 634.911 1335.64 634.684 1337.2C634.458 1338.75 633.77 1340.25 633.157 1340.51C632.543 1340.78 632.226 1339.72 632.452 1338.17ZM674.232 1321.38C673.966 1320.77 674.25 1320.05 674.863 1319.79C675.478 1319.52 676.198 1319.8 676.463 1320.42C676.73 1321.03 676.445 1321.75 675.831 1322.02C675.218 1322.28 674.498 1322 674.232 1321.38ZM408.217 1433.57C408.681 1432.4 410.02 1431.82 411.193 1432.28C412.367 1432.75 411.988 1433.71 410.35 1434.42C408.715 1435.12 407.755 1434.74 408.217 1433.57ZM498.66 1393.46C494.97 1392.87 494.896 1392.55 498.113 1391.12C500.165 1390.21 503.093 1385.04 504.622 1379.64C506.149 1374.23 507.214 1372.28 506.986 1375.3C506.055 1387.6 503.045 1394.17 498.66 1393.46ZM508.665 1390.04C509.128 1388.87 510.468 1388.29 511.641 1388.75C512.815 1389.22 512.436 1390.18 510.798 1390.89C509.163 1391.59 508.203 1391.21 508.665 1390.04ZM677.727 1317.22C677.461 1316.6 677.746 1315.88 678.36 1315.62C678.974 1315.35 679.694 1315.64 679.961 1316.25C680.227 1316.87 679.943 1317.59 679.328 1317.85C678.714 1318.12 677.994 1317.83 677.727 1317.22ZM431.222 1421.39C430.955 1420.78 431.24 1420.06 431.853 1419.79C432.467 1419.53 433.187 1419.81 433.453 1420.43C433.719 1421.04 433.435 1421.76 432.82 1422.02C432.207 1422.29 431.487 1422.01 431.222 1421.39ZM647.412 1307.74C665.799 1262.32 670.16 1234.16 668.29 1172.95C666.339 1109.07 676.616 1090.54 726.64 1067.72C756.023 1054.32 756.023 1054.32 727.75 1068.61C679.764 1092.88 669.777 1109.43 670.71 1163.13C671.981 1236.23 665.646 1274.68 645.483 1316.23C637.717 1332.24 638.001 1330.99 647.412 1307.74ZM681.857 1311.45C682.084 1309.89 682.772 1308.4 683.385 1308.14C683.999 1307.87 684.315 1308.93 684.089 1310.48C683.863 1312.04 683.175 1313.53 682.56 1313.8C681.948 1314.06 681.629 1313.01 681.857 1311.45ZM394.084 1433.59C393.569 1432.4 394.904 1431.35 397.052 1431.26C399.201 1431.17 401.129 1431.49 401.338 1431.97C401.547 1432.46 400.212 1433.5 398.37 1434.3C396.529 1435.1 394.6 1434.78 394.084 1433.59ZM425.789 1421.09C425.523 1420.48 425.808 1419.76 426.422 1419.49C427.035 1419.23 427.755 1419.51 428.02 1420.13C428.287 1420.74 428.002 1421.46 427.389 1421.73C426.775 1421.99 426.055 1421.71 425.789 1421.09ZM335.535 1457.55C335.268 1456.94 335.553 1456.22 336.166 1455.95C336.78 1455.69 337.5 1455.97 337.766 1456.59C338.033 1457.2 337.748 1457.92 337.134 1458.19C336.521 1458.45 335.801 1458.17 335.535 1457.55ZM412.025 1424.56C412.468 1423.09 410.917 1420.89 408.577 1419.67C405.098 1417.85 405.035 1417.54 408.228 1417.97C410.869 1418.32 412.712 1416.19 413.923 1411.37C414.91 1407.45 416.258 1405.43 416.919 1406.88C417.579 1408.33 417.336 1410.65 416.374 1412.02C415.415 1413.4 415.958 1415.89 417.581 1417.54C419.206 1419.2 419.511 1420.15 418.259 1419.66C417.008 1419.16 414.911 1420.67 413.6 1423C412.289 1425.33 411.579 1426.03 412.025 1424.56ZM686.618 1304.08C686.845 1302.53 687.533 1301.03 688.146 1300.77C688.76 1300.5 689.076 1301.56 688.85 1303.11C688.624 1304.67 687.936 1306.16 687.322 1306.43C686.709 1306.7 686.391 1305.64 686.618 1304.08ZM404.346 1424.64C404.81 1423.47 406.149 1422.88 407.322 1423.35C408.496 1423.81 408.117 1424.77 406.479 1425.48C404.844 1426.19 403.884 1425.81 404.346 1424.64ZM460.151 1400.46C460.615 1399.28 461.954 1398.7 463.128 1399.17C464.3 1399.63 463.92 1400.59 462.285 1401.3C460.647 1402.01 459.688 1401.63 460.151 1400.46ZM431.047 1410.28C421.449 1412.82 421.657 1409.17 431.276 1406.27C435.781 1404.92 439.301 1404.94 439.099 1406.33C438.898 1407.72 438.474 1408.79 438.16 1408.7C437.845 1408.62 434.645 1409.33 431.047 1410.28ZM451.308 1401.59C452.641 1400.25 454.6 1399.49 455.663 1399.91C456.726 1400.33 455.636 1401.43 453.242 1402.36C450.596 1403.38 449.837 1403.08 451.308 1401.59ZM691.38 1296.71C691.606 1295.16 692.294 1293.67 692.906 1293.4C693.521 1293.13 693.837 1294.19 693.612 1295.75C693.385 1297.3 692.697 1298.8 692.083 1299.06C691.47 1299.33 691.152 1298.27 691.38 1296.71ZM749.416 1271.56C749.643 1270.01 750.329 1268.52 750.944 1268.25C751.558 1267.98 751.875 1269.04 751.649 1270.6C751.421 1272.15 750.735 1273.64 750.12 1273.91C749.506 1274.18 749.189 1273.12 749.416 1271.56ZM347.871 1441.16C348.334 1439.98 349.674 1439.4 350.847 1439.87C352.021 1440.33 351.641 1441.29 350.004 1442C348.368 1442.71 347.409 1442.33 347.871 1441.16ZM400.861 1418.64C400.595 1418.02 400.879 1417.3 401.494 1417.03C402.107 1416.77 402.827 1417.05 403.093 1417.67C403.359 1418.28 403.074 1419 402.461 1419.27C401.847 1419.53 401.127 1419.25 400.861 1418.64ZM697.405 1286.15C698.562 1282.73 700.012 1279.71 700.626 1279.45C701.24 1279.18 700.795 1281.76 699.637 1285.18C698.479 1288.6 697.03 1291.61 696.415 1291.88C695.803 1292.14 696.248 1289.56 697.405 1286.15ZM395.428 1418.34C395.163 1417.72 395.447 1417 396.062 1416.74C396.676 1416.47 397.396 1416.76 397.662 1417.37C397.928 1417.98 397.643 1418.7 397.029 1418.97C396.415 1419.24 395.695 1418.95 395.428 1418.34ZM364.848 1428.45C366.179 1427.11 368.138 1426.35 369.203 1426.77C370.266 1427.19 369.175 1428.29 366.781 1429.22C364.133 1430.24 363.375 1429.94 364.848 1428.45ZM406.204 1410.57C406.668 1409.4 408.008 1408.82 409.181 1409.28C410.355 1409.75 409.975 1410.71 408.338 1411.42C406.702 1412.13 405.742 1411.75 406.204 1410.57ZM474.819 1381.28C474.553 1380.67 474.837 1379.95 475.452 1379.68C476.066 1379.41 476.786 1379.7 477.052 1380.31C477.319 1380.93 477.034 1381.65 476.42 1381.91C475.806 1382.18 475.086 1381.89 474.819 1381.28ZM506.07 1367.74C505.804 1367.12 506.088 1366.4 506.703 1366.14C507.316 1365.87 508.036 1366.16 508.302 1366.77C508.568 1367.38 508.284 1368.1 507.671 1368.37C507.057 1368.64 506.337 1368.35 506.07 1367.74ZM571.584 1335.37C571.834 1332.34 572.54 1329.65 573.154 1329.38C573.767 1329.12 574.065 1331.37 573.816 1334.4C573.566 1337.43 572.86 1340.12 572.247 1340.39C571.633 1340.65 571.334 1338.39 571.584 1335.37ZM753.96 1260.64C753.759 1260.17 754.755 1257.65 756.173 1255.04C758.509 1250.72 758.622 1250.77 757.381 1255.51C756.077 1260.5 754.757 1262.47 753.96 1260.64ZM444.903 1391.59C444.37 1390.36 444.254 1387.43 444.646 1385.07C445.038 1382.71 445.795 1381.79 446.327 1383.02C446.859 1384.25 446.974 1387.18 446.582 1389.54C446.19 1391.9 445.435 1392.82 444.903 1391.59ZM414.365 1400.85C413.655 1399.21 414.034 1398.25 415.208 1398.71C416.38 1399.18 416.96 1400.52 416.498 1401.69C416.034 1402.86 415.074 1402.49 414.365 1400.85ZM475.117 1375.85C474.851 1375.23 475.136 1374.51 475.749 1374.25C476.363 1373.98 477.083 1374.27 477.349 1374.88C477.615 1375.49 477.33 1376.21 476.716 1376.48C476.103 1376.75 475.383 1376.46 475.117 1375.85ZM506.603 1359.55C506.43 1356.71 505.396 1344.62 504.302 1332.7C503.211 1320.77 502.911 1312.19 503.637 1313.62C505.611 1317.51 509.064 1355.22 507.914 1360.31C507.106 1363.87 506.854 1363.73 506.603 1359.55ZM371.468 1418.11C371.202 1417.5 371.487 1416.78 372.101 1416.51C372.715 1416.24 373.435 1416.53 373.702 1417.14C373.968 1417.76 373.683 1418.48 373.069 1418.74C372.455 1419.01 371.735 1418.73 371.468 1418.11ZM363.804 1418.78C363.538 1418.17 363.823 1417.45 364.437 1417.18C365.051 1416.91 365.771 1417.2 366.038 1417.81C366.303 1418.43 366.019 1419.15 365.404 1419.41C364.79 1419.68 364.07 1419.39 363.804 1418.78ZM475.765 1370.26C475.226 1369.04 474.616 1363.93 474.408 1358.92C474.199 1353.9 474.714 1351.29 475.549 1353.12C476.386 1354.94 476.998 1360.05 476.907 1364.46C476.818 1368.88 476.302 1371.49 475.765 1370.26ZM291.408 1447.5C291.142 1446.89 291.427 1446.17 292.039 1445.9C292.654 1445.64 293.374 1445.92 293.639 1446.53C293.906 1447.15 293.621 1447.87 293.007 1448.14C292.394 1448.4 291.674 1448.12 291.408 1447.5ZM318.194 1435.89C317.928 1435.28 318.213 1434.56 318.826 1434.3C319.44 1434.03 320.16 1434.31 320.426 1434.93C320.692 1435.54 320.407 1436.26 319.793 1436.53C319.18 1436.79 318.46 1436.51 318.194 1435.89ZM342.151 1425.03C343.484 1423.68 345.443 1422.93 346.506 1423.35C347.569 1423.77 346.48 1424.87 344.085 1425.79C341.439 1426.81 340.681 1426.51 342.151 1425.03ZM349.443 1422.35C349.178 1421.74 349.462 1421.02 350.076 1420.75C350.691 1420.49 351.411 1420.77 351.677 1421.38C351.943 1422 351.658 1422.72 351.044 1422.98C350.43 1423.25 349.71 1422.97 349.443 1422.35ZM414.177 1394.3C413.911 1393.69 414.196 1392.97 414.81 1392.7C415.423 1392.43 416.143 1392.72 416.409 1393.33C416.675 1393.95 416.39 1394.67 415.778 1394.93C415.163 1395.2 414.443 1394.91 414.177 1394.3ZM575.881 1277.15C577.399 1249.86 577.968 1201.84 577.146 1170.43C574.546 1071.02 579.148 1060.95 641.716 1029.16C681.404 1008.99 696.307 997.182 737.265 953.434C780.08 907.701 780.476 907.404 825.449 887.201C880.325 862.548 880.496 862.359 907.825 795.614C929.634 742.355 935.799 733.614 962.951 717.451C987.41 702.891 999.083 689.878 1006.09 669.363C1028.03 605.104 1034.89 594.35 1063.68 579.203C1098.91 560.664 1114.95 566.248 1159.38 612.52C1181 635.037 1256.86 725.03 1257.16 728.524C1257.27 729.718 1238.07 707.681 1214.51 679.554C1126.72 574.772 1109.19 562.656 1069.99 579.646C1039.54 592.84 1028.42 608.755 1010.34 665.011C1001.56 692.353 992.895 702.832 965.901 718.783C937.15 735.774 931.265 744.069 910.32 797.108C884.96 861.335 881.19 865.603 829.896 888.152C785.772 907.548 780.872 911.099 744.098 950.323C696.876 1000.69 686.108 1009.33 643.587 1030.99C581.929 1062.4 577.07 1073.18 579.916 1172.24C581.112 1213.86 577.013 1325.06 574.239 1326.26C573.625 1326.53 574.363 1304.43 575.881 1277.15ZM757.931 1245.33C757.666 1244.72 757.95 1244 758.565 1243.73C759.179 1243.46 759.899 1243.75 760.165 1244.36C760.431 1244.98 760.146 1245.7 759.532 1245.96C758.918 1246.23 758.198 1245.94 757.931 1245.33ZM335.083 1425.92C334.816 1425.31 335.101 1424.59 335.715 1424.32C336.33 1424.06 337.05 1424.34 337.316 1424.96C337.582 1425.57 337.298 1426.29 336.683 1426.56C336.069 1426.82 335.349 1426.54 335.083 1425.92ZM443.976 1377.41C443.267 1375.77 443.646 1374.81 444.82 1375.27C445.991 1375.74 446.572 1377.08 446.11 1378.25C445.646 1379.42 444.686 1379.04 443.976 1377.41ZM708.153 1258.94C709.707 1254.62 711.479 1250.87 712.092 1250.61C712.707 1250.34 711.939 1253.66 710.386 1257.98C708.832 1262.3 707.06 1266.05 706.446 1266.32C705.833 1266.58 706.601 1263.26 708.153 1258.94ZM305.163 1431.93C306.015 1429.75 307.519 1428.28 308.505 1428.67C309.489 1429.06 308.792 1430.85 306.954 1432.64C304.298 1435.23 303.931 1435.08 305.163 1431.93ZM413.022 1385.52C412.312 1383.88 412.692 1382.92 413.865 1383.38C415.039 1383.85 415.619 1385.19 415.156 1386.36C414.691 1387.53 413.731 1387.15 413.022 1385.52ZM759.493 1236.7C759.228 1236.08 759.512 1235.36 760.127 1235.1C760.739 1234.83 761.459 1235.12 761.725 1235.73C761.991 1236.34 761.707 1237.06 761.094 1237.33C760.48 1237.59 759.76 1237.31 759.493 1236.7ZM274.144 1444.37C273.878 1443.76 274.163 1443.04 274.775 1442.77C275.39 1442.51 276.11 1442.79 276.376 1443.41C276.642 1444.02 276.358 1444.74 275.743 1445.01C275.131 1445.27 274.411 1444.99 274.144 1444.37ZM298.697 1433.73C298.431 1433.12 298.715 1432.4 299.33 1432.13C299.944 1431.87 300.664 1432.15 300.93 1432.77C301.197 1433.38 300.912 1434.1 300.298 1434.37C299.683 1434.63 298.964 1434.35 298.697 1433.73ZM443.305 1369.74C442.595 1368.1 442.975 1367.14 444.148 1367.61C445.322 1368.07 445.902 1369.41 445.439 1370.58C444.975 1371.76 444.015 1371.38 443.305 1369.74ZM759.79 1231.26C759.524 1230.65 759.808 1229.93 760.423 1229.66C761.037 1229.4 761.757 1229.68 762.023 1230.3C762.289 1230.91 762.004 1231.63 761.39 1231.89C760.776 1232.16 760.056 1231.88 759.79 1231.26ZM411.964 1376.47C410.944 1373.82 411.243 1373.07 412.726 1374.54C414.071 1375.87 414.826 1377.83 414.406 1378.89C413.985 1379.96 412.886 1378.87 411.964 1376.47ZM442.638 1360.75C441.596 1358.28 440.204 1352.92 439.545 1348.83C438.468 1342.15 438.596 1341.96 440.806 1346.95C442.16 1350.01 443.552 1355.38 443.9 1358.87C444.394 1363.86 444.122 1364.26 442.638 1360.75ZM711.611 1245.51C711.838 1243.95 712.526 1242.46 713.14 1242.2C713.753 1241.93 714.071 1242.99 713.843 1244.54C713.617 1246.1 712.929 1247.59 712.317 1247.86C711.702 1248.12 711.386 1247.07 711.611 1245.51ZM760.088 1225.83C759.821 1225.21 760.106 1224.49 760.719 1224.23C761.333 1223.96 762.053 1224.25 762.319 1224.86C762.586 1225.48 762.301 1226.2 761.687 1226.46C761.074 1226.73 760.354 1226.44 760.088 1225.83ZM472.528 1344.92C471.509 1342.27 471.808 1341.51 473.294 1342.99C474.636 1344.32 475.392 1346.28 474.972 1347.34C474.55 1348.41 473.452 1347.32 472.528 1344.92ZM760.384 1220.4C760.118 1219.78 760.403 1219.06 761.017 1218.8C761.63 1218.53 762.35 1218.82 762.616 1219.43C762.882 1220.04 762.597 1220.76 761.985 1221.03C761.37 1221.3 760.65 1221.01 760.384 1220.4ZM410.099 1365.57C408.769 1362.5 408.73 1361.02 410.014 1362.29C411.299 1363.55 412.388 1366.07 412.434 1367.87C412.479 1369.67 411.429 1368.64 410.099 1365.57ZM713.926 1222.05C714.4 1212.41 715.316 1204.73 715.961 1204.99C717.391 1205.55 715.625 1238.47 714.13 1239.12C713.545 1239.37 713.454 1231.69 713.926 1222.05ZM760.197 1213.85C759.487 1212.21 759.866 1211.25 761.04 1211.71C762.213 1212.18 762.794 1213.52 762.33 1214.69C761.866 1215.86 760.906 1215.48 760.197 1213.85ZM318.375 1402.66C318.601 1401.11 319.289 1399.61 319.903 1399.35C320.516 1399.08 320.834 1400.14 320.607 1401.7C320.38 1403.25 319.692 1404.74 319.08 1405.01C318.465 1405.28 318.149 1404.22 318.375 1402.66ZM471.282 1335.07C470.24 1332.61 468.848 1327.24 468.189 1323.15C467.112 1316.47 467.24 1316.28 469.45 1321.28C470.804 1324.34 472.196 1329.7 472.544 1333.2C473.038 1338.18 472.766 1338.58 471.282 1335.07ZM760.011 1207.3C759.745 1206.68 760.029 1205.96 760.642 1205.7C761.256 1205.43 761.976 1205.72 762.243 1206.33C762.508 1206.94 762.224 1207.66 761.609 1207.93C760.997 1208.2 760.277 1207.91 760.011 1207.3ZM319.937 1394.03C320.163 1392.47 320.851 1390.98 321.463 1390.71C322.078 1390.45 322.394 1391.5 322.169 1393.06C321.942 1394.62 321.254 1396.11 320.64 1396.38C320.027 1396.64 319.709 1395.59 319.937 1394.03ZM406.69 1351.13C404.827 1346.83 404.524 1344.87 406.017 1346.78C407.51 1348.68 409.034 1352.2 409.403 1354.59C409.774 1356.99 408.553 1355.43 406.69 1351.13ZM759.823 1200.75C759.113 1199.11 759.493 1198.15 760.666 1198.61C761.84 1199.08 762.42 1200.42 761.956 1201.59C761.493 1202.76 760.533 1202.38 759.823 1200.75ZM436.004 1333.12C434.142 1328.82 433.84 1326.87 435.332 1328.77C436.824 1330.68 438.348 1334.19 438.719 1336.59C439.089 1338.98 437.867 1337.42 436.004 1333.12ZM320.866 1387C320.6 1386.38 320.885 1385.66 321.497 1385.4C322.112 1385.13 322.832 1385.42 323.097 1386.03C323.364 1386.64 323.079 1387.36 322.465 1387.63C321.852 1387.89 321.132 1387.61 320.866 1387ZM759.636 1194.2C759.369 1193.58 759.654 1192.86 760.268 1192.6C760.883 1192.33 761.603 1192.62 761.869 1193.23C762.135 1193.84 761.851 1194.56 761.236 1194.83C760.622 1195.1 759.902 1194.81 759.636 1194.2ZM320.678 1380.45C319.969 1378.81 320.348 1377.85 321.521 1378.31C322.695 1378.78 323.276 1380.12 322.812 1381.29C322.348 1382.46 321.388 1382.08 320.678 1380.45ZM759.45 1187.65C758.74 1186.01 759.12 1185.05 760.293 1185.51C761.465 1185.98 762.046 1187.32 761.584 1188.49C761.119 1189.66 760.159 1189.28 759.45 1187.65ZM464.024 1303.74C451.877 1263.5 436.789 1125.89 439.041 1075.86C441.775 1015.14 450.579 1002.75 511.655 973.763C570.072 946.033 577.444 939.11 620.01 872.004C668.269 795.924 685.419 783.714 755.606 775.473C821.456 767.741 833.432 758.255 876.166 679.967C905.244 626.692 920.696 612.801 962.33 602.5C990.167 595.615 1004.9 588.057 1013.47 576.272C1016.68 571.852 1020.02 568.515 1020.87 568.854C1029.86 572.407 1002.21 593.073 978.559 600.482C917.184 619.706 908.324 627.353 873.178 691.426C835.161 760.734 821.461 770.763 753.907 778.744C685.477 786.828 671.873 796.807 620.737 876.437C578.194 942.686 573.181 947.362 514.916 975.171C459.81 1001.47 448.687 1013.66 443.169 1053.82C437.665 1093.86 447.044 1207.25 462.675 1289.68C465.364 1303.86 465.972 1310.19 464.024 1303.74ZM320.491 1373.9C320.225 1373.28 320.509 1372.56 321.124 1372.3C321.738 1372.03 322.458 1372.32 322.724 1372.93C322.99 1373.54 322.706 1374.26 322.091 1374.53C321.477 1374.8 320.757 1374.51 320.491 1373.9ZM400.488 1331.27C359.502 1243.83 333.998 1056.84 354.932 997.252C366.683 963.798 372.452 958.893 429.423 933.905C497.254 904.154 505.503 895.753 547.819 813.336C593.491 724.375 618.007 704.849 685.272 703.86C785.657 702.385 796.412 696.455 848.782 613.716C890.967 547.068 911.845 531.42 966.436 525.542C990.294 522.972 1018.63 511.321 1025.16 501.392C1027.61 497.659 1030.44 494.928 1031.44 495.323C1032.43 495.719 1029.34 500.284 1024.55 505.468C1013.57 517.365 992.04 525.564 964.271 528.421C914.905 533.499 892.291 551.003 851.014 616.087C799.315 697.602 784.603 706.245 696.835 706.663C615.384 707.052 598.837 720.835 537.346 839.521C507.84 896.469 490.936 911.642 427.243 938.351C377.293 959.295 369.335 965.893 357.981 995.771C338.345 1047.45 354.298 1188.03 393.106 1305.3C399.439 1324.43 402.76 1336.12 400.488 1331.27ZM431.774 1318.06C417.056 1287.06 396.022 1167.14 393.256 1098.45C389.463 1004.2 400.144 984.442 472.033 952.695C533.107 925.723 541.445 917.497 584.365 841.843C618.319 781.996 635.051 763.083 665.364 750.286C682.616 743.003 689.729 741.941 746.909 738.12C795.482 734.873 816.269 721.117 846.867 671.97C885.603 609.75 890.898 602.109 903.154 590.73C918.73 576.268 933.531 569.569 961.31 564.414C989.096 559.257 1009.38 550.468 1018.23 539.747C1026.7 529.49 1028.48 528.697 1024.27 537.046C1016.3 552.874 1000.83 559.858 952.827 569.31C912.749 577.199 899.244 590.634 853.711 667.92C820.703 723.944 796.137 739.349 735.342 742.152C652.254 745.982 636.056 757.445 583.197 849.821C544.096 918.15 529.503 932.087 470.786 957.184C422.557 977.797 416.221 983.073 404.953 1011.99C386.95 1058.2 396.555 1182.66 426.77 1294.69C431.172 1311.01 433.425 1321.53 431.774 1318.06ZM714.687 1200.42C714.155 1199.19 714.04 1196.25 714.432 1193.9C714.824 1191.54 715.579 1190.61 716.111 1191.84C716.644 1193.07 716.76 1196 716.368 1198.36C715.976 1200.72 715.219 1201.64 714.687 1200.42ZM759.262 1181.1C758.996 1180.49 759.281 1179.76 759.895 1179.5C760.508 1179.23 761.228 1179.52 761.494 1180.13C761.76 1180.75 761.476 1181.47 760.863 1181.73C760.248 1182 759.528 1181.71 759.262 1181.1ZM320.305 1367.35C319.595 1365.71 319.974 1364.75 321.148 1365.21C322.32 1365.68 322.9 1367.02 322.438 1368.19C321.974 1369.36 321.015 1368.98 320.305 1367.35ZM759.559 1175.67C759.293 1175.05 759.577 1174.33 760.192 1174.07C760.806 1173.8 761.526 1174.08 761.792 1174.7C762.058 1175.31 761.773 1176.03 761.159 1176.3C760.545 1176.56 759.825 1176.28 759.559 1175.67ZM319.633 1359.68C318.924 1358.04 319.303 1357.08 320.477 1357.55C321.65 1358.01 322.231 1359.35 321.767 1360.52C321.303 1361.7 320.343 1361.32 319.633 1359.68ZM759.857 1170.23C759.59 1169.62 759.875 1168.9 760.488 1168.63C761.102 1168.37 761.822 1168.65 762.088 1169.26C762.355 1169.88 762.07 1170.6 761.456 1170.87C760.843 1171.13 760.123 1170.85 759.857 1170.23ZM251.85 1383.75C253.007 1380.33 254.456 1377.32 255.071 1377.05C255.683 1376.79 255.239 1379.37 254.082 1382.78C252.924 1386.2 251.475 1389.22 250.86 1389.48C250.246 1389.75 250.691 1387.17 251.85 1383.75ZM714.314 1187.32C713.781 1186.09 713.665 1183.15 714.057 1180.8C714.449 1178.44 715.206 1177.51 715.738 1178.74C716.27 1179.97 716.385 1182.9 715.993 1185.26C715.601 1187.62 714.846 1188.54 714.314 1187.32ZM761.539 1156.91C762.948 1147.22 773.432 1125.89 777.686 1124.05C779.059 1123.45 776.875 1127.84 772.834 1133.79C768.795 1139.74 764.816 1149.22 763.997 1154.86C763.176 1160.49 761.986 1165.33 761.352 1165.61C760.717 1165.88 760.802 1161.97 761.539 1156.91ZM317.995 1349.78C317.285 1348.14 317.664 1347.18 318.838 1347.65C320.011 1348.11 320.592 1349.45 320.128 1350.63C319.664 1351.8 318.704 1351.42 317.995 1349.78ZM714.132 1174.71C712.561 1171.36 715.008 1144.45 717.872 1133.6C721.11 1121.32 735.799 1102.27 744.68 1098.83C749.179 1097.09 748.778 1097.85 742.897 1102.23C726.234 1114.65 718.872 1130.36 716.457 1158.67C715.623 1168.44 714.577 1175.66 714.132 1174.71ZM255.94 1368.72C256.166 1367.16 256.854 1365.67 257.468 1365.4C258.081 1365.14 258.399 1366.19 258.171 1367.75C257.945 1369.31 257.257 1370.8 256.644 1371.06C256.03 1371.33 255.713 1370.27 255.94 1368.72ZM315.741 1337.5C314.411 1334.43 314.374 1332.95 315.659 1334.22C316.943 1335.48 318.031 1338 318.077 1339.8C318.124 1341.6 317.072 1340.57 315.741 1337.5ZM257.932 1350.67C258.222 1344.02 259.005 1338.78 259.676 1339.05C261.124 1339.62 259.964 1361.67 258.452 1362.32C257.88 1362.57 257.646 1357.33 257.932 1350.67ZM861.49 1093.88C862.821 1092.53 864.781 1091.78 865.844 1092.2C866.907 1092.62 865.818 1093.72 863.422 1094.64C860.776 1095.66 860.017 1095.36 861.49 1093.88ZM891.103 1081.53C890.837 1080.91 891.122 1080.19 891.736 1079.93C892.349 1079.66 893.069 1079.95 893.335 1080.56C893.601 1081.18 893.317 1081.9 892.704 1082.16C892.09 1082.43 891.37 1082.14 891.103 1081.53ZM312.734 1324.21C311.183 1320.51 311.147 1319.05 312.655 1320.98C314.162 1322.91 315.432 1325.94 315.476 1327.72C315.518 1329.49 314.286 1327.92 312.734 1324.21ZM846.075 1097.95C846.539 1096.77 847.878 1096.19 849.052 1096.66C850.224 1097.12 849.844 1098.08 848.209 1098.79C846.571 1099.5 845.611 1099.12 846.075 1097.95ZM901.298 1074.46C901.031 1073.84 901.316 1073.12 901.928 1072.86C902.543 1072.59 903.263 1072.88 903.529 1073.49C903.795 1074.1 903.51 1074.82 902.896 1075.09C902.283 1075.36 901.563 1075.07 901.298 1074.46ZM832.769 1101.02C834.1 1099.67 836.059 1098.92 837.122 1099.34C838.185 1099.76 837.097 1100.86 834.701 1101.78C832.055 1102.8 831.296 1102.5 832.769 1101.02ZM907.026 1069.32C906.76 1068.71 907.045 1067.99 907.657 1067.72C908.272 1067.46 908.992 1067.74 909.258 1068.36C909.524 1068.97 909.239 1069.69 908.625 1069.96C908.012 1070.22 907.292 1069.94 907.026 1069.32ZM782.692 1120.07C784.025 1118.72 785.984 1117.97 787.047 1118.39C788.11 1118.81 787.02 1119.91 784.626 1120.83C781.979 1121.85 781.221 1121.55 782.692 1120.07ZM818.408 1104.59C819.739 1103.25 821.698 1102.49 822.762 1102.91C823.825 1103.33 822.736 1104.43 820.34 1105.35C817.693 1106.37 816.935 1106.07 818.408 1104.59ZM796.127 1111.57C798.053 1110.06 801.083 1108.79 802.86 1108.75C804.637 1108.7 803.059 1109.94 799.356 1111.49C795.654 1113.04 794.201 1113.07 796.127 1111.57ZM916.251 1060.02C915.985 1059.41 916.269 1058.69 916.883 1058.42C917.498 1058.15 918.218 1058.44 918.484 1059.05C918.75 1059.67 918.465 1060.39 917.851 1060.65C917.236 1060.92 916.516 1060.63 916.251 1060.02ZM919.748 1055.85C919.482 1055.24 919.766 1054.52 920.381 1054.25C920.994 1053.99 921.714 1054.27 921.979 1054.89C922.246 1055.5 921.961 1056.22 921.348 1056.49C920.734 1056.75 920.014 1056.47 919.748 1055.85ZM923.245 1051.69C922.979 1051.07 923.263 1050.35 923.876 1050.09C924.49 1049.82 925.21 1050.1 925.477 1050.72C925.743 1051.33 925.459 1052.05 924.844 1052.32C924.231 1052.58 923.511 1052.3 923.245 1051.69ZM307.881 1306.42C305.486 1300.9 304.942 1298.45 306.672 1300.98C308.401 1303.51 310.361 1308.04 311.026 1311.03C311.691 1314.02 310.276 1311.95 307.881 1306.42ZM926.741 1047.52C926.475 1046.9 926.759 1046.18 927.374 1045.92C927.988 1045.65 928.708 1045.94 928.974 1046.55C929.24 1047.16 928.955 1047.88 928.341 1048.15C927.726 1048.42 927.007 1048.13 926.741 1047.52ZM182.458 1367.41C182.193 1366.79 182.477 1366.07 183.092 1365.81C183.706 1365.54 184.426 1365.83 184.692 1366.44C184.958 1367.05 184.673 1367.77 184.059 1368.04C183.445 1368.31 182.725 1368.02 182.458 1367.41ZM258.703 1334.37C258.165 1333.14 257.554 1328.04 257.347 1323.02C257.139 1318 257.653 1315.4 258.489 1317.22C259.326 1319.05 259.936 1324.15 259.847 1328.57C259.756 1332.98 259.243 1335.59 258.703 1334.37ZM931.502 1040.15C931.236 1039.54 931.52 1038.82 932.134 1038.55C932.749 1038.28 933.469 1038.57 933.735 1039.18C934.002 1039.8 933.717 1040.52 933.103 1040.78C932.488 1041.05 931.768 1040.76 931.502 1040.15ZM936.896 1031.18C937.122 1029.62 937.81 1028.13 938.424 1027.87C939.037 1027.6 939.355 1028.66 939.128 1030.22C938.901 1031.77 938.213 1033.26 937.601 1033.53C936.986 1033.8 936.67 1032.74 936.896 1031.18ZM191.43 1345.28C191.229 1344.82 192.224 1342.3 193.642 1339.68C195.979 1335.37 196.092 1335.41 194.849 1340.16C193.547 1345.14 192.226 1347.12 191.43 1345.28ZM945.451 1014.21C945.677 1012.66 946.365 1011.17 946.979 1010.9C947.592 1010.63 947.91 1011.69 947.682 1013.25C947.456 1014.8 946.768 1016.29 946.155 1016.56C945.541 1016.83 945.224 1015.77 945.451 1014.21ZM256.236 1310.24C253.835 1304.39 253.22 1293.34 255.588 1298.59C256.687 1301.03 257.595 1305.41 257.605 1308.32C257.616 1311.57 257.085 1312.31 256.236 1310.24ZM806.963 1072.28C812.009 1069.54 820.047 1066.06 824.828 1064.56C829.606 1063.06 825.477 1065.31 815.653 1069.55C805.828 1073.8 801.918 1075.03 806.963 1072.28ZM759.062 1090.39C764.076 1087.66 772.614 1083.96 778.035 1082.17C783.457 1080.38 779.355 1082.61 768.919 1087.14C758.484 1091.66 754.048 1093.12 759.062 1090.39ZM841.72 1054.76C842.987 1053.47 845.498 1052.39 847.3 1052.34C849.103 1052.29 848.068 1053.34 844.999 1054.67C841.928 1056 840.453 1056.04 841.72 1054.76ZM194.768 1331.57C194.996 1330.02 195.683 1328.53 196.297 1328.26C196.911 1327.99 197.228 1329.05 197.002 1330.61C196.774 1332.16 196.087 1333.65 195.473 1333.92C194.859 1334.19 194.542 1333.13 194.768 1331.57ZM854.264 1046.61C855.597 1045.27 857.557 1044.52 858.62 1044.94C859.683 1045.36 858.592 1046.46 856.198 1047.38C853.552 1048.4 852.794 1048.1 854.264 1046.61ZM862.226 1040.51C863.557 1039.17 865.517 1038.41 866.58 1038.83C867.643 1039.25 866.555 1040.35 864.159 1041.28C861.513 1042.3 860.754 1042 862.226 1040.51ZM869.133 1034.91C869.597 1033.74 870.936 1033.16 872.11 1033.62C873.283 1034.08 872.904 1035.04 871.267 1035.75C869.63 1036.46 868.67 1036.08 869.133 1034.91ZM949.028 1001.05C948.827 1000.59 949.823 998.068 951.24 995.453C953.577 991.14 953.69 991.185 952.447 995.93C951.145 1000.91 949.825 1002.89 949.028 1001.05ZM196.763 1313.53C197.051 1306.87 197.834 1301.64 198.506 1301.91C199.953 1302.48 198.793 1324.52 197.281 1325.18C196.708 1325.43 196.474 1320.18 196.763 1313.53ZM876.028 1028.39C877.353 1026.4 879.442 1024.33 880.669 1023.8C881.898 1023.27 881.818 1024.46 880.493 1026.45C879.167 1028.44 877.078 1030.5 875.849 1031.03C874.622 1031.56 874.702 1030.37 876.028 1028.39ZM884.088 1020.47C884.552 1019.3 885.891 1018.72 887.065 1019.18C888.237 1019.65 887.857 1020.61 886.222 1021.32C884.584 1022.03 883.625 1021.65 884.088 1020.47ZM1122.35 917.662C1122.08 917.047 1122.37 916.327 1122.98 916.061C1123.59 915.795 1124.31 916.08 1124.58 916.694C1124.85 917.309 1124.56 918.029 1123.95 918.295C1123.33 918.561 1122.61 918.276 1122.35 917.662ZM253.187 1291.52C251.416 1288.15 232.41 1214.86 225.615 1185.2C186.924 1016.31 219.502 900.449 313.809 871.551C410.178 842.022 429.806 824.475 467.993 733.718C516.301 618.901 542.285 598.904 647.403 595.656C738.881 592.827 742.411 591.136 854.853 496.188C900.219 457.881 911.208 451.549 955.969 437.932C1009.49 421.648 1024.19 411.05 1039.35 377.82C1043.78 368.102 1046.24 364.509 1045.5 368.833C1039.83 401.962 1011.68 424.56 955.571 441.043C915.166 452.91 890.983 466.721 859.899 495.678C773.486 576.178 734.19 595.857 654.833 598.37C543.188 601.906 520.26 618.361 473.546 728.475C433.075 823.872 410.596 846.034 330.678 869.333C260.779 889.712 234.122 919.537 220.088 993.063C207.061 1061.31 211.865 1120.03 239.471 1229.98C253.497 1285.84 255.924 1296.74 253.187 1291.52ZM889.817 1015.34C890.281 1014.16 891.62 1013.58 892.793 1014.05C893.965 1014.51 893.586 1015.47 891.95 1016.18C890.313 1016.89 889.353 1016.51 889.817 1015.34ZM952.516 984.63C952.765 981.604 953.471 978.911 954.086 978.644C954.699 978.379 954.997 980.637 954.747 983.663C954.497 986.688 953.791 989.381 953.178 989.646C952.564 989.912 952.265 987.655 952.516 984.63ZM896.712 1008.81C898.037 1006.82 900.126 1004.76 901.353 1004.23C902.581 1003.7 902.501 1004.89 901.175 1006.88C899.849 1008.87 897.76 1010.93 896.533 1011.46C895.306 1011.99 895.386 1010.8 896.712 1008.81ZM914.597 989.028C930.312 969.093 937.118 949.966 941.733 912.757C947.762 864.156 951.675 850.364 966.288 826.224C973.439 814.41 983.754 795.771 989.209 784.806C1019.24 724.436 1081.77 706.034 1100.67 752.008C1103.85 759.737 1102.18 758.322 1094.94 747.141C1073.71 714.368 1023.22 729.019 998.208 775.209C992.568 785.624 981.318 805.345 973.207 819.032C954.898 849.936 950.95 862.138 945.069 905.986C938.762 953.017 921.073 996.028 905.454 1002.31C904.385 1002.74 908.5 996.764 914.597 989.028ZM1194.37 875.841C1194.1 875.227 1194.39 874.507 1195 874.24C1195.62 873.974 1196.34 874.259 1196.6 874.873C1196.87 875.486 1196.59 876.206 1195.97 876.473C1195.36 876.739 1194.64 876.454 1194.37 875.841ZM119.727 1338.9C119.461 1338.28 119.746 1337.56 120.36 1337.3C120.973 1337.03 121.693 1337.32 121.958 1337.93C122.225 1338.54 121.94 1339.26 121.327 1339.53C120.713 1339.8 119.993 1339.51 119.727 1338.9ZM1119.74 905.529C1119.48 904.916 1119.76 904.196 1120.37 903.93C1120.99 903.664 1121.71 903.949 1121.97 904.561C1122.24 905.176 1121.96 905.896 1121.34 906.162C1120.73 906.429 1120.01 906.144 1119.74 905.529ZM953.594 974.879C953.327 974.265 953.612 973.545 954.225 973.279C954.839 973.013 955.559 973.298 955.825 973.912C956.092 974.527 955.807 975.247 955.193 975.513C954.58 975.779 953.86 975.494 953.594 974.879ZM128.282 1321.93C129.834 1317.61 131.608 1313.86 132.221 1313.59C132.835 1313.32 132.067 1316.64 130.514 1320.96C128.961 1325.28 127.189 1329.03 126.574 1329.3C125.96 1329.56 126.729 1326.25 128.282 1321.93ZM197.035 1295.1C196.352 1279.1 191.543 1249.55 183.085 1209.36C154.201 1072.12 154.048 1010.86 182.416 940.085C205.529 882.419 229.689 862.747 303.281 841.667C390.914 816.568 409.193 798.526 451.843 695.029C496.65 586.299 525.865 565.178 639.652 559.25C701.703 556.016 763.297 537.561 777.119 518.061C777.666 517.287 793.078 508.392 811.364 498.295C831.282 487.298 854.113 472.62 868.308 461.688C899.182 437.909 921.579 425.226 955.242 412.459C1010.24 391.601 1024.93 377.108 1049.84 319.101C1072.24 266.954 1099.48 235.823 1135.35 221.378C1140.87 219.153 1137.8 221.781 1126.68 228.799C1086.92 253.887 1074.08 269.688 1051.61 321.175C1024.46 383.372 1024.04 383.775 950.811 417.821C898.388 442.194 895.867 443.631 867.879 465.061C850.58 478.307 829.096 492.477 814.265 500.419C800.655 507.708 776.496 521.493 760.58 531.051C722.835 553.713 706.085 558.002 639.471 562.055C524.568 569.044 500.849 586.215 455.081 695.543C411.452 799.761 389.797 821.406 306.688 843.876C173.728 879.822 139.25 977.058 182.667 1193.64C194.879 1254.56 201.276 1296.93 198.446 1298.15C197.755 1298.45 197.119 1297.08 197.035 1295.1ZM953.89 969.446C953.624 968.833 953.909 968.113 954.523 967.847C955.136 967.581 955.856 967.866 956.121 968.479C956.388 969.093 956.103 969.813 955.49 970.079C954.876 970.345 954.156 970.061 953.89 969.446ZM1147.22 882.793C1146.2 880.146 1146.5 879.388 1147.98 880.859C1149.32 882.192 1150.08 884.152 1149.66 885.215C1149.24 886.279 1148.14 885.188 1147.22 882.793ZM1248.54 841.757C1248.27 841.145 1248.56 840.425 1249.17 840.158C1249.78 839.893 1250.5 840.177 1250.77 840.79C1251.03 841.405 1250.75 842.125 1250.14 842.391C1249.52 842.657 1248.8 842.372 1248.54 841.757ZM756.807 1052.56C757.124 1051.89 765.178 1047.3 774.707 1042.37C787.148 1035.93 789.748 1035.03 783.933 1039.19C775.885 1044.94 755.705 1054.89 756.807 1052.56ZM954.186 964.014C953.92 963.4 954.205 962.679 954.819 962.413C955.433 962.147 956.153 962.432 956.42 963.046C956.685 963.659 956.401 964.379 955.786 964.646C955.172 964.912 954.452 964.627 954.186 964.014ZM1116.65 892.281C1115.94 890.643 1116.32 889.683 1117.5 890.147C1118.67 890.612 1119.25 891.952 1118.79 893.125C1118.32 894.299 1117.36 893.919 1116.65 892.281ZM794.019 1030.34C795.286 1029.06 797.797 1027.97 799.601 1027.92C801.403 1027.88 800.366 1028.93 797.297 1030.26C794.229 1031.59 792.754 1031.63 794.019 1030.34ZM806.677 1021.31C813.249 1015.55 819.117 1013.01 814.488 1017.92C812.491 1020.04 808.834 1022.62 806.363 1023.64C802.751 1025.15 802.812 1024.69 806.677 1021.31ZM954.67 958.499C954.138 957.272 954.104 951.916 954.593 946.598C955.084 941.279 955.919 937.933 956.451 939.162C956.983 940.39 957.019 945.745 956.529 951.064C956.039 956.381 955.202 959.727 954.67 958.499ZM1308.43 802.541C1308.17 801.926 1308.45 801.206 1309.06 800.941C1309.68 800.675 1310.4 800.959 1310.66 801.574C1310.93 802.187 1310.65 802.907 1310.03 803.173C1309.42 803.439 1308.7 803.154 1308.43 802.541ZM833.952 998.594C842.814 990.439 860.689 975.563 873.677 965.535C911.179 936.574 919.602 922.656 930.57 871.515C940.882 823.435 944.56 815.05 966.704 789.118C982.63 770.469 988.673 760.928 998.334 739.172C1035.75 654.922 1092.36 651.511 1130.28 731.22C1142.83 757.607 1142.83 757.607 1130.12 733.939C1106.28 689.544 1096.07 679.318 1074.06 677.811C1044.94 675.818 1019.66 697.641 999.603 742.085C990.124 763.089 983.292 774.029 969.863 789.707C948.692 814.423 944.855 823.062 932.971 872.82C919.825 927.852 913.94 937.431 874.64 967.756C861.65 977.779 844.669 991.76 836.902 998.827C829.137 1005.89 821.671 1012.07 820.312 1012.55C818.952 1013.03 825.09 1006.75 833.952 998.594ZM1240.02 828.212C1239.31 826.574 1239.69 825.614 1240.86 826.078C1242.03 826.543 1242.61 827.883 1242.15 829.054C1241.69 830.228 1240.72 829.848 1240.02 828.212ZM134.599 1300.04C135.505 1294.95 136.66 1280.72 137.165 1268.42C137.671 1256.13 138.491 1248.88 138.988 1252.31C140.412 1262.15 138.185 1293.1 135.444 1301.58C132.952 1309.29 132.952 1309.29 134.599 1300.04ZM1113.66 878.77C1112.64 876.123 1112.94 875.364 1114.42 876.837C1115.76 878.169 1116.52 880.129 1116.1 881.192C1115.68 882.256 1114.58 881.167 1113.66 878.77ZM1142.05 864.036C1140.5 860.332 1140.46 858.879 1141.97 860.806C1143.47 862.733 1144.74 865.763 1144.79 867.54C1144.83 869.317 1143.6 867.74 1142.05 864.036ZM1368.03 768.757C1367.76 768.143 1368.05 767.422 1368.66 767.156C1369.28 766.891 1370 767.175 1370.26 767.79C1370.53 768.403 1370.24 769.123 1369.63 769.389C1369.02 769.655 1368.3 769.37 1368.03 768.757ZM1232.56 816.635C1231.54 813.988 1231.84 813.229 1233.32 814.703C1234.66 816.034 1235.42 817.994 1235 819.058C1234.58 820.121 1233.48 819.031 1232.56 816.635ZM1299.91 788.994C1299.2 787.357 1299.58 786.397 1300.75 786.861C1301.93 787.325 1302.51 788.665 1302.04 789.838C1301.58 791.012 1300.62 790.632 1299.91 788.994ZM1110.42 864.48C1108.87 860.776 1108.84 859.322 1110.34 861.249C1111.85 863.177 1113.12 866.208 1113.16 867.983C1113.21 869.76 1111.97 868.184 1110.42 864.48ZM954.998 935.092C952.813 930.588 957.128 889.175 961.342 874.212C984.365 792.455 1054.22 748.983 1084.81 797.383C1088.89 803.844 1088.57 803.725 1081.94 796.309C1039.09 748.376 963.913 818.376 957.501 912.184C956.575 925.714 955.449 936.022 954.998 935.092ZM1135.7 842.917C1133.6 837.994 1133.3 836.049 1135.03 838.594C1136.77 841.141 1138.49 845.17 1138.86 847.547C1139.22 849.924 1137.8 847.841 1135.7 842.917ZM1292.45 777.417C1291.43 774.77 1291.73 774.012 1293.22 775.484C1294.56 776.816 1295.31 778.776 1294.89 779.839C1294.47 780.903 1293.37 779.814 1292.45 777.417ZM1224.29 803.199C1222.96 800.127 1222.92 798.652 1224.21 799.919C1225.49 801.187 1226.58 803.699 1226.63 805.501C1226.67 807.305 1225.62 806.268 1224.29 803.199ZM61.1236 1304.62C61.35 1303.06 62.0379 1301.57 62.6523 1301.3C63.2651 1301.04 63.5833 1302.09 63.3552 1303.65C63.1295 1305.21 62.4417 1306.7 61.8289 1306.96C61.2145 1307.23 60.8979 1306.17 61.1236 1304.62ZM1105.04 845.594C1102.94 840.671 1102.64 838.726 1104.38 841.271C1106.11 843.818 1107.83 847.847 1108.2 850.222C1108.57 852.599 1107.15 850.516 1105.04 845.594ZM1354.05 741.66C1352.72 738.59 1352.69 737.114 1353.97 738.38C1355.26 739.647 1356.34 742.159 1356.39 743.963C1356.44 745.766 1355.38 744.73 1354.05 741.66ZM1412.09 716.509C1410.76 713.439 1410.72 711.964 1412.01 713.23C1413.29 714.497 1414.38 717.009 1414.43 718.813C1414.47 720.616 1413.42 719.579 1412.09 716.509ZM1285.38 767.221C1284.36 764.574 1284.66 763.815 1286.14 765.287C1287.49 766.62 1288.24 768.581 1287.82 769.644C1287.4 770.707 1286.3 769.616 1285.38 767.221ZM1216.25 790.769C1214.92 787.698 1214.89 786.222 1216.17 787.489C1217.45 788.756 1218.54 791.268 1218.59 793.071C1218.64 794.875 1217.58 793.839 1216.25 790.769ZM1126.91 816.225C1123.98 809.471 1123.2 806.527 1125.18 809.681C1127.15 812.837 1129.55 818.364 1130.5 821.964C1131.45 825.561 1129.84 822.979 1126.91 816.225ZM1279.28 759.255C1278.26 756.608 1278.56 755.85 1280.04 757.323C1281.38 758.655 1282.14 760.615 1281.72 761.678C1281.3 762.742 1280.2 761.652 1279.28 759.255ZM1156.03 785.042C1149.91 770.918 1147.76 764.983 1151.27 771.853C1154.77 778.724 1159.78 790.279 1162.39 797.531C1165.01 804.786 1162.15 799.165 1156.03 785.042ZM74.343 1268.05C79.2306 1243.47 79.1918 1205.04 74.2401 1163.67C71.6666 1142.17 67.7275 1109.27 65.4881 1090.55C52.7343 984.004 66.0574 918.62 111.587 864.31C144.399 825.167 174.059 810.275 257.485 791.054C341.681 771.656 373.077 741.094 407.8 644.735C451.022 524.787 486.189 498.432 621.116 484.872C678.749 479.08 691.798 476.096 738.858 457.956C769.507 446.144 775.754 444.545 800.916 442.083C833.171 438.928 838.758 436.481 882.452 406.394C896.588 396.66 923.718 378.993 942.741 367.133C1001.93 330.23 1009.03 323.487 1041.3 273.538C1077.72 217.158 1124.85 181.06 1174.25 171.703C1181.43 170.342 1173.92 174.264 1146.14 186.374C1091.72 210.098 1078.98 220.816 1048.25 268.714C1014.09 321.966 1002.91 332.907 947.275 367.571C927.605 379.827 899.917 397.859 885.748 407.643C842.065 437.811 832.183 442.147 800.819 444.92C776.068 447.106 771.128 448.402 736.559 461.769C691.797 479.081 676.086 482.601 619.325 488.033C486.706 500.727 461.359 520.057 409.07 648.377C363.97 759.055 345.093 774.989 228.546 800.754C97.9868 829.618 47.5417 925.654 69.5945 1103.35C82.2083 1204.99 83.4962 1245.83 74.9153 1272.12C71.6191 1282.22 71.5806 1281.95 74.343 1268.05ZM1097.22 821.134C1094.29 814.38 1093.51 811.436 1095.49 814.591C1097.46 817.747 1099.86 823.273 1100.81 826.873C1101.76 830.47 1100.15 827.888 1097.22 821.134ZM1343.11 722.531C1341.78 719.461 1341.74 717.986 1343.03 719.252C1344.31 720.519 1345.4 723.031 1345.45 724.835C1345.49 726.638 1344.44 725.601 1343.11 722.531ZM1207.81 777.186C1206.26 773.482 1206.23 772.028 1207.73 773.956C1209.24 775.883 1210.51 778.913 1210.56 780.691C1210.6 782.466 1209.37 780.89 1207.81 777.186ZM1273.17 751.292C1272.15 748.645 1272.45 747.886 1273.94 749.359C1275.28 750.691 1276.04 752.651 1275.62 753.714C1275.2 754.778 1274.1 753.689 1273.17 751.292ZM136.75 1240.68C136.664 1238.16 131.556 1204.27 125.4 1165.37C103.251 1025.4 107.045 969.968 143.12 906.485C171.383 856.749 199.444 838.034 276.967 817.215C369.775 792.288 387.573 774.848 432.232 665.069C477.815 553.014 508.225 530.671 626.075 522.654C689.856 518.313 691.117 518.011 749.983 492.805C778.89 480.428 810.989 467.649 821.314 464.408C837.439 459.345 843.664 456.001 865.404 440.72C906.16 412.07 913.229 407.725 949.446 389.09C1007.35 359.294 1019.15 347.925 1047.54 294.613C1070.74 251.047 1093.42 225.537 1117.67 215.755C1122.76 213.698 1119.68 216.477 1109.17 223.418C1086.32 238.504 1067.84 261.168 1049.48 296.645C1023.22 347.381 1008.57 361.613 953.112 390.254C914.677 410.103 912.685 411.315 873.622 438.549C845.815 457.937 841.106 460.492 821.027 467.075C808.896 471.051 780.172 482.836 757.196 493.264C704.492 517.182 694.81 519.558 625.034 525.685C502.319 536.457 479.626 554.238 428.066 680.006C389.016 775.255 360.39 801.71 275.688 820.825C135.463 852.471 93.3187 947.434 126.743 1156.43C136.638 1218.31 139.955 1243.93 138.169 1244.71C137.476 1245.01 136.838 1243.19 136.75 1240.68ZM1267.07 743.328C1266.05 740.681 1266.35 739.922 1267.84 741.394C1269.18 742.727 1269.93 744.688 1269.51 745.751C1269.09 746.814 1268 745.723 1267.07 743.328ZM1334.11 707.868C1332.78 704.797 1332.74 703.322 1334.02 704.589C1335.31 705.856 1336.4 708.368 1336.44 710.171C1336.49 711.975 1335.44 710.938 1334.11 707.868ZM1114.74 781.717C1110.21 771.278 1108.75 766.841 1111.48 771.855C1114.21 776.872 1117.91 785.413 1119.71 790.836C1121.5 796.258 1119.26 792.155 1114.74 781.717ZM1260.97 735.362C1259.95 732.715 1260.25 731.957 1261.73 733.43C1263.08 734.762 1263.83 736.722 1263.41 737.785C1262.99 738.849 1261.89 737.759 1260.97 735.362ZM1385.65 660.337C1380.33 648.054 1378.65 643.152 1381.91 649.444C1385.18 655.737 1389.53 665.787 1391.58 671.778C1393.63 677.768 1390.96 672.62 1385.65 660.337ZM1327.04 697.671C1325.71 694.601 1325.67 693.125 1326.95 694.391C1328.24 695.658 1329.33 698.17 1329.37 699.974C1329.42 701.777 1328.37 700.741 1327.04 697.671ZM8.66395 1260.04C8.46365 1259.58 9.45947 1257.06 10.8782 1254.44C13.2141 1250.13 13.3286 1250.18 12.0861 1254.92C10.7816 1259.9 9.46083 1261.88 8.66395 1260.04ZM1320.19 688.48C1319.17 685.833 1319.47 685.074 1320.96 686.546C1322.3 687.88 1323.06 689.84 1322.64 690.903C1322.22 691.966 1321.12 690.875 1320.19 688.48ZM12.756 1245.01C12.555 1244.55 13.5508 1242.02 14.9679 1239.41C17.3054 1235.1 17.4182 1235.14 16.1757 1239.89C14.8729 1244.87 13.5521 1246.85 12.756 1245.01ZM17.0207 1227.25C17.7338 1223.11 18.7394 1219.55 19.2567 1219.32C20.8705 1218.62 19.4036 1229.48 17.5173 1232.19C16.5294 1233.61 16.3052 1231.38 17.0207 1227.25ZM19.5147 1208.6C19.8232 1204.09 20.5761 1200.19 21.1905 1199.92C21.8049 1199.65 22.0548 1203.12 21.7463 1207.63C21.4394 1212.14 20.685 1216.05 20.0705 1216.32C19.4578 1216.58 19.2062 1213.11 19.5147 1208.6ZM20.7401 1196.14C20.4738 1195.52 20.7583 1194.8 21.3727 1194.53C21.9871 1194.27 22.7071 1194.55 22.9734 1195.17C23.2398 1195.78 22.9553 1196.5 22.3409 1196.77C21.7265 1197.04 21.0065 1196.75 20.7401 1196.14ZM21.2237 1190.62C20.6917 1189.39 20.6575 1184.04 21.1467 1178.72C21.6382 1173.4 22.4732 1170.06 23.0052 1171.28C23.5372 1172.51 23.5731 1177.87 23.0822 1183.19C22.593 1188.5 21.7564 1191.85 21.2237 1190.62ZM-46.7765 1217.76C-46.9775 1217.3 -45.9817 1214.78 -44.5639 1212.16C-42.2271 1207.85 -42.1143 1207.89 -43.3568 1212.64C-44.6596 1217.62 -45.9796 1219.6 -46.7765 1217.76ZM-42.1718 1200.86C-41.9462 1199.3 -41.2583 1197.81 -40.6455 1197.54C-40.0311 1197.27 -39.7146 1198.33 -39.9402 1199.89C-40.1667 1201.44 -40.8546 1202.94 -41.469 1203.2C-42.0817 1203.47 -42.3999 1202.41 -42.1718 1200.86ZM-40.6116 1192.22C-40.3842 1190.66 -39.698 1189.17 -39.0836 1188.91C-38.4692 1188.64 -38.1526 1189.7 -38.3783 1191.26C-38.6064 1192.81 -39.2926 1194.3 -39.907 1194.57C-40.5214 1194.84 -40.838 1193.78 -40.6116 1192.22ZM21.3258 1166.71C20.7938 1165.48 20.6778 1162.55 21.0698 1160.19C21.4618 1157.83 22.2185 1156.9 22.7505 1158.13C23.2832 1159.36 23.3974 1162.3 23.0054 1164.65C22.6134 1167.01 21.8585 1167.94 21.3258 1166.71ZM-39.0496 1183.59C-38.824 1182.03 -38.1361 1180.54 -37.5217 1180.27C-36.9089 1180.01 -36.5907 1181.06 -36.818 1182.62C-37.0444 1184.18 -37.7324 1185.67 -38.3451 1185.94C-38.9595 1186.2 -39.2761 1185.15 -39.0496 1183.59ZM21.1343 1154.19C18.2906 1147.34 8.99782 1012.63 9.85209 990.654C14.7463 864.693 74.491 799.495 211.503 770.604C327.884 746.064 346.982 727.766 395.383 594.448C416.209 537.085 446.314 495.287 475.287 483.505C481.499 480.98 480.082 482.551 469.175 490.293C434.156 515.149 419.452 538.948 385.805 625.238C344.434 731.333 321.868 750.629 211.695 774.109C42.6301 810.14 -0.78325 881.957 17.9849 1094.55C22.3405 1143.9 23.1394 1159.03 21.1343 1154.19ZM-37.1916 1169.52C-36.8831 1165.01 -36.1303 1161.11 -35.5159 1160.84C-34.9015 1160.57 -34.6515 1164.05 -34.96 1168.56C-35.2669 1173.06 -36.0214 1176.97 -36.6358 1177.24C-37.2485 1177.5 -37.5002 1174.03 -37.1916 1169.52ZM-35.9662 1157.06C-36.2326 1156.44 -35.948 1155.72 -35.3336 1155.46C-34.7192 1155.19 -33.9992 1155.47 -33.7329 1156.09C-33.4666 1156.7 -33.7511 1157.42 -34.3655 1157.69C-34.9799 1157.96 -35.6999 1157.67 -35.9662 1157.06ZM-35.6685 1151.62C-35.9341 1151.01 -35.6496 1150.29 -35.0368 1150.02C-34.4224 1149.76 -33.7025 1150.04 -33.4369 1150.65C-33.1705 1151.27 -33.455 1151.99 -34.0694 1152.26C-34.6822 1152.52 -35.4021 1152.24 -35.6685 1151.62ZM-35.3717 1146.19C-35.638 1145.58 -35.3535 1144.86 -34.7391 1144.59C-34.1264 1144.32 -33.4064 1144.61 -33.14 1145.22C-32.8744 1145.84 -33.1589 1146.56 -33.7717 1146.82C-34.3861 1147.09 -35.106 1146.8 -35.3717 1146.19ZM-99.1767 1167.21C-98.9486 1165.65 -98.2624 1164.16 -97.648 1163.89C-97.0336 1163.63 -96.717 1164.68 -96.9434 1166.24C-97.1707 1167.8 -97.857 1169.29 -98.4714 1169.56C-99.0858 1169.82 -99.4024 1168.77 -99.1767 1167.21ZM-34.527 1140.47C-34.7661 1139.08 -35.3354 1126.8 -35.7893 1113.17C-36.2425 1099.53 -37.99 1069.88 -39.673 1047.27C-51.1981 892.319 -18.3316 818.773 82.0804 774.807C115.849 760.021 121.94 758.313 183.728 746.282C305.074 722.654 326.843 702.182 373.846 567.494C396.647 502.151 428.219 460.499 466.749 444.929C476.293 441.073 476.13 441.288 464.031 448.519C418.081 475.983 405.579 494.606 367.537 592.263C322.006 709.148 302.005 726.182 182.779 749.617C-3.93694 786.321 -49.4512 849.758 -36.43 1055.15C-33.6086 1099.65 -32.4303 1152.5 -34.527 1140.47ZM-96.9814 1156.98C-97.2478 1156.36 -96.9633 1155.64 -96.3505 1155.38C-95.7361 1155.11 -95.0162 1155.39 -94.7498 1156.01C-94.4842 1156.62 -94.7687 1157.34 -95.3831 1157.61C-95.9958 1157.87 -96.7158 1157.59 -96.9814 1156.98ZM-95.4212 1148.34C-95.6875 1147.73 -95.403 1147.01 -94.7886 1146.74C-94.1742 1146.48 -93.4542 1146.76 -93.1878 1147.37C-92.9222 1147.99 -93.2068 1148.71 -93.8212 1148.97C-94.4356 1149.24 -95.1556 1148.96 -95.4212 1148.34ZM-94.4925 1141.31C-94.2645 1139.75 -93.5782 1138.26 -92.9638 1137.99C-92.3494 1137.73 -92.0328 1138.78 -92.2592 1140.34C-92.4866 1141.9 -93.1728 1143.39 -93.7872 1143.66C-94.4016 1143.92 -94.7182 1142.87 -94.4925 1141.31ZM-92.4853 1124.52C-92.1094 1118.53 -91.2981 1113.4 -90.6837 1113.14C-90.071 1112.87 -89.8761 1117.56 -90.2537 1123.56C-90.6288 1129.56 -91.4401 1134.68 -92.0528 1134.95C-92.6672 1135.21 -92.8604 1130.52 -92.4853 1124.52ZM-91.1106 1109.34C-91.377 1108.73 -91.0924 1108.01 -90.478 1107.74C-89.8653 1107.48 -89.1454 1107.76 -88.879 1108.38C-88.6127 1108.99 -88.8971 1109.71 -89.5099 1109.98C-90.1243 1110.24 -90.8443 1109.96 -91.1106 1109.34ZM-90.4171 1104.29C-90.9428 1103.37 -91.111 1098.07 -90.7888 1092.52C-90.4676 1086.97 -91.1823 1060.17 -92.38 1032.98C-100.114 857.277 -70.8988 793.681 37.2256 750.837C74.3726 736.119 87.1105 732.988 158.935 720.921C276.237 701.213 308.307 673.381 345.873 558.676C371.196 481.363 403.716 431.218 437.319 417.67C439.982 416.596 435.471 420.934 427.296 427.309C388.705 457.405 370.857 488.68 343.919 573.42C312.122 673.443 273.623 704.64 158.015 724.062C46.4877 742.801 -0.64003 761.34 -39.4035 801.723C-81.7304 845.817 -95.117 904.108 -90.158 1022.73C-88.3167 1066.81 -88.4458 1107.75 -90.4171 1104.29ZM-154.282 1128.76C-154.549 1128.15 -154.264 1127.43 -153.65 1127.16C-153.037 1126.9 -152.317 1127.18 -152.051 1127.79C-151.784 1128.41 -152.069 1129.13 -152.682 1129.39C-153.296 1129.66 -154.016 1129.38 -154.282 1128.76ZM-152.72 1120.13C-152.987 1119.51 -152.702 1118.79 -152.089 1118.53C-151.475 1118.26 -150.755 1118.55 -150.489 1119.16C-150.222 1119.78 -150.507 1120.5 -151.121 1120.76C-151.734 1121.03 -152.454 1120.74 -152.72 1120.13ZM-150.528 1109.89C-150.301 1108.34 -149.613 1106.85 -148.999 1106.58C-148.386 1106.31 -148.068 1107.37 -148.296 1108.93C-148.522 1110.49 -149.209 1111.98 -149.822 1112.24C-150.437 1112.51 -150.753 1111.45 -150.528 1109.89ZM-149.598 1102.86C-149.865 1102.25 -149.58 1101.53 -148.966 1101.26C-148.353 1101 -147.633 1101.28 -147.367 1101.89C-147.1 1102.51 -147.385 1103.23 -147.997 1103.49C-148.612 1103.76 -149.332 1103.48 -149.598 1102.86ZM-148.52 1093.11C-148.27 1090.09 -147.564 1087.39 -146.951 1087.13C-146.337 1086.86 -146.038 1089.12 -146.289 1092.14C-146.538 1095.17 -147.244 1097.86 -147.859 1098.13C-148.471 1098.39 -148.77 1096.14 -148.52 1093.11ZM1280.92 448.542C1209.34 420.152 1148.47 408.073 1111.27 414.879C1100.22 416.902 1100.22 416.902 1112.99 412.734C1135.24 405.479 1166.67 409.459 1227.08 427.188C1257.21 436.028 1308.56 455.498 1307.28 457.593C1306.9 458.214 1295.04 454.142 1280.92 448.542ZM-146.069 1068.18C-145.543 1059.2 -145.45 1030.21 -145.859 1003.77C-149.28 783.248 -106.275 731.519 106.673 700.013C254.429 678.153 286.725 653.759 323.034 536.588C347.323 458.204 381.945 401.014 412.67 388.523C414.749 387.678 408.88 393.687 399.626 401.878C365.601 431.992 350.153 459.832 327.533 531.796C289.02 654.324 254.848 681.955 117.85 701.332C-103.201 732.6 -146.724 782.787 -143.571 1002.78C-142.881 1050.9 -143.808 1083.11 -145.907 1084.02C-146.521 1084.29 -146.594 1077.16 -146.069 1068.18ZM-211.583 1100.55C-211.848 1099.93 -211.564 1099.21 -210.95 1098.95C-210.336 1098.68 -209.616 1098.97 -209.35 1099.58C-209.084 1100.2 -209.369 1100.92 -209.982 1101.18C-210.596 1101.45 -211.316 1101.16 -211.583 1100.55ZM-290.074 1127.44C-290.262 1127.01 -284.938 1112.37 -278.243 1094.91C-262.819 1054.68 -258.377 1029.52 -255.692 967.16C-251.566 871.315 -250.439 855.418 -245.924 829.367C-224.409 705.21 -167.556 668.154 29.3085 649.972C206.961 633.566 242.79 608.839 281.35 476.032C313.202 366.33 342.174 330.647 430.901 291.847C480.431 270.187 499.689 265.095 554.599 259.14C711.819 242.09 711.05 242.005 763.335 282.422C821.892 327.691 877.693 298.385 960.046 179.113C993.434 130.759 1022.89 95.0368 1041.73 80.0537C1066.85 60.081 1121.89 38.5654 1128.59 46.1018C1130.34 48.0702 1129.66 48.852 1126.07 48.9925C1074.44 51.0114 1029.18 88.3937 964.085 182.774C876.64 309.569 824.957 334.112 754.068 282.513C706.205 247.674 707.068 247.756 558.042 264.025C464.992 274.183 388.864 306.288 346.232 353.35C318.958 383.458 306.263 409.838 286.437 477.606C245.948 615.986 208.895 640.611 16.4371 657.03C-161.437 672.206 -219.895 711.69 -240.694 830.698C-245.135 856.117 -246.531 876.33 -250.321 970.135C-252.735 1029.89 -264.444 1081.67 -283.466 1116.69C-286.912 1123.04 -289.887 1127.88 -290.074 1127.44ZM-208.757 1088.71C-209.023 1088.1 -208.738 1087.38 -208.124 1087.11C-207.511 1086.85 -206.791 1087.13 -206.524 1087.75C-206.258 1088.36 -206.542 1089.08 -207.156 1089.35C-207.77 1089.61 -208.49 1089.33 -208.757 1088.71ZM-206.563 1078.48C-206.336 1076.92 -205.649 1075.43 -205.035 1075.17C-204.421 1074.9 -204.104 1075.96 -204.331 1077.51C-204.557 1079.07 -205.244 1080.56 -205.858 1080.83C-206.472 1081.09 -206.789 1080.04 -206.563 1078.48ZM-205.002 1069.85C-204.775 1068.29 -204.087 1066.8 -203.474 1066.53C-202.86 1066.27 -202.543 1067.32 -202.769 1068.88C-202.996 1070.44 -203.683 1071.93 -204.297 1072.2C-204.911 1072.46 -205.228 1071.41 -205.002 1069.85ZM-204.072 1062.81C-204.339 1062.2 -204.054 1061.48 -203.44 1061.21C-202.826 1060.95 -202.106 1061.23 -201.84 1061.85C-201.574 1062.46 -201.858 1063.18 -202.472 1063.45C-203.086 1063.71 -203.806 1063.43 -204.072 1062.81ZM-203.143 1055.78C-202.917 1054.22 -202.229 1052.73 -201.616 1052.47C-201.002 1052.2 -200.685 1053.26 -200.911 1054.81C-201.138 1056.37 -201.825 1057.86 -202.439 1058.13C-203.053 1058.39 -203.37 1057.34 -203.143 1055.78ZM-202.214 1048.75C-202.48 1048.13 -202.195 1047.41 -201.582 1047.15C-200.968 1046.88 -200.248 1047.17 -199.982 1047.78C-199.716 1048.39 -200 1049.11 -200.614 1049.38C-201.228 1049.65 -201.948 1049.36 -202.214 1048.75ZM-200.221 1021.46C-199.572 1008.84 -198.525 998.71 -197.893 998.959C-196.471 999.523 -198.838 1043.31 -200.326 1043.95C-200.917 1044.21 -200.87 1034.09 -200.221 1021.46ZM-198.88 992.932C-199.939 985.482 -199.269 955.861 -198.053 956.342C-197.369 956.613 -197.154 965.799 -197.578 976.756C-198.001 987.715 -198.587 994.993 -198.88 992.932ZM1240.99 359.366C1189.93 352.542 1148.61 353.7 1120.73 362.732C1103.08 368.453 1103.08 368.453 1118.18 361.541C1136.25 353.267 1159.16 350.703 1196.43 352.787C1224.14 354.338 1264.52 358.598 1265.15 360.039C1266.07 362.176 1260.95 362.032 1240.99 359.366ZM-198.883 952.237C-205.52 938.34 -191.06 834.744 -177.984 802.512C-145.27 721.865 -89.9286 693.641 70.4685 675.8C230.664 657.981 266.68 630.251 306.878 493.784C326.038 428.736 352.905 383.908 385.993 361.78C389.801 359.234 386.968 362.699 379.699 369.48C343.203 403.526 325.344 436.899 304.812 509.426C270.053 632.207 231.325 659.777 66.2737 679.253C-134.655 702.96 -186.976 749.955 -195.87 914.712C-197.039 936.371 -198.396 953.256 -198.883 952.237ZM1055.07 328.015C1047.66 310.912 1100.42 251.672 1142.01 230.401C1158.84 221.792 1158.84 221.792 1144.14 230.71C1103.54 255.348 1077.44 281.763 1064.38 311.416C1059.8 321.807 1055.61 329.278 1055.07 328.015ZM817.463 419.196C813.094 419.275 800.19 418.406 788.787 417.265C766.331 415.019 755.834 416.888 712.527 430.844C680.166 441.272 656.756 445.716 603.51 451.54C556.88 456.64 533.163 461.225 504.856 470.61C484.745 477.278 484.745 477.278 499.121 470.682C519.714 461.233 547.591 455.177 596.98 449.421C664.048 441.605 672.287 440.026 716.001 426.624C761.654 412.628 765.837 412.048 797.319 415.346C828.221 418.581 845.363 410.994 908.524 366.129C991.607 307.113 1001.09 298.214 1042.04 240.805C1072.37 198.293 1118.89 166.874 1166.45 156.767C1174 155.164 1166.18 158.897 1141.19 168.837C1087.97 190.004 1074.34 200.561 1042.39 245.343C1004.94 297.83 991.495 310.48 916.701 363.588C863.429 401.412 832.171 418.928 817.463 419.196ZM825.731 395.335C814.98 397.112 807.266 396.12 782.209 389.738C754.377 382.649 748.011 383.115 698.269 395.855C670.559 402.954 641.209 408.224 603.758 412.825C573.881 416.497 539.316 422.086 526.946 425.244C478.455 437.627 475.926 438.069 496.836 430.508C520.248 422.044 553.682 415.654 608.99 409.077C655.874 403.502 660.985 402.538 708.243 390.367C745.649 380.735 756.223 380.314 784.882 387.321C815.48 394.802 820.575 394.657 841.186 385.725C892.571 363.457 970.681 297.179 1026.6 228.393C1064.63 181.622 1079.84 168.259 1109.87 155.238C1131.13 146.022 1167.7 135.186 1168.82 137.772C1169.22 138.685 1165.38 140.146 1160.29 141.019C1107.53 150.067 1073.72 173.261 1027.62 232.035C974.128 300.241 864.48 388.93 825.731 395.335ZM1160.17 232.261C1168.32 228.216 1181.38 222.56 1189.19 219.692C1197 216.823 1190.33 220.133 1174.37 227.044C1158.41 233.957 1152.02 236.305 1160.17 232.261ZM817.741 373.841C812.378 374.391 797.574 370.536 780.385 364.114C741.447 349.567 733.425 349.452 674.149 362.6C659.754 365.793 631.34 370.432 611.006 372.908C528.086 383.007 518.121 385.061 476.701 400.593C443.631 412.994 443.631 412.994 469.589 401.316C501.924 386.769 527.295 380.926 597.048 371.962C625.463 368.31 660.608 362.684 675.148 359.459C734.656 346.259 741.399 346.364 781.507 361.114C816.408 373.949 823.289 373.744 851.323 359.033C897.478 334.812 949.304 287.574 1012.74 211.902C1066.19 148.139 1096.4 127.2 1146.26 119.354C1162.05 116.87 1158.61 118.136 1124.54 127.365C1085.16 138.031 1064.19 154.139 1020.44 207.329C939.388 305.865 862.195 369.276 817.741 373.841ZM1172.05 213.875C1177.09 211.128 1185.13 207.652 1189.91 206.152C1194.69 204.65 1190.56 206.898 1180.74 211.146C1170.91 215.394 1167 216.623 1172.05 213.875ZM1150.27 212.73C1154.04 210.506 1160.57 207.676 1164.78 206.443C1168.98 205.209 1165.9 207.029 1157.91 210.488C1149.93 213.946 1146.49 214.956 1150.27 212.73ZM823.985 350.696C811.343 353.282 798.029 350.363 780.424 341.142C732.902 316.254 727.793 315.656 658.276 326.854C612.327 334.255 562.77 340.034 567.649 337.421C568.982 336.707 581.328 334.912 595.084 333.431C608.841 331.95 639.566 327.556 663.365 323.664C716.678 314.947 734.981 315.452 756.665 326.242C809.301 352.434 812.788 352.945 844.692 339.119C886.687 320.92 918.443 292.105 985.395 211.454C1057.09 125.091 1086.15 103.128 1137.64 96.4028C1152.21 94.5 1151.13 94.9024 1114.23 105.125C1074.36 116.17 1048.34 137.391 999.823 198.436C924.112 293.701 868.904 341.506 823.985 350.696ZM1177.24 198.405C1180.41 196.422 1185.44 194.259 1188.41 193.6C1191.39 192.94 1188.8 194.563 1182.65 197.206C1176.5 199.849 1174.07 200.389 1177.24 198.405ZM1144.55 201.074C1171.82 186.513 1194.73 176.762 1174.77 188.211C1167.18 192.566 1152.92 199.57 1143.07 203.776C1125.18 211.421 1125.18 211.421 1144.55 201.074ZM816.499 330.072C804.012 331.543 789.904 326.303 767.928 312.032C728.615 286.501 717.453 283.564 673.457 287.176C659.028 288.36 651.017 288.45 655.656 287.374C695.697 278.096 725.965 282.96 760.111 304.161C831.359 348.398 875.365 324.665 980.919 185.067C1009.19 147.679 1036.57 116.212 1039.73 117.464C1040.5 117.768 1036.09 122.866 1029.94 128.794C1023.79 134.722 999.917 164.315 976.893 194.557C907.075 286.26 861.49 324.773 816.499 330.072ZM555.508 340.884C554.03 340.901 541.237 343.042 527.078 345.642C512.92 348.241 503.243 349.458 505.574 348.346C510.529 345.982 562.937 336.505 563.526 337.865C564.019 339.004 559.137 340.841 555.508 340.884ZM630.146 292.75C620.023 293.519 619.996 293.501 628.262 291.463C638.034 289.053 648.817 288.419 643.775 290.55C641.926 291.332 635.793 292.322 630.146 292.75ZM419.655 383.557C421.582 382.049 424.612 380.78 426.387 380.738C428.164 380.694 426.588 381.927 422.886 383.478C419.183 385.028 417.729 385.064 419.655 383.557ZM458.937 365.719C432.685 375.502 432.685 375.502 456.001 365.065C468.825 359.324 484.187 353.474 490.137 352.063C503.178 348.971 499.143 350.737 458.937 365.719ZM1042.6 113.666C1043.07 112.493 1044.4 111.913 1045.58 112.376C1046.75 112.84 1046.37 113.8 1044.73 114.51C1043.1 115.219 1042.14 114.84 1042.6 113.666ZM1126.97 74.8345C1120.14 75.9166 1110.45 78.3299 1105.43 80.1976C1100.09 82.1816 1097.93 82.3295 1100.24 80.5526C1105.24 76.6943 1136 69.3315 1138.85 71.3128C1140.02 72.1312 1140.62 72.8158 1140.18 72.8337C1139.73 72.8526 1133.79 73.7525 1126.97 74.8345ZM1050.61 106.658C1052.61 104.539 1056.27 101.964 1058.74 100.936C1062.35 99.4331 1062.29 99.8915 1058.42 103.273C1051.85 109.026 1045.98 111.569 1050.61 106.658ZM589.915 297.81C577.264 298.902 552.396 302.088 534.654 304.889C516.911 307.691 504.387 309.076 506.822 307.967C509.258 306.858 523.564 304.078 538.614 301.789C569.275 297.126 621.424 292.148 616.267 294.376C614.425 295.172 602.566 296.717 589.915 297.81ZM1067.4 94.8547C1069.95 93.117 1073.97 91.3961 1076.35 91.0299C1078.73 90.6646 1076.64 92.086 1071.72 94.1891C1066.8 96.2922 1064.86 96.5916 1067.4 94.8547ZM1086.66 83.9204C1087.99 82.5774 1089.95 81.8224 1091.02 82.2421C1092.08 82.6628 1090.99 83.7622 1088.59 84.6845C1085.95 85.7049 1085.19 85.405 1086.66 83.9204ZM397.579 352.614C402.309 348.372 417.945 340.155 416.836 342.495C416.518 343.165 410.981 346.679 404.532 350.304C396.962 354.559 394.498 355.378 397.579 352.614ZM492.195 312.337C494.122 310.829 497.152 309.561 498.927 309.518C500.704 309.474 499.128 310.707 495.426 312.258C491.723 313.808 490.269 313.844 492.195 312.337ZM474.457 317.334C477.001 315.597 481.028 313.876 483.405 313.51C485.781 313.144 483.699 314.565 478.776 316.669C473.855 318.772 471.911 319.072 474.457 317.334ZM435.56 331.455C441.851 328.192 451.898 323.843 457.886 321.793C463.875 319.742 458.729 322.412 446.45 327.726C434.169 333.041 429.269 334.719 435.56 331.455Z" fill="url(#paint0_radial_3_1038)" fill-opacity="0.7"/>
</g>
</mask>
<g mask="url(#mask0_3_1038)">
<rect x="-410.313" y="454.697" width="807.062" height="808.988" transform="rotate(-23.43 -410.313 454.697)" fill="url(#paint1_linear_3_1038)"/>
</g>
</g>
<defs>
<radialGradient id="paint0_radial_3_1038" cx="0" cy="0" r="1" gradientUnits="userSpaceOnUse" gradientTransform="translate(-207.071 628.517) rotate(18.9372) scale(930.448 930.481)">
<stop offset="0.255368" stop-color="#6EC6DC"/>
<stop offset="0.443496" stop-color="#74FFE3"/>
<stop offset="0.622867" stop-color="#FFA9C9"/>
</radialGradient>
<linearGradient id="paint1_linear_3_1038" x1="237.713" y1="656.147" x2="-522.808" y2="1357.2" gradientUnits="userSpaceOnUse">
<stop stop-color="white"/>
<stop offset="0.177038" stop-color="white"/>
<stop offset="0.274611" stop-color="white" stop-opacity="0.6"/>
<stop offset="0.436287" stop-color="white" stop-opacity="0.5"/>
<stop offset="0.543522" stop-color="white" stop-opacity="0"/>
</linearGradient>
<clipPath id="clip0_3_1038">
<rect width="1799.03" height="1233.82" fill="white" transform="translate(-542.729 709.622) rotate(-23.43)"/>
</clipPath>
</defs>
</svg>
