<svg width="16" height="16" viewBox="0 0 16 16" fill="none" xmlns="http://www.w3.org/2000/svg">
<path d="M2.20308 16H13.7969C15.0123 16 16 15.0489 16 13.8785V3.30665C16 2.13628 15.0123 1.18516 13.7969 1.18516H12.9231V0.592582C12.9231 0.266652 12.6461 0 12.3077 0C11.9692 0 11.6923 0.266652 11.6923 0.592582V1.18516H4.30771V0.592582C4.30771 0.266652 4.03075 0 3.69229 0C3.35382 0 3.07692 0.266652 3.07692 0.592582V1.18516H2.20308C0.9877 1.18516 0 2.13628 0 3.30665V13.8785C0 15.0489 0.9877 16 2.20308 16ZM1.2308 3.30665C1.2308 2.79111 1.66771 2.37038 2.20308 2.37038H3.07692V2.96296C3.07692 3.28889 3.35382 3.55554 3.69229 3.55554C4.03075 3.55554 4.30766 3.28889 4.30766 2.96296V2.37038H11.6923V2.96296C11.6923 3.28889 11.9692 3.55554 12.3077 3.55554C12.6461 3.55554 12.923 3.28889 12.923 2.96296V2.37038H13.7969C14.3322 2.37038 14.7692 2.79111 14.7692 3.30665V13.8785C14.7692 14.3941 14.3322 14.8148 13.7969 14.8148H2.20308C1.66771 14.8148 1.2308 14.3941 1.2308 13.8785V3.30665Z" fill="#868894"/>
<path d="M4.46156 6.81479C4.88638 6.81479 5.23077 6.48315 5.23077 6.07406C5.23077 5.66497 4.88638 5.33333 4.46156 5.33333C4.03673 5.33333 3.69234 5.66497 3.69234 6.07406C3.69234 6.48315 4.03673 6.81479 4.46156 6.81479Z" fill="#868894"/>
<path d="M7.84616 6.81479C8.27098 6.81479 8.61537 6.48315 8.61537 6.07406C8.61537 5.66497 8.27098 5.33333 7.84616 5.33333C7.42133 5.33333 7.07694 5.66497 7.07694 6.07406C7.07694 6.48315 7.42133 6.81479 7.84616 6.81479Z" fill="#868894"/>
<path d="M11.2308 6.81479C11.6556 6.81479 12 6.48315 12 6.07406C12 5.66497 11.6556 5.33333 11.2308 5.33333C10.8059 5.33333 10.4615 5.66497 10.4615 6.07406C10.4615 6.48315 10.8059 6.81479 11.2308 6.81479Z" fill="#868894"/>
<path d="M4.46156 9.77774C4.88638 9.77774 5.23077 9.44611 5.23077 9.03702C5.23077 8.62793 4.88638 8.29629 4.46156 8.29629C4.03673 8.29629 3.69234 8.62793 3.69234 9.03702C3.69234 9.44611 4.03673 9.77774 4.46156 9.77774Z" fill="#868894"/>
<path d="M7.84616 9.77774C8.27098 9.77774 8.61537 9.44611 8.61537 9.03702C8.61537 8.62793 8.27098 8.29629 7.84616 8.29629C7.42133 8.29629 7.07694 8.62793 7.07694 9.03702C7.07694 9.44611 7.42133 9.77774 7.84616 9.77774Z" fill="#868894"/>
<path d="M11.2308 9.77774C11.6556 9.77774 12 9.44611 12 9.03702C12 8.62793 11.6556 8.29629 11.2308 8.29629C10.8059 8.29629 10.4615 8.62793 10.4615 9.03702C10.4615 9.44611 10.8059 9.77774 11.2308 9.77774Z" fill="#868894"/>
<path d="M4.46156 12.7407C4.88638 12.7407 5.23077 12.4091 5.23077 12C5.23077 11.5909 4.88638 11.2592 4.46156 11.2592C4.03673 11.2592 3.69234 11.5909 3.69234 12C3.69234 12.4091 4.03673 12.7407 4.46156 12.7407Z" fill="#868894"/>
<path d="M7.84616 12.7407C8.27098 12.7407 8.61537 12.4091 8.61537 12C8.61537 11.5909 8.27098 11.2592 7.84616 11.2592C7.42133 11.2592 7.07694 11.5909 7.07694 12C7.07694 12.4091 7.42133 12.7407 7.84616 12.7407Z" fill="#868894"/>
<path d="M11.2308 12.7407C11.6556 12.7407 12 12.4091 12 12C12 11.5909 11.6556 11.2592 11.2308 11.2592C10.8059 11.2592 10.4615 11.5909 10.4615 12C10.4615 12.4091 10.8059 12.7407 11.2308 12.7407Z" fill="#868894"/>
</svg>
