<svg width="1215" height="969" viewBox="0 0 1215 969" fill="none" xmlns="http://www.w3.org/2000/svg">
<g clip-path="url(#clip0_130_7481)">
<rect width="969" height="1215" transform="translate(0 969) rotate(-90)" fill="url(#paint0_radial_130_7481)"/>
<mask id="mask0_130_7481" style="mask-type:alpha" maskUnits="userSpaceOnUse" x="-754" y="-1957" width="4709" height="4631">
<mask id="mask1_130_7481" style="mask-type:luminance" maskUnits="userSpaceOnUse" x="-1681" y="-2089" width="6415" height="6031">
<path d="M2620.38 -2088.5L-1680.18 990.453L432.877 3941.87L4733.43 862.916L2620.38 -2088.5Z" fill="white"/>
</mask>
<g mask="url(#mask1_130_7481)">
<path d="M2074.95 2530.71C1961.07 2411.4 1944.15 2317.27 2015.46 2199.6C2031.6 2172.97 2031.6 2172.97 2004.32 2196.34C1977.04 2219.71 1977.04 2219.71 2006.3 2186.81C2057.26 2129.53 2071.57 2116.05 2066.75 2129.86C2063.61 2138.88 2073.87 2133.06 2104.32 2108.56C2127.89 2089.59 2189.2 2051.61 2244.57 2021.67C2502.17 1882.41 2557.81 1790.36 2504.59 1591.49C2455.17 1406.8 2485.31 1353.1 2668.97 1298.61C2885.19 1234.47 2920.48 1116.84 2815.73 809.448C2738.22 581.967 2751.71 467.812 2866.19 382.692C3002.22 281.545 3108.62 372.452 3218.7 683.843C3252.73 780.135 3243.03 774.022 3203.82 674.475C3088.23 381.006 2999.4 304.04 2878.05 392.23C2766.98 472.938 2754.03 588.585 2831.03 812.178C2933.38 1109.43 2889.8 1243.39 2668.75 1310.92C2495.6 1363.81 2474.2 1403.77 2517.48 1593.28C2562.78 1791.63 2512.17 1885.69 2295.04 2006.72C2034.27 2152.08 1952.61 2258.83 1997.48 2395.73C2010.69 2436.04 2075.08 2525.83 2104.42 2544.84C2110.75 2548.95 2113.07 2554.05 2109.69 2556.47C2106.38 2558.84 2090.74 2547.25 2074.95 2530.71ZM1860.18 2492.96C1859.04 2491.36 1859.41 2489.11 1861.01 2487.96C1862.61 2486.82 1864.86 2487.19 1866.01 2488.79C1867.15 2490.39 1866.78 2492.64 1865.18 2493.79C1863.58 2494.93 1861.33 2494.56 1860.18 2492.96ZM1849.34 2465.51C1848.19 2463.9 1848.56 2461.66 1850.16 2460.51C1851.76 2459.37 1854.01 2459.74 1855.15 2461.34C1856.3 2462.94 1855.93 2465.19 1854.33 2466.33C1852.73 2467.48 1850.48 2467.1 1849.34 2465.51ZM1846.82 2449.7C1845.67 2448.09 1846.04 2445.85 1847.64 2444.7C1849.24 2443.56 1851.49 2443.93 1852.64 2445.53C1853.78 2447.13 1853.41 2449.38 1851.81 2450.53C1850.21 2451.67 1847.97 2451.3 1846.82 2449.7ZM1841.79 2418.08C1840.64 2416.48 1841.01 2414.23 1842.61 2413.09C1844.21 2411.94 1846.46 2412.31 1847.61 2413.91C1848.75 2415.51 1848.38 2417.76 1846.78 2418.91C1845.18 2420.05 1842.93 2419.68 1841.79 2418.08ZM1705.42 2498.1C1704.27 2496.5 1704.65 2494.25 1706.25 2493.1C1707.85 2491.95 1710.1 2492.33 1711.24 2493.93C1712.39 2495.53 1712.02 2497.78 1710.42 2498.93C1708.82 2500.07 1706.57 2499.7 1705.42 2498.1ZM1841.7 2393.37C1840.98 2392.37 1843.4 2377.77 1847.07 2360.91C1853.74 2330.27 1853.74 2330.27 1850.2 2361.43C1846.89 2390.47 1844.92 2397.87 1841.7 2393.37ZM1704.56 2472.3C1703.41 2470.7 1703.78 2468.45 1705.39 2467.3C1706.98 2466.16 1709.23 2466.53 1710.38 2468.13C1711.52 2469.74 1711.15 2471.98 1709.55 2473.13C1707.95 2474.27 1705.71 2473.9 1704.56 2472.3ZM1856.89 2328.52C1855.76 2326.94 1859.24 2316.59 1864.62 2305.51C1872.89 2288.49 1872.57 2286.6 1862.53 2293.38C1856.01 2297.78 1844.94 2301.69 1837.95 2302.07C1829.09 2302.54 1832.11 2299.31 1847.91 2291.39C1870.5 2280.07 1897.18 2241.7 1883.99 2239.51C1880.4 2238.92 1883.67 2234 1891.25 2228.57C1900.25 2222.13 1907.58 2200.9 1912.44 2167.18C1916.52 2138.83 1919.86 2123.56 1919.87 2133.24C1919.87 2142.92 1917.8 2166.78 1915.25 2186.27C1910.16 2225.34 1927.08 2226.1 1969.4 2188.71C1978.82 2180.38 1989.6 2175.79 1993.35 2178.51C2003.1 2185.58 1943.69 2237.27 1913.64 2247.87C1881.05 2259.37 1878.69 2262.71 1907.05 2257.2C1930.24 2252.7 1930.24 2252.7 1905.4 2270.87C1891.74 2280.87 1875.71 2298.58 1869.76 2310.23C1863.81 2321.87 1858.03 2330.11 1856.89 2328.52ZM1933.91 2220.14C1918.11 2224.66 1903.64 2232.06 1901.75 2236.57C1897.85 2245.91 1925.76 2237.09 1947.87 2222C1959.24 2214.23 1956.01 2213.81 1933.91 2220.14ZM1714.41 2413.86C1715.33 2400.36 1713.97 2399.52 1703.46 2407.05C1696.85 2411.78 1688.82 2414.55 1685.62 2413.22C1682.42 2411.88 1691.53 2403.11 1705.88 2393.75C1727.48 2379.64 1730.22 2375.56 1721.81 2370.02C1713.49 2364.53 1715.07 2361.98 1730.53 2355.88C1740.91 2351.79 1746.47 2347.22 1742.89 2345.73C1721.4 2336.74 1736.02 2320 1770.97 2313.58C1790.84 2309.92 1808.48 2303.61 1810.18 2299.55C1811.88 2295.5 1815.25 2294.95 1817.67 2298.34C1823.4 2306.34 1819.21 2308.89 1783.95 2318.86C1748.31 2328.93 1729.84 2339.63 1749.74 2338.69C1761.09 2338.15 1761.56 2338.81 1753.97 2344.6C1747.49 2349.55 1749.09 2350.77 1760.59 2349.68C1768.93 2348.89 1781.13 2342.58 1787.71 2335.67C1794.29 2328.76 1799.89 2326.34 1800.15 2330.29C1800.83 2340.22 1782.24 2352.54 1759.99 2356.9C1744.32 2359.97 1739.17 2365.98 1727.37 2394.91C1719.64 2413.87 1713.83 2422.37 1714.41 2413.86ZM1335.45 2673.42C1331.93 2671.92 1340.46 2661.46 1354.41 2650.17C1386.71 2624 1414.65 2576.77 1422.43 2535.16C1429.41 2497.79 1425.72 2456.2 1416.03 2463.14C1412.56 2465.63 1409.46 2463.82 1409.14 2459.13C1408.82 2454.43 1411.76 2450.38 1415.68 2450.11C1423.03 2449.61 1410.64 2404.23 1388.55 2350.74C1381.6 2333.92 1335.38 2258.05 1285.82 2182.14C1016.27 1769.24 878.754 1355.23 949.138 1168.53C974.32 1101.74 1001.54 1074.91 1130.97 989.324C1305.04 874.221 1332.38 828.757 1394.33 551.329C1467.06 225.655 1527.57 160.072 1803.75 107.6C2055.69 59.7287 2095.57 24.0039 2203.84 -250.883C2296.58 -486.352 2337.89 -529.62 2530.25 -592.821C2675.34 -640.487 2714.79 -690.708 2702.6 -812.217C2698.58 -852.218 2698.58 -852.218 2686.22 -811.85C2663.95 -739.18 2615.75 -697.854 2489.63 -643.282C2344.76 -580.603 2305.99 -540.747 2183.84 -328.925C2027.03 -57.0019 1989.49 -26.0711 1755.96 23.5753C1459.43 86.6195 1400.12 150.75 1330.54 483.599C1274.24 752.853 1239.64 817.676 1103.96 908.022C871.267 1062.98 850.823 1083.95 829.268 1189.81C787.137 1396.7 918.696 1832.1 1112.14 2125.98C1121.99 2140.96 1122.41 2143.57 1113.58 2135.17C1046.77 2071.48 891.368 1722.69 846.896 1536.62C771.703 1222.03 810.861 1076.47 1000.77 964.627C1221.98 834.355 1260 777.317 1322.61 481.816C1396.29 134.031 1450.85 77.7828 1781.87 8.3743C1982.23 -33.6389 2027.56 -72.9915 2178.74 -336.13C2301.76 -550.248 2336.98 -585.972 2491.38 -653.308C2630.5 -713.973 2672.65 -758.059 2685.56 -856.4C2691.27 -899.887 2685.41 -980.835 2675.41 -996.614C2669.92 -1005.28 2676.06 -1090.76 2682.1 -1089.75C2684.83 -1089.3 2691.69 -1109.97 2697.35 -1135.67C2707.09 -1179.84 2717.93 -1201.97 2719.38 -1180.63C2719.8 -1174.58 2721.47 -1174.35 2723.84 -1180.03C2725.93 -1185.03 2723.79 -1190.73 2719.09 -1192.69C2713.54 -1195.02 2715 -1197.43 2723.27 -1199.58C2730.99 -1201.59 2732.91 -1204.19 2728.15 -1206.19C2709.8 -1213.86 2816.28 -1358.4 2862.91 -1389.1C2882.92 -1402.27 2883.83 -1402.3 2870.09 -1389.33C2819.41 -1341.52 2724.51 -1217.84 2736.93 -1215.78C2738.67 -1215.49 2752.93 -1233.97 2768.62 -1256.84C2829.91 -1346.21 3038.63 -1504.32 3058.56 -1476.47C3060.84 -1473.29 3045.14 -1461.54 3019.88 -1447.52C2837.2 -1346.15 2730.77 -1215.73 2706.91 -1063.98C2689.77 -954.981 2696.09 -923.497 2721.23 -992.593C2776.37 -1144.15 2892.64 -1241.05 3097.11 -1305.84C3128.67 -1315.84 3158.63 -1323.51 3163.68 -1322.89C3177.33 -1321.19 3171.76 -1318.84 3113.98 -1301.91C2857.09 -1226.61 2687.28 -1042.88 2713.97 -869.115C2721.48 -820.248 2723.09 -818.492 2733.26 -848.126C2748.29 -891.927 2790.09 -959.344 2817.37 -983.758C2841.7 -1005.54 2841.04 -1003.93 2809.87 -965.553C2748.04 -889.422 2721.41 -815.292 2723.65 -725.531C2725.22 -662.564 2729.48 -660.54 2749.19 -713.39C2767.43 -762.283 2811.54 -825.723 2840.95 -845.351C2858.32 -856.941 2857.05 -854.419 2833.88 -831.314C2767.44 -765.081 2732.12 -668.249 2735.13 -560.572C2736.96 -494.879 2736.96 -494.879 2747.25 -528.923C2800.74 -706.053 2909.35 -773.478 3088.64 -740.859C3395.1 -685.108 3654.59 -568.185 3763.27 -436.873C3790.73 -403.698 3790.73 -403.698 3760.57 -434.189C3620.84 -575.447 3360.85 -688.871 3070.76 -735.148C2869.13 -767.306 2739.61 -637.125 2746.24 -408.95C2748.12 -344.06 2748.12 -344.06 2756.6 -380.043C2781.41 -485.378 2888.41 -590.984 2971.07 -591.71C3074.09 -592.62 3595.9 -325.594 3649.74 -244.414C3652.73 -239.905 3627.67 -256.144 3594.05 -280.498C3427.08 -401.461 3076.75 -575.863 2986.68 -582.865C2861.76 -592.568 2760.46 -453.558 2754.96 -264.874C2751.08 -131.882 2738.27 -105.567 2637.81 -24.2706C2544.07 51.5866 2534.57 69.7171 2496.09 246.007C2450.8 453.527 2428.89 485.225 2273.97 567.41C2148.56 633.941 2128.27 657.045 2026.05 849.686C1920.45 1048.71 1898.28 1078.45 1806.04 1144.83C1634.27 1268.46 1620.07 1327.47 1694.67 1607.67C1800.87 2006.58 1840.92 2188.57 1831.78 2230.7C1826.23 2256.27 1831.19 2262.63 1847.87 2251.38C1860.54 2242.85 1860.8 2243.05 1852.92 2255.36C1848.35 2262.51 1837.54 2272.31 1828.9 2277.14C1820.26 2281.97 1806.46 2290.35 1798.23 2295.77C1786.45 2303.52 1784.28 2303.13 1788.02 2293.91C1790.63 2287.47 1799.21 2279.66 1807.08 2276.56C1851.42 2259.09 1841.6 2202.93 1698.77 1657.56C1610.13 1319.06 1615.6 1286.86 1784.59 1151.75C1897.4 1061.57 1921.73 1030.51 2008.42 866.112C2121.87 650.978 2143.59 625.972 2277.73 556.201C2408.23 488.32 2443.66 442.278 2475.38 299.365C2531.07 48.3902 2540.91 29.3441 2658.65 -55.6119C2722.16 -101.441 2741.4 -140.632 2745.85 -233.275C2747.98 -277.728 2743.71 -295.44 2737.39 -268.362C2725.67 -218.194 2712.62 -204.072 2617.12 -138.195C2514.89 -67.6703 2488.27 -32.8547 2461.74 65.046C2455.51 88.0176 2439.22 148.171 2425.53 198.717C2380.25 365.883 2341.38 410.403 2183.5 475.931C2026.52 541.082 1989.8 583.209 1892.32 809.956C1812.35 995.979 1794.51 1020.42 1663.29 1123.71C1458.35 1285.04 1460.3 1349.38 1691.23 2045.98C1699.49 2070.89 1699.49 2070.89 1688.06 2048.25C1681.78 2035.8 1646.71 1928.94 1610.13 1810.78C1456.45 1314.32 1458.95 1274.22 1653.04 1121.69C1786.38 1016.91 1805.27 990.792 1889.62 794.574C1982.36 578.837 2022.92 533.385 2181.77 467.09C2349.03 397.297 2376.7 360.636 2435.63 130.822C2478.9 -37.9131 2493.98 -61.8698 2606.38 -140.415C2701.29 -206.739 2713.63 -219.428 2728.85 -266.253C2737.88 -294.063 2741.22 -371.22 2734 -385.242C2731.61 -389.887 2729.89 -414.414 2730.19 -439.747C2730.49 -465.075 2728.84 -489.468 2726.53 -493.944C2724.22 -498.425 2722.6 -516.06 2722.93 -533.137C2723.8 -578.846 2721.42 -611.114 2717.39 -608.23C2715.44 -606.836 2714.41 -624.234 2715.11 -646.892C2716.65 -697.668 2711.83 -705.759 2697.15 -677.001C2676.9 -637.343 2618.83 -602.825 2516.45 -569.603C2345.05 -513.987 2300.85 -463.122 2207.14 -213.683C2116.26 28.2259 2054.65 79.8356 1802.39 125.419C1542.21 172.429 1483.73 234.478 1416.43 534.993C1348.81 836.905 1326.27 874.315 1129.81 1010.86C1005.96 1096.95 1005.96 1096.95 981.49 1140.01C885.169 1309.53 1007.07 1715.11 1285.52 2151.54C1381.11 2301.37 1415.47 2366.82 1430.83 2428.33C1433.23 2437.93 1436.98 2439.37 1444.96 2433.76C1453.84 2427.51 1454.99 2428.2 1451.21 2437.51C1448.67 2443.78 1444.37 2449.06 1441.65 2449.24C1435.29 2449.67 1439.65 2527.54 1446.3 2532.37C1449.08 2534.39 1447.91 2536.26 1443.73 2536.55C1439.54 2536.82 1433.18 2547.13 1429.6 2559.44C1417.21 2602.12 1352.38 2680.6 1335.45 2673.42ZM2747.03 -294.852C2746.72 -299.467 2745.15 -302.309 2743.55 -301.162C2741.95 -300.018 2740.9 -295.302 2741.21 -290.686C2741.52 -286.067 2743.09 -283.229 2744.69 -284.372C2746.29 -285.519 2747.35 -290.236 2747.03 -294.852ZM2730.76 -661.826C2730.45 -666.449 2728.88 -669.287 2727.28 -668.144C2725.68 -666.997 2724.63 -662.28 2724.94 -657.66C2725.26 -653.044 2726.82 -650.203 2728.43 -651.35C2730.02 -652.493 2731.08 -657.21 2730.76 -661.826ZM1571.46 2501.55C1571.15 2496.93 1572.2 2492.22 1573.8 2491.07C1575.4 2489.93 1576.97 2492.77 1577.28 2497.39C1577.59 2502 1576.54 2506.72 1574.94 2507.86C1573.34 2509.01 1571.77 2506.17 1571.46 2501.55ZM1824.84 2322.94C1827.83 2318.25 1833 2314.87 1836.32 2315.42C1839.64 2315.97 1837.19 2319.8 1830.87 2323.94C1823.89 2328.51 1821.52 2328.12 1824.84 2322.94ZM1459.86 2575.43C1462.86 2570.75 1468.02 2567.36 1471.35 2567.91C1474.66 2568.45 1472.21 2572.3 1465.9 2576.43C1458.92 2581.01 1456.55 2580.62 1459.86 2575.43ZM1541.34 2517.1C1544.33 2512.42 1549.5 2509.03 1552.82 2509.58C1556.13 2510.13 1553.69 2513.97 1547.37 2518.11C1540.39 2522.68 1538.02 2522.29 1541.34 2517.1ZM1609.97 2467.38C1606.77 2466.04 1611.5 2459.68 1620.49 2453.24C1629.48 2446.8 1637.04 2444.37 1637.27 2447.83C1637.51 2451.3 1632.77 2457.66 1626.74 2461.97C1620.72 2466.28 1613.17 2468.72 1609.97 2467.38ZM2264.8 2000.76C2263.65 1999.16 2264.02 1996.91 2265.63 1995.76C2267.22 1994.62 2269.47 1994.99 2270.62 1996.59C2271.76 1998.19 2271.39 2000.44 2269.79 2001.58C2268.19 2002.73 2265.94 2002.36 2264.8 2000.76ZM2289.73 1974.1C2288.58 1972.5 2288.95 1970.25 2290.55 1969.11C2292.15 1967.96 2294.4 1968.34 2295.55 1969.94C2296.69 1971.54 2296.32 1973.79 2294.72 1974.93C2293.12 1976.08 2290.88 1975.71 2289.73 1974.1ZM1566.04 2475.39C1567.11 2468.89 1571.59 2466.17 1579.15 2467.42C1587.79 2468.85 1587.39 2471.29 1577.52 2477.29C1568.88 2482.54 1564.96 2481.89 1566.04 2475.39ZM1644.33 2425.05C1642.58 2422.61 1644.89 2414.02 1649.47 2405.97C1660.81 2385.99 1650.59 2378.55 1632.19 2393.41C1623.92 2400.08 1619.52 2401.9 1622.42 2397.45C1625.31 2393 1624.81 2388.16 1621.3 2386.69C1611.9 2382.76 1644.26 2371.39 1655.22 2374.78C1661.92 2376.85 1664.01 2375.3 1662.6 2369.27C1661.53 2364.66 1662.54 2346.11 1664.84 2328.05C1668.4 2300.12 1669.25 2298.68 1670.56 2318.34C1672.09 2341.46 1672.09 2341.45 1690.03 2328.62C1699.89 2321.55 1708.2 2319.22 1708.48 2323.45C1708.77 2327.67 1711.78 2330.81 1715.17 2330.43C1718.55 2330.05 1716.48 2331.27 1710.56 2333.14C1690.11 2339.6 1671.03 2355.46 1673.53 2363.89C1674.91 2368.55 1682.89 2370.13 1691.26 2367.41C1699.63 2364.69 1706.14 2364.47 1705.74 2366.93C1705.33 2369.38 1695.46 2373.26 1683.8 2375.54C1665.22 2379.18 1662.41 2381.97 1661.09 2398.08C1659.5 2417.2 1649.84 2432.76 1644.33 2425.05ZM2163.35 2055.78C2162.21 2054.18 2162.58 2051.93 2164.18 2050.78C2165.78 2049.64 2168.03 2050.01 2169.17 2051.61C2170.32 2053.21 2169.95 2055.46 2168.34 2056.6C2166.75 2057.75 2164.5 2057.38 2163.35 2055.78ZM2308.84 1951.62C2307.69 1950.02 2308.06 1947.77 2309.67 1946.62C2311.26 1945.48 2313.51 1945.85 2314.66 1947.45C2315.8 1949.05 2315.43 1951.3 2313.83 1952.44C2312.23 1953.59 2309.98 1953.22 2308.84 1951.62ZM1485.37 2530.9C1485.98 2527.24 1489.47 2524.74 1493.13 2525.34C1496.8 2525.95 1496.3 2528.95 1492.03 2532C1487.77 2535.06 1484.77 2534.56 1485.37 2530.9ZM1857.82 2264.25C1858.43 2260.58 1861.92 2258.08 1865.58 2258.69C1869.24 2259.3 1868.74 2262.3 1864.48 2265.35C1860.21 2268.41 1857.21 2267.91 1857.82 2264.25ZM2071.89 2112.45C2070.75 2110.85 2071.12 2108.6 2072.72 2107.46C2074.32 2106.31 2076.57 2106.69 2077.71 2108.28C2078.86 2109.89 2078.49 2112.13 2076.89 2113.28C2075.29 2114.42 2073.04 2114.05 2071.89 2112.45ZM2176.64 2037.45C2175.5 2035.86 2175.87 2033.61 2177.47 2032.47C2179.07 2031.32 2181.32 2031.69 2182.46 2033.29C2183.61 2034.89 2183.24 2037.14 2181.63 2038.29C2180.04 2039.43 2177.79 2039.06 2176.64 2037.45ZM2322.13 1933.3C2320.98 1931.7 2321.35 1929.45 2322.96 1928.3C2324.55 1927.16 2326.8 1927.53 2327.95 1929.13C2329.09 1930.73 2328.72 1932.98 2327.12 1934.12C2325.52 1935.27 2323.27 1934.9 2322.13 1933.3ZM1586.53 2447.86C1582.8 2446.31 1581.21 2431.95 1582.99 2415.98C1584.77 2400.01 1586.53 2377.44 1586.89 2365.83C1587.56 2344.87 1587.58 2344.85 1590.69 2362.49C1592.42 2372.25 1597.98 2382.14 1603.06 2384.45C1608.14 2386.77 1608.71 2388.25 1604.34 2387.74C1594.67 2386.62 1586.35 2419.83 1595.36 2423.6C1598.87 2425.07 1604.85 2421.57 1608.63 2415.82C1613.44 2408.53 1615.74 2408.55 1616.24 2415.88C1616.67 2422.29 1610.33 2428.99 1599.96 2433.08C1589.03 2437.38 1585.85 2440.98 1591.05 2443.15C1595.48 2445.01 1597.81 2447.47 1596.21 2448.61C1594.61 2449.76 1590.25 2449.42 1586.53 2447.86ZM1625.45 2423.28C1624.3 2421.67 1624.67 2419.43 1626.27 2418.28C1627.88 2417.13 1630.12 2417.51 1631.27 2419.11C1632.42 2420.71 1632.04 2422.96 1630.44 2424.1C1628.84 2425.25 1626.59 2424.88 1625.45 2423.28ZM1987.08 2159.96C1986.77 2155.35 1987.82 2150.63 1989.42 2149.49C1991.02 2148.34 1992.58 2151.18 1992.9 2155.8C1993.21 2160.42 1992.16 2165.13 1990.56 2166.28C1988.96 2167.43 1987.39 2164.59 1987.08 2159.96ZM2080.19 2093.3C2079.87 2088.69 2080.93 2083.97 2082.53 2082.82C2084.13 2081.68 2085.7 2084.52 2086.01 2089.14C2086.32 2093.76 2085.27 2098.47 2083.67 2099.62C2082.07 2100.76 2080.51 2097.92 2080.19 2093.3ZM2184.11 2023.3C2182.97 2021.7 2183.34 2019.45 2184.94 2018.31C2186.54 2017.16 2188.79 2017.53 2189.93 2019.14C2191.08 2020.74 2190.71 2022.98 2189.11 2024.13C2187.51 2025.28 2185.26 2024.91 2184.11 2023.3ZM2335.42 1914.98C2334.27 1913.37 2334.64 1911.13 2336.25 1909.98C2337.84 1908.84 2340.09 1909.21 2341.24 1910.81C2342.38 1912.41 2342.01 1914.66 2340.41 1915.8C2338.81 1916.95 2336.57 1916.58 2335.42 1914.98ZM2191.59 2009.15C2190.44 2007.55 2190.81 2005.3 2192.41 2004.15C2194.01 2003.01 2196.26 2003.38 2197.4 2004.98C2198.55 2006.58 2198.18 2008.83 2196.58 2009.97C2194.98 2011.12 2192.73 2010.75 2191.59 2009.15ZM2002.38 2100.58C2019.97 1944.78 2005.06 1790.04 1951.31 1570.84C1902.01 1369.75 1922.88 1299.09 2060.78 1200.23C2140.98 1142.73 2216.92 1056.56 2318.52 907.789C2349.58 862.297 2389.97 812.439 2414.3 789.543C2437.45 767.765 2475.39 732.248 2498.63 710.617C2572.98 641.409 2581.75 614.521 2608.29 374.303C2618.94 277.878 2631.74 245.013 2683.31 181.696C2737.36 115.343 2745.02 96.6909 2763.61 -13.7613C2805.74 -264.098 2945.6 -340.155 3107.79 -200.927C3182.81 -136.532 3369.51 56.012 3375.39 75.0489C3376.84 79.718 3347.31 50.4899 3309.78 10.0924C3048.56 -271.075 2972.18 -310.461 2865.79 -218.838C2813.83 -174.098 2792.69 -126.953 2771.52 -8.60949C2751.89 101.128 2743.84 120.391 2689.25 188.171C2630.43 261.185 2620.96 291.408 2607.43 449.229C2592.46 623.774 2579.42 651.127 2461.82 754.561C2400.73 808.288 2369.35 846.252 2276.72 978.509C2204.07 1082.25 2164.09 1125.44 2067.62 1204.39C1917.07 1327.59 1909.07 1362.24 1971.38 1620.88C2011.02 1785.37 2026.2 2009.84 2004.63 2112.18C1997.79 2144.64 1997.55 2143.41 2002.38 2100.58ZM2089.31 2069.16C2089 2064.54 2090.05 2059.83 2091.65 2058.68C2093.25 2057.54 2094.82 2060.37 2095.13 2065C2095.45 2069.61 2094.39 2074.33 2092.8 2075.47C2091.19 2076.62 2089.63 2073.78 2089.31 2069.16ZM2199.06 1994.99C2197.91 1993.39 2198.28 1991.15 2199.88 1990C2201.48 1988.86 2203.73 1989.23 2204.87 1990.83C2206.02 1992.43 2205.65 1994.68 2204.05 1995.82C2202.45 1996.97 2200.2 1996.59 2199.06 1994.99ZM1503.62 2482.62C1504.23 2478.95 1507.72 2476.45 1511.38 2477.06C1515.04 2477.67 1514.55 2480.66 1510.28 2483.72C1506.01 2486.77 1503.02 2486.28 1503.62 2482.62ZM1738.85 2311.18C1727.86 2311.75 1727.45 2310.87 1735.82 2304.77C1741.15 2300.87 1746.37 2284.2 1747.41 2267.72C1748.46 2251.23 1750.31 2244.95 1751.52 2253.77C1756.48 2289.74 1751.89 2310.49 1738.85 2311.18ZM1765.49 2295.13C1766.1 2291.47 1769.59 2288.97 1773.25 2289.57C1776.92 2290.18 1776.42 2293.18 1772.15 2296.23C1767.89 2299.29 1764.89 2298.79 1765.49 2295.13ZM2206.53 1980.84C2205.38 1979.24 2205.75 1976.99 2207.35 1975.85C2208.95 1974.7 2211.2 1975.07 2212.35 1976.67C2213.49 1978.28 2213.12 1980.52 2211.52 1981.67C2209.92 1982.82 2207.67 1982.44 2206.53 1980.84ZM1562.22 2433.32C1561.08 2431.72 1561.45 2429.47 1563.05 2428.33C1564.65 2427.18 1566.9 2427.55 1568.04 2429.16C1569.19 2430.75 1568.82 2433 1567.21 2434.15C1565.62 2435.29 1563.37 2434.92 1562.22 2433.32ZM2113.46 1972.38C2138.17 1830.37 2133.25 1746.69 2089.91 1571.8C2044.68 1389.31 2062.74 1329.64 2192.45 1232.99C2268.63 1176.22 2268.63 1176.22 2196.19 1234.87C2073.24 1334.4 2054.78 1388.19 2090.78 1542.07C2139.77 1751.51 2145.4 1865.99 2113.18 1998C2100.78 2048.84 2100.82 2045.08 2113.46 1972.38ZM2214.83 1961.69C2214.51 1957.08 2215.56 1952.36 2217.16 1951.22C2218.76 1950.07 2220.33 1952.91 2220.64 1957.53C2220.96 1962.14 2219.9 1966.86 2218.3 1968.01C2216.71 1969.15 2215.14 1966.31 2214.83 1961.69ZM1462.99 2491.43C1460.77 2488.33 1463.96 2484.49 1470.08 2482.9C1476.2 2481.31 1481.95 2481.03 1482.85 2482.29C1483.75 2483.54 1480.56 2487.39 1475.76 2490.82C1470.95 2494.26 1465.21 2494.54 1462.99 2491.43ZM1546.41 2435.83C1545.27 2434.23 1545.64 2431.99 1547.24 2430.84C1548.84 2429.7 1551.09 2430.07 1552.23 2431.67C1553.38 2433.27 1553.01 2435.52 1551.41 2436.66C1549.81 2437.81 1547.56 2437.43 1546.41 2435.83ZM1309.47 2596.67C1308.32 2595.06 1308.7 2592.82 1310.29 2591.67C1311.9 2590.53 1314.14 2590.9 1315.29 2592.5C1316.44 2594.1 1316.07 2596.35 1314.46 2597.5C1312.87 2598.64 1310.62 2598.27 1309.47 2596.67ZM1508.98 2454.35C1509.35 2449.85 1503.52 2444.48 1496.03 2442.41C1484.9 2439.34 1484.53 2438.48 1493.97 2437.74C1501.79 2437.12 1505.77 2429.83 1506.26 2415.22C1506.66 2403.34 1509.29 2396.69 1512.09 2400.46C1514.89 2404.22 1515.62 2411.03 1513.72 2415.59C1511.81 2420.15 1514.91 2426.96 1520.61 2430.72C1526.31 2434.47 1527.78 2437.02 1523.87 2436.37C1519.97 2435.73 1514.87 2441.35 1512.54 2448.86C1510.22 2456.38 1508.61 2458.85 1508.98 2454.35ZM2223.95 1937.55C2223.63 1932.93 2224.69 1928.22 2226.28 1927.07C2227.89 1925.93 2229.45 1928.77 2229.77 1933.38C2230.08 1938 2229.03 1942.72 2227.43 1943.87C2225.83 1945.01 2224.26 1942.17 2223.95 1937.55ZM1486.95 2459.33C1487.55 2455.67 1491.04 2453.17 1494.71 2453.77C1498.37 2454.38 1497.87 2457.38 1493.61 2460.43C1489.34 2463.48 1486.35 2462.99 1486.95 2459.33ZM1632.44 2355.17C1633.04 2351.5 1636.53 2349 1640.2 2349.61C1643.85 2350.22 1643.36 2353.22 1639.09 2356.27C1634.83 2359.33 1631.83 2358.83 1632.44 2355.17ZM1554.83 2401.49C1528.8 2414.74 1527.14 2404.11 1553.01 2389.81C1565.12 2383.11 1575.26 2381 1575.54 2385.12C1575.82 2389.24 1575.26 2392.57 1574.31 2392.53C1573.35 2392.49 1564.59 2396.52 1554.83 2401.49ZM1607.71 2363.92C1610.71 2359.23 1615.87 2355.84 1619.19 2356.39C1622.51 2356.94 1620.06 2360.78 1613.75 2364.92C1606.77 2369.49 1604.4 2369.1 1607.71 2363.92ZM2233.07 1913.41C2232.75 1908.79 2233.81 1904.07 2235.41 1902.93C2237.01 1901.78 2238.57 1904.62 2238.89 1909.24C2239.2 1913.86 2238.15 1918.58 2236.55 1919.72C2234.95 1920.87 2233.38 1918.03 2233.07 1913.41ZM2384.37 1805.09C2384.06 1800.46 2385.11 1795.75 2386.71 1794.6C2388.31 1793.46 2389.88 1796.3 2390.2 1800.92C2390.51 1805.54 2389.46 1810.25 2387.86 1811.4C2386.25 1812.54 2384.69 1809.7 2384.37 1805.09ZM1334.78 2541.86C1335.38 2538.19 1338.87 2535.69 1342.54 2536.3C1346.2 2536.91 1345.7 2539.9 1341.44 2542.96C1337.17 2546.01 1334.18 2545.52 1334.78 2541.86ZM1473.2 2444.23C1472.06 2442.62 1472.43 2440.38 1474.03 2439.23C1475.63 2438.09 1477.87 2438.46 1479.02 2440.06C1480.16 2441.66 1479.79 2443.91 1478.2 2445.05C1476.59 2446.2 1474.35 2445.82 1473.2 2444.23ZM2243.84 1879.28C2245.05 1868.73 2247.35 1859.16 2248.95 1858.01C2250.55 1856.87 2250.87 1864.56 2249.66 1875.12C2248.45 1885.66 2246.16 1895.23 2244.55 1896.38C2242.96 1897.52 2242.64 1889.83 2243.84 1879.28ZM1457.39 2446.73C1456.25 2445.14 1456.62 2442.89 1458.22 2441.74C1459.82 2440.6 1462.07 2440.97 1463.22 2442.57C1464.36 2444.17 1463.99 2446.42 1462.39 2447.56C1460.79 2448.71 1458.54 2448.34 1457.39 2446.73ZM1375.72 2494.79C1378.72 2490.11 1383.88 2486.72 1387.21 2487.26C1390.52 2487.81 1388.07 2491.65 1381.76 2495.79C1374.77 2500.37 1372.41 2499.97 1375.72 2494.79ZM1483.57 2417.73C1484.17 2414.06 1487.67 2411.56 1491.33 2412.17C1494.99 2412.78 1494.5 2415.77 1490.23 2418.83C1485.96 2421.88 1482.97 2421.39 1483.57 2417.73ZM1662.73 2290.93C1661.58 2289.32 1661.95 2287.08 1663.55 2285.93C1665.15 2284.78 1667.4 2285.15 1668.55 2286.76C1669.69 2288.36 1669.32 2290.61 1667.72 2291.75C1666.12 2292.9 1663.87 2292.53 1662.73 2290.93ZM1744.2 2232.59C1743.05 2230.99 1743.42 2228.75 1745.03 2227.6C1746.62 2226.45 1748.87 2226.83 1750.02 2228.43C1751.16 2230.03 1750.79 2232.28 1749.19 2233.42C1747.59 2234.57 1745.35 2234.2 1744.2 2232.59ZM1912.53 2098.87C1911.37 2090.01 1911.73 2081.83 1913.33 2080.68C1914.93 2079.54 1917.19 2085.85 1918.35 2094.71C1919.51 2103.56 1919.15 2111.75 1917.55 2112.89C1915.95 2114.04 1913.69 2107.73 1912.53 2098.87ZM2390.66 1770.84C2389.8 1769.63 2391.1 1761.76 2393.55 1753.36C2397.6 1739.51 2397.95 1739.57 2397.33 1753.98C2396.67 1769.12 2394.1 1775.63 2390.66 1770.84ZM1583.09 2339.14C1580.79 2335.93 1578.64 2327.57 1578.3 2320.55C1577.97 2313.52 1579.57 2310.39 1581.87 2313.6C1584.16 2316.8 1586.31 2325.17 1586.64 2332.19C1586.98 2339.21 1585.38 2342.34 1583.09 2339.14ZM1501 2384.7C1497.95 2380.43 1498.44 2377.43 1502.11 2378.04C1505.76 2378.65 1508.27 2382.14 1507.66 2385.8C1507.05 2389.46 1504.06 2388.96 1501 2384.7ZM1660.21 2275.11C1659.07 2273.51 1659.44 2271.27 1661.04 2270.12C1662.64 2268.98 1664.89 2269.35 1666.03 2270.95C1667.18 2272.55 1666.8 2274.8 1665.2 2275.94C1663.61 2277.09 1661.36 2276.71 1660.21 2275.11ZM1740.65 2208.72C1738.39 2200.65 1727.92 2166.54 1717.38 2132.92C1706.85 2099.3 1700.66 2074.8 1703.63 2078.47C1711.73 2088.45 1745.05 2194.75 1744.89 2210.09C1744.78 2220.84 1743.97 2220.58 1740.65 2208.72ZM1388.35 2460.95C1387.2 2459.35 1387.57 2457.1 1389.17 2455.95C1390.78 2454.81 1393.02 2455.18 1394.17 2456.78C1395.32 2458.38 1394.95 2460.63 1393.34 2461.78C1391.74 2462.92 1389.5 2462.55 1388.35 2460.95ZM1366.72 2467.63C1365.58 2466.03 1365.95 2463.78 1367.55 2462.63C1369.15 2461.48 1371.4 2461.86 1372.55 2463.46C1373.69 2465.06 1373.32 2467.3 1371.72 2468.45C1370.11 2469.6 1367.87 2469.23 1366.72 2467.63ZM1658.61 2258.65C1656.3 2255.46 1651.38 2241.15 1647.67 2226.86C1643.96 2212.57 1643.82 2204.74 1647.36 2209.47C1650.89 2214.2 1655.82 2228.51 1658.3 2241.26C1660.78 2254.02 1660.92 2261.84 1658.61 2258.65ZM1176.33 2595.13C1175.19 2593.53 1175.56 2591.28 1177.16 2590.14C1178.76 2588.99 1181.01 2589.36 1182.15 2590.96C1183.3 2592.56 1182.93 2594.81 1181.33 2595.96C1179.73 2597.1 1177.48 2596.73 1176.33 2595.13ZM1246.17 2545.13C1245.02 2543.53 1245.39 2541.28 1246.99 2540.14C1248.59 2538.99 1250.84 2539.37 1251.99 2540.96C1253.13 2542.57 1252.76 2544.81 1251.16 2545.96C1249.56 2547.1 1247.31 2546.73 1246.17 2545.13ZM1308.32 2499.02C1311.32 2494.33 1316.49 2490.94 1319.81 2491.49C1323.13 2492.04 1320.67 2495.88 1314.36 2500.02C1307.38 2504.59 1305.02 2504.2 1308.32 2499.02ZM1327.64 2486.8C1326.49 2485.2 1326.86 2482.96 1328.47 2481.81C1330.07 2480.66 1332.31 2481.04 1333.46 2482.63C1334.61 2484.24 1334.23 2486.48 1332.63 2487.63C1331.03 2488.78 1328.78 2488.4 1327.64 2486.8ZM1496.4 2365.98C1495.26 2364.38 1495.63 2362.13 1497.23 2360.98C1498.83 2359.84 1501.08 2360.21 1502.22 2361.81C1503.37 2363.41 1502.99 2365.66 1501.4 2366.8C1499.8 2367.95 1497.55 2367.58 1496.4 2365.98ZM1888.78 1928.77C1876.22 1849.37 1848.07 1710.92 1826.22 1621.08C1757.09 1336.81 1764.08 1305 1924.3 1174.77C2025.93 1092.15 2061.46 1048.94 2152.12 897.724C2246.88 739.65 2247.83 738.55 2364.64 652.553C2507.17 547.62 2507.54 546.97 2544.74 338.071C2574.42 171.379 2586.73 142.419 2654.79 79.0958C2716.1 22.0532 2741.6 -22.6108 2749.02 -85.9513C2772.26 -284.361 2785.33 -319.547 2858.71 -380.958C2948.53 -456.126 2998.13 -450.016 3154.6 -344.499C3230.74 -293.154 3504.72 -81.3991 3507.77 -71.54C3508.81 -68.17 3439.94 -119.64 3354.72 -185.914C3037.27 -432.802 2979.35 -456.775 2877.14 -383.599C2797.77 -326.771 2775.66 -274.107 2758.55 -101.106C2750.24 -17.0261 2731.84 18.4809 2664.1 81.0962C2591.95 147.791 2580.18 175.296 2552.84 340.822C2519.74 541.258 2511.55 555.869 2378.02 652.531C2263.15 735.678 2251.27 748.931 2169.84 884.541C2065.27 1058.68 2039.67 1090.21 1930.81 1178.87C1772.97 1307.43 1765.69 1341.45 1835.31 1624.57C1864.57 1743.52 1921.75 2065.85 1914.52 2071.03C1912.92 2072.18 1901.33 2008.16 1888.78 1928.77ZM2392.59 1724.35C2391.45 1722.76 2391.82 1720.51 2393.42 1719.36C2395.02 1718.21 2397.27 1718.59 2398.41 1720.18C2399.56 1721.79 2399.19 1724.03 2397.59 1725.18C2395.99 1726.33 2393.74 1725.96 2392.59 1724.35ZM1288.55 2505.98C1287.41 2504.38 1287.78 2502.13 1289.38 2500.98C1290.98 2499.84 1293.23 2500.21 1294.38 2501.81C1295.52 2503.41 1295.15 2505.66 1293.55 2506.81C1291.95 2507.95 1289.7 2507.58 1288.55 2505.98ZM1571.62 2298.91C1568.57 2294.64 1569.06 2291.65 1572.72 2292.25C1576.38 2292.86 1578.88 2296.36 1578.28 2300.02C1577.68 2303.68 1574.68 2303.18 1571.62 2298.91ZM2257.88 1794.38C2259.67 1781 2262.44 1769.11 2264.04 1767.96C2265.64 1766.82 2265.49 1776.83 2263.7 1790.21C2261.92 1803.61 2259.15 1815.5 2257.54 1816.64C2255.95 1817.79 2256.1 1807.77 2257.88 1794.38ZM1206.23 2541.81C1207.33 2535.01 1210.75 2529.85 1213.82 2530.37C1216.9 2530.87 1216 2536.44 1211.82 2542.74C1205.79 2551.83 1204.65 2551.64 1206.23 2541.81ZM1487.63 2341.44C1484.58 2337.17 1485.07 2334.17 1488.74 2334.78C1492.4 2335.39 1494.9 2338.88 1494.29 2342.54C1493.68 2346.2 1490.69 2345.7 1487.63 2341.44ZM2391.73 1698.56C2390.58 1696.96 2390.96 1694.71 2392.56 1693.56C2394.16 1692.42 2396.4 1692.79 2397.55 1694.39C2398.69 1695.99 2398.32 1698.24 2396.72 1699.38C2395.12 1700.53 2392.88 1700.16 2391.73 1698.56ZM1124.75 2596.84C1123.6 2595.24 1123.97 2592.99 1125.57 2591.85C1127.17 2590.7 1129.42 2591.07 1130.57 2592.67C1131.71 2594.28 1131.34 2596.52 1129.74 2597.67C1128.14 2598.81 1125.89 2598.44 1124.75 2596.84ZM1188.76 2551.01C1187.61 2549.41 1187.98 2547.16 1189.58 2546.02C1191.19 2544.87 1193.43 2545.24 1194.58 2546.84C1195.73 2548.45 1195.36 2550.69 1193.75 2551.84C1192.15 2552.99 1189.91 2552.61 1188.76 2551.01ZM1564.94 2277.28C1561.88 2273.01 1562.38 2270.02 1566.04 2270.62C1569.7 2271.23 1572.2 2274.72 1571.6 2278.39C1570.99 2282.05 1568 2281.55 1564.94 2277.28ZM2389.21 1682.75C2388.07 1681.15 2388.44 1678.9 2390.04 1677.75C2391.64 1676.61 2393.89 1676.98 2395.04 1678.58C2396.18 1680.18 2395.81 1682.43 2394.21 1683.57C2392.6 1684.72 2390.36 1684.35 2389.21 1682.75ZM1478.98 2316.08C1474.4 2309.1 1474.8 2306.73 1479.97 2310.05C1484.67 2313.04 1488.05 2318.22 1487.5 2321.53C1486.96 2324.85 1483.12 2322.4 1478.98 2316.08ZM1557.44 2251.84C1552.92 2245.39 1545.59 2230.83 1541.15 2219.47C1533.91 2200.93 1534.16 2200.3 1543.62 2213.3C1549.41 2221.27 1556.74 2235.83 1559.91 2245.67C1564.42 2259.69 1563.89 2261.02 1557.44 2251.84ZM2259.5 1753.6C2259.18 1748.99 2260.23 1744.27 2261.84 1743.12C2263.43 1741.98 2265 1744.82 2265.31 1749.44C2265.63 1754.06 2264.58 1758.77 2262.98 1759.92C2261.38 1761.07 2259.81 1758.22 2259.5 1753.6ZM2386.7 1666.94C2385.55 1665.34 2385.92 1663.09 2387.52 1661.94C2389.12 1660.8 2391.37 1661.17 2392.52 1662.77C2393.66 1664.37 2393.29 1666.62 2391.69 1667.77C2390.09 1668.91 2387.85 1668.54 2386.7 1666.94ZM1633.59 2187.78C1629.01 2180.8 1629.4 2178.43 1634.59 2181.75C1639.27 2184.74 1642.66 2189.91 1642.12 2193.23C1641.56 2196.55 1637.73 2194.1 1633.59 2187.78ZM2384.18 1651.13C2383.04 1649.53 2383.41 1647.28 2385.01 1646.14C2386.61 1644.99 2388.85 1645.36 2390 1646.96C2391.15 1648.57 2390.77 1650.81 2389.18 1651.96C2387.58 1653.1 2385.33 1652.73 2384.18 1651.13ZM1466.85 2285.87C1461.12 2277.87 1460.1 2273.65 1464.57 2276.49C1469.06 2279.34 1473.74 2285.89 1475 2291.05C1476.24 2296.21 1472.58 2293.88 1466.85 2285.87ZM2251.6 1684.7C2246.98 1656.68 2244.85 1634.03 2246.87 1634.36C2251.33 1635.1 2266.67 1730.86 2262.77 1733.65C2261.25 1734.74 2256.22 1712.71 2251.6 1684.7ZM2379.58 1632.41C2376.52 1628.14 2377.02 1625.14 2380.68 1625.75C2384.34 1626.36 2386.84 1629.85 2386.24 1633.51C2385.63 1637.18 2382.64 1636.68 2379.58 1632.41ZM1226.08 2449.45C1225.76 2444.83 1226.81 2440.11 1228.42 2438.97C1230.01 2437.82 1231.58 2440.66 1231.9 2445.29C1232.21 2449.9 1231.16 2454.62 1229.56 2455.76C1227.96 2456.91 1226.39 2454.07 1226.08 2449.45ZM1623.89 2160.23C1619.37 2153.78 1612.04 2139.22 1607.6 2127.87C1600.36 2109.32 1600.61 2108.69 1610.07 2121.7C1615.86 2129.66 1623.19 2144.22 1626.36 2154.06C1630.87 2168.08 1630.34 2169.41 1623.89 2160.23ZM2374.98 1613.69C2373.84 1612.09 2374.21 1609.84 2375.81 1608.7C2377.41 1607.55 2379.66 1607.92 2380.8 1609.53C2381.95 1611.12 2381.57 1613.37 2379.97 1614.52C2378.38 1615.66 2376.13 1615.29 2374.98 1613.69ZM1225.21 2423.65C1224.9 2419.03 1225.95 2414.32 1227.55 2413.17C1229.15 2412.03 1230.72 2414.87 1231.03 2419.49C1231.35 2424.1 1230.29 2428.82 1228.69 2429.97C1227.09 2431.11 1225.52 2428.27 1225.21 2423.65ZM1448.1 2246.47C1440.07 2235.26 1437.99 2229.82 1443.46 2234.38C1448.94 2238.93 1455.5 2248.1 1458.05 2254.75C1460.6 2261.41 1456.12 2257.68 1448.1 2246.47ZM2370.38 1594.97C2367.32 1590.7 2367.82 1587.7 2371.48 1588.31C2375.14 1588.92 2377.65 1592.41 2377.04 1596.07C2376.43 1599.74 2373.44 1599.24 2370.38 1594.97ZM1521.23 2176.5C1513.21 2165.3 1511.13 2159.85 1516.6 2164.41C1522.07 2168.96 1528.64 2178.13 1531.19 2184.78C1533.73 2191.43 1529.25 2187.71 1521.23 2176.5ZM1223.52 2402.85C1222.38 2401.25 1222.75 2399 1224.35 2397.86C1225.95 2396.71 1228.2 2397.08 1229.34 2398.68C1230.49 2400.28 1230.12 2402.53 1228.51 2403.68C1226.92 2404.82 1224.67 2404.45 1223.52 2402.85ZM2365.78 1576.25C2364.63 1574.65 2365 1572.4 2366.61 1571.26C2368.21 1570.11 2370.46 1570.48 2371.6 1572.08C2372.75 1573.69 2372.38 1575.93 2370.78 1577.08C2369.17 1578.23 2366.93 1577.85 2365.78 1576.25ZM1218.92 2384.13C1215.87 2379.86 1216.36 2376.86 1220.02 2377.47C1223.69 2378.08 1226.19 2381.57 1225.58 2385.23C1224.98 2388.9 1221.98 2388.4 1218.92 2384.13ZM2361.18 1557.53C2358.13 1553.26 2358.62 1550.26 2362.29 1550.87C2365.94 1551.48 2368.44 1554.97 2367.84 1558.63C2367.23 1562.29 2364.24 1561.8 2361.18 1557.53ZM1583.59 2074.62C1523.7 1966.44 1394.95 1580.04 1370.4 1434.78C1340.6 1258.44 1358.24 1217.38 1515.9 1096.12C1666.7 980.139 1683.61 955.659 1764.4 736.271C1856 487.544 1897.75 441.794 2094.48 374.561C2279.06 311.483 2307.62 276.773 2381.96 25.1235C2432.54 -146.121 2468.36 -195.654 2581.71 -251.101C2657.49 -288.167 2695.19 -319.043 2712.52 -358.249C2719.01 -372.953 2726.52 -384.615 2729.2 -384.172C2757.25 -379.528 2690.55 -302.948 2627.13 -266.97C2462.55 -173.619 2441.81 -146.132 2380.47 59.9329C2314.13 282.831 2280.95 320.169 2091.63 385.02C1899.85 450.711 1866.91 487.848 1769.24 748.568C1687.98 965.476 1676.47 982.035 1526.15 1098.15C1383.99 1207.96 1359.57 1249.92 1368.6 1368.82C1377.61 1487.39 1474.91 1807.67 1570.99 2035.03C1587.52 2074.15 1593.19 2091.96 1583.59 2074.62ZM1214.32 2365.41C1213.17 2363.81 1213.55 2361.56 1215.15 2360.42C1216.75 2359.27 1219 2359.64 1220.14 2361.24C1221.29 2362.84 1220.92 2365.09 1219.31 2366.24C1217.71 2367.38 1215.47 2367.01 1214.32 2365.41ZM1417.94 2193.22C1245.84 1967.17 1056.52 1445.23 1079.76 1260.87C1092.81 1157.38 1106.35 1139.69 1254.69 1032.5C1431.32 904.866 1449.83 875.591 1520.4 612.325C1596.57 328.159 1654.97 256.8 1847.8 212.235C2135.57 145.732 2162.83 122.007 2262.12 -148.418C2342.1 -366.254 2392.43 -424.204 2545.78 -474.968C2612.8 -497.155 2687.06 -548.236 2699.67 -580.839C2704.42 -593.098 2710.85 -602.702 2713.97 -602.189C2717.09 -601.669 2711.02 -586.621 2700.47 -568.743C2676.28 -527.719 2619.43 -490.786 2541.34 -465.345C2402.52 -420.123 2348.35 -355.757 2270.01 -142.986C2171.89 123.505 2134.94 157.486 1882.79 213.124C1648.79 264.762 1609.75 314.663 1506.53 694.124C1456.99 876.201 1417.79 930.319 1251.18 1046.64C1120.53 1137.85 1101.73 1161.76 1087.61 1254.73C1063.19 1415.52 1196.26 1809.92 1380.6 2123.09C1410.68 2174.2 1427.49 2205.75 1417.94 2193.22ZM1499.72 2135.8C1438.17 2055.8 1303.3 1723.96 1252.74 1528.12C1183.38 1259.45 1201.84 1195.99 1388.89 1060.11C1547.8 944.659 1566.68 915.829 1643.19 671.64C1703.71 478.47 1740.1 413.7 1819.34 358.097C1864.44 326.451 1884.23 318.988 2046.31 272.532C2183.98 233.069 2235.23 180.616 2292.74 20.298C2365.55 -182.661 2376.04 -207.921 2404.23 -248.245C2440.05 -299.498 2478.46 -327.942 2555.15 -359.999C2631.86 -392.063 2684.74 -429.916 2703.55 -466.241C2721.54 -500.99 2726.16 -504.373 2719.24 -477.755C2706.13 -427.291 2665.99 -397.613 2533.79 -340.658C2423.43 -293.11 2392.92 -246.097 2309.91 4.40685C2249.73 185.994 2188.64 245.535 2015.54 291.303C1778.97 353.85 1739.49 396.864 1644.77 695.307C1574.71 916.063 1541.38 965.195 1388.09 1073.79C1262.17 1162.98 1247.22 1182.08 1232.76 1272.24C1209.64 1416.29 1314.46 1768.26 1470.83 2071.7C1493.62 2115.92 1506.62 2144.76 1499.72 2135.8ZM2240.37 1622.01C2238.08 1618.81 2235.93 1610.44 2235.59 1603.42C2235.26 1596.39 2236.86 1593.27 2239.15 1596.47C2241.44 1599.67 2243.6 1608.04 2243.93 1615.06C2244.27 1622.09 2242.66 1625.22 2240.37 1622.01ZM2356.58 1538.81C2355.44 1537.21 2355.81 1534.96 2357.41 1533.82C2359.01 1532.67 2361.25 1533.05 2362.4 1534.64C2363.55 1536.25 2363.17 1538.49 2361.58 1539.64C2359.98 1540.78 2357.73 1540.41 2356.58 1538.81ZM1209.72 2346.69C1206.67 2342.42 1207.16 2339.42 1210.82 2340.03C1214.48 2340.64 1216.98 2344.13 1216.38 2347.79C1215.78 2351.45 1212.78 2350.96 1209.72 2346.69ZM2354.07 1523C2352.92 1521.4 2353.29 1519.15 2354.89 1518.01C2356.49 1516.86 2358.74 1517.23 2359.89 1518.84C2361.03 1520.43 2360.66 1522.68 2359.06 1523.83C2357.46 1524.97 2355.21 1524.6 2354.07 1523ZM1203.04 2325.06C1199.98 2320.79 1200.48 2317.79 1204.14 2318.4C1207.8 2319.01 1210.3 2322.5 1209.7 2326.16C1209.09 2329.83 1206.09 2329.33 1203.04 2325.06ZM2351.55 1507.19C2350.4 1505.59 2350.78 1503.34 2352.37 1502.2C2353.98 1501.05 2356.22 1501.42 2357.37 1503.03C2358.52 1504.63 2358.14 1506.88 2356.54 1508.02C2354.95 1509.17 2352.7 1508.79 2351.55 1507.19ZM1023.03 2436.33C1024.24 2425.77 1026.54 2416.2 1028.14 2415.06C1029.74 2413.91 1030.06 2421.61 1028.85 2432.16C1027.64 2442.71 1025.34 2452.28 1023.74 2453.43C1022.14 2454.57 1021.82 2446.88 1023.03 2436.33ZM2231.17 1584.57C2228.88 1581.37 2226.73 1573 2226.39 1565.98C2226.06 1558.95 2227.66 1555.83 2229.95 1559.03C2232.24 1562.23 2234.39 1570.6 2234.73 1577.62C2235.06 1584.65 2233.46 1587.77 2231.17 1584.57ZM2348.12 1467.82C2346.17 1439.11 2363.09 1371.26 2374.18 1363.32C2377.76 1360.75 2374.2 1374.71 2366.27 1394.33C2358.34 1413.94 2352.78 1443.68 2353.92 1460.4C2355.06 1477.12 2354.64 1491.78 2352.98 1492.96C2351.33 1494.14 2349.14 1482.83 2348.12 1467.82ZM1192.19 2297.61C1189.13 2293.34 1189.62 2290.34 1193.29 2290.95C1196.95 2291.56 1199.45 2295.05 1198.84 2298.71C1198.24 2302.38 1195.24 2301.88 1192.19 2297.61ZM2222.83 1548.43C2216.23 1539.76 2206.58 1460.87 2208.09 1427.88C2209.79 1390.57 2240.22 1326.68 2263.62 1311.27C2275.48 1303.47 2274.8 1305.92 2260.6 1322.16C2220.38 1368.2 2208.96 1417.95 2219.57 1500.86C2223.23 1529.48 2224.7 1550.88 2222.83 1548.43ZM1025.47 2390.55C1025.15 2385.94 1026.21 2381.22 1027.81 2380.07C1029.41 2378.93 1030.98 2381.77 1031.29 2386.39C1031.6 2391 1030.55 2395.72 1028.95 2396.86C1027.35 2398.01 1025.78 2395.17 1025.47 2390.55ZM1178.08 2263.68C1172.35 2255.67 1171.33 2251.45 1175.81 2254.3C1180.29 2257.14 1184.98 2263.69 1186.23 2268.85C1187.48 2274.01 1183.82 2271.68 1178.08 2263.68ZM1020.01 2337.42C1016.71 2318.1 1015.72 2302.57 1017.81 2302.92C1022.33 2303.66 1032.67 2367.79 1028.73 2370.61C1027.24 2371.68 1023.31 2356.74 1020.01 2337.42ZM2596.48 1224.57C2599.47 1219.88 2604.64 1216.49 2607.95 1217.04C2611.27 1217.59 2608.82 1221.43 2602.5 1225.57C2595.53 1230.14 2593.16 1229.75 2596.48 1224.57ZM2673.98 1170.69C2672.83 1169.09 2673.2 1166.84 2674.81 1165.69C2676.4 1164.55 2678.65 1164.92 2679.8 1166.52C2680.95 1168.13 2680.57 1170.37 2678.98 1171.52C2677.37 1172.66 2675.13 1172.29 2673.98 1170.69ZM1161.2 2227.34C1154.44 2217.65 1153.44 2213.49 1158.97 2218.1C1164.5 2222.71 1170.03 2230.63 1171.26 2235.72C1172.48 2240.8 1167.96 2237.03 1161.2 2227.34ZM2554.67 1245.83C2555.27 1242.17 2558.77 1239.67 2562.43 1240.28C2566.09 1240.89 2565.59 1243.88 2561.33 1246.94C2557.06 1249.99 2554.06 1249.5 2554.67 1245.83ZM2698.91 1144.04C2697.76 1142.43 2698.14 1140.19 2699.73 1139.04C2701.34 1137.9 2703.58 1138.27 2704.73 1139.87C2705.87 1141.47 2705.5 1143.72 2703.9 1144.86C2702.3 1146.01 2700.06 1145.63 2698.91 1144.04ZM2518.31 1262.92C2521.3 1258.23 2526.47 1254.84 2529.79 1255.39C2533.1 1255.94 2530.66 1259.78 2524.34 1263.92C2517.36 1268.5 2514.99 1268.1 2518.31 1262.92ZM2712.2 1125.71C2711.06 1124.11 2711.43 1121.87 2713.03 1120.72C2714.63 1119.58 2716.87 1119.95 2718.02 1121.55C2719.17 1123.15 2718.79 1125.4 2717.19 1126.54C2715.59 1127.69 2713.35 1127.31 2712.2 1125.71ZM2386.11 1348.76C2389.11 1344.07 2394.27 1340.68 2397.59 1341.23C2400.91 1341.78 2398.46 1345.62 2392.14 1349.76C2385.16 1354.33 2382.8 1353.94 2386.11 1348.76ZM2479.22 1282.1C2482.22 1277.41 2487.38 1274.02 2490.7 1274.57C2494.02 1275.12 2491.57 1278.96 2485.25 1283.1C2478.27 1287.67 2475.91 1287.28 2479.22 1282.1ZM2419.47 1315.98C2424.08 1310.45 2432 1304.92 2437.09 1303.7C2442.17 1302.47 2438.4 1306.99 2428.71 1313.75C2419.02 1320.51 2414.87 1321.51 2419.47 1315.98ZM2732.96 1093.24C2731.81 1091.64 2732.19 1089.39 2733.79 1088.25C2735.39 1087.1 2737.64 1087.47 2738.78 1089.07C2739.93 1090.67 2739.56 1092.92 2737.95 1094.07C2736.35 1095.21 2734.11 1094.84 2732.96 1093.24ZM2740.43 1079.08C2739.29 1077.49 2739.66 1075.24 2741.26 1074.09C2742.86 1072.95 2745.11 1073.32 2746.25 1074.92C2747.4 1076.52 2747.03 1078.77 2745.43 1079.91C2743.83 1081.06 2741.58 1080.69 2740.43 1079.08ZM2747.91 1064.93C2746.76 1063.33 2747.13 1061.08 2748.73 1059.94C2750.33 1058.79 2752.58 1059.16 2753.72 1060.77C2754.87 1062.37 2754.5 1064.61 2752.9 1065.76C2751.3 1066.91 2749.05 1066.53 2747.91 1064.93ZM1136.21 2179.19C1125.89 2164.78 1122.81 2158.08 1129.35 2164.29C1135.9 2170.5 1144.34 2182.29 1148.11 2190.48C1151.88 2198.68 1146.52 2193.6 1136.21 2179.19ZM2755.37 1050.78C2754.23 1049.18 2754.6 1046.93 2756.2 1045.78C2757.8 1044.64 2760.05 1045.01 2761.2 1046.61C2762.34 1048.21 2761.97 1050.46 2760.37 1051.6C2758.77 1052.75 2756.52 1052.38 2755.37 1050.78ZM813.335 2432.36C812.191 2430.76 812.563 2428.52 814.164 2427.37C815.766 2426.22 818.013 2426.6 819.157 2428.19C820.304 2429.8 819.933 2432.04 818.331 2433.19C816.729 2434.34 814.482 2433.96 813.335 2432.36ZM1012.11 2290.05C1009.8 2286.86 1004.88 2272.56 1001.17 2258.26C997.464 2243.97 997.323 2236.14 1000.86 2240.87C1004.4 2245.6 1009.32 2259.91 1011.8 2272.66C1014.28 2285.42 1014.42 2293.24 1012.11 2290.05ZM2764.5 1026.64C2763.35 1025.03 2763.72 1022.79 2765.32 1021.64C2766.92 1020.49 2769.17 1020.87 2770.32 1022.47C2771.47 1024.07 2771.09 1026.32 2769.49 1027.46C2767.89 1028.61 2765.64 1028.24 2764.5 1026.64ZM2774.45 997.501C2774.13 992.881 2775.18 988.165 2776.79 987.018C2778.38 985.874 2779.95 988.713 2780.27 993.336C2780.58 997.952 2779.53 1002.67 2777.93 1003.81C2776.33 1004.96 2774.76 1002.12 2774.45 997.501ZM825.41 2363.16C824.544 2361.95 825.845 2354.08 828.3 2345.68C832.345 2331.83 832.698 2331.89 832.068 2346.31C831.412 2361.44 828.842 2367.95 825.41 2363.16ZM2788.52 943.395C2788.21 938.779 2789.26 934.063 2790.87 932.916C2792.46 931.772 2794.03 934.61 2794.34 939.229C2794.66 943.845 2793.6 948.562 2792.01 949.705C2790.4 950.852 2788.84 948.011 2788.52 943.395ZM990.052 2222.2C979.517 2206.86 970.893 2175.46 980.96 2189.08C985.634 2195.42 990.962 2207.45 992.798 2215.83C994.842 2225.15 993.776 2227.62 990.052 2222.2ZM2426.27 1196.29C2439.08 1185.26 2460.04 1170.28 2472.86 1163C2485.67 1155.71 2475.19 1164.74 2449.57 1183.05C2423.95 1201.36 2413.47 1207.32 2426.27 1196.29ZM2299.75 1278.08C2312.47 1267.12 2334.73 1251.18 2349.21 1242.66C2363.69 1234.15 2353.28 1243.12 2326.07 1262.6C2298.87 1282.08 2287.02 1289.04 2299.75 1278.08ZM2515.36 1124.33C2518.2 1119.85 2524.75 1115.16 2529.9 1113.91C2535.06 1112.66 2532.73 1116.33 2524.73 1122.06C2516.73 1127.79 2512.51 1128.81 2515.36 1124.33ZM826.511 2321.67C826.201 2317.05 827.25 2312.34 828.852 2311.19C830.454 2310.05 832.019 2312.89 832.333 2317.5C832.643 2322.12 831.594 2326.83 829.992 2327.98C828.39 2329.13 826.825 2326.29 826.511 2321.67ZM2546.38 1093.13C2549.38 1088.44 2554.55 1085.05 2557.87 1085.6C2561.19 1086.15 2558.73 1089.99 2552.42 1094.13C2545.44 1098.7 2543.07 1098.31 2546.38 1093.13ZM2565.49 1070.64C2568.49 1065.95 2573.66 1062.57 2576.97 1063.11C2580.29 1063.66 2577.84 1067.5 2571.53 1071.64C2564.55 1076.22 2562.18 1075.83 2565.49 1070.64ZM2581.88 1050.25C2582.49 1046.59 2585.98 1044.09 2589.64 1044.69C2593.31 1045.3 2592.81 1048.3 2588.54 1051.35C2584.27 1054.41 2581.28 1053.91 2581.88 1050.25ZM2790.65 903.327C2789.78 902.118 2791.08 894.252 2793.54 885.851C2797.58 871.999 2797.94 872.057 2797.31 886.475C2796.65 901.613 2794.08 908.121 2790.65 903.327ZM821.054 2268.53C817.753 2249.22 816.762 2233.69 818.859 2234.03C823.376 2234.78 833.712 2298.9 829.771 2301.72C828.278 2302.79 824.353 2287.86 821.054 2268.53ZM2597.66 1027.21C2600.24 1020.67 2604.97 1013.44 2608.17 1011.15C2611.37 1008.85 2611.88 1012.33 2609.3 1018.87C2606.73 1025.42 2601.99 1032.64 2598.79 1034.93C2595.59 1037.22 2595.09 1033.75 2597.66 1027.21ZM2615.94 999.452C2616.54 995.789 2620.03 993.289 2623.7 993.897C2627.36 994.507 2626.86 997.503 2622.6 1000.56C2618.33 1003.61 2615.33 1003.12 2615.94 999.452ZM3237.37 556.008C3236.22 554.406 3236.59 552.159 3238.2 551.012C3239.79 549.868 3242.04 550.24 3243.19 551.843C3244.33 553.445 3243.96 555.692 3242.36 556.836C3240.76 557.983 3238.52 557.61 3237.37 556.008ZM969.674 2170.26C962.489 2161.66 862.373 1962.67 824.438 1881.6C608.414 1419.89 630.245 1066.48 883.534 924.883C1142.36 780.192 1187.93 717.555 1241.45 432.866C1309.17 72.7091 1371.49 -0.915857 1671.78 -75.4545C1933.1 -140.327 1942.21 -147.381 2206.68 -490.178C2313.39 -628.48 2341.06 -653.505 2461.34 -720.427C2605.17 -800.456 2640.87 -840.051 2663.86 -945.018C2670.57 -975.714 2675.42 -987.573 2675.97 -974.68C2680.2 -875.886 2613.27 -793.438 2462.13 -711.235C2353.29 -652.048 2292.31 -597.329 2220.88 -494.775C2022.3 -209.673 1921.49 -128.706 1694.83 -72.2582C1375.95 7.15748 1320.22 68.6993 1254.17 414.344C1196.95 713.794 1146.05 791.471 930.669 908.043C742.291 1010 684.128 1112.31 689.37 1332.46C694.236 1536.81 744.469 1702.69 892.059 2001.78C967.043 2153.74 980.778 2183.55 969.674 2170.26ZM2629.23 981.129C2629.83 977.466 2633.32 974.966 2636.99 975.573C2640.64 976.183 2640.15 979.18 2635.88 982.233C2631.62 985.289 2628.62 984.792 2629.23 981.129ZM2790.49 853.935C2789.33 845.077 2789.69 836.894 2791.3 835.748C2792.89 834.604 2795.15 840.912 2796.31 849.77C2797.47 858.623 2797.11 866.806 2795.51 867.95C2793.91 869.096 2791.65 862.789 2790.49 853.935ZM2645.01 958.094C2647.59 951.552 2652.32 944.324 2655.51 942.033C2658.71 939.743 2659.22 943.222 2656.65 949.763C2654.06 956.3 2649.34 963.528 2646.14 965.819C2642.94 968.109 2642.43 964.631 2645.01 958.094ZM2684.17 890.101C2717 823.024 2724.71 763.796 2714.91 653.926C2702.1 510.419 2704.8 468.327 2731.85 389.842C2745.09 351.431 2763.19 291.431 2772.08 256.513C2820.99 64.2739 2989.43 -27.4353 3072.28 93.058C3086.21 113.317 3080.54 110.28 3052.78 82.6189C2971.41 1.53264 2835.3 74.9794 2792.01 223.332C2782.25 256.781 2762.13 320.472 2747.29 364.867C2713.8 465.097 2710.02 502.638 2720.3 632.385C2731.33 771.55 2707.14 906.216 2666.12 933.974C2663.31 935.871 2671.44 916.131 2684.17 890.101ZM3418.56 391.068C3417.41 389.466 3417.78 387.218 3419.38 386.072C3420.99 384.925 3423.23 385.297 3424.38 386.9C3425.52 388.498 3425.15 390.745 3423.55 391.891C3421.95 393.038 3419.7 392.666 3418.56 391.068ZM615.244 2389.27C614.1 2387.68 614.472 2385.43 616.074 2384.28C617.671 2383.14 619.918 2383.51 621.062 2385.11C622.21 2386.71 621.838 2388.96 620.241 2390.1C618.639 2391.25 616.392 2390.88 615.244 2389.27ZM3222.35 522.734C3221.2 521.136 3221.57 518.889 3223.18 517.742C3224.78 516.596 3227.03 516.968 3228.17 518.566C3229.32 520.168 3228.94 522.416 3227.34 523.562C3225.74 524.709 3223.49 524.337 3222.35 522.734ZM2787.55 825.225C2786.4 823.623 2786.77 821.375 2788.37 820.232C2789.97 819.085 2792.22 819.457 2793.36 821.06C2794.51 822.662 2794.14 824.909 2792.54 826.056C2790.94 827.2 2788.69 826.827 2787.55 825.225ZM629.324 2335.17C631.107 2321.78 633.882 2309.89 635.48 2308.75C637.081 2307.6 636.93 2317.62 635.142 2331.01C633.356 2344.39 630.586 2356.28 628.984 2357.43C627.382 2358.57 627.538 2348.56 629.324 2335.17ZM810.407 2215.37C798.523 2169.8 766.364 2087.79 717.111 1977.46C548.925 1600.69 510.491 1424.61 548.173 1203.47C578.876 1023.3 636.156 951.739 834.72 845.471C1071.17 718.938 1112.55 655.714 1171.01 331.619C1232.43 -8.86301 1303.35 -87.7245 1626.91 -175.347C1803.35 -223.131 1969.04 -314.409 1996.7 -379.061C1997.79 -381.627 2036.6 -416.767 2082.92 -457.145C2133.38 -501.124 2189.94 -557.496 2223.98 -597.739C2298.02 -685.272 2354.56 -735.64 2443.46 -793.233C2588.69 -887.333 2621.94 -938.12 2657.61 -1120.39C2689.68 -1284.25 2748.71 -1390.68 2842.89 -1454.46C2857.41 -1464.29 2850.21 -1454.83 2822.58 -1427.75C2723.78 -1330.93 2696.65 -1277.53 2663.96 -1115.52C2624.48 -919.817 2623.52 -918.398 2434.04 -775.065C2298.39 -672.458 2292.03 -666.762 2224.84 -587.773C2183.3 -538.951 2130.31 -484.876 2092.58 -452.835C2057.96 -423.432 1997.03 -368.804 1957.19 -331.447C1862.7 -242.862 1817.19 -220.138 1628.13 -167.168C1302.02 -75.8009 1244.46 -11.7074 1180.64 331.091C1119.81 657.864 1070.96 733.545 845.89 849.711C485.81 1035.55 446.966 1336.57 706.16 1932.51C779.06 2100.11 823.735 2218 816.359 2223.28C814.557 2224.57 811.875 2221.01 810.407 2215.37ZM2785.03 809.415C2783.88 807.818 2784.25 805.571 2785.86 804.424C2787.45 803.28 2789.7 803.652 2790.84 805.25C2791.99 806.852 2791.62 809.1 2790.02 810.243C2788.42 811.39 2786.17 811.018 2785.03 809.415ZM3287.26 440.308C3282.69 433.327 3283.08 430.96 3288.26 434.27C3292.95 437.271 3296.34 442.439 3295.79 445.757C3295.24 449.079 3291.4 446.623 3287.26 440.308ZM3553.19 259.452C3552.05 257.855 3552.42 255.608 3554.02 254.461C3555.62 253.317 3557.87 253.689 3559.01 255.287C3560.16 256.89 3559.79 259.137 3558.19 260.281C3556.59 261.427 3554.34 261.055 3553.19 259.452ZM2269.8 1170.67C2270.29 1168.55 2290.61 1150.37 2314.96 1130.27C2346.74 1104.03 2353.66 1099.83 2339.51 1115.4C2319.94 1136.93 2268.07 1178.05 2269.8 1170.67ZM2782.51 793.611C2781.36 792.008 2781.74 789.761 2783.34 788.614C2784.94 787.467 2787.19 787.84 2788.33 789.442C2789.48 791.04 2789.11 793.287 2787.5 794.434C2785.9 795.581 2783.66 795.209 2782.51 793.611ZM3205.25 486.55C3202.19 482.28 3202.69 479.284 3206.35 479.891C3210.01 480.501 3212.51 483.994 3211.91 487.653C3211.3 491.316 3208.3 490.82 3205.25 486.55ZM2363.03 1083.7C2365.88 1079.22 2372.42 1074.53 2377.58 1073.28C2382.74 1072.03 2380.41 1075.7 2372.41 1081.42C2364.41 1087.15 2360.19 1088.18 2363.03 1083.7ZM2393.83 1049.87C2409.16 1029.25 2424.46 1018.29 2414.2 1035.29C2409.77 1042.62 2400.85 1052.29 2394.38 1056.78C2384.92 1063.34 2384.81 1061.99 2393.83 1049.87ZM2780.48 777.451C2778.19 774.251 2774.77 758.869 2772.88 743.271C2770.99 727.67 2771.32 717.531 2773.61 720.735C2775.9 723.936 2779.33 739.314 2781.21 754.915C2783.1 770.509 2782.77 780.651 2780.48 777.451ZM3701.12 109.523C3699.97 107.921 3700.34 105.673 3701.94 104.53C3703.54 103.383 3705.79 103.755 3706.94 105.357C3708.08 106.955 3707.71 109.203 3706.11 110.349C3704.51 111.493 3702.26 111.121 3701.12 109.523ZM2458.18 967.632C2478.61 938.682 2520.79 884.815 2551.92 847.918C2641.81 741.373 2657.4 696.122 2657.22 542.244C2657.06 397.577 2662.44 371.182 2710.03 282.872C2744.27 219.361 2755.73 188.175 2770.02 119.616C2825.38 -145.883 2986.05 -190.802 3144.53 14.9137C3197 83.0134 3197 83.0134 3145.77 22.8301C3049.68 -90.0599 3013.96 -113.133 2949.75 -103.818C2864.76 -91.4885 2805.58 -13.0468 2775.48 127.208C2761.24 193.491 2748.38 229.189 2719.48 282.606C2673.93 366.818 2668.25 394.041 2664.94 544.507C2661.26 710.927 2650.28 742.123 2556.07 853.708C2524.93 890.591 2484.76 941.329 2466.81 966.472C2448.86 991.612 2431.22 1014 2427.61 1016.22C2424 1018.44 2437.75 996.574 2458.18 967.632ZM3520.29 225.782C3517.23 221.512 3517.72 218.516 3521.39 219.123C3525.05 219.733 3527.55 223.226 3526.94 226.881C3526.34 230.544 3523.34 230.048 3520.29 225.782ZM633.914 2268.3C633.362 2253.1 627.859 2211.47 621.685 2175.79C615.514 2140.12 613.375 2118.76 616.931 2128.31C627.131 2155.73 639.922 2246.12 637.302 2272.22C634.919 2295.94 634.919 2295.94 633.914 2268.3ZM3188.25 449.552C3183.68 442.571 3184.07 440.204 3189.25 443.518C3193.94 446.516 3197.33 451.683 3196.78 455.002C3196.23 458.323 3192.39 455.872 3188.25 449.552ZM3260.76 389.57C3254 379.88 3253 375.724 3258.53 380.33C3264.06 384.937 3269.59 392.865 3270.82 397.948C3272.05 403.031 3267.52 399.26 3260.76 389.57ZM3851.56 -24.599C3850.41 -26.2011 3850.78 -28.4485 3852.39 -29.5955C3853.98 -30.739 3856.23 -30.3667 3857.38 -28.7646C3858.52 -27.1666 3858.15 -24.9191 3856.55 -23.7756C3854.95 -22.6286 3852.7 -23.001 3851.56 -24.599ZM3491.65 197.114C3487.08 190.134 3487.47 187.767 3492.65 191.085C3497.34 194.081 3500.73 199.249 3500.18 202.568C3499.63 205.886 3495.8 203.434 3491.65 197.114ZM3668.21 75.851C3665.15 71.5811 3665.64 68.5847 3669.31 69.1919C3672.97 69.7987 3675.47 73.2915 3674.86 76.9546C3674.26 80.6174 3671.26 80.121 3668.21 75.851ZM3170.09 410.463C3163.33 400.773 3162.33 396.613 3167.86 401.219C3173.39 405.83 3178.92 413.757 3180.15 418.836C3181.37 423.919 3176.85 420.152 3170.09 410.463ZM2766.91 709.931C2757.83 698.334 2744.55 576.56 2747.39 530.915C2762.89 281.515 2936.84 113.165 3054.8 233.389C3070.54 249.439 3069.57 249.293 3045.9 232.076C2892.93 120.808 2720.15 368.744 2759.9 642.499C2765.63 681.982 2768.78 712.327 2766.91 709.931ZM3229.4 332.772C3220.3 319.92 3218.23 314.513 3224.81 320.755C3231.39 327.001 3238.83 337.52 3241.36 344.127C3243.89 350.738 3238.51 345.629 3229.4 332.772ZM3639.57 47.1836C3635 40.203 3635.39 37.8359 3640.58 41.1501C3645.26 44.1469 3648.65 49.315 3648.1 52.6333C3647.55 55.9548 3643.72 53.5031 3639.57 47.1836ZM3459.55 163.601C3453.82 155.593 3452.79 151.375 3457.27 154.223C3461.76 157.07 3466.45 163.619 3467.69 168.775C3468.94 173.934 3465.28 171.603 3459.55 163.601ZM425.449 2327.04C425.135 2322.42 426.188 2317.71 427.79 2316.56C429.388 2315.42 430.958 2318.25 431.267 2322.87C431.584 2327.49 430.531 2332.21 428.934 2333.35C427.332 2334.5 425.766 2331.66 425.449 2327.04ZM3142.9 359.485C3133.8 346.633 3131.73 341.226 3138.31 347.468C3144.88 353.714 3152.33 364.233 3154.86 370.836C3157.38 377.446 3152 372.337 3142.9 359.485ZM3794.56 -93.8582C3788.83 -101.861 3787.81 -106.082 3792.29 -103.239C3796.77 -100.392 3801.46 -93.8428 3802.71 -88.6829C3803.96 -83.5275 3800.29 -85.8553 3794.56 -93.8582ZM3945.87 -202.185C3940.14 -210.188 3939.11 -214.406 3943.59 -211.563C3948.07 -208.716 3952.76 -202.167 3954.01 -197.007C3955.26 -191.851 3951.6 -194.182 3945.87 -202.185ZM3612.92 22.245C3608.34 15.2644 3608.74 12.8973 3613.91 16.2105C3618.61 19.2086 3621.99 24.3795 3621.45 27.6979C3620.9 31.0162 3617.06 28.5602 3612.92 22.245ZM3428.72 132.841C3422.99 124.834 3421.97 120.613 3426.45 123.46C3430.93 126.307 3435.62 132.856 3436.87 138.012C3438.12 143.172 3434.45 140.844 3428.72 132.841ZM3187.57 261.463C3174.97 243.855 3170.9 235.869 3178.53 243.718C3186.17 251.568 3196.49 265.976 3201.46 275.739C3206.43 285.494 3200.18 279.071 3187.57 261.463ZM3590.43 3.12166C3585.85 -3.85846 3586.25 -6.22576 3591.43 -2.90823C3596.11 0.0886369 3599.5 5.25698 3598.95 8.57532C3598.41 11.8937 3594.57 9.44171 3590.43 3.12166ZM3251.97 153.726C3225.61 116.903 3215.76 101.165 3230.1 118.749C3244.44 136.335 3266 166.46 3278.03 185.693C3290.05 204.932 3278.33 190.544 3251.97 153.726ZM440.789 2213.69C439.598 2139.96 415.649 2029.46 375.749 1913.56C355.017 1853.34 323.28 1761.15 305.227 1708.7C202.468 1410.21 200.231 1213.91 297.482 1029.48C367.568 896.565 443.629 835.341 671.626 728.32C901.729 620.313 973.065 512.949 1013.16 214.297C1063.06 -157.461 1147.85 -255.066 1527.47 -377.75C1689.62 -430.153 1725.3 -446.826 1849.39 -528.183C1930.2 -581.162 1947.17 -589.635 2018.01 -612.322C2108.81 -641.4 2123.36 -651.903 2230.36 -765.529C2264.98 -802.291 2332.04 -869.925 2379.39 -915.831C2526.72 -1058.67 2542.96 -1082.47 2604.78 -1246.13C2674.56 -1430.86 2787.7 -1563.9 2923.96 -1621.45C2943.77 -1629.82 2924.6 -1613.88 2852.22 -1561.82C2710.43 -1459.84 2680.44 -1421.12 2621.77 -1264.31C2556.56 -1089.98 2531.21 -1051.58 2392.7 -917.385C2343.73 -869.937 2275.29 -800.909 2240.61 -763.981C2133.7 -650.129 2107.97 -631.531 2019.49 -604.104C1949.67 -582.465 1936.26 -575.674 1845.14 -515.791C1727.15 -438.243 1684.15 -418.374 1524.28 -367.547C1150.76 -248.788 1089.86 -177.475 1019.07 223.985C958.013 570.25 913.611 627.781 594.418 774.166C236.852 938.151 151.344 1245.62 324.98 1742.98C424.296 2027.46 453.326 2144.09 444.955 2225.02C441.741 2256.12 441.464 2255.37 440.789 2213.69ZM3105.24 293.995C3092.63 276.387 3088.56 268.402 3096.2 276.251C3103.84 284.101 3114.15 298.509 3119.12 308.271C3124.09 318.026 3117.84 311.603 3105.24 293.995ZM3751.23 -142.085C3745.5 -150.088 3744.48 -154.306 3748.95 -151.463C3753.44 -148.616 3758.12 -142.066 3759.38 -136.907C3760.62 -131.751 3756.96 -134.082 3751.23 -142.085ZM3396.03 99.0131C3389.27 89.3234 3388.26 85.1627 3393.8 89.7735C3399.33 94.38 3404.86 102.308 3406.09 107.391C3407.31 112.469 3402.79 108.703 3396.03 99.0131ZM3567.94 -15.9934C3563.36 -22.974 3563.75 -25.3411 3568.94 -22.0267C3573.63 -19.0296 3577.02 -13.862 3576.47 -10.5436C3575.91 -7.22217 3572.08 -9.67355 3567.94 -15.9934ZM603.285 2096.26C601.476 2089.08 565.766 1994.78 523.931 1886.71C373.421 1497.92 349.954 1336.16 414.324 1131.22C464.756 970.652 533.848 899.426 743.88 791.472C995.323 662.224 1035.69 601.03 1096.03 257.622C1157.62 -92.9024 1231.22 -176.019 1565.17 -272.17C1745.9 -324.212 1749.34 -325.862 1902.99 -434.862C1978.45 -488.387 2062.83 -545.046 2090.52 -560.772C2133.75 -585.331 2149.58 -598.809 2202.62 -656.24C2302.06 -763.911 2319.7 -780.791 2412.29 -856.845C2560.34 -978.45 2587.23 -1018.47 2635.8 -1189.39C2675.49 -1329.07 2724.91 -1416.5 2788.57 -1459.67C2801.94 -1468.74 2794.8 -1458.84 2768.87 -1432.36C2712.51 -1374.8 2673.44 -1298.16 2642.64 -1184.75C2598.59 -1022.55 2565.29 -972.538 2423.56 -855.771C2325.33 -774.85 2320.36 -770.13 2224.91 -667.581C2156.97 -594.575 2145.01 -584.309 2091.35 -552.923C2058.92 -533.965 1983.63 -482.256 1924.02 -438.015C1787.29 -336.543 1760.92 -323.705 1564.05 -262.808C1217.82 -155.716 1163.59 -90.5051 1093.32 303.164C1040.09 601.305 974.176 695.141 742.44 802.647C358.803 980.628 296.501 1279.87 522.253 1860.19C589.087 2031.99 614.519 2103.63 609.862 2106.96C608.055 2108.25 605.096 2103.44 603.285 2096.26ZM3545.45 -35.1121C3540.87 -42.0924 3541.27 -44.4598 3546.44 -41.1466C3551.14 -38.1482 3554.52 -32.9773 3553.97 -29.6589C3553.42 -26.3406 3549.59 -28.7966 3545.45 -35.1121ZM3716.24 -178.668C3710.51 -186.675 3709.48 -190.893 3713.96 -188.046C3718.44 -185.198 3723.13 -178.649 3724.38 -173.494C3725.63 -168.334 3721.97 -170.665 3716.24 -178.668ZM3131.16 169.771C3111.68 142.558 3104.71 130.706 3115.68 143.432C3126.64 156.166 3142.59 178.433 3151.11 192.917C3159.62 207.399 3150.65 196.984 3131.16 169.771ZM3522.96 -54.2351C3518.38 -61.2155 3518.77 -63.5828 3523.95 -60.2653C3528.64 -57.2682 3532.03 -52.1001 3531.48 -48.7818C3530.93 -45.4634 3527.1 -47.9154 3522.96 -54.2351ZM3834.97 -347.326C3812.07 -379.352 3804.2 -392.408 3817.49 -376.337C3830.78 -360.266 3849.52 -334.061 3859.14 -318.105C3868.76 -302.151 3857.88 -315.298 3834.97 -347.326ZM3689.58 -203.607C3683.85 -211.61 3682.83 -215.831 3687.31 -212.988C3691.79 -210.141 3696.47 -203.592 3697.73 -198.432C3698.97 -193.277 3695.31 -195.605 3689.58 -203.607ZM246.937 2231.39C246.074 2230.18 247.375 2222.32 249.831 2213.91C253.875 2200.06 254.232 2200.12 253.602 2214.54C252.941 2229.68 250.369 2236.18 246.937 2231.39ZM3664.2 -225.794C3659.63 -232.775 3660.02 -235.142 3665.19 -231.829C3669.88 -228.827 3673.27 -223.66 3672.73 -220.341C3672.18 -217.023 3668.34 -219.479 3664.2 -225.794ZM249.381 2185.62C248.515 2184.41 249.815 2176.54 252.268 2168.14C256.316 2154.29 256.668 2154.35 256.038 2168.76C255.382 2183.9 252.81 2190.41 249.381 2185.62ZM250.63 2131.9C250.115 2119.56 250.795 2108.68 252.144 2107.71C256.351 2104.7 258.867 2136.84 255.123 2145.8C253.162 2150.49 251.137 2144.23 250.63 2131.9ZM246.237 2076.72C244.327 2063.56 244.069 2051.86 245.671 2050.71C247.272 2049.57 250.145 2059.4 252.055 2072.56C253.969 2085.72 254.223 2097.42 252.621 2098.57C251.024 2099.71 248.147 2089.88 246.237 2076.72ZM242.029 2040.11C240.882 2038.51 241.254 2036.26 242.855 2035.12C244.457 2033.97 246.704 2034.34 247.851 2035.94C248.999 2037.55 248.627 2039.79 247.025 2040.94C245.423 2042.09 243.176 2041.71 242.029 2040.11ZM239.999 2023.95C237.708 2020.75 234.288 2005.37 232.396 1989.77C230.512 1974.18 230.838 1964.04 233.129 1967.24C235.42 1970.44 238.845 1985.82 240.732 2001.42C242.624 2017.01 242.294 2027.16 239.999 2023.95ZM61.2748 2144.18C60.409 2142.97 61.7097 2135.11 64.1649 2126.71C68.2102 2112.85 68.5623 2112.91 67.9325 2127.33C67.2762 2142.47 64.707 2148.98 61.2748 2144.18ZM64.0313 2092.71C63.714 2088.09 64.7671 2083.37 66.3645 2082.23C67.9663 2081.08 69.5319 2083.92 69.8492 2088.54C70.1632 2093.16 69.11 2097.87 67.5082 2099.02C65.9108 2100.16 64.341 2097.33 64.0313 2092.71ZM63.1638 2066.91C62.851 2062.29 63.8998 2057.58 65.5016 2056.43C67.1034 2055.28 68.669 2058.12 68.9862 2062.74C69.2959 2067.36 68.2471 2072.08 66.6452 2073.22C65.0435 2074.37 63.4779 2071.53 63.1638 2066.91ZM225.46 1955.11C223.169 1951.91 221.016 1943.55 220.681 1936.53C220.346 1929.5 221.948 1926.37 224.24 1929.57C226.534 1932.78 228.682 1941.15 229.018 1948.17C229.353 1955.19 227.755 1958.32 225.46 1955.11ZM62.3008 2041.11C61.9837 2036.49 63.0368 2031.78 64.6386 2030.63C66.236 2029.49 67.806 2032.33 68.1188 2036.95C68.4329 2041.56 67.3797 2046.28 65.7823 2047.42C64.1805 2048.57 62.615 2045.73 62.3008 2041.11ZM217.148 1919.24C204.717 1901.29 94.4444 1519.66 83.2704 1455.93C19.2195 1090.65 150.599 866.095 526.705 698.029C846.179 555.273 889.754 490.805 946.26 77.3813C970.574 -100.502 1031.23 -239.378 1107.24 -291.232C1123.54 -302.346 1120.44 -296.949 1093.87 -267.919C1008.58 -174.72 981.056 -97.1562 937.81 171.87C884.638 502.644 831.709 572.131 529.432 707.99C65.5738 916.468 -14.733 1149.93 171.101 1749.69C214.235 1888.9 225.915 1931.91 217.148 1919.24ZM58.9193 1999.51C57.0094 1986.35 56.7514 1974.64 58.3531 1973.5C59.955 1972.35 62.8273 1982.18 64.7372 1995.34C66.6516 2008.5 66.9053 2020.2 65.3035 2021.35C63.706 2022.5 60.8292 2012.67 58.9193 1999.51ZM54.7115 1962.9C53.5643 1961.29 53.936 1959.05 55.5378 1957.9C57.1396 1956.75 59.3867 1957.12 60.5339 1958.73C61.6811 1960.33 61.3095 1962.58 59.7077 1963.72C58.1059 1964.87 55.8587 1964.5 54.7115 1962.9ZM52.1974 1947.08C51.0533 1945.48 51.4249 1943.24 53.0223 1942.09C54.6241 1940.95 56.8713 1941.32 58.0153 1942.92C59.1625 1944.52 58.7908 1946.77 57.1889 1947.91C55.5915 1949.06 53.3445 1948.69 52.1974 1947.08ZM49.682 1931.28C48.5347 1929.68 48.9063 1927.43 50.5081 1926.28C52.1056 1925.14 54.3527 1925.51 55.4999 1927.11C56.6439 1928.71 56.2723 1930.96 54.6749 1932.1C53.0731 1933.25 50.826 1932.88 49.682 1931.28ZM-120.775 2031.3C-121.085 2026.68 -120.036 2021.97 -118.435 2020.82C-116.833 2019.67 -115.267 2022.51 -114.953 2027.13C-114.64 2031.75 -115.689 2036.47 -117.291 2037.61C-118.892 2038.76 -120.458 2035.92 -120.775 2031.3ZM48.5616 1914.3C47.0166 1910.47 37.7596 1875.49 27.9978 1836.56C18.2392 1797.64 -5.1796 1713.44 -24.043 1649.46C-153.292 1211 -104.389 979.106 157.112 790.387C245.056 726.922 261.512 718.231 431.743 645.31C766.061 502.097 815.97 429.72 867.603 13.226C892.649 -188.836 957.611 -328.201 1058.76 -396.875C1083.82 -413.886 1083.48 -413.165 1053.17 -384.865C938.058 -277.382 913.657 -216.074 864.824 88.3676C806.377 452.754 759.424 514.146 431.083 655.49C-83.1193 876.852 -174.666 1087.52 -9.83016 1670.1C25.8894 1796.36 62.0545 1947.6 48.5616 1914.3ZM-120.809 2000.51C-121.956 1998.91 -121.584 1996.66 -119.987 1995.51C-118.385 1994.37 -116.138 1994.74 -114.991 1996.34C-113.847 1997.94 -114.219 2000.19 -115.82 2001.33C-117.418 2002.48 -119.665 2002.11 -120.809 2000.51ZM-121.676 1974.71C-122.823 1973.11 -122.452 1970.86 -120.85 1969.72C-119.248 1968.57 -117.001 1968.94 -115.854 1970.55C-114.71 1972.14 -115.082 1974.39 -116.683 1975.54C-118.285 1976.68 -120.532 1976.31 -121.676 1974.71ZM-123.369 1953.91C-123.678 1949.29 -122.629 1944.58 -121.028 1943.43C-119.426 1942.28 -117.86 1945.12 -117.546 1949.74C-117.233 1954.36 -118.282 1959.08 -119.884 1960.22C-121.486 1961.37 -123.051 1958.53 -123.369 1953.91ZM-128.006 1904.4C-130.644 1886.92 -131.49 1871.67 -129.888 1870.53C-128.291 1869.38 -124.822 1882.75 -122.188 1900.23C-119.546 1917.72 -118.7 1932.96 -120.297 1934.1C-121.899 1935.25 -125.364 1921.88 -128.006 1904.4ZM-133.469 1859.88C-134.616 1858.28 -134.244 1856.03 -132.643 1854.88C-131.045 1853.74 -128.798 1854.11 -127.651 1855.72C-126.504 1857.32 -126.875 1859.57 -128.473 1860.71C-130.075 1861.86 -132.322 1861.48 -133.469 1859.88ZM-134.606 1844.93C-136.691 1842.6 -140.46 1827.47 -142.978 1811.3C-145.496 1795.14 -164.171 1718.53 -184.484 1641.05C-315.7 1140.56 -271.127 939.551 13.2495 749.274C110.951 683.908 145.641 667.003 344.712 587.752C669.832 458.322 744.799 358.39 781.69 5.21563C806.562 -232.831 868.983 -397.211 957.217 -457.016C964.209 -461.755 953.926 -446.482 934.372 -423.078C842.054 -312.591 810.125 -211.579 785.213 48.8281C755.808 356.2 664.441 469.796 344.016 597.357C34.9016 720.419 -89.1317 802.966 -175.563 943.142C-269.94 1096.2 -272.284 1272.14 -184.448 1610.21C-151.814 1735.83 -126.796 1853.64 -134.606 1844.93ZM-303.097 1954.91C-304.244 1953.31 -303.872 1951.06 -302.271 1949.91C-300.673 1948.77 -298.426 1949.14 -297.279 1950.74C-296.132 1952.35 -296.503 1954.59 -298.101 1955.74C-299.702 1956.88 -301.95 1956.51 -303.097 1954.91ZM-303.96 1929.11C-305.107 1927.51 -304.735 1925.26 -303.138 1924.12C-301.536 1922.97 -299.289 1923.34 -298.142 1924.95C-296.995 1926.55 -297.366 1928.8 -298.968 1929.94C-300.565 1931.09 -302.813 1930.71 -303.96 1929.11ZM-304.001 1898.32C-304.315 1893.7 -303.262 1888.99 -301.66 1887.84C-300.063 1886.7 -298.493 1889.54 -298.183 1894.16C-297.866 1898.78 -298.919 1903.49 -300.516 1904.64C-302.118 1905.78 -303.684 1902.94 -304.001 1898.32ZM-305.69 1877.52C-306.837 1875.92 -306.466 1873.67 -304.864 1872.52C-303.266 1871.38 -301.019 1871.75 -299.872 1873.35C-298.725 1874.96 -299.097 1877.2 -300.694 1878.35C-302.296 1879.49 -304.543 1879.12 -305.69 1877.52ZM-308.638 1848.81C-309.794 1839.96 -309.434 1831.77 -307.836 1830.63C-306.234 1829.48 -303.976 1835.79 -302.82 1844.64C-301.661 1853.5 -302.021 1861.68 -303.623 1862.83C-305.22 1863.97 -307.479 1857.67 -308.638 1848.81ZM3402.42 -891.458C3178.98 -928.711 2996.42 -925.693 2893.67 -883.048C2863.13 -870.373 2863.13 -870.373 2897.29 -890.283C2956.77 -924.949 3049.62 -932.993 3234.35 -919.478C3326.49 -912.744 3486.25 -888.603 3483.86 -881.781C3483.15 -879.759 3446.5 -884.112 3402.42 -891.458ZM-317.053 1775.59C-321.109 1749.43 -338.818 1666.03 -356.397 1590.23C-503.011 958.161 -411.418 782.723 181.449 560.04C592.814 405.528 670.562 315.346 702.307 -44.1413C723.543 -284.628 787.639 -470.57 868.251 -525.548C873.707 -529.27 860.556 -508.348 839.022 -479.051C759.851 -371.345 732.69 -281.699 712.273 -60.7139C677.513 315.547 596.378 416.204 214.409 556.901C-401.909 783.925 -495.946 955.249 -350.43 1585.96C-318.604 1723.91 -301.287 1817.13 -306.76 1821.05C-308.362 1822.2 -312.994 1801.74 -317.053 1775.59ZM-485.383 1909.31C-486.527 1907.71 -486.156 1905.46 -484.555 1904.32C-482.955 1903.17 -480.708 1903.55 -479.564 1905.14C-478.417 1906.75 -478.788 1908.99 -480.389 1910.14C-481.989 1911.28 -484.236 1910.91 -485.383 1909.31ZM-694.431 2035.34C-695.241 2034.21 -689.009 1988.8 -680.586 1934.43C-661.18 1809.18 -664.013 1734.06 -694.967 1553.06C-742.547 1274.87 -749.166 1228.45 -752.34 1150.73C-767.471 780.333 -626.954 638.502 -72.0786 464.113C428.649 306.744 516.349 213.412 544.872 -192.438C568.433 -527.679 629.621 -648.267 860.72 -814.884C989.727 -907.894 1041.95 -934.482 1196.17 -985.664C1637.74 -1132.21 1635.47 -1131.98 1810.91 -1048.17C2007.38 -954.307 2149.68 -1073.2 2312.54 -1467.28C2378.57 -1627.05 2441.13 -1748.05 2486.02 -1802.83C2545.87 -1875.85 2690.82 -1971.86 2714.76 -1954.34C2721.01 -1949.77 2719.54 -1947.09 2709.31 -1944.47C2562.06 -1906.63 2455.08 -1771.05 2326.43 -1459.26C2153.59 -1040.38 2020.18 -937.74 1784.31 -1042.16C1625.06 -1112.67 1627.59 -1112.97 1209.1 -973.752C947.804 -886.826 748.785 -747.28 655.371 -585.495C595.609 -481.993 575.463 -398.253 560.476 -191.067C529.866 232.006 438.579 325.805 -104.717 492.394C-606.843 646.362 -750.47 796.167 -736.472 1151.32C-733.479 1227.17 -724.957 1286.17 -677.675 1558.29C-647.553 1731.65 -649.113 1887.8 -682.095 2000.32C-688.072 2020.71 -693.625 2036.47 -694.431 2035.34ZM-484.595 1873.53C-485.742 1871.92 -485.371 1869.68 -483.77 1868.53C-482.17 1867.39 -479.923 1867.76 -478.775 1869.36C-477.628 1870.96 -478 1873.21 -479.6 1874.36C-481.201 1875.5 -483.448 1875.13 -484.595 1873.53ZM-484.634 1842.73C-484.948 1838.12 -483.895 1833.4 -482.295 1832.26C-480.695 1831.11 -479.128 1833.95 -478.815 1838.57C-478.499 1843.19 -479.551 1847.9 -481.152 1849.05C-482.752 1850.2 -484.319 1847.36 -484.634 1842.73ZM-485.499 1816.94C-485.812 1812.32 -484.76 1807.61 -483.16 1806.46C-481.559 1805.31 -479.993 1808.15 -479.679 1812.77C-479.364 1817.39 -480.416 1822.11 -482.016 1823.25C-483.616 1824.4 -485.183 1821.56 -485.499 1816.94ZM-487.188 1796.14C-488.336 1794.53 -487.964 1792.29 -486.363 1791.14C-484.763 1790 -482.516 1790.37 -481.369 1791.97C-480.221 1793.57 -480.593 1795.82 -482.194 1796.97C-483.794 1798.11 -486.041 1797.74 -487.188 1796.14ZM-488.878 1775.33C-489.193 1770.71 -488.141 1766 -486.541 1764.85C-484.941 1763.71 -483.374 1766.55 -483.058 1771.17C-482.745 1775.79 -483.797 1780.5 -485.397 1781.65C-486.998 1782.79 -488.564 1779.95 -488.878 1775.33ZM-490.57 1754.53C-491.714 1752.93 -491.342 1750.68 -489.742 1749.54C-488.141 1748.39 -485.894 1748.76 -484.75 1750.36C-483.603 1751.96 -483.975 1754.21 -485.575 1755.36C-487.176 1756.5 -489.423 1756.13 -490.57 1754.53ZM-501.762 1674.82C-507.727 1638.11 -510.996 1608.34 -509.022 1608.66C-504.584 1609.4 -484.235 1736.79 -488.115 1739.56C-489.656 1740.67 -495.797 1711.54 -501.762 1674.82ZM-515.599 1591.94C-523.266 1571.18 -539.712 1485.58 -535.914 1486.2C-533.779 1486.56 -527.464 1512.84 -521.887 1544.62C-516.306 1576.4 -513.479 1597.69 -515.599 1591.94ZM3232.3 -1123.15C3081.21 -1111.11 2963.12 -1082.15 2888.54 -1038.88C2841.32 -1011.48 2841.32 -1011.48 2880.45 -1040.73C2927.28 -1075.73 2991.58 -1097.31 3100.06 -1114.43C3180.71 -1127.16 3299.49 -1139.95 3302.18 -1136.2C3306.17 -1130.63 3291.35 -1127.86 3232.3 -1123.15ZM-540.849 1474.91C-568.555 1439.06 -591.224 1132.17 -573.612 1031.37C-529.549 779.145 -387.902 663.653 62.311 512.861C511.958 362.257 598.336 260.172 629.297 -157.22C644.054 -356.171 693.513 -501.753 774.947 -585.912C784.319 -595.598 778.32 -583.875 761.622 -559.866C677.781 -439.318 647.121 -332.264 633.057 -110.953C609.249 263.704 514.974 367.013 52.389 525.393C-510.747 718.195 -632.067 885.797 -555.459 1365.13C-545.386 1428.14 -538.814 1477.54 -540.849 1474.91ZM2678.16 -1098C2646.24 -1142.59 2761.23 -1345.67 2867.64 -1432.64C2910.7 -1467.84 2910.7 -1467.84 2873.98 -1433.08C2772.51 -1337.05 2713.81 -1244.89 2694.65 -1151.51C2687.93 -1118.79 2680.52 -1094.71 2678.16 -1098ZM2051.4 -688.406C2038.89 -685.469 2001.24 -679.964 1967.73 -676.172C1901.76 -668.703 1872.74 -656.817 1756.85 -589.821C1670.25 -539.762 1605.68 -512.462 1456.16 -462.686C1325.23 -419.098 1259.86 -391.203 1184.28 -346.658C1130.58 -315.006 1130.58 -315.006 1167.83 -342.892C1221.19 -382.838 1297.61 -417.545 1436.07 -464.731C1624.1 -528.807 1646.81 -538.458 1764.22 -604.114C1886.83 -672.678 1898.5 -676.94 1991.08 -686.984C2081.96 -696.845 2126.55 -729.298 2280.37 -897.496C2482.69 -1118.75 2504.45 -1150.22 2586.62 -1340.72C2647.48 -1481.79 2761.75 -1601 2892.27 -1659.56C2912.98 -1668.86 2892.82 -1653.27 2827.11 -1609.19C2687.19 -1515.3 2654.52 -1476.49 2590.42 -1327.89C2515.29 -1153.72 2484.46 -1109 2302.31 -909.876C2172.56 -768.058 2093.53 -698.297 2051.4 -688.406ZM2060.38 -762.154C2030.56 -750.376 2007.76 -748.443 1931.74 -751.255C1847.31 -754.379 1829.29 -749.092 1694.14 -681.601C1618.85 -643.999 1537.71 -610.64 1432.87 -574.181C1349.22 -545.088 1253.28 -507.579 1219.67 -490.822C1087.89 -425.136 1080.9 -422.297 1136.34 -457.008C1198.42 -495.873 1290.61 -534.984 1445.59 -588.204C1576.96 -633.316 1591.06 -639.257 1719.42 -703.571C1821.02 -754.472 1851.17 -762.24 1937.93 -759.865C2030.57 -757.328 2045.13 -760.906 2098.86 -799.376C2232.83 -895.288 2416.35 -1134.34 2534.51 -1366.84C2614.85 -1524.93 2650.31 -1572.8 2728.61 -1628.87C2784.02 -1668.56 2882.49 -1722.4 2887.31 -1715.66C2889.02 -1713.28 2878.88 -1706.7 2864.78 -1701.03C2718.66 -1642.29 2635.82 -1554.61 2539.7 -1357C2428.17 -1127.67 2167.84 -804.607 2060.38 -762.154ZM2921.03 -1438.56C2941.96 -1455.25 2976.01 -1479.61 2996.69 -1492.71C3017.38 -1505.8 3000.25 -1492.15 2958.63 -1462.37C2917.01 -1432.59 2900.09 -1421.87 2921.03 -1438.56ZM2024.07 -819.012C2008.99 -814.103 1964.02 -816.009 1910.61 -823.814C1789.6 -841.5 1766.46 -836.854 1604.15 -762.278C1564.73 -744.166 1485.89 -713.202 1428.95 -693.47C1196.75 -612.997 1169.37 -600.909 1059.88 -530.552C972.468 -474.378 972.468 -474.378 1039.88 -524.063C1123.85 -585.953 1193.19 -618.492 1388.22 -687.534C1467.68 -715.659 1565.26 -753.638 1605.07 -771.932C1768.02 -846.8 1787.48 -850.681 1911.97 -833.139C2020.3 -817.873 2039.96 -822.731 2111.46 -882.426C2229.17 -980.708 2348.92 -1148.7 2484.42 -1405.67C2598.59 -1622.19 2672.48 -1701.15 2811 -1754.64C2854.86 -1771.57 2845.77 -1765.8 2753.51 -1718.13C2646.88 -1663.03 2596.56 -1603.7 2503.73 -1423.6C2331.75 -1089.95 2149.08 -859.711 2024.07 -819.012ZM2943.79 -1498.8C2956.59 -1509.83 2977.55 -1524.81 2990.37 -1532.09C3003.18 -1539.38 2992.7 -1530.35 2967.08 -1512.04C2941.46 -1493.73 2930.98 -1487.77 2943.79 -1498.8ZM2880.45 -1488.59C2889.92 -1497.33 2906.95 -1509.51 2918.27 -1515.67C2929.6 -1521.82 2921.85 -1514.67 2901.04 -1499.78C2880.24 -1484.88 2870.97 -1479.85 2880.45 -1488.59ZM2027.67 -889.446C1992.92 -874.167 1952.82 -874.305 1896.47 -889.903C1744.37 -932.004 1729.3 -930.554 1536.33 -855.234C1408.78 -805.449 1269.84 -758.093 1282.25 -768.633C1285.64 -771.513 1320.04 -784.335 1358.68 -797.124C1397.32 -809.916 1482.96 -841.611 1548.99 -867.563C1696.9 -925.7 1749.85 -935.598 1818.9 -918.016C1986.52 -875.339 1996.86 -876.034 2080.04 -935.583C2189.52 -1013.97 2262.98 -1116.53 2405.5 -1390C2558.11 -1682.83 2628.07 -1764.02 2771.98 -1815.29C2812.71 -1829.8 2809.85 -1827.98 2710.05 -1775.69C2602.24 -1719.2 2540.58 -1642.03 2438.92 -1436.38C2280.27 -1115.46 2151.15 -943.736 2027.67 -889.446ZM2949.13 -1546.51C2957.01 -1554.18 2970.13 -1563.52 2978.28 -1567.26C2986.43 -1571.01 2979.97 -1564.73 2963.94 -1553.31C2947.91 -1541.9 2941.24 -1538.84 2949.13 -1546.51ZM2856.78 -1518.56C2926.15 -1577.35 2986 -1619.6 2935.71 -1574.3C2916.58 -1557.07 2879.9 -1528.08 2854.2 -1509.88C2807.47 -1476.79 2807.47 -1476.79 2856.78 -1518.56ZM1993.35 -944.114C1958.35 -932.14 1914.53 -938.457 1842.48 -965.869C1713.59 -1014.91 1679.66 -1016.43 1555.38 -978.758C1514.62 -966.403 1491.63 -961.177 1504.31 -967.146C1613.7 -1018.67 1703.77 -1023.45 1815.12 -983.656C2047.45 -900.629 2159.29 -996.175 2376.26 -1463.11C2434.38 -1588.16 2493.59 -1695.63 2503.47 -1694C2505.86 -1693.6 2496.35 -1676.21 2482.33 -1655.34C2468.32 -1634.48 2418.03 -1534.57 2370.57 -1433.32C2226.66 -1126.29 2119.45 -987.257 1993.35 -944.114ZM1249.49 -751.146C1245.25 -750.179 1209.78 -736.087 1170.68 -719.828C1131.57 -703.573 1104.5 -694.07 1110.51 -698.715C1123.3 -708.587 1268.13 -768.347 1270.67 -764.799C1272.8 -761.832 1259.89 -753.518 1249.49 -751.146ZM1434.28 -935.863C1405.64 -927.376 1405.55 -927.409 1428.06 -938.398C1454.67 -951.387 1485.29 -959.9 1472.11 -950.643C1467.28 -947.249 1450.25 -940.598 1434.28 -935.863ZM885.259 -544.164C889.868 -549.695 897.793 -555.223 902.872 -556.447C907.955 -557.674 904.188 -553.151 894.501 -546.395C884.814 -539.639 880.655 -538.635 885.259 -544.164ZM987.167 -619.827C917.735 -575.41 917.735 -575.41 978.317 -619.887C1011.64 -644.349 1052.18 -670.703 1068.42 -678.451C1104.01 -695.432 1093.5 -687.851 987.167 -619.827ZM2509.36 -1706.7C2509.97 -1710.36 2513.46 -1712.86 2517.12 -1712.26C2520.79 -1711.65 2520.29 -1708.65 2516.02 -1705.6C2511.75 -1702.54 2508.76 -1703.04 2509.36 -1706.7ZM2727.91 -1870.7C2708.95 -1863.36 2682.58 -1850.41 2669.29 -1841.92C2655.17 -1832.9 2649.06 -1831.14 2654.58 -1837.68C2666.57 -1851.88 2750.48 -1892.13 2759.88 -1888.2C2763.77 -1886.57 2765.91 -1884.97 2764.65 -1884.65C2763.39 -1884.32 2746.86 -1878.05 2727.91 -1870.7ZM2528.06 -1731.82C2532.49 -1739.16 2541.4 -1748.83 2547.87 -1753.32C2557.33 -1759.88 2557.44 -1758.53 2548.42 -1746.4C2533.09 -1725.78 2517.79 -1714.83 2528.06 -1731.82ZM1321.72 -896.361C1286.02 -885.373 1216.47 -860.787 1167.19 -841.726C1117.9 -822.664 1082.74 -810.914 1089.06 -815.612C1095.37 -820.313 1134.79 -837.181 1176.65 -853.098C1261.94 -885.524 1408.82 -932.186 1395.37 -922.579C1390.57 -919.147 1357.43 -907.349 1321.72 -896.361ZM2569.02 -1776.18C2575.26 -1782.76 2585.77 -1790.2 2592.38 -1792.73C2598.99 -1795.26 2593.88 -1789.88 2581.03 -1780.78C2568.18 -1771.68 2562.78 -1769.61 2569.02 -1776.18ZM2617.62 -1819.57C2620.62 -1824.26 2625.78 -1827.65 2629.11 -1827.1C2632.43 -1826.55 2629.97 -1822.71 2623.66 -1818.57C2616.68 -1814 2614.31 -1814.39 2617.62 -1819.57ZM802.582 -619.458C813.553 -634.592 853.424 -667.921 851.684 -660.503C851.184 -658.38 837.441 -644.84 821.144 -630.415C802.014 -613.483 795.434 -609.598 802.582 -619.458ZM1049.7 -793.973C1054.31 -799.505 1062.23 -805.032 1067.31 -806.256C1072.4 -807.483 1068.63 -802.96 1058.94 -796.204C1049.26 -789.448 1045.1 -788.444 1049.7 -793.973ZM1001.79 -768.601C1008.03 -775.174 1018.54 -782.621 1025.15 -785.148C1031.76 -787.675 1026.65 -782.295 1013.8 -773.192C1000.95 -764.091 995.544 -762.025 1001.79 -768.601ZM898.685 -703.865C914.754 -717.153 940.95 -735.889 956.898 -745.5C972.851 -755.114 959.706 -744.243 927.69 -721.344C895.669 -698.442 882.617 -690.577 898.685 -703.865Z" fill="url(#paint1_radial_130_7481)" fill-opacity="0.7"/>
</g>
</mask>
<g mask="url(#mask0_130_7481)">
<rect x="-1457.48" y="175.198" width="2374.36" height="2380.02" transform="rotate(-35.6005 -1457.48 175.198)" fill="url(#paint2_linear_130_7481)" fill-opacity="0.2"/>
</g>
</g>
<defs>
<radialGradient id="paint0_radial_130_7481" cx="0" cy="0" r="1" gradientUnits="userSpaceOnUse" gradientTransform="translate(698.5 991.5) rotate(-119.493) scale(2398.85 1913.16)">
<stop stop-color="#02B1DD"/>
<stop offset="0.432111" stop-color="white"/>
</radialGradient>
<radialGradient id="paint1_radial_130_7481" cx="0" cy="0" r="1" gradientUnits="userSpaceOnUse" gradientTransform="translate(-765.179 549.021) rotate(6.76665) scale(2737.35 2737.45)">
<stop offset="0.255368" stop-color="#6EC6DC"/>
<stop offset="0.443496" stop-color="#74FFE3"/>
<stop offset="0.622867" stop-color="#FFA9C9"/>
</radialGradient>
<linearGradient id="paint2_linear_130_7481" x1="448.995" y1="767.859" x2="-1788.44" y2="2830.35" gradientUnits="userSpaceOnUse">
<stop stop-color="white"/>
<stop offset="0.177038" stop-color="white"/>
<stop offset="0.274611" stop-color="white" stop-opacity="0.6"/>
<stop offset="0.436287" stop-color="white" stop-opacity="0.5"/>
<stop offset="0.543522" stop-color="white" stop-opacity="0"/>
</linearGradient>
<clipPath id="clip0_130_7481">
<rect width="969" height="1215" fill="white" transform="translate(0 969) rotate(-90)"/>
</clipPath>
</defs>
</svg>
