<svg width="1215" height="969" viewBox="0 0 1215 969" fill="none" xmlns="http://www.w3.org/2000/svg">
<g clip-path="url(#clip0_127_21034)">
<rect width="969" height="1215" transform="matrix(-4.37114e-08 -1 -1 4.37114e-08 1215 969)" fill="url(#paint0_radial_127_21034)"/>
<mask id="mask0_127_21034" style="mask-type:alpha" maskUnits="userSpaceOnUse" x="-2740" y="-1957" width="4709" height="4631">
<mask id="mask1_127_21034" style="mask-type:luminance" maskUnits="userSpaceOnUse" x="-3519" y="-2089" width="6415" height="6031">
<path d="M-1405.38 -2088.5L2895.18 990.453L782.123 3941.87L-3518.43 862.916L-1405.38 -2088.5Z" fill="white"/>
</mask>
<g mask="url(#mask1_127_21034)">
<path d="M-859.953 2530.71C-746.068 2411.4 -729.151 2317.27 -800.459 2199.6C-816.599 2172.97 -816.599 2172.97 -789.32 2196.34C-762.041 2219.71 -762.041 2219.71 -791.303 2186.81C-842.255 2129.53 -856.572 2116.05 -851.755 2129.86C-848.61 2138.88 -858.873 2133.06 -889.316 2108.56C-912.893 2089.59 -974.197 2051.61 -1029.57 2021.67C-1287.17 1882.41 -1342.81 1790.36 -1289.59 1591.49C-1240.17 1406.8 -1270.31 1353.1 -1453.97 1298.61C-1670.19 1234.47 -1705.48 1116.84 -1600.74 809.448C-1523.22 581.967 -1536.71 467.812 -1651.19 382.692C-1787.22 281.546 -1893.62 372.452 -2003.7 683.843C-2037.73 780.135 -2028.03 774.022 -1988.82 674.475C-1873.23 381.006 -1784.4 304.04 -1663.05 392.23C-1551.98 472.939 -1539.03 588.585 -1616.03 812.178C-1718.38 1109.43 -1674.8 1243.39 -1453.75 1310.92C-1280.6 1363.81 -1259.2 1403.77 -1302.48 1593.28C-1347.78 1791.63 -1297.17 1885.69 -1080.04 2006.72C-819.273 2152.08 -737.615 2258.83 -782.478 2395.73C-795.69 2436.04 -860.083 2525.83 -889.416 2544.84C-895.754 2548.95 -898.069 2554.05 -894.691 2556.47C-891.378 2558.84 -875.745 2547.25 -859.953 2530.71ZM-645.185 2492.96C-644.038 2491.36 -644.409 2489.11 -646.011 2487.96C-647.613 2486.82 -649.86 2487.19 -651.007 2488.79C-652.154 2490.39 -651.783 2492.64 -650.181 2493.79C-648.579 2494.93 -646.332 2494.56 -645.185 2492.96ZM-634.337 2465.51C-633.19 2463.9 -633.562 2461.66 -635.159 2460.51C-636.761 2459.37 -639.008 2459.74 -640.155 2461.34C-641.299 2462.94 -640.928 2465.19 -639.326 2466.33C-637.728 2467.48 -635.481 2467.1 -634.337 2465.51ZM-631.819 2449.7C-630.671 2448.09 -631.043 2445.85 -632.645 2444.7C-634.242 2443.56 -636.489 2443.93 -637.637 2445.53C-638.784 2447.13 -638.412 2449.38 -636.815 2450.53C-635.213 2451.67 -632.966 2451.3 -631.819 2449.7ZM-626.789 2418.08C-625.642 2416.48 -626.013 2414.23 -627.611 2413.09C-629.213 2411.94 -631.46 2412.31 -632.607 2413.91C-633.751 2415.51 -633.379 2417.76 -631.777 2418.91C-630.18 2420.05 -627.933 2419.68 -626.789 2418.08ZM-490.422 2498.1C-489.275 2496.5 -489.646 2494.25 -491.248 2493.1C-492.85 2491.96 -495.097 2492.33 -496.244 2493.93C-497.391 2495.53 -497.02 2497.78 -495.418 2498.93C-493.816 2500.07 -491.569 2499.7 -490.422 2498.1ZM-626.7 2393.37C-625.984 2392.37 -628.4 2377.77 -632.072 2360.91C-638.743 2330.27 -638.743 2330.27 -635.195 2361.43C-631.885 2390.47 -629.919 2397.87 -626.7 2393.37ZM-489.559 2472.3C-488.412 2470.7 -488.783 2468.45 -490.385 2467.3C-491.983 2466.16 -494.23 2466.53 -495.377 2468.13C-496.524 2469.74 -496.152 2471.98 -494.555 2473.13C-492.953 2474.27 -490.706 2473.9 -489.559 2472.3ZM-641.891 2328.52C-640.76 2326.94 -644.239 2316.59 -649.618 2305.51C-657.889 2288.49 -657.565 2286.61 -647.534 2293.38C-641.007 2297.78 -629.944 2301.69 -622.952 2302.07C-614.089 2302.54 -617.106 2299.31 -632.906 2291.39C-655.499 2280.07 -682.184 2241.7 -668.986 2239.51C-665.405 2238.92 -668.674 2234 -676.247 2228.57C-685.255 2222.13 -692.578 2200.9 -697.436 2167.18C-701.52 2138.83 -704.86 2123.56 -704.867 2133.24C-704.875 2142.92 -702.799 2166.78 -700.253 2186.27C-695.158 2225.34 -712.082 2226.1 -754.397 2188.71C-763.821 2180.38 -774.603 2175.79 -778.355 2178.51C-788.099 2185.58 -728.694 2237.27 -698.639 2247.87C-666.047 2259.37 -663.695 2262.71 -692.053 2257.2C-715.238 2252.7 -715.237 2252.7 -690.403 2270.87C-676.744 2280.87 -660.706 2298.58 -654.759 2310.23C-648.813 2321.87 -643.026 2330.11 -641.891 2328.52ZM-718.914 2220.14C-703.109 2224.66 -688.638 2232.06 -686.754 2236.57C-682.854 2245.91 -710.762 2237.09 -732.866 2222C-744.236 2214.23 -741.012 2213.81 -718.914 2220.14ZM-499.412 2413.86C-500.331 2400.36 -498.974 2399.52 -488.456 2407.05C-481.848 2411.78 -473.824 2414.55 -470.621 2413.22C-467.418 2411.88 -476.532 2403.11 -490.879 2393.75C-512.478 2379.64 -515.215 2375.56 -506.812 2370.02C-498.493 2364.53 -500.073 2361.98 -515.529 2355.88C-525.91 2351.79 -531.471 2347.22 -527.894 2345.73C-506.401 2336.74 -521.02 2320 -555.966 2313.58C-575.841 2309.92 -593.484 2303.61 -595.179 2299.55C-596.877 2295.5 -600.249 2294.95 -602.675 2298.34C-608.402 2306.34 -604.208 2308.89 -568.953 2318.86C-533.307 2328.93 -514.842 2339.63 -534.74 2338.69C-546.089 2338.15 -546.561 2338.81 -538.969 2344.6C-532.488 2349.55 -534.086 2350.77 -545.59 2349.68C-553.929 2348.89 -566.13 2342.58 -572.706 2335.67C-579.286 2328.76 -584.886 2326.34 -585.152 2330.29C-585.826 2340.22 -567.235 2352.54 -544.989 2356.9C-529.324 2359.97 -524.167 2365.98 -512.369 2394.91C-504.639 2413.87 -498.832 2422.37 -499.412 2413.86ZM-120.454 2673.42C-116.934 2671.92 -125.464 2661.46 -139.41 2650.17C-171.714 2624 -199.65 2576.77 -207.427 2535.16C-214.41 2497.79 -210.718 2456.2 -201.033 2463.14C-197.559 2465.63 -194.456 2463.82 -194.139 2459.13C-193.822 2454.43 -196.763 2450.38 -200.678 2450.11C-208.033 2449.61 -195.644 2404.23 -173.551 2350.74C-166.605 2333.92 -120.38 2258.05 -70.8244 2182.14C198.726 1769.24 336.245 1355.23 265.862 1168.53C240.68 1101.74 213.455 1074.91 84.0294 989.324C-90.0415 874.222 -117.376 828.757 -179.331 551.329C-252.065 225.655 -312.574 160.072 -588.749 107.6C-840.694 59.7288 -880.567 24.004 -988.837 -250.882C-1081.58 -486.351 -1122.89 -529.62 -1315.25 -592.821C-1460.34 -640.487 -1499.79 -690.708 -1487.6 -812.217C-1483.58 -852.218 -1483.58 -852.218 -1471.22 -811.85C-1448.95 -739.18 -1400.75 -697.853 -1274.63 -643.282C-1129.76 -580.603 -1090.99 -540.747 -968.843 -328.924C-812.035 -57.0018 -774.486 -26.071 -540.963 23.5754C-244.432 86.6196 -185.122 150.75 -115.537 483.599C-59.2439 752.854 -24.6368 817.676 111.037 908.022C343.732 1062.98 364.177 1083.95 385.732 1189.81C427.863 1396.7 296.304 1832.1 102.864 2125.98C93.0081 2140.96 92.5943 2143.57 101.417 2135.17C168.226 2071.48 323.632 1722.69 368.104 1536.62C443.297 1222.03 404.138 1076.47 214.231 964.628C-6.97603 834.356 -44.9977 777.318 -107.606 481.816C-181.291 134.031 -235.855 77.7829 -566.872 8.37443C-767.227 -33.6388 -812.563 -72.9914 -963.744 -336.13C-1086.76 -550.248 -1121.98 -585.972 -1276.38 -653.308C-1415.5 -713.972 -1457.65 -758.058 -1470.56 -856.399C-1476.27 -899.886 -1470.41 -980.835 -1460.41 -996.614C-1454.92 -1005.28 -1461.06 -1090.76 -1467.1 -1089.75C-1469.83 -1089.3 -1476.69 -1109.97 -1482.35 -1135.67C-1492.09 -1179.84 -1502.93 -1201.97 -1504.39 -1180.63C-1504.8 -1174.58 -1506.47 -1174.35 -1508.84 -1180.03C-1510.93 -1185.03 -1508.79 -1190.73 -1504.09 -1192.69C-1498.54 -1195.02 -1500 -1197.43 -1508.27 -1199.58C-1515.99 -1201.59 -1517.91 -1204.19 -1513.15 -1206.19C-1494.8 -1213.86 -1601.28 -1358.4 -1647.91 -1389.1C-1667.92 -1402.27 -1668.83 -1402.3 -1655.09 -1389.33C-1604.41 -1341.52 -1509.51 -1217.84 -1521.93 -1215.78C-1523.67 -1215.49 -1537.93 -1233.97 -1553.62 -1256.84C-1614.91 -1346.21 -1823.63 -1504.32 -1843.56 -1476.47C-1845.84 -1473.29 -1830.14 -1461.54 -1804.88 -1447.52C-1622.2 -1346.15 -1515.77 -1215.73 -1491.91 -1063.98C-1474.77 -954.981 -1481.09 -923.497 -1506.23 -992.593C-1561.37 -1144.15 -1677.64 -1241.05 -1882.11 -1305.84C-1913.67 -1315.84 -1943.63 -1323.51 -1948.68 -1322.89C-1962.33 -1321.19 -1956.76 -1318.84 -1898.98 -1301.91C-1642.09 -1226.61 -1472.28 -1042.88 -1498.97 -869.115C-1506.48 -820.247 -1508.09 -818.492 -1518.26 -848.126C-1533.29 -891.927 -1575.09 -959.344 -1602.37 -983.758C-1626.7 -1005.54 -1626.04 -1003.93 -1594.87 -965.553C-1533.04 -889.422 -1506.41 -815.292 -1508.65 -725.531C-1510.22 -662.564 -1514.48 -660.54 -1534.19 -713.39C-1552.43 -762.283 -1596.54 -825.723 -1625.95 -845.35C-1643.32 -856.941 -1642.05 -854.419 -1618.88 -831.314C-1552.44 -765.081 -1517.13 -668.249 -1520.13 -560.572C-1521.96 -494.878 -1521.96 -494.878 -1532.25 -528.923C-1585.74 -706.053 -1694.35 -773.478 -1873.64 -740.858C-2180.1 -685.108 -2439.59 -568.185 -2548.27 -436.873C-2575.73 -403.698 -2575.73 -403.698 -2545.57 -434.189C-2405.84 -575.447 -2145.85 -688.871 -1855.76 -735.148C-1654.13 -767.306 -1524.61 -637.124 -1531.24 -408.95C-1533.12 -344.06 -1533.12 -344.06 -1541.6 -380.043C-1566.41 -485.378 -1673.41 -590.984 -1756.07 -591.71C-1859.09 -592.62 -2380.9 -325.594 -2434.74 -244.414C-2437.73 -239.905 -2412.67 -256.144 -2379.05 -280.498C-2212.08 -401.461 -1861.75 -575.863 -1771.68 -582.865C-1646.76 -592.568 -1545.46 -453.558 -1539.96 -264.873C-1536.08 -131.881 -1523.28 -105.567 -1422.81 -24.2705C-1329.07 51.5867 -1319.57 69.7172 -1281.09 246.007C-1235.8 453.527 -1213.89 485.225 -1058.97 567.41C-933.56 633.941 -913.271 657.045 -811.053 849.686C-705.45 1048.71 -683.283 1078.45 -591.043 1144.83C-419.272 1268.46 -405.068 1327.47 -479.666 1607.67C-585.869 2006.58 -625.922 2188.57 -616.781 2230.7C-611.233 2256.27 -616.187 2262.63 -632.874 2251.38C-645.54 2242.85 -645.798 2243.05 -637.925 2255.36C-633.354 2262.51 -622.545 2272.31 -613.904 2277.14C-605.263 2281.97 -591.459 2290.35 -583.23 2295.77C-571.448 2303.52 -569.28 2303.13 -573.022 2293.91C-575.634 2287.47 -584.208 2279.66 -592.077 2276.56C-636.424 2259.09 -626.598 2202.94 -483.775 1657.56C-395.135 1319.06 -400.599 1286.86 -569.59 1151.75C-682.4 1061.57 -706.733 1030.51 -793.422 866.112C-906.867 650.978 -928.595 625.972 -1062.73 556.201C-1193.23 488.321 -1228.66 442.278 -1260.38 299.365C-1316.07 48.3903 -1325.91 29.3443 -1443.65 -55.6117C-1507.16 -101.441 -1526.4 -140.632 -1530.85 -233.275C-1532.98 -277.728 -1528.71 -295.44 -1522.39 -268.362C-1510.67 -218.194 -1497.62 -204.072 -1402.12 -138.195C-1299.89 -67.6702 -1273.27 -32.8546 -1246.75 65.0462C-1240.51 88.0177 -1224.22 148.171 -1210.53 198.717C-1165.25 365.883 -1126.38 410.403 -968.498 475.931C-811.518 541.082 -774.797 583.209 -677.323 809.956C-597.355 995.979 -579.514 1020.42 -448.291 1123.71C-243.35 1285.04 -245.301 1349.38 -476.23 2045.98C-484.49 2070.89 -484.49 2070.89 -473.062 2048.25C-466.779 2035.8 -431.712 1928.94 -395.135 1810.78C-241.452 1314.32 -243.947 1274.22 -438.044 1121.69C-571.383 1016.91 -590.275 990.792 -674.623 794.574C-767.362 578.837 -807.916 533.385 -966.77 467.091C-1134.03 397.297 -1161.7 360.636 -1220.63 130.822C-1263.9 -37.913 -1278.98 -61.8697 -1391.38 -140.415C-1486.29 -206.739 -1498.63 -219.427 -1513.85 -266.253C-1522.88 -294.063 -1526.22 -371.22 -1519 -385.242C-1516.61 -389.887 -1514.89 -414.414 -1515.19 -439.747C-1515.49 -465.075 -1513.84 -489.467 -1511.53 -493.944C-1509.22 -498.425 -1507.6 -516.06 -1507.93 -533.137C-1508.8 -578.846 -1506.42 -611.114 -1502.39 -608.23C-1500.44 -606.836 -1499.41 -624.234 -1500.11 -646.892C-1501.65 -697.668 -1496.83 -705.759 -1482.15 -677C-1461.9 -637.342 -1403.83 -602.825 -1301.45 -569.603C-1130.05 -513.987 -1085.85 -463.122 -992.139 -213.683C-901.262 28.226 -839.655 79.8357 -587.391 125.419C-327.211 172.43 -268.733 234.478 -201.429 534.993C-133.806 836.906 -111.274 874.315 85.1864 1010.86C209.043 1096.95 209.043 1096.95 233.51 1140.01C329.831 1309.53 207.932 1715.11 -70.517 2151.54C-166.107 2301.37 -200.466 2366.82 -215.831 2428.33C-218.226 2437.93 -221.978 2439.37 -229.959 2433.76C-238.842 2427.51 -239.987 2428.2 -236.211 2437.51C-233.667 2443.78 -229.368 2449.06 -226.653 2449.24C-220.294 2449.67 -224.651 2527.54 -231.305 2532.37C-234.078 2534.39 -232.913 2536.26 -228.726 2536.55C-224.536 2536.82 -218.183 2547.13 -214.604 2559.44C-202.206 2602.12 -137.378 2680.6 -120.454 2673.42ZM-1532.03 -294.852C-1531.72 -299.467 -1530.15 -302.309 -1528.55 -301.162C-1526.95 -300.018 -1525.9 -295.302 -1526.21 -290.686C-1526.52 -286.067 -1528.09 -283.229 -1529.69 -284.372C-1531.29 -285.519 -1532.35 -290.236 -1532.03 -294.852ZM-1515.76 -661.826C-1515.45 -666.449 -1513.88 -669.287 -1512.28 -668.144C-1510.68 -666.997 -1509.63 -662.28 -1509.94 -657.66C-1510.26 -653.044 -1511.82 -650.203 -1513.43 -651.35C-1515.02 -652.493 -1516.08 -657.21 -1515.76 -661.826ZM-356.462 2501.55C-356.148 2496.94 -357.201 2492.22 -358.799 2491.07C-360.401 2489.93 -361.966 2492.77 -362.28 2497.39C-362.594 2502 -361.541 2506.72 -359.939 2507.86C-358.342 2509.01 -356.772 2506.17 -356.462 2501.55ZM-609.835 2322.94C-612.831 2318.25 -618 2314.87 -621.318 2315.42C-624.636 2315.97 -622.186 2319.8 -615.868 2323.94C-608.89 2328.51 -606.523 2328.12 -609.835 2322.94ZM-244.863 2575.43C-247.858 2570.75 -253.024 2567.36 -256.347 2567.91C-259.665 2568.46 -257.213 2572.3 -250.9 2576.43C-243.917 2581.01 -241.55 2580.62 -244.863 2575.43ZM-326.336 2517.1C-329.331 2512.42 -334.497 2509.03 -337.816 2509.58C-341.134 2510.13 -338.687 2513.97 -332.369 2518.11C-325.391 2522.68 -323.024 2522.29 -326.336 2517.1ZM-394.97 2467.38C-391.767 2466.04 -396.501 2459.68 -405.492 2453.24C-414.483 2446.8 -422.035 2444.37 -422.27 2447.83C-422.506 2451.3 -417.767 2457.66 -411.744 2461.97C-405.721 2466.28 -398.173 2468.72 -394.97 2467.38ZM-1049.8 2000.76C-1048.65 1999.16 -1049.03 1996.91 -1050.63 1995.76C-1052.22 1994.62 -1054.47 1994.99 -1055.62 1996.59C-1056.76 1998.19 -1056.39 2000.44 -1054.79 2001.58C-1053.19 2002.73 -1050.94 2002.36 -1049.8 2000.76ZM-1074.73 1974.1C-1073.58 1972.5 -1073.95 1970.25 -1075.55 1969.11C-1077.15 1967.96 -1079.4 1968.34 -1080.55 1969.94C-1081.69 1971.54 -1081.32 1973.79 -1079.72 1974.93C-1078.12 1976.08 -1075.88 1975.71 -1074.73 1974.1ZM-351.042 2475.39C-352.113 2468.89 -356.588 2466.17 -364.145 2467.42C-372.789 2468.85 -372.387 2471.29 -362.517 2477.29C-353.881 2482.54 -349.963 2481.89 -351.042 2475.39ZM-429.327 2425.05C-427.58 2422.61 -429.893 2414.02 -434.469 2405.97C-445.81 2385.99 -435.586 2378.55 -417.192 2393.41C-408.919 2400.08 -404.524 2401.9 -407.419 2397.45C-410.31 2393 -409.81 2388.16 -406.301 2386.69C-396.897 2382.76 -429.263 2371.39 -440.216 2374.78C-446.918 2376.85 -449.006 2375.3 -447.605 2369.27C-446.533 2364.66 -447.538 2346.11 -449.84 2328.05C-453.4 2300.12 -454.251 2298.68 -455.56 2318.34C-457.093 2341.46 -457.093 2341.46 -475.027 2328.62C-484.891 2321.55 -493.198 2319.22 -493.484 2323.45C-493.775 2327.67 -496.776 2330.81 -500.168 2330.43C-503.551 2330.05 -501.477 2331.27 -495.557 2333.14C-475.115 2339.6 -456.027 2355.46 -458.531 2363.89C-459.912 2368.55 -467.889 2370.13 -476.256 2367.41C-484.629 2364.69 -491.141 2364.48 -490.739 2366.93C-490.334 2369.38 -480.461 2373.26 -468.801 2375.54C-450.218 2379.18 -447.414 2381.97 -446.086 2398.08C-444.505 2417.2 -434.841 2432.76 -429.327 2425.05ZM-948.355 2055.78C-947.208 2054.18 -947.579 2051.93 -949.177 2050.78C-950.779 2049.64 -953.026 2050.01 -954.173 2051.61C-955.317 2053.21 -954.945 2055.46 -953.343 2056.6C-951.746 2057.75 -949.499 2057.38 -948.355 2055.78ZM-1093.84 1951.62C-1092.69 1950.02 -1093.06 1947.77 -1094.67 1946.62C-1096.26 1945.48 -1098.51 1945.85 -1099.66 1947.45C-1100.8 1949.05 -1100.43 1951.3 -1098.83 1952.44C-1097.23 1953.59 -1094.98 1953.22 -1093.84 1951.62ZM-270.374 2530.9C-270.979 2527.24 -274.471 2524.74 -278.134 2525.34C-281.797 2525.95 -281.301 2528.95 -277.033 2532C-272.769 2535.06 -269.772 2534.56 -270.374 2530.9ZM-642.82 2264.25C-643.426 2260.58 -646.917 2258.09 -650.58 2258.69C-654.239 2259.3 -653.743 2262.3 -649.479 2265.35C-645.211 2268.41 -642.214 2267.91 -642.82 2264.25ZM-856.894 2112.45C-855.749 2110.85 -856.121 2108.6 -857.718 2107.46C-859.32 2106.31 -861.567 2106.69 -862.711 2108.28C-863.859 2109.89 -863.487 2112.13 -861.885 2113.28C-860.288 2114.42 -858.041 2114.05 -856.894 2112.45ZM-961.643 2037.45C-960.499 2035.86 -960.871 2033.61 -962.468 2032.47C-964.07 2031.32 -966.317 2031.69 -967.461 2033.29C-968.608 2034.89 -968.237 2037.14 -966.635 2038.29C-965.038 2039.43 -962.791 2039.06 -961.643 2037.45ZM-1107.13 1933.3C-1105.98 1931.7 -1106.36 1929.45 -1107.96 1928.3C-1109.55 1927.16 -1111.8 1927.53 -1112.95 1929.13C-1114.09 1930.73 -1113.72 1932.98 -1112.12 1934.12C-1110.52 1935.27 -1108.27 1934.9 -1107.13 1933.3ZM-371.529 2447.86C-367.803 2446.31 -366.209 2431.95 -367.989 2415.98C-369.769 2400.01 -371.527 2377.44 -371.895 2365.83C-372.557 2344.87 -372.583 2344.85 -375.692 2362.49C-377.417 2372.25 -382.982 2382.14 -388.059 2384.45C-393.139 2386.77 -393.715 2388.25 -389.335 2387.74C-379.667 2386.62 -371.354 2419.83 -380.362 2423.6C-383.875 2425.07 -389.848 2421.57 -393.634 2415.82C-398.442 2408.53 -400.739 2408.55 -401.235 2415.88C-401.672 2422.29 -395.335 2428.99 -384.958 2433.08C-374.031 2437.38 -370.854 2440.98 -376.047 2443.15C-380.485 2445.01 -382.814 2447.47 -381.212 2448.61C-379.615 2449.76 -375.253 2449.42 -371.529 2447.86ZM-410.447 2423.28C-409.3 2421.67 -409.672 2419.43 -411.274 2418.28C-412.875 2417.13 -415.122 2417.51 -416.27 2419.11C-417.417 2420.71 -417.045 2422.96 -415.443 2424.1C-413.842 2425.25 -411.594 2424.88 -410.447 2423.28ZM-772.08 2159.96C-771.765 2155.35 -772.819 2150.63 -774.416 2149.49C-776.018 2148.34 -777.584 2151.18 -777.898 2155.8C-778.215 2160.42 -777.162 2165.13 -775.56 2166.28C-773.962 2167.43 -772.392 2164.59 -772.08 2159.96ZM-865.189 2093.3C-864.875 2088.69 -865.928 2083.97 -867.53 2082.82C-869.127 2081.68 -870.697 2084.52 -871.007 2089.14C-871.324 2093.76 -870.271 2098.47 -868.674 2099.62C-867.072 2100.76 -865.506 2097.92 -865.189 2093.3ZM-969.113 2023.3C-967.965 2021.7 -968.337 2019.45 -969.939 2018.31C-971.541 2017.16 -973.788 2017.53 -974.935 2019.14C-976.082 2020.74 -975.71 2022.99 -974.109 2024.13C-972.507 2025.28 -970.26 2024.91 -969.113 2023.3ZM-1120.42 1914.98C-1119.27 1913.37 -1119.64 1911.13 -1121.25 1909.98C-1122.84 1908.84 -1125.09 1909.21 -1126.24 1910.81C-1127.38 1912.41 -1127.01 1914.66 -1125.42 1915.8C-1123.81 1916.95 -1121.57 1916.58 -1120.42 1914.98ZM-976.586 2009.15C-975.439 2007.55 -975.811 2005.3 -977.412 2004.15C-979.01 2003.01 -981.257 2003.38 -982.404 2004.99C-983.548 2006.58 -983.176 2008.83 -981.579 2009.97C-979.977 2011.12 -977.73 2010.75 -976.586 2009.15ZM-787.383 2100.58C-804.975 1944.78 -790.059 1790.04 -736.307 1570.84C-687.005 1369.75 -707.876 1299.09 -845.781 1200.23C-925.977 1142.73 -1001.92 1056.56 -1103.52 907.789C-1134.58 862.297 -1174.97 812.439 -1199.3 789.543C-1222.45 767.765 -1260.39 732.248 -1283.63 710.617C-1357.98 641.409 -1366.75 614.521 -1393.29 374.303C-1403.94 277.878 -1416.74 245.013 -1468.31 181.696C-1522.36 115.343 -1530.02 96.691 -1548.61 -13.7612C-1590.74 -264.098 -1730.6 -340.155 -1892.79 -200.927C-1967.81 -136.532 -2154.51 56.0121 -2160.39 75.049C-2161.84 79.7181 -2132.31 50.49 -2094.78 10.0925C-1833.56 -271.075 -1757.18 -310.461 -1650.79 -218.837C-1598.83 -174.098 -1577.69 -126.953 -1556.52 -8.60937C-1536.89 101.128 -1528.84 120.392 -1474.25 188.171C-1415.43 261.185 -1405.96 291.408 -1392.43 449.229C-1377.46 623.774 -1364.42 651.127 -1246.82 754.561C-1185.73 808.288 -1154.35 846.252 -1061.72 978.51C-989.071 1082.25 -949.093 1125.44 -852.615 1204.39C-702.074 1327.59 -694.066 1362.24 -756.383 1620.88C-796.018 1785.37 -811.204 2009.84 -789.628 2112.18C-782.787 2144.64 -782.548 2143.41 -787.383 2100.58ZM-874.314 2069.16C-873.997 2064.54 -875.05 2059.83 -876.652 2058.68C-878.249 2057.54 -879.819 2060.38 -880.132 2065C-880.446 2069.61 -879.393 2074.33 -877.795 2075.47C-876.193 2076.62 -874.628 2073.78 -874.314 2069.16ZM-984.056 1994.99C-982.912 1993.39 -983.284 1991.15 -984.882 1990C-986.483 1988.86 -988.73 1989.23 -989.875 1990.83C-991.022 1992.43 -990.65 1994.68 -989.048 1995.82C-987.451 1996.97 -985.204 1996.59 -984.056 1994.99ZM-288.62 2482.62C-289.226 2478.95 -292.717 2476.45 -296.38 2477.06C-300.043 2477.67 -299.548 2480.66 -295.279 2483.72C-291.015 2486.77 -288.019 2486.28 -288.62 2482.62ZM-523.846 2311.18C-512.865 2311.75 -512.452 2310.87 -520.815 2304.77C-526.154 2300.87 -531.37 2284.2 -532.414 2267.72C-533.456 2251.23 -535.305 2244.95 -536.522 2253.77C-541.478 2289.74 -536.895 2310.49 -523.846 2311.18ZM-550.494 2295.13C-551.1 2291.47 -554.592 2288.97 -558.255 2289.57C-561.917 2290.18 -561.422 2293.18 -557.154 2296.23C-552.889 2299.29 -549.893 2298.79 -550.494 2295.13ZM-991.526 1980.84C-990.379 1979.24 -990.75 1976.99 -992.352 1975.85C-993.954 1974.7 -996.201 1975.07 -997.348 1976.67C-998.495 1978.28 -998.124 1980.52 -996.522 1981.67C-994.92 1982.82 -992.673 1982.44 -991.526 1980.84ZM-347.225 2433.32C-346.078 2431.72 -346.449 2429.47 -348.047 2428.33C-349.649 2427.18 -351.896 2427.55 -353.043 2429.16C-354.187 2430.75 -353.815 2433 -352.213 2434.15C-350.616 2435.29 -348.369 2434.92 -347.225 2433.32ZM-898.464 1972.38C-923.173 1830.37 -918.25 1746.69 -874.905 1571.8C-829.677 1389.31 -847.737 1329.64 -977.446 1232.99C-1053.63 1176.22 -1053.63 1176.22 -981.191 1234.87C-858.238 1334.4 -839.781 1388.19 -875.777 1542.07C-924.771 1751.51 -930.396 1865.99 -898.183 1998C-885.777 2048.84 -885.82 2045.08 -898.464 1972.38ZM-999.826 1961.69C-999.512 1957.08 -1000.56 1952.36 -1002.16 1951.22C-1003.76 1950.07 -1005.33 1952.91 -1005.64 1957.53C-1005.96 1962.14 -1004.9 1966.86 -1003.3 1968.01C-1001.71 1969.15 -1000.14 1966.31 -999.826 1961.69ZM-247.988 2491.43C-245.768 2488.33 -248.959 2484.49 -255.079 2482.9C-261.202 2481.31 -266.946 2481.03 -267.846 2482.29C-268.747 2483.54 -265.556 2487.39 -260.755 2490.82C-255.954 2494.26 -250.21 2494.54 -247.988 2491.43ZM-331.415 2435.83C-330.271 2434.23 -330.642 2431.99 -332.244 2430.84C-333.841 2429.7 -336.089 2430.07 -337.233 2431.67C-338.38 2433.27 -338.008 2435.52 -336.411 2436.66C-334.809 2437.81 -332.562 2437.43 -331.415 2435.83ZM-94.4722 2596.67C-93.325 2595.06 -93.6967 2592.82 -95.2941 2591.67C-96.8959 2590.53 -99.143 2590.9 -100.29 2592.5C-101.437 2594.1 -101.066 2596.35 -99.464 2597.5C-97.8666 2598.64 -95.6194 2598.27 -94.4722 2596.67ZM-293.984 2454.35C-294.347 2449.85 -288.521 2444.48 -281.032 2442.41C-269.901 2439.34 -269.527 2438.48 -278.973 2437.74C-286.79 2437.12 -290.765 2429.83 -291.259 2415.22C-291.665 2403.34 -294.288 2396.69 -297.09 2400.46C-299.888 2404.22 -300.624 2411.03 -298.715 2415.59C-296.811 2420.15 -299.914 2426.96 -305.61 2430.72C-311.311 2434.47 -312.776 2437.02 -308.869 2436.37C-304.967 2435.73 -299.866 2441.35 -297.542 2448.86C-295.218 2456.38 -293.613 2458.85 -293.984 2454.35ZM-1008.95 1937.55C-1008.63 1932.93 -1009.69 1928.22 -1011.28 1927.07C-1012.89 1925.93 -1014.45 1928.77 -1014.77 1933.38C-1015.08 1938 -1014.03 1942.72 -1012.43 1943.87C-1010.83 1945.01 -1009.26 1942.17 -1008.95 1937.55ZM-271.947 2459.33C-272.553 2455.67 -276.044 2453.17 -279.707 2453.77C-283.37 2454.38 -282.875 2457.38 -278.606 2460.43C-274.342 2463.48 -271.346 2462.99 -271.947 2459.33ZM-417.436 2355.17C-418.042 2351.5 -421.533 2349 -425.196 2349.61C-428.854 2350.22 -428.359 2353.22 -424.095 2356.27C-419.826 2359.33 -416.83 2358.83 -417.436 2355.17ZM-339.834 2401.49C-313.805 2414.74 -312.138 2404.11 -338.005 2389.81C-350.118 2383.12 -360.256 2381 -360.537 2385.12C-360.818 2389.24 -360.262 2392.57 -359.307 2392.53C-358.353 2392.49 -349.591 2396.52 -339.834 2401.49ZM-392.709 2363.92C-395.708 2359.23 -400.874 2355.84 -404.193 2356.39C-407.511 2356.94 -405.059 2360.78 -398.746 2364.92C-391.768 2369.5 -389.401 2369.1 -392.709 2363.92ZM-1018.07 1913.41C-1017.75 1908.79 -1018.81 1904.07 -1020.41 1902.93C-1022.01 1901.78 -1023.57 1904.62 -1023.89 1909.24C-1024.2 1913.86 -1023.15 1918.58 -1021.55 1919.72C-1019.95 1920.87 -1018.38 1918.03 -1018.07 1913.41ZM-1169.37 1805.09C-1169.06 1800.46 -1170.11 1795.75 -1171.71 1794.6C-1173.31 1793.46 -1174.88 1796.3 -1175.2 1800.92C-1175.51 1805.54 -1174.46 1810.25 -1172.86 1811.4C-1171.25 1812.54 -1169.69 1809.7 -1169.37 1805.09ZM-119.778 2541.86C-120.383 2538.19 -123.875 2535.69 -127.538 2536.3C-131.2 2536.91 -130.705 2539.91 -126.437 2542.96C-122.172 2546.01 -119.176 2545.52 -119.778 2541.86ZM-258.203 2444.23C-257.056 2442.62 -257.428 2440.38 -259.029 2439.23C-260.627 2438.09 -262.874 2438.46 -264.021 2440.06C-265.165 2441.66 -264.794 2443.91 -263.196 2445.05C-261.594 2446.2 -259.347 2445.82 -258.203 2444.23ZM-1028.85 1879.28C-1030.05 1868.73 -1032.35 1859.16 -1033.95 1858.01C-1035.55 1856.87 -1035.87 1864.56 -1034.66 1875.12C-1033.45 1885.66 -1031.16 1895.23 -1029.55 1896.38C-1027.96 1897.52 -1027.64 1889.83 -1028.85 1879.28ZM-242.393 2446.73C-241.249 2445.14 -241.621 2442.89 -243.222 2441.74C-244.824 2440.6 -247.071 2440.97 -248.215 2442.57C-249.362 2444.17 -248.991 2446.42 -247.389 2447.56C-245.787 2448.71 -243.54 2448.34 -242.393 2446.73ZM-160.721 2494.79C-163.716 2490.11 -168.883 2486.72 -172.205 2487.26C-175.523 2487.81 -173.069 2491.65 -166.755 2495.79C-159.773 2500.37 -157.406 2499.97 -160.721 2494.79ZM-268.569 2417.73C-269.174 2414.06 -272.666 2411.56 -276.329 2412.17C-279.992 2412.78 -279.496 2415.77 -275.228 2418.83C-270.963 2421.88 -267.967 2421.39 -268.569 2417.73ZM-447.726 2290.93C-446.579 2289.32 -446.95 2287.08 -448.552 2285.93C-450.154 2284.78 -452.401 2285.15 -453.548 2286.76C-454.695 2288.36 -454.323 2290.61 -452.722 2291.75C-451.12 2292.9 -448.873 2292.53 -447.726 2290.93ZM-529.199 2232.59C-528.052 2230.99 -528.424 2228.75 -530.025 2227.6C-531.623 2226.45 -533.87 2226.83 -535.017 2228.43C-536.164 2230.03 -535.793 2232.28 -534.195 2233.42C-532.593 2234.57 -530.346 2234.2 -529.199 2232.59ZM-697.53 2098.87C-696.371 2090.01 -696.731 2081.83 -698.333 2080.68C-699.931 2079.54 -702.189 2085.85 -703.348 2094.71C-704.508 2103.56 -704.147 2111.75 -702.55 2112.89C-700.948 2114.04 -698.69 2107.73 -697.53 2098.87ZM-1175.67 1770.84C-1174.8 1769.63 -1176.1 1761.76 -1178.56 1753.36C-1182.6 1739.51 -1182.95 1739.57 -1182.33 1753.98C-1181.67 1769.12 -1179.1 1775.63 -1175.67 1770.84ZM-368.087 2339.14C-365.792 2335.93 -363.64 2327.57 -363.304 2320.55C-362.969 2313.52 -364.572 2310.39 -366.866 2313.6C-369.157 2316.8 -371.306 2325.17 -371.641 2332.19C-371.976 2339.21 -370.378 2342.34 -368.087 2339.14ZM-286.005 2384.7C-282.948 2380.43 -283.443 2377.43 -287.106 2378.04C-290.765 2378.65 -293.265 2382.14 -292.664 2385.8C-292.055 2389.46 -289.059 2388.96 -286.005 2384.7ZM-445.212 2275.11C-444.067 2273.51 -444.439 2271.27 -446.037 2270.12C-447.638 2268.98 -449.885 2269.35 -451.029 2270.95C-452.177 2272.55 -451.805 2274.8 -450.203 2275.94C-448.606 2277.09 -446.359 2276.71 -445.212 2275.11ZM-525.652 2208.72C-523.393 2200.65 -512.922 2166.54 -502.382 2132.92C-491.846 2099.3 -485.659 2074.8 -488.635 2078.47C-496.728 2088.45 -530.048 2194.75 -529.893 2210.09C-529.781 2220.84 -528.966 2220.58 -525.652 2208.72ZM-173.348 2460.95C-172.201 2459.35 -172.573 2457.1 -174.174 2455.95C-175.776 2454.81 -178.023 2455.18 -179.17 2456.78C-180.318 2458.38 -179.946 2460.63 -178.344 2461.78C-176.742 2462.92 -174.495 2462.55 -173.348 2460.95ZM-151.723 2467.63C-150.576 2466.03 -150.948 2463.78 -152.549 2462.63C-154.151 2461.48 -156.398 2461.86 -157.545 2463.46C-158.69 2465.06 -158.318 2467.3 -156.716 2468.45C-155.114 2469.6 -152.867 2469.23 -151.723 2467.63ZM-443.613 2258.65C-441.301 2255.46 -436.379 2241.15 -432.67 2226.86C-428.958 2212.57 -428.821 2204.74 -432.356 2209.47C-435.895 2214.21 -440.821 2228.51 -443.298 2241.26C-445.78 2254.02 -445.917 2261.84 -443.613 2258.65ZM38.6655 2595.13C39.8096 2593.53 39.4379 2591.28 37.8405 2590.14C36.2387 2588.99 33.9916 2589.36 32.8475 2590.96C31.7003 2592.56 32.072 2594.81 33.6737 2595.96C35.2712 2597.1 37.5183 2596.73 38.6655 2595.13ZM-31.1675 2545.13C-30.0235 2543.53 -30.3952 2541.28 -31.9926 2540.14C-33.5945 2538.99 -35.8415 2539.37 -36.9855 2540.96C-38.1328 2542.57 -37.7612 2544.81 -36.1593 2545.96C-34.5619 2547.1 -32.3147 2546.73 -31.1675 2545.13ZM-93.3246 2499.02C-96.3243 2494.33 -101.49 2490.94 -104.809 2491.49C-108.127 2492.04 -105.675 2495.88 -99.3617 2500.02C-92.3835 2504.59 -90.0167 2504.2 -93.3246 2499.02ZM-112.637 2486.8C-111.493 2485.2 -111.864 2482.96 -113.466 2481.81C-115.068 2480.66 -117.315 2481.04 -118.459 2482.63C-119.606 2484.24 -119.235 2486.48 -117.633 2487.63C-116.031 2488.78 -113.784 2488.4 -112.637 2486.8ZM-281.402 2365.98C-280.258 2364.38 -280.629 2362.13 -282.231 2360.98C-283.828 2359.84 -286.075 2360.21 -287.22 2361.81C-288.367 2363.41 -287.995 2365.66 -286.398 2366.8C-284.796 2367.95 -282.549 2367.58 -281.402 2365.98ZM-673.776 1928.77C-661.222 1849.37 -633.073 1710.92 -611.224 1621.08C-542.092 1336.81 -549.083 1305 -709.3 1174.77C-810.927 1092.15 -846.462 1048.94 -937.117 897.724C-1031.88 739.65 -1032.83 738.55 -1149.64 652.554C-1292.17 547.62 -1292.54 546.97 -1329.74 338.071C-1359.42 171.38 -1371.73 142.419 -1439.79 79.0959C-1501.1 22.0534 -1526.6 -22.6107 -1534.02 -85.9511C-1557.26 -284.361 -1570.34 -319.546 -1643.71 -380.958C-1733.53 -456.126 -1783.13 -450.016 -1939.6 -344.499C-2015.74 -293.154 -2289.72 -81.399 -2292.77 -71.5399C-2293.81 -68.1698 -2224.94 -119.64 -2139.72 -185.914C-1822.27 -432.802 -1764.35 -456.775 -1662.14 -383.599C-1582.77 -326.771 -1560.66 -274.107 -1543.55 -101.106C-1535.24 -17.026 -1516.84 18.481 -1449.1 81.0964C-1376.95 147.791 -1365.18 175.296 -1337.84 340.822C-1304.74 541.258 -1296.55 555.869 -1163.02 652.531C-1048.15 735.678 -1036.27 748.931 -954.838 884.541C-850.273 1058.68 -824.666 1090.21 -715.814 1178.87C-557.975 1307.43 -550.687 1341.45 -620.314 1624.57C-649.568 1743.52 -706.75 2065.86 -699.517 2071.03C-697.916 2072.18 -686.331 2008.16 -673.776 1928.77ZM-1177.59 1724.35C-1176.45 1722.76 -1176.82 1720.51 -1178.42 1719.36C-1180.02 1718.21 -1182.27 1718.59 -1183.41 1720.18C-1184.56 1721.79 -1184.19 1724.03 -1182.59 1725.18C-1180.99 1726.33 -1178.74 1725.96 -1177.59 1724.35ZM-73.5535 2505.98C-72.4063 2504.38 -72.7778 2502.13 -74.3797 2500.98C-75.9815 2499.84 -78.2285 2500.21 -79.3757 2501.81C-80.5229 2503.41 -80.1513 2505.66 -78.5496 2506.81C-76.9477 2507.95 -74.7007 2507.58 -73.5535 2505.98ZM-356.623 2298.91C-353.566 2294.64 -354.062 2291.65 -357.725 2292.25C-361.383 2292.86 -363.884 2296.36 -363.282 2300.02C-362.677 2303.68 -359.68 2303.18 -356.623 2298.91ZM-1042.88 1794.38C-1044.67 1781 -1047.44 1769.11 -1049.04 1767.96C-1050.64 1766.82 -1050.49 1776.83 -1048.7 1790.21C-1046.92 1803.61 -1044.15 1815.5 -1042.54 1816.64C-1040.95 1817.79 -1041.1 1807.77 -1042.88 1794.38ZM8.76643 2541.81C7.66854 2535.01 4.25382 2529.85 1.1752 2530.37C-1.89577 2530.87 -0.997955 2536.44 3.17556 2542.74C9.20817 2551.83 10.3542 2551.64 8.76643 2541.81ZM-272.634 2341.44C-269.577 2337.17 -270.073 2334.17 -273.736 2334.78C-277.398 2335.39 -279.899 2338.88 -279.293 2342.54C-278.684 2346.2 -275.688 2345.7 -272.634 2341.44ZM-1176.73 1698.56C-1175.59 1696.96 -1175.96 1694.71 -1177.56 1693.56C-1179.16 1692.42 -1181.4 1692.79 -1182.55 1694.39C-1183.69 1695.99 -1183.32 1698.24 -1181.73 1699.38C-1180.12 1700.53 -1177.88 1700.16 -1176.73 1698.56ZM90.2521 2596.84C91.3992 2595.24 91.0275 2592.99 89.4301 2591.85C87.8284 2590.7 85.5813 2591.07 84.4342 2592.67C83.287 2594.28 83.6586 2596.52 85.2604 2597.67C86.8578 2598.81 89.1049 2598.44 90.2521 2596.84ZM26.2413 2551.01C27.3884 2549.41 27.0167 2547.16 25.415 2546.02C23.8132 2544.87 21.5661 2545.24 20.419 2546.84C19.2718 2548.45 19.6435 2550.69 21.2453 2551.84C22.847 2552.99 25.0941 2552.61 26.2413 2551.01ZM-349.938 2277.28C-346.881 2273.01 -347.377 2270.02 -351.039 2270.62C-354.702 2271.23 -357.203 2274.72 -356.597 2278.39C-355.991 2282.05 -352.995 2281.55 -349.938 2277.28ZM-1174.21 1682.75C-1173.07 1681.15 -1173.44 1678.9 -1175.04 1677.75C-1176.64 1676.61 -1178.89 1676.98 -1180.04 1678.58C-1181.18 1680.18 -1180.81 1682.43 -1179.21 1683.57C-1177.61 1684.72 -1175.36 1684.35 -1174.21 1682.75ZM-263.98 2316.08C-259.405 2309.1 -259.796 2306.73 -264.974 2310.05C-269.669 2313.04 -273.054 2318.22 -272.505 2321.53C-271.956 2324.85 -268.119 2322.4 -263.98 2316.08ZM-342.441 2251.84C-337.917 2245.39 -330.586 2230.83 -326.154 2219.47C-318.912 2200.93 -319.162 2200.3 -328.617 2213.3C-334.41 2221.27 -341.741 2235.83 -344.909 2245.67C-349.42 2259.69 -348.888 2261.02 -342.441 2251.84ZM-1044.5 1753.6C-1044.18 1748.99 -1045.23 1744.27 -1046.84 1743.12C-1048.43 1741.98 -1050 1744.82 -1050.31 1749.44C-1050.63 1754.06 -1049.58 1758.77 -1047.98 1759.92C-1046.38 1761.07 -1044.81 1758.22 -1044.5 1753.6ZM-1171.7 1666.94C-1170.55 1665.34 -1170.92 1663.09 -1172.52 1661.94C-1174.12 1660.8 -1176.37 1661.17 -1177.52 1662.77C-1178.66 1664.37 -1178.29 1666.62 -1176.69 1667.77C-1175.09 1668.91 -1172.85 1668.54 -1171.7 1666.94ZM-418.586 2187.78C-414.011 2180.8 -414.402 2178.43 -419.587 2181.75C-424.275 2184.74 -427.664 2189.91 -427.116 2193.23C-426.563 2196.55 -422.728 2194.1 -418.586 2187.78ZM-1169.18 1651.13C-1168.04 1649.53 -1168.41 1647.28 -1170.01 1646.14C-1171.61 1644.99 -1173.85 1645.36 -1175 1646.96C-1176.15 1648.57 -1175.77 1650.81 -1174.18 1651.96C-1172.58 1653.1 -1170.33 1652.73 -1169.18 1651.13ZM-251.853 2285.87C-246.123 2277.87 -245.097 2273.65 -249.575 2276.5C-254.056 2279.34 -258.745 2285.89 -259.996 2291.05C-261.245 2296.21 -257.582 2293.88 -251.853 2285.87ZM-1036.6 1684.7C-1031.98 1656.68 -1029.85 1634.03 -1031.87 1634.36C-1036.33 1635.1 -1051.67 1730.86 -1047.77 1733.65C-1046.25 1734.74 -1041.22 1712.71 -1036.6 1684.7ZM-1164.58 1632.41C-1161.52 1628.14 -1162.02 1625.14 -1165.68 1625.75C-1169.34 1626.36 -1171.85 1629.85 -1171.24 1633.51C-1170.63 1637.18 -1167.64 1636.68 -1164.58 1632.41ZM-11.0782 2449.45C-10.7609 2444.83 -11.8141 2440.11 -13.4159 2438.97C-15.0133 2437.82 -16.5833 2440.66 -16.8962 2445.29C-17.2102 2449.9 -16.157 2454.62 -14.5595 2455.76C-12.9578 2456.91 -11.3922 2454.07 -11.0782 2449.45ZM-408.893 2160.23C-404.368 2153.78 -397.038 2139.22 -392.605 2127.87C-385.363 2109.32 -385.614 2108.69 -395.071 2121.7C-400.862 2129.66 -408.192 2144.22 -411.36 2154.06C-415.871 2168.08 -415.34 2169.41 -408.893 2160.23ZM-1159.98 1613.69C-1158.84 1612.09 -1159.21 1609.84 -1160.81 1608.7C-1162.41 1607.55 -1164.66 1607.92 -1165.8 1609.53C-1166.95 1611.12 -1166.57 1613.37 -1164.97 1614.52C-1163.38 1615.66 -1161.13 1615.29 -1159.98 1613.69ZM-10.2152 2423.65C-9.89805 2419.03 -10.9513 2414.32 -12.5487 2413.17C-14.1505 2412.03 -15.716 2414.87 -16.0332 2419.49C-16.3473 2424.1 -15.2941 2428.82 -13.6923 2429.97C-12.0949 2431.11 -10.5249 2428.27 -10.2152 2423.65ZM-233.096 2246.47C-225.072 2235.26 -222.986 2229.82 -228.462 2234.38C-233.939 2238.93 -240.503 2248.1 -243.047 2254.75C-245.598 2261.41 -241.12 2257.68 -233.096 2246.47ZM-1155.38 1594.97C-1152.32 1590.7 -1152.82 1587.7 -1156.48 1588.31C-1160.14 1588.92 -1162.65 1592.41 -1162.04 1596.07C-1161.43 1599.74 -1158.44 1599.24 -1155.38 1594.97ZM-306.229 2176.5C-298.208 2165.3 -296.126 2159.85 -301.599 2164.41C-307.071 2168.96 -313.635 2178.13 -316.187 2184.78C-318.735 2191.43 -314.253 2187.71 -306.229 2176.5ZM-8.52287 2402.85C-7.37879 2401.25 -7.7504 2399 -9.3478 2397.86C-10.9497 2396.71 -13.1968 2397.08 -14.3409 2398.68C-15.488 2400.28 -15.1164 2402.53 -13.5145 2403.68C-11.9171 2404.82 -9.66993 2404.45 -8.52287 2402.85ZM-1150.78 1576.25C-1149.63 1574.65 -1150.01 1572.4 -1151.61 1571.26C-1153.21 1570.11 -1155.46 1570.48 -1156.6 1572.08C-1157.75 1573.69 -1157.38 1575.93 -1155.78 1577.08C-1154.17 1578.23 -1151.93 1577.85 -1150.78 1576.25ZM-3.92251 2384.13C-0.865473 2379.86 -1.36084 2376.86 -5.02363 2377.47C-8.68642 2378.08 -11.1872 2381.57 -10.5814 2385.23C-9.97569 2388.9 -6.97955 2388.4 -3.92251 2384.13ZM-1146.18 1557.53C-1143.13 1553.26 -1143.62 1550.26 -1147.29 1550.87C-1150.94 1551.48 -1153.45 1554.97 -1152.84 1558.63C-1152.23 1562.29 -1149.24 1561.8 -1146.18 1557.53ZM-368.588 2074.62C-308.698 1966.44 -179.952 1580.04 -155.402 1434.78C-125.599 1258.44 -143.241 1217.38 -300.904 1096.12C-451.702 980.139 -468.61 955.659 -549.402 736.271C-641.002 487.544 -682.748 441.794 -879.485 374.561C-1064.07 311.483 -1092.62 276.773 -1166.96 25.1236C-1217.54 -146.121 -1253.36 -195.654 -1366.71 -251.1C-1442.49 -288.167 -1480.19 -319.043 -1497.52 -358.249C-1504.02 -372.953 -1511.52 -384.615 -1514.2 -384.172C-1542.25 -379.528 -1475.55 -302.948 -1412.13 -266.97C-1247.55 -173.618 -1226.81 -146.132 -1165.47 59.933C-1099.13 282.831 -1065.95 320.169 -876.628 385.02C-684.848 450.711 -651.914 487.848 -554.244 748.568C-472.985 965.477 -461.47 982.035 -311.154 1098.15C-168.991 1207.96 -144.566 1249.92 -153.6 1368.82C-162.609 1487.39 -259.909 1807.67 -355.988 2035.03C-372.518 2074.15 -378.188 2091.96 -368.588 2074.62ZM0.677847 2365.41C1.82505 2363.81 1.4534 2361.56 -0.14837 2360.42C-1.75014 2359.27 -3.99723 2359.64 -5.14444 2361.24C-6.28838 2362.84 -5.91687 2365.09 -4.31509 2366.24C-2.71332 2367.38 -0.466091 2367.01 0.677847 2365.41ZM-202.944 2193.22C-30.8417 1967.17 158.481 1445.23 135.239 1260.87C122.194 1157.38 108.646 1139.69 -39.6952 1032.5C-216.315 904.866 -234.828 875.591 -305.403 612.325C-381.574 328.159 -439.968 256.8 -632.799 212.236C-920.574 145.732 -947.827 122.007 -1047.12 -148.418C-1127.1 -366.254 -1177.43 -424.204 -1330.78 -474.968C-1397.8 -497.155 -1472.06 -548.236 -1484.67 -580.839C-1489.42 -593.098 -1495.85 -602.702 -1498.97 -602.189C-1502.09 -601.668 -1496.02 -586.621 -1485.47 -568.743C-1461.28 -527.719 -1404.43 -490.785 -1326.34 -465.345C-1187.53 -420.123 -1133.35 -355.757 -1055.01 -142.986C-956.887 123.505 -919.939 157.486 -667.79 213.124C-433.791 264.762 -394.753 314.663 -291.526 694.124C-241.992 876.201 -202.791 930.319 -36.1838 1046.64C94.4733 1137.85 113.268 1161.76 127.388 1254.73C151.809 1415.52 18.7362 1809.92 -165.604 2123.09C-195.684 2174.2 -212.487 2205.75 -202.944 2193.22ZM-284.72 2135.8C-223.17 2055.8 -88.2997 1723.96 -37.7376 1528.12C31.6199 1259.45 13.1609 1195.99 -173.89 1060.11C-332.8 944.659 -351.677 915.83 -428.186 671.64C-488.712 478.47 -525.1 413.7 -604.341 358.097C-649.438 326.451 -669.234 318.988 -831.306 272.532C-968.981 233.069 -1020.23 180.616 -1077.74 20.2982C-1150.55 -182.661 -1161.04 -207.921 -1189.23 -248.245C-1225.05 -299.498 -1263.46 -327.942 -1340.15 -359.998C-1416.86 -392.063 -1469.74 -429.916 -1488.55 -466.241C-1506.54 -500.99 -1511.16 -504.373 -1504.24 -477.755C-1491.13 -427.291 -1450.99 -397.613 -1318.79 -340.657C-1208.43 -293.11 -1177.92 -246.097 -1094.91 4.40698C-1034.73 185.994 -973.642 245.536 -800.54 291.303C-563.968 353.851 -524.494 396.865 -429.775 695.307C-359.708 916.064 -326.383 965.195 -173.089 1073.79C-47.1722 1162.98 -32.2233 1182.08 -17.7562 1272.24C5.36053 1416.29 -99.4584 1768.26 -255.834 2071.7C-278.623 2115.92 -291.622 2144.76 -284.72 2135.8ZM-1025.37 1622.01C-1023.08 1618.81 -1020.93 1610.44 -1020.6 1603.42C-1020.26 1596.39 -1021.86 1593.27 -1024.15 1596.47C-1026.44 1599.67 -1028.6 1608.04 -1028.93 1615.06C-1029.27 1622.09 -1027.66 1625.22 -1025.37 1622.01ZM-1141.58 1538.81C-1140.44 1537.21 -1140.81 1534.96 -1142.41 1533.82C-1144.01 1532.67 -1146.26 1533.05 -1147.4 1534.64C-1148.55 1536.25 -1148.17 1538.49 -1146.58 1539.64C-1144.98 1540.78 -1142.73 1540.41 -1141.58 1538.81ZM5.27706 2346.69C8.3341 2342.42 7.8386 2339.42 4.1758 2340.03C0.517376 2340.64 -1.98326 2344.13 -1.38187 2347.79C-0.776111 2351.45 2.22003 2350.96 5.27706 2346.69ZM-1139.07 1523C-1137.92 1521.4 -1138.29 1519.16 -1139.89 1518.01C-1141.49 1516.86 -1143.74 1517.23 -1144.89 1518.84C-1146.03 1520.43 -1145.66 1522.68 -1144.06 1523.83C-1142.46 1524.98 -1140.21 1524.6 -1139.07 1523ZM11.9622 2325.06C15.0194 2320.79 14.5239 2317.79 10.8611 2318.4C7.19829 2319.01 4.69752 2322.5 5.30327 2326.16C5.90903 2329.83 8.90517 2329.33 11.9622 2325.06ZM-1136.55 1507.19C-1135.4 1505.59 -1135.78 1503.34 -1137.37 1502.2C-1138.98 1501.05 -1141.22 1501.42 -1142.37 1503.03C-1143.52 1504.63 -1143.15 1506.88 -1141.54 1508.02C-1139.95 1509.17 -1137.7 1508.79 -1136.55 1507.19ZM191.967 2436.33C190.761 2425.77 188.463 2416.2 186.861 2415.06C185.264 2413.91 184.943 2421.61 186.15 2432.16C187.359 2442.71 189.657 2452.28 191.259 2453.43C192.861 2454.57 193.181 2446.88 191.967 2436.33ZM-1016.17 1584.57C-1013.88 1581.37 -1011.73 1573 -1011.39 1565.98C-1011.06 1558.95 -1012.66 1555.83 -1014.95 1559.03C-1017.24 1562.23 -1019.39 1570.6 -1019.73 1577.62C-1020.06 1584.65 -1018.47 1587.77 -1016.17 1584.57ZM-1133.12 1467.82C-1131.17 1439.11 -1148.09 1371.26 -1159.18 1363.32C-1162.76 1360.75 -1159.2 1374.71 -1151.27 1394.33C-1143.34 1413.94 -1137.78 1443.68 -1138.92 1460.4C-1140.06 1477.12 -1139.64 1491.78 -1137.98 1492.96C-1136.33 1494.14 -1134.14 1482.83 -1133.12 1467.82ZM22.8144 2297.61C25.8714 2293.34 25.3759 2290.34 21.7132 2290.95C18.0504 2291.56 15.5497 2295.05 16.1555 2298.71C16.7612 2302.38 19.7573 2301.88 22.8144 2297.61ZM-1007.83 1548.43C-1001.23 1539.76 -991.584 1460.87 -993.091 1427.88C-994.787 1390.57 -1025.22 1326.68 -1048.62 1311.27C-1060.48 1303.47 -1059.8 1305.92 -1045.6 1322.16C-1005.38 1368.2 -993.957 1417.95 -1004.57 1500.86C-1008.23 1529.48 -1009.7 1550.88 -1007.83 1548.43ZM189.531 2390.55C189.845 2385.94 188.792 2381.22 187.19 2380.07C185.593 2378.93 184.023 2381.77 183.713 2386.39C183.399 2391 184.452 2395.72 186.05 2396.86C187.652 2398.01 189.217 2395.17 189.531 2390.55ZM36.9152 2263.68C42.6448 2255.67 43.6668 2251.45 39.1856 2254.3C34.7075 2257.14 30.0188 2263.69 28.7673 2268.85C27.5158 2274.01 31.1826 2271.68 36.9152 2263.68ZM194.993 2337.42C198.289 2318.1 199.28 2302.57 197.187 2302.92C192.666 2303.67 182.33 2367.79 186.271 2370.61C187.763 2371.68 191.689 2356.74 194.993 2337.42ZM-1381.48 1224.57C-1384.47 1219.88 -1389.64 1216.49 -1392.95 1217.04C-1396.27 1217.59 -1393.82 1221.43 -1387.51 1225.57C-1380.53 1230.14 -1378.16 1229.75 -1381.48 1224.57ZM-1458.98 1170.69C-1457.83 1169.09 -1458.2 1166.84 -1459.81 1165.69C-1461.4 1164.55 -1463.65 1164.92 -1464.8 1166.52C-1465.95 1168.13 -1465.57 1170.37 -1463.98 1171.52C-1462.37 1172.66 -1460.13 1172.29 -1458.98 1170.69ZM53.8007 2227.34C60.5597 2217.65 61.5645 2213.49 56.032 2218.1C50.5026 2222.71 44.9722 2230.63 43.7427 2235.72C42.5207 2240.8 47.0418 2237.03 53.8007 2227.34ZM-1339.67 1245.83C-1340.27 1242.17 -1343.77 1239.67 -1347.43 1240.28C-1351.09 1240.89 -1350.59 1243.88 -1346.33 1246.94C-1342.06 1249.99 -1339.06 1249.5 -1339.67 1245.83ZM-1483.91 1144.04C-1482.76 1142.43 -1483.14 1140.19 -1484.73 1139.04C-1486.34 1137.9 -1488.58 1138.27 -1489.73 1139.87C-1490.87 1141.47 -1490.5 1143.72 -1488.9 1144.86C-1487.3 1146.01 -1485.06 1145.63 -1483.91 1144.04ZM-1303.31 1262.92C-1306.3 1258.23 -1311.47 1254.84 -1314.79 1255.39C-1318.1 1255.94 -1315.66 1259.78 -1309.34 1263.92C-1302.36 1268.5 -1299.99 1268.1 -1303.31 1262.92ZM-1497.2 1125.71C-1496.06 1124.11 -1496.43 1121.87 -1498.03 1120.72C-1499.63 1119.58 -1501.87 1119.95 -1503.02 1121.55C-1504.17 1123.15 -1503.79 1125.4 -1502.19 1126.54C-1500.59 1127.69 -1498.35 1127.31 -1497.2 1125.71ZM-1171.11 1348.76C-1174.11 1344.07 -1179.27 1340.68 -1182.59 1341.23C-1185.91 1341.78 -1183.46 1345.62 -1177.14 1349.76C-1170.16 1354.33 -1167.8 1353.94 -1171.11 1348.76ZM-1264.22 1282.1C-1267.22 1277.41 -1272.38 1274.02 -1275.7 1274.57C-1279.02 1275.12 -1276.57 1278.96 -1270.25 1283.1C-1263.27 1287.67 -1260.91 1287.28 -1264.22 1282.1ZM-1204.47 1315.98C-1209.08 1310.45 -1217 1304.92 -1222.09 1303.7C-1227.17 1302.47 -1223.4 1306.99 -1213.71 1313.75C-1204.02 1320.51 -1199.87 1321.51 -1204.47 1315.98ZM-1517.96 1093.24C-1516.81 1091.64 -1517.19 1089.39 -1518.79 1088.25C-1520.39 1087.1 -1522.64 1087.47 -1523.78 1089.07C-1524.93 1090.67 -1524.56 1092.92 -1522.95 1094.07C-1521.35 1095.21 -1519.11 1094.84 -1517.96 1093.24ZM-1525.43 1079.08C-1524.29 1077.49 -1524.66 1075.24 -1526.26 1074.09C-1527.86 1072.95 -1530.11 1073.32 -1531.25 1074.92C-1532.4 1076.52 -1532.03 1078.77 -1530.43 1079.91C-1528.83 1081.06 -1526.58 1080.69 -1525.43 1079.08ZM-1532.91 1064.93C-1531.76 1063.33 -1532.13 1061.08 -1533.73 1059.94C-1535.33 1058.79 -1537.58 1059.16 -1538.72 1060.77C-1539.87 1062.37 -1539.5 1064.61 -1537.9 1065.76C-1536.3 1066.91 -1534.05 1066.53 -1532.91 1064.93ZM78.7914 2179.19C89.1066 2164.78 92.1916 2158.08 85.6461 2164.29C79.1006 2170.5 70.661 2182.29 66.8913 2190.48C63.1216 2198.68 68.4762 2193.6 78.7914 2179.19ZM-1540.37 1050.78C-1539.23 1049.18 -1539.6 1046.93 -1541.2 1045.78C-1542.8 1044.64 -1545.05 1045.01 -1546.2 1046.61C-1547.34 1048.21 -1546.97 1050.46 -1545.37 1051.6C-1543.77 1052.75 -1541.52 1052.38 -1540.37 1050.78ZM401.665 2432.36C402.809 2430.76 402.437 2428.52 400.835 2427.37C399.234 2426.22 396.986 2426.6 395.842 2428.19C394.695 2429.8 395.067 2432.04 396.669 2433.19C398.271 2434.34 400.518 2433.96 401.665 2432.36ZM202.889 2290.05C205.198 2286.86 210.12 2272.56 213.827 2258.26C217.536 2243.97 217.677 2236.14 214.138 2240.87C210.599 2245.6 205.678 2259.91 203.196 2272.66C200.719 2285.42 200.577 2293.24 202.889 2290.05ZM-1549.5 1026.64C-1548.35 1025.03 -1548.72 1022.79 -1550.32 1021.64C-1551.92 1020.49 -1554.17 1020.87 -1555.32 1022.47C-1556.47 1024.07 -1556.09 1026.32 -1554.49 1027.46C-1552.89 1028.61 -1550.64 1028.24 -1549.5 1026.64ZM-1559.45 997.502C-1559.13 992.881 -1560.18 988.165 -1561.79 987.018C-1563.38 985.874 -1564.95 988.713 -1565.27 993.336C-1565.58 997.952 -1564.53 1002.67 -1562.93 1003.81C-1561.33 1004.96 -1559.76 1002.12 -1559.45 997.502ZM389.59 2363.16C390.456 2361.95 389.155 2354.08 386.7 2345.68C382.654 2331.83 382.302 2331.89 382.932 2346.31C383.588 2361.44 386.157 2367.95 389.59 2363.16ZM-1573.52 943.395C-1573.21 938.779 -1574.26 934.063 -1575.87 932.916C-1577.46 931.772 -1579.03 934.611 -1579.34 939.23C-1579.66 943.845 -1578.6 948.562 -1577.01 949.705C-1575.4 950.852 -1573.84 948.011 -1573.52 943.395ZM224.948 2222.2C235.482 2206.86 244.107 2175.46 234.04 2189.08C229.366 2195.42 224.037 2207.45 222.202 2215.83C220.158 2225.15 221.224 2227.62 224.948 2222.2ZM-1211.27 1196.29C-1224.08 1185.26 -1245.04 1170.28 -1257.86 1163C-1270.67 1155.71 -1260.19 1164.74 -1234.57 1183.05C-1208.95 1201.36 -1198.47 1207.32 -1211.27 1196.29ZM-1084.75 1278.08C-1097.47 1267.12 -1119.73 1251.18 -1134.21 1242.66C-1148.69 1234.15 -1138.28 1243.12 -1111.07 1262.6C-1083.87 1282.08 -1072.02 1289.04 -1084.75 1278.08ZM-1300.36 1124.33C-1303.2 1119.85 -1309.75 1115.16 -1314.9 1113.91C-1320.06 1112.66 -1317.74 1116.33 -1309.73 1122.06C-1301.73 1127.79 -1297.51 1128.81 -1300.36 1124.33ZM388.489 2321.67C388.799 2317.05 387.75 2312.34 386.148 2311.19C384.546 2310.05 382.981 2312.89 382.667 2317.5C382.357 2322.12 383.406 2326.83 385.008 2327.98C386.609 2329.13 388.175 2326.29 388.489 2321.67ZM-1331.38 1093.13C-1334.38 1088.44 -1339.55 1085.05 -1342.87 1085.6C-1346.19 1086.15 -1343.73 1089.99 -1337.42 1094.13C-1330.44 1098.7 -1328.07 1098.31 -1331.38 1093.13ZM-1350.49 1070.64C-1353.49 1065.95 -1358.66 1062.57 -1361.97 1063.11C-1365.29 1063.66 -1362.84 1067.5 -1356.53 1071.64C-1349.55 1076.22 -1347.18 1075.83 -1350.49 1070.64ZM-1366.88 1050.25C-1367.49 1046.59 -1370.98 1044.09 -1374.64 1044.69C-1378.31 1045.3 -1377.81 1048.3 -1373.54 1051.35C-1369.27 1054.41 -1366.28 1053.91 -1366.88 1050.25ZM-1575.65 903.327C-1574.78 902.118 -1576.08 894.253 -1578.54 885.851C-1582.58 871.999 -1582.94 872.057 -1582.31 886.476C-1581.65 901.613 -1579.08 908.121 -1575.65 903.327ZM393.946 2268.53C397.247 2249.22 398.238 2233.69 396.141 2234.03C391.624 2234.78 381.288 2298.9 385.229 2301.72C386.722 2302.79 390.647 2287.86 393.946 2268.53ZM-1382.66 1027.21C-1385.24 1020.67 -1389.97 1013.44 -1393.17 1011.15C-1396.37 1008.86 -1396.88 1012.33 -1394.3 1018.88C-1391.73 1025.42 -1387 1032.64 -1383.79 1034.93C-1380.59 1037.22 -1380.09 1033.75 -1382.66 1027.21ZM-1400.94 999.453C-1401.54 995.79 -1405.03 993.29 -1408.7 993.897C-1412.36 994.507 -1411.86 997.503 -1407.6 1000.56C-1403.33 1003.61 -1400.33 1003.12 -1400.94 999.453ZM-2022.37 556.008C-2021.22 554.406 -2021.59 552.159 -2023.2 551.012C-2024.79 549.868 -2027.04 550.24 -2028.19 551.843C-2029.33 553.445 -2028.96 555.692 -2027.37 556.836C-2025.76 557.983 -2023.52 557.61 -2022.37 556.008ZM245.326 2170.26C252.511 2161.66 352.627 1962.67 390.562 1881.6C606.586 1419.89 584.755 1066.48 331.466 924.883C72.6401 780.193 27.0742 717.555 -26.4539 432.866C-94.1668 72.7092 -156.491 -0.915735 -456.781 -75.4544C-718.102 -140.327 -727.207 -147.381 -991.682 -490.178C-1098.39 -628.48 -1126.06 -653.504 -1246.34 -720.427C-1390.17 -800.456 -1425.87 -840.051 -1448.86 -945.018C-1455.57 -975.713 -1460.42 -987.573 -1460.97 -974.68C-1465.2 -875.886 -1398.27 -793.438 -1247.13 -711.235C-1138.29 -652.048 -1077.31 -597.329 -1005.88 -494.775C-807.296 -209.673 -706.492 -128.706 -479.832 -72.258C-160.951 7.1576 -105.219 68.6994 -39.1711 414.344C18.0485 713.794 68.949 791.471 284.331 908.043C472.709 1010 530.872 1112.31 525.63 1332.46C520.764 1536.81 470.531 1702.69 322.941 2001.78C247.957 2153.74 234.222 2183.55 245.326 2170.26ZM-1414.23 981.129C-1414.83 977.466 -1418.32 974.966 -1421.99 975.573C-1425.64 976.183 -1425.15 979.18 -1420.88 982.233C-1416.62 985.289 -1413.62 984.792 -1414.23 981.129ZM-1575.49 853.935C-1574.33 845.077 -1574.69 836.894 -1576.3 835.748C-1577.89 834.604 -1580.15 840.912 -1581.31 849.77C-1582.47 858.623 -1582.11 866.806 -1580.51 867.95C-1578.91 869.097 -1576.65 862.789 -1575.49 853.935ZM-1430.01 958.094C-1432.59 951.552 -1437.32 944.324 -1440.51 942.034C-1443.71 939.743 -1444.22 943.222 -1441.65 949.763C-1439.06 956.3 -1434.34 963.528 -1431.14 965.819C-1427.94 968.109 -1427.43 964.631 -1430.01 958.094ZM-1469.17 890.101C-1502 823.024 -1509.71 763.796 -1499.91 653.926C-1487.1 510.419 -1489.8 468.327 -1516.85 389.842C-1530.09 351.431 -1548.19 291.431 -1557.08 256.513C-1605.99 64.274 -1774.43 -27.4351 -1857.28 93.0582C-1871.21 113.317 -1865.54 110.28 -1837.78 82.619C-1756.41 1.53277 -1620.3 74.9795 -1577.01 223.332C-1567.25 256.782 -1547.13 320.472 -1532.29 364.867C-1498.8 465.097 -1495.02 502.638 -1505.3 632.386C-1516.33 771.55 -1492.14 906.216 -1451.12 933.974C-1448.31 935.872 -1456.44 916.131 -1469.17 890.101ZM-2203.56 391.068C-2202.41 389.466 -2202.78 387.219 -2204.38 386.072C-2205.99 384.925 -2208.23 385.298 -2209.38 386.9C-2210.52 388.498 -2210.15 390.745 -2208.55 391.892C-2206.95 393.038 -2204.7 392.666 -2203.56 391.068ZM599.755 2389.27C600.899 2387.68 600.528 2385.43 598.926 2384.28C597.329 2383.14 595.081 2383.51 593.937 2385.11C592.79 2386.71 593.162 2388.96 594.759 2390.1C596.361 2391.25 598.608 2390.88 599.755 2389.27ZM-2007.35 522.735C-2006.2 521.137 -2006.57 518.889 -2008.18 517.743C-2009.78 516.596 -2012.03 516.968 -2013.17 518.566C-2014.32 520.169 -2013.95 522.416 -2012.34 523.562C-2010.74 524.709 -2008.49 524.337 -2007.35 522.735ZM-1572.55 825.225C-1571.4 823.623 -1571.77 821.375 -1573.37 820.232C-1574.97 819.085 -1577.22 819.457 -1578.36 821.06C-1579.51 822.662 -1579.14 824.909 -1577.54 826.056C-1575.94 827.2 -1573.69 826.828 -1572.55 825.225ZM585.675 2335.17C583.892 2321.78 581.118 2309.89 579.52 2308.75C577.918 2307.6 578.07 2317.62 579.857 2331.01C581.644 2344.39 584.414 2356.28 586.016 2357.43C587.618 2358.57 587.462 2348.56 585.675 2335.17ZM404.593 2215.37C416.477 2169.8 448.636 2087.79 497.888 1977.46C666.075 1600.69 704.509 1424.61 666.827 1203.47C636.124 1023.3 578.843 951.739 380.28 845.471C143.826 718.938 102.45 655.714 43.9868 331.619C-17.4324 -8.86289 -88.3528 -87.7244 -411.908 -175.347C-588.352 -223.131 -754.043 -314.409 -781.696 -379.061C-782.79 -381.627 -821.596 -416.767 -867.921 -457.145C-918.382 -501.124 -974.936 -557.496 -1008.98 -597.739C-1083.02 -685.272 -1139.56 -735.64 -1228.46 -793.233C-1373.69 -887.332 -1406.94 -938.12 -1442.61 -1120.39C-1474.68 -1284.25 -1533.71 -1390.68 -1627.89 -1454.46C-1642.41 -1464.29 -1635.21 -1454.83 -1607.58 -1427.75C-1508.78 -1330.93 -1481.65 -1277.53 -1448.96 -1115.52C-1409.48 -919.817 -1408.52 -918.398 -1219.04 -775.065C-1083.39 -672.458 -1077.03 -666.762 -1009.84 -587.773C-968.303 -538.951 -915.306 -484.875 -877.582 -452.835C-842.961 -423.432 -782.035 -368.804 -742.189 -331.447C-647.697 -242.861 -602.187 -220.138 -413.129 -167.167C-87.0196 -75.8008 -29.4579 -11.7072 34.3568 331.091C95.1869 657.864 144.037 733.545 369.11 849.712C729.19 1035.55 768.034 1336.57 508.84 1932.51C435.94 2100.11 391.264 2218 398.64 2223.28C400.443 2224.57 403.125 2221.01 404.593 2215.37ZM-1570.03 809.416C-1568.88 807.818 -1569.25 805.571 -1570.86 804.424C-1572.45 803.28 -1574.7 803.652 -1575.85 805.25C-1576.99 806.853 -1576.62 809.1 -1575.02 810.243C-1573.42 811.39 -1571.17 811.018 -1570.03 809.416ZM-2072.26 440.308C-2067.69 433.327 -2068.08 430.96 -2073.26 434.27C-2077.95 437.271 -2081.34 442.439 -2080.79 445.757C-2080.24 449.079 -2076.4 446.623 -2072.26 440.308ZM-2338.19 259.453C-2337.05 257.855 -2337.42 255.608 -2339.02 254.461C-2340.62 253.317 -2342.87 253.69 -2344.01 255.287C-2345.16 256.89 -2344.79 259.137 -2343.19 260.281C-2341.59 261.428 -2339.34 261.055 -2338.19 259.453ZM-1054.8 1170.67C-1055.29 1168.55 -1075.61 1150.37 -1099.96 1130.27C-1131.74 1104.03 -1138.66 1099.83 -1124.51 1115.4C-1104.94 1136.93 -1053.07 1178.05 -1054.8 1170.67ZM-1567.51 793.611C-1566.36 792.008 -1566.74 789.761 -1568.34 788.614C-1569.94 787.467 -1572.19 787.84 -1573.33 789.442C-1574.48 791.04 -1574.11 793.287 -1572.5 794.434C-1570.9 795.581 -1568.66 795.209 -1567.51 793.611ZM-1990.25 486.55C-1987.19 482.28 -1987.69 479.284 -1991.35 479.891C-1995.01 480.501 -1997.51 483.994 -1996.91 487.654C-1996.3 491.317 -1993.3 490.82 -1990.25 486.55ZM-1148.03 1083.7C-1150.88 1079.22 -1157.42 1074.53 -1162.58 1073.28C-1167.74 1072.03 -1165.41 1075.7 -1157.41 1081.42C-1149.41 1087.15 -1145.19 1088.18 -1148.03 1083.7ZM-1178.83 1049.87C-1194.16 1029.25 -1209.46 1018.29 -1199.2 1035.29C-1194.77 1042.62 -1185.85 1052.29 -1179.38 1056.78C-1169.92 1063.34 -1169.82 1061.99 -1178.83 1049.87ZM-1565.48 777.451C-1563.19 774.251 -1559.77 758.869 -1557.88 743.271C-1555.99 727.67 -1556.32 717.531 -1558.61 720.736C-1560.9 723.936 -1564.33 739.314 -1566.22 754.915C-1568.1 770.509 -1567.77 780.651 -1565.48 777.451ZM-2486.12 109.523C-2484.97 107.921 -2485.34 105.673 -2486.94 104.53C-2488.54 103.383 -2490.79 103.755 -2491.94 105.357C-2493.08 106.955 -2492.71 109.203 -2491.11 110.35C-2489.51 111.493 -2487.26 111.121 -2486.12 109.523ZM-1243.18 967.632C-1263.61 938.682 -1305.79 884.815 -1336.92 847.918C-1426.81 741.373 -1442.4 696.122 -1442.22 542.244C-1442.06 397.577 -1447.44 371.182 -1495.04 282.872C-1529.27 219.361 -1540.73 188.175 -1555.02 119.616C-1610.38 -145.883 -1771.05 -190.802 -1929.53 14.9138C-1982 83.0135 -1982 83.0135 -1930.77 22.8303C-1834.68 -90.0598 -1798.96 -113.133 -1734.75 -103.818C-1649.76 -91.4884 -1590.58 -13.0466 -1560.48 127.208C-1546.24 193.491 -1533.38 229.189 -1504.48 282.606C-1458.93 366.818 -1453.25 394.041 -1449.94 544.507C-1446.27 710.927 -1435.28 742.123 -1341.07 853.708C-1309.93 890.591 -1269.76 941.329 -1251.81 966.472C-1233.86 991.612 -1216.22 1014 -1212.61 1016.22C-1209 1018.44 -1222.75 996.574 -1243.18 967.632ZM-2305.29 225.782C-2302.23 221.513 -2302.72 218.516 -2306.39 219.123C-2310.05 219.733 -2312.55 223.226 -2311.94 226.881C-2311.34 230.544 -2308.34 230.048 -2305.29 225.782ZM581.086 2268.3C581.638 2253.1 587.14 2211.47 593.315 2175.79C599.486 2140.12 601.625 2118.76 598.068 2128.31C587.869 2155.73 575.077 2246.12 577.698 2272.22C580.08 2295.94 580.08 2295.94 581.086 2268.3ZM-1973.25 449.552C-1968.68 442.571 -1969.07 440.204 -1974.25 443.519C-1978.94 446.516 -1982.33 451.683 -1981.78 455.002C-1981.23 458.323 -1977.39 455.872 -1973.25 449.552ZM-2045.76 389.57C-2039 379.88 -2038 375.724 -2043.53 380.331C-2049.06 384.937 -2054.59 392.865 -2055.82 397.948C-2057.05 403.031 -2052.52 399.26 -2045.76 389.57ZM-2636.56 -24.5989C-2635.41 -26.201 -2635.78 -28.4484 -2637.39 -29.5953C-2638.98 -30.7389 -2641.23 -30.3666 -2642.38 -28.7644C-2643.52 -27.1664 -2643.15 -24.919 -2641.55 -23.7754C-2639.95 -22.6285 -2637.7 -23.0008 -2636.56 -24.5989ZM-2276.65 197.115C-2272.08 190.134 -2272.47 187.767 -2277.65 191.085C-2282.34 194.082 -2285.73 199.249 -2285.18 202.568C-2284.63 205.886 -2280.8 203.435 -2276.65 197.115ZM-2453.21 75.8511C-2450.15 71.5812 -2450.64 68.5848 -2454.31 69.192C-2457.97 69.7989 -2460.47 73.2916 -2459.86 76.9547C-2459.26 80.6175 -2456.26 80.1211 -2453.21 75.8511ZM-1955.09 410.463C-1948.33 400.774 -1947.33 396.613 -1952.86 401.219C-1958.39 405.83 -1963.92 413.758 -1965.15 418.836C-1966.37 423.919 -1961.85 420.153 -1955.09 410.463ZM-1551.91 709.931C-1542.83 698.334 -1529.55 576.56 -1532.39 530.915C-1547.89 281.515 -1721.84 113.165 -1839.8 233.389C-1855.55 249.439 -1854.57 249.293 -1830.9 232.076C-1677.93 120.808 -1505.15 368.744 -1544.9 642.499C-1550.63 681.982 -1553.78 712.327 -1551.91 709.931ZM-2014.4 332.772C-2005.3 319.92 -2003.23 314.513 -2009.81 320.755C-2016.39 327.002 -2023.83 337.521 -2026.36 344.127C-2028.89 350.738 -2023.51 345.629 -2014.4 332.772ZM-2424.57 47.1837C-2420 40.2031 -2420.39 37.836 -2425.58 41.1502C-2430.26 44.1471 -2433.65 49.3151 -2433.1 52.6335C-2432.55 55.9549 -2428.72 53.5033 -2424.57 47.1837ZM-2244.55 163.601C-2238.82 155.593 -2237.79 151.375 -2242.28 154.223C-2246.76 157.07 -2251.45 163.619 -2252.69 168.775C-2253.95 173.934 -2250.28 171.604 -2244.55 163.601ZM789.55 2327.04C789.865 2322.42 788.811 2317.71 787.21 2316.56C785.612 2315.42 784.042 2318.25 783.732 2322.87C783.415 2327.49 784.468 2332.21 786.066 2333.35C787.668 2334.5 789.233 2331.66 789.55 2327.04ZM-1927.9 359.485C-1918.8 346.633 -1916.73 341.226 -1923.31 347.468C-1929.88 353.714 -1937.33 364.233 -1939.86 370.836C-1942.38 377.446 -1937 372.337 -1927.9 359.485ZM-2579.56 -93.8581C-2573.83 -101.861 -2572.81 -106.082 -2577.29 -103.239C-2581.77 -100.392 -2586.46 -93.8426 -2587.71 -88.6828C-2588.96 -83.5274 -2585.29 -85.8552 -2579.56 -93.8581ZM-2730.87 -202.185C-2725.14 -210.188 -2724.11 -214.406 -2728.59 -211.563C-2733.07 -208.716 -2737.76 -202.167 -2739.01 -197.007C-2740.26 -191.851 -2736.6 -194.182 -2730.87 -202.185ZM-2397.92 22.2451C-2393.34 15.2645 -2393.74 12.8974 -2398.91 16.2106C-2403.61 19.2087 -2406.99 24.3797 -2406.45 27.698C-2405.9 31.0163 -2402.06 28.5603 -2397.92 22.2451ZM-2213.72 132.841C-2207.99 124.834 -2206.97 120.613 -2211.45 123.46C-2215.93 126.307 -2220.62 132.856 -2221.87 138.012C-2223.12 143.172 -2219.45 140.844 -2213.72 132.841ZM-1972.57 261.463C-1959.97 243.855 -1955.9 235.87 -1963.53 243.718C-1971.17 251.568 -1981.49 265.976 -1986.46 275.739C-1991.43 285.494 -1985.18 279.071 -1972.57 261.463ZM-2375.43 3.12178C-2370.85 -3.85834 -2371.25 -6.22564 -2376.43 -2.9081C-2381.11 0.088759 -2384.5 5.2571 -2383.95 8.57544C-2383.41 11.8938 -2379.57 9.44184 -2375.43 3.12178ZM-2036.97 153.726C-2010.61 116.903 -2000.76 101.165 -2015.1 118.749C-2029.44 136.335 -2051 166.461 -2063.03 185.693C-2075.05 204.932 -2063.33 190.544 -2036.97 153.726ZM774.211 2213.69C775.402 2139.96 799.35 2029.46 839.251 1913.56C859.983 1853.34 891.72 1761.15 909.773 1708.7C1012.53 1410.21 1014.77 1213.91 917.518 1029.48C847.432 896.565 771.371 835.341 543.374 728.32C313.271 620.313 241.935 512.949 201.843 214.297C151.936 -157.461 67.1496 -255.065 -312.472 -377.75C-474.624 -430.153 -510.299 -446.826 -634.385 -528.183C-715.201 -581.162 -732.174 -589.635 -803.009 -612.322C-893.813 -641.4 -908.363 -651.903 -1015.36 -765.529C-1049.98 -802.291 -1117.04 -869.924 -1164.39 -915.831C-1311.72 -1058.67 -1327.96 -1082.47 -1389.78 -1246.13C-1459.56 -1430.86 -1572.7 -1563.9 -1708.96 -1621.45C-1728.77 -1629.82 -1709.6 -1613.88 -1637.22 -1561.82C-1495.43 -1459.84 -1465.44 -1421.12 -1406.77 -1264.31C-1341.56 -1089.98 -1316.21 -1051.58 -1177.7 -917.385C-1128.73 -869.937 -1060.29 -800.908 -1025.61 -763.981C-918.697 -650.129 -892.97 -631.531 -804.49 -604.103C-734.667 -582.465 -721.262 -575.674 -630.139 -515.791C-512.146 -438.242 -469.147 -418.374 -309.28 -367.546C64.2398 -248.788 125.143 -177.475 195.93 223.985C256.986 570.25 301.388 627.781 620.582 774.166C978.147 938.151 1063.66 1245.62 890.02 1742.98C790.704 2027.46 761.674 2144.09 770.044 2225.02C773.259 2256.12 773.535 2255.37 774.211 2213.69ZM-1890.24 293.995C-1877.63 276.387 -1873.56 268.402 -1881.2 276.251C-1888.84 284.101 -1899.15 298.509 -1904.12 308.271C-1909.09 318.026 -1902.84 311.603 -1890.24 293.995ZM-2536.23 -142.085C-2530.5 -150.088 -2529.48 -154.306 -2533.95 -151.463C-2538.44 -148.615 -2543.12 -142.066 -2544.38 -136.906C-2545.62 -131.751 -2541.96 -134.082 -2536.23 -142.085ZM-2181.03 99.0132C-2174.27 89.3235 -2173.26 85.1628 -2178.8 89.7736C-2184.33 94.3801 -2189.86 102.308 -2191.09 107.391C-2192.31 112.469 -2187.79 108.703 -2181.03 99.0132ZM-2352.94 -15.9933C-2348.36 -22.9739 -2348.75 -25.341 -2353.94 -22.0266C-2358.63 -19.0294 -2362.02 -13.8619 -2361.47 -10.5435C-2360.91 -7.22205 -2357.08 -9.67343 -2352.94 -15.9933ZM611.714 2096.26C613.524 2089.08 649.233 1994.78 691.068 1886.71C841.579 1497.92 865.046 1336.16 800.676 1131.22C750.244 970.652 681.152 899.426 471.12 791.472C219.677 662.224 179.31 601.03 118.969 257.622C57.3776 -92.9023 -16.2203 -176.018 -350.167 -272.17C-530.898 -324.212 -534.337 -325.862 -687.994 -434.862C-763.448 -488.387 -847.835 -545.045 -875.519 -560.772C-918.751 -585.331 -934.578 -598.808 -987.622 -656.239C-1087.06 -763.911 -1104.7 -780.79 -1197.29 -856.845C-1345.34 -978.449 -1372.23 -1018.47 -1420.8 -1189.39C-1460.49 -1329.07 -1509.91 -1416.5 -1573.57 -1459.67C-1586.94 -1468.74 -1579.8 -1458.84 -1553.87 -1432.36C-1497.51 -1374.8 -1458.44 -1298.16 -1427.64 -1184.75C-1383.6 -1022.55 -1350.29 -972.538 -1208.56 -855.771C-1110.33 -774.85 -1105.36 -770.13 -1009.91 -667.58C-941.966 -594.575 -930.007 -584.309 -876.345 -552.923C-843.924 -533.965 -768.629 -482.256 -709.021 -438.015C-572.288 -336.543 -545.916 -323.705 -349.053 -262.808C-2.82377 -155.716 51.4098 -90.505 121.682 303.164C174.907 601.305 240.824 695.141 472.56 802.647C856.196 980.628 918.499 1279.87 692.747 1860.19C625.913 2031.99 600.481 2103.63 605.138 2106.96C606.945 2108.25 609.904 2103.44 611.714 2096.26ZM-2330.45 -35.112C-2325.87 -42.0923 -2326.27 -44.4597 -2331.44 -41.1465C-2336.14 -38.1481 -2339.52 -32.9771 -2338.97 -29.6588C-2338.43 -26.3404 -2334.59 -28.7965 -2330.45 -35.112ZM-2501.24 -178.667C-2495.51 -186.675 -2494.48 -190.893 -2498.96 -188.045C-2503.44 -185.198 -2508.13 -178.649 -2509.38 -173.494C-2510.63 -168.334 -2506.97 -170.664 -2501.24 -178.667ZM-1916.16 169.771C-1896.68 142.558 -1889.71 130.706 -1900.68 143.432C-1911.65 156.166 -1927.59 178.433 -1936.11 192.917C-1944.62 207.399 -1935.65 196.984 -1916.16 169.771ZM-2307.96 -54.235C-2303.38 -61.2154 -2303.77 -63.5827 -2308.96 -60.2652C-2313.64 -57.268 -2317.03 -52.1 -2316.48 -48.7816C-2315.93 -45.4633 -2312.1 -47.9152 -2307.96 -54.235ZM-2619.98 -347.326C-2597.07 -379.352 -2589.2 -392.408 -2602.49 -376.337C-2615.78 -360.266 -2634.52 -334.06 -2644.14 -318.105C-2653.76 -302.151 -2642.88 -315.298 -2619.98 -347.326ZM-2474.58 -203.607C-2468.85 -211.61 -2467.83 -215.831 -2472.31 -212.988C-2476.79 -210.141 -2481.48 -203.592 -2482.73 -198.432C-2483.97 -193.276 -2480.31 -195.604 -2474.58 -203.607ZM968.063 2231.39C968.926 2230.18 967.625 2222.32 965.169 2213.91C961.124 2200.06 960.768 2200.12 961.398 2214.54C962.058 2229.68 964.631 2236.18 968.063 2231.39ZM-2449.2 -225.794C-2444.63 -232.775 -2445.02 -235.142 -2450.19 -231.829C-2454.89 -228.827 -2458.27 -223.659 -2457.73 -220.341C-2457.18 -217.023 -2453.34 -219.479 -2449.2 -225.794ZM965.619 2185.62C966.485 2184.41 965.184 2176.54 962.732 2168.14C958.684 2154.29 958.332 2154.35 958.961 2168.76C959.618 2183.9 962.19 2190.41 965.619 2185.62ZM964.37 2131.9C964.884 2119.56 964.205 2108.68 962.856 2107.71C958.648 2104.7 956.133 2136.84 959.877 2145.8C961.838 2150.49 963.862 2144.23 964.37 2131.9ZM968.763 2076.72C970.673 2063.56 970.931 2051.86 969.329 2050.71C967.727 2049.57 964.855 2059.4 962.945 2072.56C961.031 2085.72 960.777 2097.42 962.379 2098.57C963.976 2099.71 966.853 2089.88 968.763 2076.72ZM972.971 2040.11C974.118 2038.51 973.746 2036.26 972.144 2035.12C970.543 2033.97 968.295 2034.34 967.148 2035.94C966.001 2037.55 966.373 2039.79 967.975 2040.94C969.576 2042.09 971.824 2041.71 972.971 2040.11ZM975 2023.95C977.292 2020.75 980.712 2005.37 982.604 1989.77C984.488 1974.18 984.162 1964.04 981.871 1967.24C979.579 1970.44 976.155 1985.82 974.267 2001.42C972.376 2017.01 972.706 2027.16 975 2023.95ZM1153.72 2144.18C1154.59 2142.97 1153.29 2135.11 1150.83 2126.71C1146.79 2112.85 1146.44 2112.91 1147.07 2127.33C1147.72 2142.47 1150.29 2148.98 1153.72 2144.18ZM1150.97 2092.71C1151.29 2088.09 1150.23 2083.37 1148.64 2082.23C1147.03 2081.08 1145.47 2083.92 1145.15 2088.54C1144.84 2093.16 1145.89 2097.87 1147.49 2099.02C1149.09 2100.16 1150.66 2097.33 1150.97 2092.71ZM1151.84 2066.91C1152.15 2062.29 1151.1 2057.58 1149.5 2056.43C1147.9 2055.28 1146.33 2058.12 1146.01 2062.74C1145.7 2067.36 1146.75 2072.08 1148.35 2073.22C1149.96 2074.37 1151.52 2071.53 1151.84 2066.91ZM989.54 1955.11C991.831 1951.91 993.984 1943.55 994.319 1936.53C994.654 1929.5 993.051 1926.37 990.76 1929.57C988.466 1932.78 986.317 1941.15 985.982 1948.17C985.647 1955.19 987.245 1958.32 989.54 1955.11ZM1152.7 2041.11C1153.02 2036.49 1151.96 2031.78 1150.36 2030.63C1148.76 2029.49 1147.19 2032.33 1146.88 2036.95C1146.57 2041.56 1147.62 2046.28 1149.22 2047.42C1150.82 2048.57 1152.38 2045.73 1152.7 2041.11ZM997.852 1919.24C1010.28 1901.29 1120.56 1519.66 1131.73 1455.93C1195.78 1090.65 1064.4 866.095 688.295 698.029C368.821 555.273 325.245 490.805 268.74 77.3814C244.426 -100.502 183.774 -239.378 107.758 -291.232C91.4603 -302.346 94.5614 -296.949 121.125 -267.919C206.418 -174.72 233.943 -97.1561 277.19 171.87C330.362 502.644 383.29 572.131 685.567 707.99C1149.43 916.468 1229.73 1149.93 1043.9 1749.69C1000.77 1888.9 989.085 1931.91 997.852 1919.24ZM1156.08 1999.51C1157.99 1986.35 1158.25 1974.64 1156.65 1973.5C1155.04 1972.35 1152.17 1982.18 1150.26 1995.34C1148.35 2008.5 1148.09 2020.2 1149.7 2021.35C1151.29 2022.5 1154.17 2012.67 1156.08 1999.51ZM1160.29 1962.9C1161.44 1961.29 1161.06 1959.05 1159.46 1957.9C1157.86 1956.75 1155.61 1957.12 1154.47 1958.73C1153.32 1960.33 1153.69 1962.58 1155.29 1963.72C1156.89 1964.87 1159.14 1964.5 1160.29 1962.9ZM1162.8 1947.08C1163.95 1945.48 1163.57 1943.24 1161.98 1942.09C1160.38 1940.95 1158.13 1941.32 1156.98 1942.92C1155.84 1944.52 1156.21 1946.77 1157.81 1947.91C1159.41 1949.06 1161.66 1948.69 1162.8 1947.08ZM1165.32 1931.28C1166.47 1929.68 1166.09 1927.43 1164.49 1926.28C1162.89 1925.14 1160.65 1925.51 1159.5 1927.11C1158.36 1928.71 1158.73 1930.96 1160.32 1932.1C1161.93 1933.25 1164.17 1932.88 1165.32 1931.28ZM1335.78 2031.3C1336.08 2026.68 1335.04 2021.97 1333.43 2020.82C1331.83 2019.67 1330.27 2022.51 1329.95 2027.13C1329.64 2031.75 1330.69 2036.47 1332.29 2037.61C1333.89 2038.76 1335.46 2035.92 1335.78 2031.3ZM1166.44 1914.3C1167.98 1910.47 1177.24 1875.49 1187 1836.56C1196.76 1797.64 1220.18 1713.44 1239.04 1649.46C1368.29 1211 1319.39 979.106 1057.89 790.387C969.943 726.922 953.488 718.231 783.257 645.31C448.939 502.097 399.03 429.72 347.396 13.2261C322.35 -188.836 257.388 -328.201 156.24 -396.875C131.185 -413.886 131.52 -413.165 161.828 -384.865C276.941 -277.382 301.343 -216.074 350.176 88.3678C408.622 452.754 455.575 514.146 783.917 655.49C1298.12 876.852 1389.67 1087.52 1224.83 1670.1C1189.11 1796.36 1152.95 1947.6 1166.44 1914.3ZM1335.81 2000.51C1336.96 1998.91 1336.58 1996.66 1334.99 1995.52C1333.39 1994.37 1331.14 1994.74 1329.99 1996.34C1328.85 1997.94 1329.22 2000.19 1330.82 2001.34C1332.42 2002.48 1334.66 2002.11 1335.81 2000.51ZM1336.68 1974.71C1337.82 1973.11 1337.45 1970.86 1335.85 1969.72C1334.25 1968.57 1332 1968.94 1330.85 1970.55C1329.71 1972.14 1330.08 1974.39 1331.68 1975.54C1333.28 1976.68 1335.53 1976.31 1336.68 1974.71ZM1338.37 1953.91C1338.68 1949.29 1337.63 1944.58 1336.03 1943.43C1334.43 1942.28 1332.86 1945.12 1332.55 1949.74C1332.23 1954.36 1333.28 1959.08 1334.88 1960.22C1336.49 1961.37 1338.05 1958.53 1338.37 1953.91ZM1343.01 1904.4C1345.64 1886.92 1346.49 1871.67 1344.89 1870.53C1343.29 1869.38 1339.82 1882.75 1337.19 1900.23C1334.55 1917.72 1333.7 1932.96 1335.3 1934.1C1336.9 1935.25 1340.36 1921.88 1343.01 1904.4ZM1348.47 1859.88C1349.62 1858.28 1349.24 1856.03 1347.64 1854.88C1346.05 1853.74 1343.8 1854.11 1342.65 1855.72C1341.5 1857.32 1341.88 1859.57 1343.47 1860.71C1345.07 1861.86 1347.32 1861.48 1348.47 1859.88ZM1349.61 1844.93C1351.69 1842.6 1355.46 1827.47 1357.98 1811.3C1360.5 1795.14 1379.17 1718.53 1399.48 1641.05C1530.7 1140.56 1486.13 939.551 1201.75 749.274C1104.05 683.908 1069.36 667.004 870.288 587.752C545.168 458.322 470.201 358.39 433.31 5.21576C408.438 -232.83 346.017 -397.211 257.782 -457.016C250.791 -461.755 261.073 -446.481 280.628 -423.078C372.945 -312.591 404.875 -211.578 429.786 48.8282C459.192 356.2 550.559 469.796 870.983 597.357C1180.1 720.419 1304.13 802.966 1390.56 943.142C1484.94 1096.2 1487.28 1272.14 1399.45 1610.21C1366.81 1735.83 1341.8 1853.64 1349.61 1844.93ZM1518.1 1954.91C1519.24 1953.31 1518.87 1951.06 1517.27 1949.91C1515.67 1948.77 1513.43 1949.14 1512.28 1950.74C1511.13 1952.35 1511.5 1954.59 1513.1 1955.74C1514.7 1956.88 1516.95 1956.51 1518.1 1954.91ZM1518.96 1929.11C1520.11 1927.51 1519.74 1925.26 1518.14 1924.12C1516.54 1922.97 1514.29 1923.34 1513.14 1924.95C1511.99 1926.55 1512.37 1928.8 1513.97 1929.94C1515.57 1931.09 1517.81 1930.71 1518.96 1929.11ZM1519 1898.32C1519.31 1893.7 1518.26 1888.99 1516.66 1887.84C1515.06 1886.7 1513.49 1889.54 1513.18 1894.16C1512.87 1898.78 1513.92 1903.49 1515.52 1904.64C1517.12 1905.78 1518.68 1902.94 1519 1898.32ZM1520.69 1877.52C1521.84 1875.92 1521.47 1873.67 1519.86 1872.52C1518.27 1871.38 1516.02 1871.75 1514.87 1873.35C1513.72 1874.96 1514.1 1877.2 1515.69 1878.35C1517.3 1879.49 1519.54 1879.12 1520.69 1877.52ZM1523.64 1848.81C1524.79 1839.96 1524.43 1831.77 1522.84 1830.63C1521.23 1829.48 1518.98 1835.79 1517.82 1844.64C1516.66 1853.5 1517.02 1861.68 1518.62 1862.83C1520.22 1863.98 1522.48 1857.67 1523.64 1848.81ZM-2187.42 -891.458C-1963.98 -928.711 -1781.42 -925.693 -1678.67 -883.048C-1648.13 -870.373 -1648.13 -870.373 -1682.29 -890.283C-1741.77 -924.949 -1834.62 -932.993 -2019.35 -919.478C-2111.49 -912.744 -2271.25 -888.603 -2268.86 -881.78C-2268.15 -879.759 -2231.5 -884.111 -2187.42 -891.458ZM1532.05 1775.59C1536.11 1749.43 1553.82 1666.03 1571.4 1590.23C1718.01 958.161 1626.42 782.723 1033.55 560.04C622.186 405.528 544.437 315.346 512.693 -44.1411C491.457 -284.628 427.36 -470.57 346.748 -525.548C341.292 -529.269 354.443 -508.347 375.978 -479.051C455.149 -371.345 482.309 -281.699 502.726 -60.7138C537.487 315.547 618.622 416.205 1000.59 556.901C1616.91 783.925 1710.95 955.249 1565.43 1585.96C1533.6 1723.91 1516.29 1817.13 1521.76 1821.05C1523.36 1822.2 1527.99 1801.74 1532.05 1775.59ZM1700.38 1909.31C1701.53 1907.71 1701.16 1905.46 1699.56 1904.32C1697.95 1903.17 1695.71 1903.55 1694.56 1905.14C1693.42 1906.75 1693.79 1908.99 1695.39 1910.14C1696.99 1911.28 1699.24 1910.91 1700.38 1909.31ZM1909.43 2035.34C1910.24 2034.21 1904.01 1988.8 1895.59 1934.43C1876.18 1809.18 1879.01 1734.06 1909.97 1553.06C1957.55 1274.87 1964.17 1228.45 1967.34 1150.73C1982.47 780.333 1841.95 638.502 1287.08 464.113C786.351 306.744 698.651 213.412 670.128 -192.438C646.567 -527.679 585.379 -648.267 354.279 -814.884C225.273 -907.894 173.049 -934.482 18.8296 -985.664C-422.737 -1132.21 -420.473 -1131.98 -595.905 -1048.17C-792.384 -954.307 -934.683 -1073.2 -1097.54 -1467.28C-1163.57 -1627.05 -1226.13 -1748.05 -1271.02 -1802.83C-1330.87 -1875.84 -1475.82 -1971.86 -1499.76 -1954.34C-1506.01 -1949.77 -1504.54 -1947.09 -1494.31 -1944.46C-1347.06 -1906.63 -1240.08 -1771.05 -1111.43 -1459.26C-938.59 -1040.38 -805.182 -937.74 -569.312 -1042.16C-410.056 -1112.67 -412.587 -1112.97 5.89834 -973.752C267.195 -886.826 466.215 -747.28 559.629 -585.495C619.391 -481.993 639.536 -398.253 654.523 -191.067C685.134 232.006 776.421 325.805 1319.72 492.394C1821.84 646.362 1965.47 796.167 1951.47 1151.32C1948.48 1227.17 1939.96 1286.17 1892.67 1558.29C1862.55 1731.65 1864.11 1887.8 1897.1 2000.32C1903.07 2020.71 1908.62 2036.47 1909.43 2035.34ZM1699.59 1873.53C1700.74 1871.92 1700.37 1869.68 1698.77 1868.53C1697.17 1867.39 1694.92 1867.76 1693.78 1869.36C1692.63 1870.96 1693 1873.21 1694.6 1874.36C1696.2 1875.5 1698.45 1875.13 1699.59 1873.53ZM1699.63 1842.73C1699.95 1838.12 1698.9 1833.4 1697.29 1832.26C1695.69 1831.11 1694.13 1833.95 1693.81 1838.57C1693.5 1843.19 1694.55 1847.9 1696.15 1849.05C1697.75 1850.2 1699.32 1847.36 1699.63 1842.73ZM1700.5 1816.94C1700.81 1812.32 1699.76 1807.61 1698.16 1806.46C1696.56 1805.31 1694.99 1808.15 1694.68 1812.77C1694.36 1817.39 1695.42 1822.11 1697.02 1823.25C1698.62 1824.4 1700.18 1821.56 1700.5 1816.94ZM1702.19 1796.14C1703.34 1794.53 1702.96 1792.29 1701.36 1791.14C1699.76 1790 1697.52 1790.37 1696.37 1791.97C1695.22 1793.57 1695.59 1795.82 1697.19 1796.97C1698.79 1798.11 1701.04 1797.74 1702.19 1796.14ZM1703.88 1775.34C1704.19 1770.71 1703.14 1766 1701.54 1764.85C1699.94 1763.71 1698.37 1766.55 1698.06 1771.17C1697.74 1775.79 1698.8 1780.5 1700.4 1781.65C1702 1782.79 1703.56 1779.95 1703.88 1775.34ZM1705.57 1754.53C1706.71 1752.93 1706.34 1750.68 1704.74 1749.54C1703.14 1748.39 1700.89 1748.76 1699.75 1750.36C1698.6 1751.96 1698.97 1754.21 1700.57 1755.36C1702.18 1756.5 1704.42 1756.13 1705.57 1754.53ZM1716.76 1674.82C1722.73 1638.11 1726 1608.34 1724.02 1608.66C1719.58 1609.4 1699.24 1736.79 1703.11 1739.56C1704.66 1740.67 1710.8 1711.54 1716.76 1674.82ZM1730.6 1591.94C1738.27 1571.18 1754.71 1485.58 1750.91 1486.2C1748.78 1486.56 1742.46 1512.84 1736.89 1544.62C1731.31 1576.4 1728.48 1597.69 1730.6 1591.94ZM-2017.3 -1123.15C-1866.21 -1111.11 -1748.12 -1082.15 -1673.54 -1038.88C-1626.32 -1011.48 -1626.32 -1011.48 -1665.45 -1040.73C-1712.29 -1075.73 -1776.58 -1097.31 -1885.06 -1114.43C-1965.71 -1127.16 -2084.49 -1139.95 -2087.18 -1136.2C-2091.17 -1130.63 -2076.35 -1127.86 -2017.3 -1123.15ZM1755.85 1474.91C1783.55 1439.06 1806.22 1132.17 1788.61 1031.37C1744.55 779.145 1602.9 663.653 1152.69 512.861C703.041 362.258 616.664 260.172 585.702 -157.219C570.946 -356.171 521.486 -501.753 440.053 -585.912C430.681 -595.597 436.68 -583.875 453.377 -559.866C537.219 -439.318 567.879 -332.264 581.942 -110.953C605.751 263.704 700.026 367.013 1162.61 525.393C1725.75 718.195 1847.07 885.797 1770.46 1365.13C1760.39 1428.14 1753.81 1477.54 1755.85 1474.91ZM-1463.16 -1098C-1431.24 -1142.59 -1546.23 -1345.67 -1652.64 -1432.64C-1695.7 -1467.84 -1695.7 -1467.84 -1658.98 -1433.08C-1557.51 -1337.05 -1498.81 -1244.89 -1479.65 -1151.51C-1472.93 -1118.79 -1465.52 -1094.7 -1463.16 -1098ZM-836.4 -688.406C-823.886 -685.469 -786.237 -679.964 -752.734 -676.172C-686.763 -668.703 -657.735 -656.816 -541.845 -589.821C-455.249 -539.762 -390.681 -512.462 -241.165 -462.686C-110.226 -419.098 -44.8638 -391.203 30.7206 -346.657C84.422 -315.006 84.4222 -315.006 47.1696 -342.891C-6.19134 -382.838 -82.6074 -417.545 -221.071 -464.73C-409.102 -528.807 -431.815 -538.458 -549.219 -604.114C-671.829 -672.678 -683.5 -676.94 -776.081 -686.984C-866.958 -696.845 -911.55 -729.298 -1065.37 -897.496C-1267.7 -1118.75 -1289.45 -1150.22 -1371.62 -1340.72C-1432.48 -1481.79 -1546.75 -1601 -1677.27 -1659.56C-1697.98 -1668.86 -1677.82 -1653.27 -1612.11 -1609.19C-1472.19 -1515.3 -1439.52 -1476.49 -1375.42 -1327.89C-1300.29 -1153.72 -1269.46 -1109 -1087.31 -909.876C-957.561 -768.058 -878.534 -698.297 -836.4 -688.406ZM-845.379 -762.154C-815.561 -750.376 -792.763 -748.443 -716.745 -751.254C-632.309 -754.379 -614.289 -749.092 -479.139 -681.601C-403.853 -643.999 -322.715 -610.64 -217.866 -574.18C-134.222 -545.088 -38.284 -507.579 -4.66919 -490.822C127.105 -425.136 134.103 -422.297 78.658 -457.008C16.5799 -495.872 -75.6098 -534.984 -230.589 -588.203C-361.961 -633.316 -376.06 -639.257 -504.42 -703.571C-606.021 -754.472 -636.168 -762.24 -722.932 -759.864C-815.568 -757.328 -830.132 -760.906 -883.864 -799.375C-1017.83 -895.288 -1201.35 -1134.34 -1319.51 -1366.84C-1399.85 -1524.93 -1435.31 -1572.8 -1513.61 -1628.87C-1569.02 -1668.56 -1667.49 -1722.4 -1672.31 -1715.66C-1674.02 -1713.28 -1663.88 -1706.7 -1649.78 -1701.03C-1503.66 -1642.29 -1420.82 -1554.61 -1324.7 -1357C-1213.17 -1127.67 -952.843 -804.607 -845.379 -762.154ZM-1706.03 -1438.56C-1726.96 -1455.25 -1761.01 -1479.61 -1781.69 -1492.71C-1802.38 -1505.8 -1785.25 -1492.15 -1743.63 -1462.37C-1702.01 -1432.59 -1685.09 -1421.87 -1706.03 -1438.56ZM-809.07 -819.011C-793.986 -814.103 -749.024 -816.009 -695.606 -823.814C-574.603 -841.5 -551.463 -836.854 -389.15 -762.278C-349.732 -744.166 -270.893 -713.202 -213.953 -693.469C18.2495 -612.997 45.6337 -600.908 155.117 -530.552C242.531 -474.378 242.532 -474.378 175.122 -524.063C91.1537 -585.953 21.8141 -618.492 -173.225 -687.534C-252.677 -715.659 -350.259 -753.638 -390.074 -771.932C-553.023 -846.8 -572.48 -850.681 -696.971 -833.139C-805.303 -817.873 -824.964 -822.731 -896.463 -882.425C-1014.18 -980.708 -1133.92 -1148.7 -1269.42 -1405.67C-1383.59 -1622.19 -1457.48 -1701.15 -1596 -1754.64C-1639.86 -1771.57 -1630.77 -1765.8 -1538.51 -1718.13C-1431.88 -1663.03 -1381.56 -1603.7 -1288.73 -1423.6C-1116.75 -1089.95 -934.082 -859.71 -809.07 -819.011ZM-1728.79 -1498.8C-1741.59 -1509.83 -1762.56 -1524.81 -1775.37 -1532.09C-1788.18 -1539.38 -1777.7 -1530.35 -1752.08 -1512.04C-1726.46 -1493.73 -1715.98 -1487.77 -1728.79 -1498.8ZM-1665.45 -1488.59C-1674.92 -1497.33 -1691.95 -1509.51 -1703.27 -1515.67C-1714.6 -1521.82 -1706.85 -1514.67 -1686.04 -1499.78C-1665.24 -1484.88 -1655.97 -1479.85 -1665.45 -1488.59ZM-812.671 -889.445C-777.919 -874.167 -737.821 -874.305 -681.471 -889.903C-529.368 -932.004 -514.305 -930.554 -321.331 -855.234C-193.778 -805.449 -54.8427 -758.093 -67.2536 -768.633C-70.6446 -771.513 -105.037 -784.335 -143.677 -797.124C-182.322 -809.916 -267.958 -841.611 -333.986 -867.563C-481.9 -925.7 -534.849 -935.598 -603.901 -918.016C-771.522 -875.339 -781.864 -876.034 -865.04 -935.583C-974.525 -1013.97 -1047.98 -1116.53 -1190.5 -1390C-1343.11 -1682.83 -1413.07 -1764.02 -1556.98 -1815.29C-1597.71 -1829.8 -1594.85 -1827.98 -1495.05 -1775.69C-1387.24 -1719.2 -1325.58 -1642.03 -1223.92 -1436.38C-1065.27 -1115.46 -936.153 -943.735 -812.671 -889.445ZM-1734.13 -1546.51C-1742.01 -1554.18 -1755.13 -1563.52 -1763.28 -1567.26C-1771.43 -1571.01 -1764.97 -1564.73 -1748.94 -1553.31C-1732.91 -1541.9 -1726.24 -1538.84 -1734.13 -1546.51ZM-1641.78 -1518.56C-1711.15 -1577.35 -1771 -1619.6 -1720.71 -1574.3C-1701.58 -1557.07 -1664.9 -1528.08 -1639.2 -1509.88C-1592.47 -1476.79 -1592.47 -1476.79 -1641.78 -1518.56ZM-778.351 -944.114C-743.352 -932.14 -699.529 -938.457 -627.48 -965.869C-498.586 -1014.91 -464.664 -1016.43 -340.378 -978.758C-299.617 -966.403 -276.635 -961.177 -289.308 -967.146C-398.705 -1018.66 -488.767 -1023.45 -600.115 -983.656C-832.451 -900.628 -944.286 -996.175 -1161.26 -1463.11C-1219.38 -1588.16 -1278.59 -1695.63 -1288.47 -1694C-1290.86 -1693.6 -1281.35 -1676.21 -1267.33 -1655.34C-1253.32 -1634.48 -1203.03 -1534.57 -1155.57 -1433.32C-1011.66 -1126.29 -904.452 -987.257 -778.351 -944.114ZM-34.4858 -751.146C-30.2465 -750.179 5.21634 -736.087 44.3236 -719.828C83.4268 -703.573 110.503 -694.07 104.488 -698.715C91.7037 -708.586 -53.1331 -768.347 -55.6731 -764.799C-57.7974 -761.832 -44.8952 -753.518 -34.4858 -751.146ZM-219.281 -935.863C-190.645 -927.376 -190.555 -927.409 -213.063 -938.398C-239.67 -951.387 -270.288 -959.9 -257.11 -950.643C-252.278 -947.249 -235.254 -940.597 -219.281 -935.863ZM329.741 -544.164C325.132 -549.695 317.206 -555.223 312.128 -556.447C307.045 -557.674 310.811 -553.151 320.498 -546.395C330.185 -539.639 334.345 -538.635 329.741 -544.164ZM227.833 -619.827C297.264 -575.41 297.264 -575.41 236.683 -619.887C203.363 -644.349 162.815 -670.703 146.577 -678.451C110.99 -695.432 121.499 -687.85 227.833 -619.827ZM-1294.36 -1706.7C-1294.97 -1710.36 -1298.46 -1712.86 -1302.12 -1712.26C-1305.79 -1711.65 -1305.29 -1708.65 -1301.02 -1705.6C-1296.76 -1702.54 -1293.76 -1703.04 -1294.36 -1706.7ZM-1512.91 -1870.7C-1493.95 -1863.36 -1467.58 -1850.41 -1454.29 -1841.92C-1440.17 -1832.9 -1434.06 -1831.14 -1439.58 -1837.68C-1451.57 -1851.88 -1535.48 -1892.13 -1544.88 -1888.2C-1548.77 -1886.57 -1550.91 -1884.97 -1549.65 -1884.65C-1548.39 -1884.32 -1531.86 -1878.05 -1512.91 -1870.7ZM-1313.06 -1731.82C-1317.49 -1739.16 -1326.4 -1748.83 -1332.87 -1753.32C-1342.33 -1759.88 -1342.44 -1758.52 -1333.42 -1746.4C-1318.09 -1725.78 -1302.79 -1714.83 -1313.06 -1731.82ZM-106.721 -896.361C-71.0158 -885.373 -1.4749 -860.787 47.8126 -841.725C97.1002 -822.664 132.259 -810.914 125.945 -815.612C119.625 -820.313 80.2083 -837.181 38.3477 -853.097C-46.9367 -885.524 -193.823 -932.186 -180.374 -922.579C-175.57 -919.147 -142.425 -907.348 -106.721 -896.361ZM-1354.02 -1776.18C-1360.26 -1782.76 -1370.77 -1790.2 -1377.38 -1792.73C-1383.99 -1795.26 -1378.88 -1789.88 -1366.03 -1780.78C-1353.18 -1771.68 -1347.78 -1769.61 -1354.02 -1776.18ZM-1402.62 -1819.57C-1405.62 -1824.26 -1410.78 -1827.65 -1414.11 -1827.1C-1417.43 -1826.55 -1414.97 -1822.71 -1408.66 -1818.57C-1401.68 -1814 -1399.31 -1814.39 -1402.62 -1819.57ZM412.418 -619.458C401.447 -634.591 361.575 -667.921 363.315 -660.503C363.815 -658.38 377.558 -644.84 393.856 -630.415C412.986 -613.483 419.566 -609.598 412.418 -619.458ZM165.299 -793.973C160.691 -799.504 152.765 -805.032 147.686 -806.256C142.603 -807.483 146.37 -802.96 156.057 -796.204C165.744 -789.448 169.903 -788.444 165.299 -793.973ZM213.212 -768.601C206.972 -775.174 196.459 -782.621 189.851 -785.148C183.243 -787.675 188.35 -782.295 201.202 -773.192C214.049 -764.091 219.456 -762.024 213.212 -768.601ZM316.314 -703.865C300.246 -717.153 274.05 -735.889 258.102 -745.5C242.149 -755.114 255.294 -744.243 287.31 -721.344C319.331 -698.442 332.382 -690.576 316.314 -703.865Z" fill="url(#paint1_radial_127_21034)" fill-opacity="0.7"/>
</g>
</mask>
<g mask="url(#mask0_127_21034)">
<rect width="2374.36" height="2380.02" transform="matrix(-0.813095 -0.582131 -0.582131 0.813095 2672.48 175.198)" fill="url(#paint2_linear_127_21034)" fill-opacity="0.2"/>
</g>
</g>
<defs>
<radialGradient id="paint0_radial_127_21034" cx="0" cy="0" r="1" gradientUnits="userSpaceOnUse" gradientTransform="translate(698.5 991.5) rotate(-119.493) scale(2398.85 1913.16)">
<stop stop-color="#02B1DD"/>
<stop offset="0.432111" stop-color="white"/>
</radialGradient>
<radialGradient id="paint1_radial_127_21034" cx="0" cy="0" r="1" gradientUnits="userSpaceOnUse" gradientTransform="translate(1980.18 549.021) rotate(173.233) scale(2737.35 2737.45)">
<stop offset="0.255368" stop-color="#6EC6DC"/>
<stop offset="0.443496" stop-color="#74FFE3"/>
<stop offset="0.622867" stop-color="#FFA9C9"/>
</radialGradient>
<linearGradient id="paint2_linear_127_21034" x1="1906.48" y1="592.662" x2="-330.956" y2="2655.15" gradientUnits="userSpaceOnUse">
<stop stop-color="white"/>
<stop offset="0.177038" stop-color="white"/>
<stop offset="0.274611" stop-color="white" stop-opacity="0.6"/>
<stop offset="0.436287" stop-color="white" stop-opacity="0.5"/>
<stop offset="0.543522" stop-color="white" stop-opacity="0"/>
</linearGradient>
<clipPath id="clip0_127_21034">
<rect width="969" height="1215" fill="white" transform="matrix(-4.37114e-08 -1 -1 4.37114e-08 1215 969)"/>
</clipPath>
</defs>
</svg>
