<svg width="193" height="50" viewBox="0 0 193 50" fill="none" xmlns="http://www.w3.org/2000/svg">
<g clip-path="url(#clip0_3_1028)">
<path d="M190.036 26.2837L190.01 19.2486C190.747 19.1623 191.49 19.1623 192.227 19.2486V27.1667C191.677 27.2047 191.236 26.8743 190.747 26.7164C190.485 26.6082 190.171 26.6082 190.036 26.2837Z" fill="#B2B2B2"/>
<path d="M190.036 30.8713V29.4941C190.096 29.0234 190.171 28.9444 190.612 29.1023C191.178 29.2672 191.723 29.4998 192.235 29.7953V30.6725C191.659 30.7573 191.23 30.4005 190.738 30.2368C190.246 30.0731 190.24 30.0555 190.266 30.5965C190.262 30.6896 190.227 30.7786 190.165 30.8479C190.15 30.8669 190.129 30.8798 190.105 30.8841C190.081 30.8883 190.057 30.8838 190.036 30.8713Z" fill="#EF85AD"/>
<path d="M192.226 29.7954C191.728 29.7661 191.308 29.503 190.865 29.3158C190.684 29.2398 190.499 29.234 190.324 29.1726C190.001 29.0644 190.18 29.4299 190.036 29.4942V28.7106C190.091 28.1053 190.14 28.0585 190.675 28.3158C191.21 28.5731 191.766 28.6521 192.229 29.0147L192.226 29.7954Z" fill="#DF91AE"/>
<path d="M190.036 26.2837L192.226 27.1609V27.9445C191.714 27.8977 191.285 27.5965 190.804 27.4562C190.564 27.3375 190.303 27.268 190.036 27.2515V26.2837Z" fill="#BFA9B1"/>
<path d="M190.197 30.6755C190.158 30.6052 190.13 30.5293 190.114 30.4503C190.114 30.2925 190.027 30.0761 190.16 29.9913C190.292 29.9065 190.462 29.9913 190.614 30.0556C191.147 30.2691 191.685 30.4708 192.221 30.6755V31.3597C192.169 31.4036 192.108 31.4503 192.048 31.4328C191.415 31.234 190.773 31.079 190.197 30.6755Z" fill="#FB7CAB"/>
<path d="M192.227 29.0147C191.687 28.8929 191.167 28.6961 190.681 28.4299C190.35 28.2603 190.085 28.2047 190.033 28.7018C190.033 28.4416 190.033 28.1813 190.033 27.9182C190.076 27.7661 190.033 27.5059 190.321 27.6024C190.991 27.7842 191.633 28.0587 192.229 28.4182L192.227 29.0147Z" fill="#D39AAF"/>
<path d="M192.226 28.4269C191.598 28.2529 190.984 28.026 190.393 27.7485C190.105 27.6374 190.128 27.8245 190.036 27.9269V27.2456C190.108 27.1637 190.171 27.0906 190.309 27.1462C190.97 27.354 191.611 27.6191 192.226 27.9386V28.4269Z" fill="#CBA0B0"/>
<path d="M190.039 31.7456V31.2631C190.076 31.2339 190.119 31.1988 190.165 31.2105C190.894 31.3693 191.59 31.651 192.227 32.0438V32.4356C191.956 32.5935 191.74 32.3888 191.507 32.3157C191.005 32.1596 190.515 31.9691 190.039 31.7456Z" fill="#C890AE"/>
<path d="M190.039 31.7456C190.615 31.7456 191.095 32.1081 191.639 32.2397C191.838 32.2894 192.031 32.3684 192.215 32.4356V32.6315C191.963 32.685 191.705 32.7008 191.449 32.6783C190.951 32.6081 190.511 32.345 190.024 32.2339C190.036 32.0701 190.039 31.9064 190.039 31.7456Z" fill="#B199B0"/>
<path d="M192.227 32.0439L190.039 31.2632C190.039 31.1316 190.039 31.0029 190.039 30.8714H190.108C190.853 31.0094 191.571 31.2744 192.229 31.655L192.227 32.0439Z" fill="#DA89AD"/>
<path d="M192.227 31.655C191.496 31.4636 190.786 31.2011 190.105 30.8714C190.101 30.8327 190.109 30.7937 190.126 30.759C190.143 30.7243 190.17 30.6953 190.203 30.6755C190.9 30.8305 191.521 31.2223 192.218 31.3597L192.227 31.655Z" fill="#EB82AC"/>
<path d="M191.363 32.6375H192.227V32.734C191.651 32.734 191.046 32.734 190.456 32.734C190.304 32.734 190.131 32.7924 190.016 32.6258C190.468 32.3392 190.914 32.538 191.363 32.6375Z" fill="#9BA1B1"/>
<path d="M192.227 19.2369H190.01C190.298 19.0205 190.626 19.155 190.931 19.1375C191.363 19.1112 191.795 19.1375 192.227 19.1375V19.2369Z" fill="#B2B2B2"/>
<path d="M149.834 32.5379L146.581 27.807L147.355 27.4415C149.929 26.2339 150.364 22.5643 148.455 20.6111C147.617 19.7543 146.555 19.4034 145.418 19.2222C145.342 19.1953 145.262 19.1844 145.182 19.19H136.02C135.91 19.19 135.792 19.1578 135.7 19.2485V32.614C136.313 32.7514 136.938 32.6344 137.554 32.6812C137.859 32.7046 137.974 32.614 137.966 32.2806C137.945 31.304 137.966 30.3303 137.966 29.3567C137.93 28.9216 137.946 28.4839 138.012 28.0526C139.917 28.0526 141.823 28.0526 143.726 28.0263C143.879 28.0114 144.033 28.0422 144.17 28.1149C144.306 28.1876 144.419 28.299 144.494 28.4356C145.435 29.8508 146.403 31.2456 147.358 32.6491C148.141 32.7163 148.924 32.6666 149.71 32.6754C149.791 32.6783 149.866 32.6549 149.834 32.5379ZM141.241 26.0701C140.28 26.0906 139.319 26.0701 138.363 26.0701C137.992 26.0701 137.908 25.9561 137.914 25.5994C137.931 24.266 137.931 22.9327 137.914 21.5994C137.914 21.2602 138.003 21.1491 138.343 21.1549C139.434 21.1754 140.522 21.1549 141.613 21.1549V21.1695C142.686 21.1695 143.76 21.1461 144.834 21.1695C146.092 21.2046 146.955 21.807 147.183 22.8684C147.537 24.5321 146.912 25.7339 145.182 25.9649C143.87 26.1666 142.554 26.0438 141.241 26.0701Z" fill="#B2B2B2"/>
<path d="M155.726 30.8626L161.109 30.8831C162.836 30.8831 164.564 30.8831 166.291 30.8831C166.705 30.8831 166.82 31.0088 166.789 31.4065C166.757 31.8042 166.789 32.2194 166.789 32.6258C166.679 32.7281 166.544 32.6872 166.42 32.6872H153.786C153.662 32.6872 153.527 32.7281 153.418 32.6258V19.2515C153.527 19.1492 153.662 19.1901 153.786 19.1901H166.432C166.555 19.1901 166.691 19.1492 166.8 19.2515C166.8 19.6404 166.766 20.0351 166.8 20.4211C166.84 20.8597 166.708 21.0059 166.253 21.0059C162.937 20.9854 159.633 21.0059 156.305 21.0059C156.115 21.0059 155.922 21.0205 155.729 21.0264C155.662 21.7005 155.647 22.3791 155.686 23.0556C155.648 23.6833 155.661 24.3132 155.726 24.9387C155.894 24.9955 156.073 25.0105 156.247 24.9825H164.362C164.537 24.9566 164.715 24.9706 164.883 25.0234C164.883 25.4123 164.857 25.8042 164.883 26.193C164.909 26.5819 164.788 26.6872 164.405 26.6843C161.705 26.6667 159.002 26.6843 156.302 26.6843C156.109 26.6843 155.919 26.6989 155.726 26.7047C155.654 27.2474 155.64 27.7964 155.683 28.3422C155.649 29.1824 155.663 30.0241 155.726 30.8626Z" fill="#B2B2B2"/>
<path d="M77.8901 21.1871H65.495C65.4307 21.7832 65.4153 22.3837 65.449 22.9824C65.4346 23.7807 65.4662 24.5818 65.449 25.3772C65.449 25.7514 65.5497 25.8392 65.9067 25.8362C69.004 25.8245 72.1004 25.8245 75.1958 25.8362C75.3697 25.7992 75.5506 25.8176 75.7139 25.8889C75.7139 26.3596 75.6851 26.8333 75.7139 27.3011C75.7456 27.7193 75.6333 27.8509 75.1958 27.8479C72.1531 27.8245 69.1134 27.8479 66.0736 27.8479C65.8807 27.8479 65.6908 27.8479 65.4979 27.8655C65.4324 28.0822 65.4167 28.3112 65.4518 28.5351C65.4518 29.9152 65.4518 31.2924 65.4518 32.6725C65.4518 32.8187 65.5324 32.997 65.3712 33.1199H63.1375C62.9734 32.9941 63.0569 32.8275 63.0569 32.6696C63.0569 28.3518 63.0569 24.0341 63.0569 19.7163C63.0569 19.1959 63.0569 19.1959 63.5808 19.1959H77.4468C77.9793 19.1959 77.9966 19.1959 77.9765 19.7544C77.9333 20.228 78.0484 20.7163 77.8901 21.1871Z" fill="#B2B2B2"/>
<path d="M89.108 31.0731C91.1229 31.0088 92.6428 30.1462 93.4862 28.2281C93.7098 27.6716 93.8195 27.0746 93.8086 26.4737C93.8345 24.0672 93.8086 21.6608 93.8086 19.2515C94.4995 19.0877 95.2019 19.1959 95.8985 19.193C96.1691 19.193 96.0597 19.4678 96.0597 19.6228C96.0597 21.7047 96.0597 23.7885 96.0597 25.8743C96.0835 26.1668 96.0738 26.4612 96.0309 26.7515C95.8783 28.4474 95.3602 29.9678 94.0562 31.1374C92.9757 32.055 91.6592 32.6394 90.2622 32.8216C89.8679 32.886 89.4706 32.886 89.0763 32.9357C88.6643 32.9868 88.2476 32.9868 87.8356 32.9357C86.5841 32.9374 85.3484 32.6525 84.2202 32.1023C82.2368 31.114 81.1861 29.4708 80.9789 27.2427C80.8954 27.0497 81.0048 26.8333 80.9041 26.6433C80.9041 24.1793 80.9041 21.7154 80.9041 19.2515C81.5949 19.1023 82.2973 19.1988 82.991 19.1988C83.2616 19.1988 83.1551 19.4708 83.158 19.6257C83.158 21.7047 83.158 23.7836 83.158 25.8596C83.1313 26.0369 83.1451 26.2179 83.1983 26.3889C83.1292 29.1608 85.0233 31.0673 87.804 31.0673C88.2352 31.144 88.6761 31.1459 89.108 31.0731Z" fill="#B2B2B2"/>
<path d="M124.353 31.0732C125.997 31.0381 127.358 30.4182 128.314 29.0264C128.815 28.2372 129.071 27.3131 129.048 26.3743C129.091 24.0001 129.048 21.6258 129.048 19.2486C129.727 19.1112 130.415 19.2194 131.097 19.1901C131.27 19.1901 131.31 19.2895 131.308 19.4416V20.0732C131.308 22.0576 131.308 24.043 131.308 26.0293C131.325 26.2071 131.316 26.3867 131.279 26.5615C131.158 28.2895 130.669 29.8597 129.37 31.0732C128.276 32.0966 126.941 32.5644 125.504 32.8276C125.11 32.8977 124.716 32.8948 124.324 32.9445C123.911 32.9942 123.494 32.9942 123.081 32.9445C121.862 32.9281 120.659 32.6564 119.549 32.1463C117.822 31.3743 116.826 30.0088 116.356 28.2018C116.298 27.9207 116.254 27.6367 116.224 27.3509C116.146 27.1901 116.241 27.003 116.152 26.8422V19.2545C116.831 19.117 117.516 19.2281 118.199 19.193C118.368 19.193 118.415 19.2895 118.412 19.4416V19.7837C118.412 21.8773 118.412 23.9718 118.412 26.0673C118.385 26.2445 118.399 26.4256 118.452 26.5966C118.452 28.9357 119.799 30.503 121.97 30.9825C122.326 31.0769 122.695 31.1134 123.063 31.0907C123.491 31.158 123.927 31.1521 124.353 31.0732Z" fill="#B2B2B2"/>
<path d="M113.642 19.2632C113.642 19.8626 113.642 20.4649 113.642 21.0672C113.512 21.2105 113.354 21.1374 113.19 21.1374C111.397 21.1374 109.606 21.1374 107.813 21.1374C107.639 21.1069 107.46 21.1241 107.295 21.1871C107.23 21.3544 107.213 21.5368 107.246 21.7134C107.246 25.1988 107.246 28.6871 107.246 32.1725C107.246 32.5819 107.133 32.7164 106.736 32.6754C106.16 32.614 105.559 32.7573 104.977 32.6023C104.977 28.8596 104.977 25.117 104.977 21.3743C104.973 21.3102 104.964 21.2465 104.949 21.1842C104.783 21.1211 104.604 21.104 104.43 21.1345H99.108C98.5754 21.1345 98.5754 21.1345 98.5754 20.5731C98.5898 20.2809 98.5898 19.9881 98.5754 19.6959C98.5351 19.3041 98.6474 19.1696 99.0619 19.1725C103.788 19.1871 108.512 19.1725 113.239 19.1725C113.368 19.193 113.524 19.1316 113.642 19.2632Z" fill="#B2B2B2"/>
<path d="M8.95149 24.8977C8.95401 24.9611 8.94021 25.0242 8.91143 25.0806C8.88266 25.137 8.83992 25.1848 8.78741 25.2193C7.47766 26.4152 6.26291 27.7135 5.00498 28.962C4.79772 29.1667 4.64228 29.1988 4.42927 28.962C3.27784 27.6374 2.01128 26.4094 0.779252 25.1608C0.577752 24.9532 0.566238 24.7983 0.779252 24.5936C2.06501 23.3265 3.34789 22.0595 4.62789 20.7924C4.76894 20.6521 4.86969 20.6199 5.02225 20.7778C6.29169 22.1082 7.56978 23.4328 8.8421 24.7602C8.88238 24.8028 8.91898 24.8488 8.95149 24.8977Z" fill="#B2B2B2"/>
<path d="M29.1848 45.462C29.1527 45.5974 29.0741 45.7166 28.9632 45.7983C27.9874 46.8305 27.0058 47.8597 26.0328 48.8919C25.7996 49.1375 25.5809 49.3977 25.365 49.655C25.2239 49.8188 25.1146 49.8568 24.9361 49.6813C23.6657 48.4435 22.3914 47.2145 21.1134 45.9942C20.8255 45.7223 20.8255 45.5498 21.1134 45.2603C22.2878 44.041 23.4335 42.7954 24.582 41.5556C24.7749 41.3451 24.9274 41.2632 25.175 41.5059C26.4185 42.7252 27.6793 43.9269 28.9171 45.1375C29.038 45.2369 29.1647 45.3217 29.1848 45.462Z" fill="#B2B2B2"/>
<path d="M11.214 16.883C11.214 17.0409 10.9722 17.0029 10.8369 17.0409C9.68548 17.3567 8.53406 17.652 7.36536 17.9561C6.83858 18.0906 6.30317 18.1958 5.79367 18.3742C5.47127 18.4882 5.39355 18.3333 5.3331 18.0818C4.89268 16.3537 4.46953 14.6198 4.0176 12.8947C3.94851 12.6344 3.97154 12.5321 4.25652 12.459C5.98365 12.0233 7.69064 11.5643 9.40338 11.1081C9.602 11.0555 9.76032 10.9941 9.83516 11.2894C10.2727 13.0438 10.7246 14.7982 11.1737 16.5526C11.1881 16.6315 11.191 16.6958 11.214 16.883Z" fill="#B2B2B2"/>
<path d="M9.25084 38.8684C8.72407 38.7281 8.24623 38.6082 7.77414 38.4679C6.51045 38.0965 5.25828 37.6755 3.9802 37.3567C3.54554 37.2456 3.63189 37.041 3.69234 36.7924C4.04065 35.538 4.40623 34.2895 4.76317 33.038C4.88407 32.6199 5.01936 32.2047 5.1086 31.7836C5.18632 31.424 5.36191 31.3801 5.68431 31.4737C7.23009 31.9386 8.77588 32.3889 10.3245 32.8421C10.4454 32.8801 10.5692 32.9094 10.693 32.9445C10.929 33.0117 11.0269 33.1199 10.9434 33.4035C10.4483 35.0936 9.97336 36.7924 9.50416 38.4883C9.44371 38.6491 9.44083 38.8626 9.25084 38.8684Z" fill="#B2B2B2"/>
<path d="M18.1081 44.8245C18.1225 45.0117 17.9901 45.0204 17.8606 45.0526C16.0931 45.4912 14.3266 45.9347 12.5611 46.383C12.3107 46.4473 12.2733 46.3157 12.2301 46.114C11.8079 44.3187 11.3742 42.5243 10.929 40.731C10.8772 40.5146 10.9722 40.4883 11.1334 40.4386C12.9008 40 14.6673 39.5575 16.4328 39.1111C16.6084 39.0672 16.7207 39.0672 16.784 39.2982C17.2158 41.1228 17.6619 42.9444 18.1024 44.766C18.1052 44.7924 18.1052 44.8099 18.1081 44.8245Z" fill="#B2B2B2"/>
<path d="M12.8087 27.693C12.6676 27.693 12.6101 27.576 12.5381 27.497C11.7926 26.7163 11.0557 25.9269 10.3072 25.1579C10.1604 25.0058 10.1575 24.9181 10.3072 24.7719C11.0864 24.0253 11.8597 23.2729 12.6274 22.5146C12.8087 22.3333 12.9469 22.3567 13.1138 22.5292C13.8565 23.2953 14.5992 24.0584 15.3505 24.8187C15.4858 24.9561 15.5261 25.0584 15.3649 25.2163C14.5848 25.9912 13.8162 26.7748 13.039 27.5555C12.9672 27.6094 12.89 27.6554 12.8087 27.693Z" fill="#B2B2B2"/>
<path d="M16.6602 30.117C16.3724 31.1726 16.0586 32.2281 15.7621 33.2866C15.6873 33.5527 15.4743 33.541 15.3015 33.4884C14.3113 33.196 13.3211 32.9036 12.3337 32.6112C12.0977 32.541 12.02 32.3919 12.0977 32.1287C12.3836 31.154 12.659 30.1794 12.9239 29.2047C13.0131 28.8919 13.1225 28.7632 13.4996 28.886C14.4351 29.1989 15.3937 29.4474 16.3436 29.7252C16.5192 29.7895 16.7408 29.8246 16.6602 30.117Z" fill="#B2B2B2"/>
<path d="M17.3799 38.0673C17.2878 38.0994 17.282 37.9386 17.2532 37.8217C16.9798 36.7164 16.7178 35.6082 16.4357 34.5059C16.3753 34.2719 16.5336 34.3012 16.6372 34.2749C17.7167 34 18.8019 33.7339 19.8842 33.4562C20.0944 33.4006 20.1289 33.5234 20.1721 33.6755C20.4398 34.7749 20.7046 35.8714 20.9752 36.9678C21.0098 37.1053 20.9752 37.1813 20.8428 37.2164L17.3799 38.0673Z" fill="#B2B2B2"/>
<path d="M26.5942 38.2135C26.1345 38.7969 25.6363 39.3478 25.1031 39.8626C24.9505 40.0234 24.8411 40.1024 24.6396 39.9006C23.8912 39.1462 23.0766 38.4649 22.3685 37.6696C22.2447 37.5293 22.1036 37.4211 22.2994 37.231C23.0449 36.5029 23.6523 35.6345 24.4727 34.9796C24.7375 34.9328 24.8383 35.1433 24.9476 35.3129C25.4629 36.117 25.9638 36.9269 26.4819 37.731C26.5712 37.8743 26.718 38.0117 26.5942 38.2135Z" fill="#B2B2B2"/>
<path d="M172.969 28.9824C172.14 30.152 171.38 31.3772 170.666 32.6199C169.805 32.7105 168.937 32.7105 168.075 32.6199C168.332 31.9795 168.778 31.4503 169.143 30.886C169.774 29.8977 170.419 28.9181 171.055 27.9357C171.343 27.8626 171.584 28.0234 171.841 28.1111C172.221 28.2398 172.589 28.4035 172.972 28.5292C173.147 28.5877 173.355 28.6316 173.389 28.8743C173.268 29.0409 173.099 28.9181 172.969 28.9824Z" fill="#4591B9"/>
<path d="M181.343 22.8568C181.133 23.0468 180.925 22.9357 180.715 22.8568C179.955 22.5644 179.195 22.2398 178.412 21.9971L178.366 21.9825L178.317 21.965L178.242 21.924L178.058 21.6316H177.986C177.928 21.5957 177.861 21.575 177.793 21.5714C177.725 21.5678 177.657 21.5815 177.595 21.6112H177.578L177.531 21.6375C177.042 21.4825 176.57 21.2778 176.092 21.1024C175.891 21.0264 175.643 20.9416 175.77 20.6229L176.633 19.2603C177.431 19.1531 178.238 19.1482 179.037 19.2457C179.805 20.4503 180.573 21.654 181.343 22.8568Z" fill="#B2B2B2"/>
<path d="M12.4346 5.45619C12.519 4.85907 12.6598 4.27158 12.8548 3.7018C13.0621 3.72227 13.1427 3.90355 13.2262 4.04683C14.5676 6.13455 15.8773 8.23981 17.2015 10.3363C17.2162 10.3648 17.2269 10.3953 17.2331 10.4269C17.1525 11.0761 17.1525 11.0761 16.5452 10.9211C16.2195 10.8771 15.9033 10.7783 15.6096 10.6287C14.5791 8.96788 13.5543 7.30414 12.4777 5.67256C12.4538 5.64277 12.4373 5.6075 12.4298 5.5698C12.4223 5.5321 12.4239 5.4931 12.4346 5.45619Z" fill="#D996AF"/>
<path d="M42.3745 11.614C43.5058 11.9064 44.6313 12.1988 45.7655 12.4766C46.0533 12.5438 46.1339 12.6111 46.0533 12.9122C45.7424 14.038 45.4575 15.1696 45.161 16.3011C44.922 16.3362 44.8155 16.1549 44.7177 15.9941C43.9261 14.7134 43.0942 13.459 42.317 12.1666C42.2258 12.0522 42.1671 11.9147 42.1471 11.769C42.1414 11.614 42.1989 11.5117 42.3745 11.614Z" fill="#4592B9"/>
<path d="M17.2332 10.4327C16.7553 10.0701 16.5452 9.50578 16.2314 9.02332C15.08 7.26893 13.9775 5.48239 12.8549 3.70753C13.1427 3.55256 13.3672 3.76016 13.6177 3.80695C13.9353 3.88435 14.2477 3.98201 14.5532 4.09934C15.6212 5.69291 16.6546 7.31572 17.6189 8.97069C17.5598 9.47426 17.4299 9.96661 17.2332 10.4327Z" fill="#E091AE"/>
<path d="M44.7895 17.6725C44.7829 17.7842 44.7704 17.8955 44.7521 18.0058C44.683 18.3216 44.5793 18.5555 44.1764 18.3479C44.0003 18.2852 43.8159 18.2497 43.6294 18.2427C42.5931 16.3392 41.3266 14.576 40.2241 12.7193C40.132 12.5643 39.9564 12.4269 40.0686 12.2047C40.0399 11.8494 40.1204 11.4939 40.2989 11.1871C40.4026 10.9444 40.6559 11.1316 40.8343 11.2193C41.1222 12.0468 41.6749 12.7105 42.1211 13.4386C42.9961 14.8626 43.8971 16.2661 44.7895 17.6725Z" fill="#4EA2B7"/>
<path d="M37.832 46.1228C37.7687 46.3275 37.7025 46.4444 37.429 46.3596C37.0197 46.2721 36.6152 46.1628 36.2172 46.0322C35.7307 45.4064 35.3536 44.6988 34.942 44.0351C34.3662 43.1579 33.8337 42.2427 33.2407 41.3743C33.0643 41.1428 32.9709 40.857 32.9759 40.5643L33.2638 39.3947C33.6265 39.462 33.7646 39.7836 33.9287 40.0439C34.5217 40.9737 35.1003 41.9094 35.6933 42.8363C36.3985 43.9298 37.0347 45.0819 37.832 46.1228Z" fill="#D09CAF"/>
<path d="M37.8321 46.1228C37.5788 46.1608 37.5069 45.9415 37.4119 45.7894C36.2604 43.9766 35.1225 42.1608 33.9979 40.3421C33.7818 40.0019 33.5351 39.6828 33.261 39.3889C33.3099 39.1725 33.3819 39.0526 33.6525 39.1462C34.0338 39.2321 34.4097 39.3414 34.778 39.4736C35.3105 40.4532 35.9294 41.3684 36.531 42.3128C37.0578 43.1637 37.5961 44.0058 38.1286 44.8508C38.0308 45.2748 37.9214 45.6988 37.8321 46.1228Z" fill="#D599AF"/>
<path d="M44.7895 17.6726C44.5736 17.655 44.5189 17.4591 44.4297 17.3187C43.2399 15.4396 42.0587 13.5556 40.8862 11.6667C40.82 11.5614 40.5552 11.3948 40.8401 11.2193C41.3654 11.2875 41.8805 11.4201 42.3744 11.6141C42.0261 11.7281 42.2938 11.9065 42.36 12.0117C43.0912 13.193 43.83 14.3694 44.5765 15.541C44.7492 15.81 44.8644 16.1258 45.1522 16.3012C45.0729 16.7686 44.9515 17.2277 44.7895 17.6726Z" fill="#4999B8"/>
<path d="M15.5147 20.5906C14.8191 20.8347 14.1109 21.0397 13.3931 21.2046C13.1657 21.3187 13.183 21.0906 13.1053 20.9941C12.8174 19.9473 12.5641 18.9035 12.282 17.8596C12.2187 17.6228 12.282 17.4912 12.5152 17.4415C12.7484 17.3918 12.9758 17.3362 13.206 17.2836C13.4651 17.1608 13.635 17.2836 13.7616 17.497C14.3114 18.3742 14.8871 19.2514 15.4254 20.152C15.506 20.2806 15.6384 20.4152 15.5147 20.5906Z" fill="#B2B2B2"/>
<path d="M38.5315 8.77192C38.8539 9.50584 38.8453 9.52046 37.9558 9.64911C37.668 9.78654 37.5039 9.61402 37.3801 9.39473C36.4532 7.91325 35.5225 6.43469 34.5879 4.95905C34.4814 4.78654 34.3289 4.60525 34.4987 4.37426C34.8003 4.21887 35.1269 4.11983 35.463 4.08186C36.1193 4.95905 36.6403 5.92981 37.2535 6.83917C37.6709 7.49999 37.9875 8.21636 38.5315 8.77192Z" fill="#50A6B7"/>
<path d="M12.4346 5.45619C13.5428 6.99128 14.4697 8.64625 15.506 10.2252C15.5887 10.3464 15.6255 10.4938 15.6096 10.6404C15.0109 10.5936 14.4582 10.31 13.8825 10.2281C13.349 9.28075 12.7733 8.36165 12.1553 7.47081C12.0527 7.30697 11.9905 7.12041 11.974 6.92695C12.141 6.4328 12.1813 5.91525 12.4346 5.45619Z" fill="#D19BAF"/>
<path d="M32.976 40.5643C33.0825 41.0351 33.4077 41.383 33.6524 41.7748C34.4181 43.0058 35.204 44.2222 35.9725 45.4532C36.0713 45.6402 36.1532 45.836 36.2172 46.038C35.692 45.9627 35.1759 45.8324 34.6772 45.6491C34.2598 45.3567 34.1015 44.8918 33.8309 44.4795C33.4797 43.9386 33.1343 43.3947 32.7975 42.8421C32.6792 42.6523 32.6063 42.437 32.5845 42.2134C32.714 41.6696 32.8464 41.117 32.976 40.5643Z" fill="#C9A2B0"/>
<path d="M38.1285 44.8509C37.6593 44.5819 37.5096 44.0556 37.2333 43.6433C36.4215 42.424 35.6616 41.1725 34.8844 39.9298C34.8038 39.7953 34.5965 39.6754 34.7779 39.4737C35.3357 39.5374 35.8838 39.67 36.41 39.8684C36.3891 40.014 36.423 40.1623 36.505 40.2836C37.0807 41.1813 37.6363 42.0848 38.212 42.9795C38.2882 43.1009 38.3858 43.207 38.4998 43.2924L38.1285 44.8509Z" fill="#DB94AE"/>
<path d="M34.4871 4.38597C34.5965 5.03801 35.0801 5.48246 35.3939 6.01755C36.0559 7.14035 36.7756 8.231 37.4607 9.34211C37.5025 9.43865 37.5723 9.52 37.6607 9.57535C37.7492 9.6307 37.852 9.65745 37.9558 9.65205C37.6197 9.80473 37.2624 9.90337 36.8965 9.94445C36.6863 10.0614 36.6086 9.88304 36.528 9.75731C35.532 8.21345 34.5706 6.6462 33.5804 5.09942C33.494 4.96784 33.399 4.82164 33.5199 4.65205C33.8192 4.49232 34.1494 4.40147 34.4871 4.38597Z" fill="#54ADB6"/>
<path d="M23.6033 11.4035C23.8949 11.0468 24.2219 10.7215 24.5791 10.4328C24.7604 10.386 24.8411 10.5292 24.9101 10.6462C25.4542 11.5819 26.1163 12.4386 26.6373 13.383C26.6669 13.4213 26.6866 13.4665 26.6946 13.5145C26.7027 13.5625 26.6988 13.6118 26.6833 13.6579C26.392 14.0118 26.0692 14.3378 25.719 14.6316C25.4916 14.7661 25.3909 14.579 25.2987 14.4415C24.723 13.5643 24.1703 12.6871 23.6349 11.8099C23.5658 11.6959 23.4939 11.5614 23.6033 11.4035Z" fill="#FC7CAB"/>
<path d="M38.5315 8.77196C38.3271 9.11991 38.2868 8.73395 38.2437 8.68131C37.6305 7.73102 37.0203 6.78073 36.4388 5.81289C36.102 5.24564 35.6328 4.75734 35.4399 4.10529C35.912 3.96786 36.3899 3.84506 36.8533 3.68716C37.121 3.59652 37.2074 3.66085 37.2736 3.9357C37.6823 5.55558 38.189 7.14038 38.5315 8.77196Z" fill="#4C9EB8"/>
<path d="M48.0682 26.2865C47.9104 26.5431 47.7086 26.7689 47.4724 26.9532C47.2479 26.9532 47.1845 26.766 47.0982 26.6286C46.1626 25.1959 45.2732 23.7368 44.3549 22.2924C44.2398 22.1111 44.067 21.921 44.2081 21.6696L44.8903 21.0117C45.9208 22.6111 46.9226 24.228 47.9502 25.8391C48.0337 25.9736 48.1402 26.1081 48.0682 26.2865Z" fill="#54ADB6"/>
<path d="M43.0538 22.9416C43.1344 22.617 43.4136 22.462 43.6295 22.2573C44.5535 23.5965 45.3768 25.003 46.2576 26.3743C46.4937 26.7398 46.7297 27.1053 46.9945 27.4474C46.8049 27.7053 46.5834 27.9372 46.3354 28.1375C46.0734 28.2632 45.9957 28.0322 45.9007 27.8889C44.945 26.4269 44.0411 24.9445 43.1027 23.4796C43.0049 23.3187 42.9041 23.1375 43.0538 22.9416Z" fill="#5CB9B4"/>
<path d="M40.0745 12.2048C40.4545 12.8334 40.8287 13.4708 41.2259 14.0936C41.9369 15.2252 42.6652 16.3451 43.382 17.4738C43.555 17.6908 43.6459 17.9636 43.6381 18.2428L42.4867 17.8743C41.6232 16.4621 40.7394 15.041 39.8183 13.655C39.7712 13.5705 39.7417 13.4769 39.7319 13.3802C39.85 12.9913 39.8586 12.5732 40.0745 12.2048Z" fill="#51A8B7"/>
<path d="M48.0682 26.2866C47.0837 24.7272 46.0993 23.1589 45.1148 21.5819C44.9748 21.4256 44.895 21.2231 44.8903 21.0118C44.9939 20.6492 45.1436 20.4971 45.466 20.8422C45.7884 21.1872 46.1539 21.5381 46.4994 21.886C46.7552 22.3856 47.0437 22.8672 47.3629 23.3275C47.7458 23.9621 48.1373 24.5936 48.5575 25.2077C48.6523 25.3184 48.7168 25.4525 48.7447 25.5966C48.5473 25.8533 48.3201 26.085 48.0682 26.2866Z" fill="#51A6B7"/>
<path d="M35.06 29.3947C35.4457 29.1579 35.8977 29.1403 36.3151 29.0146C36.4906 28.9591 36.5309 29.114 36.5856 29.2134C36.8591 29.6784 37.1614 30.1228 37.4492 30.5789C37.6433 31.0811 37.8105 31.5935 37.9501 32.114C38.0451 32.3801 38.0192 32.5292 37.7256 32.5906C37.5174 32.6651 37.3007 32.7123 37.0808 32.731C36.9052 32.7836 36.8649 32.6286 36.7929 32.5322C36.2431 31.655 35.6789 30.8041 35.1521 29.921C35.0744 29.7631 34.9247 29.6082 35.06 29.3947Z" fill="#FC7CAB"/>
<path d="M29.7922 34.0995C29.8248 33.9928 29.8517 33.8845 29.8728 33.7749C29.9045 33.5176 30.0081 33.4123 30.2787 33.503C30.63 33.5696 30.9748 33.6675 31.3092 33.7954C31.3056 33.9586 31.3563 34.1183 31.4532 34.2486C31.9943 35.0673 32.4779 35.924 33.0421 36.7281C32.9702 37.1199 32.9241 37.5147 32.8176 37.8977C32.7111 38.2808 32.452 37.9182 32.2707 37.9796C31.6259 36.8919 30.9494 35.8275 30.273 34.7632C30.1233 34.5322 29.9477 34.3246 29.7922 34.0995Z" fill="#D599AF"/>
<path d="M23.6033 11.4035C23.67 11.6894 23.8044 11.9543 23.9948 12.1754C24.4468 12.9211 24.9361 13.6374 25.4024 14.3801C25.483 14.5088 25.555 14.6316 25.7248 14.6316C25.0513 15.4503 25.0513 15.4503 24.3143 14.7018C23.7386 14.117 23.1629 13.5322 22.5872 12.9474C22.3857 12.7544 22.3281 12.6287 22.5728 12.4152C22.9298 12.1111 23.2608 11.7544 23.6033 11.4035Z" fill="#F482AD"/>
<path d="M33.52 4.65795C33.6985 5.27783 34.1504 5.73689 34.4699 6.27198C35.1896 7.47666 35.9553 8.64918 36.6979 9.83631C36.7203 9.86946 36.7498 9.89696 36.7842 9.91673C36.8187 9.9365 36.8571 9.948 36.8966 9.95035C36.6927 10.0763 36.4587 10.1431 36.2201 10.1433C35.8516 10.3041 35.7279 9.98836 35.5926 9.77783C34.9794 8.84216 34.3951 7.88894 33.7963 6.94157C33.4739 6.43573 33.1458 5.9328 32.8435 5.41526C32.7485 5.25151 32.5931 5.12286 32.6622 4.88309C32.9292 4.74706 33.2216 4.67031 33.52 4.65795Z" fill="#58B3B5"/>
<path d="M38.497 43.2924C38.3156 43.4035 38.235 43.2603 38.1602 43.1404C37.5404 42.1657 36.9234 41.1911 36.3093 40.2164C36.2114 40.0614 36.1308 39.924 36.3985 39.8685C37.2794 39.9825 38.1257 40.2954 38.9892 40.4679C39.2425 40.5176 39.1216 40.7339 39.0929 40.8626C38.9115 41.6755 38.7071 42.4854 38.497 43.2924Z" fill="#E190AE"/>
<path d="M17.6189 8.96777C17.1209 8.53794 16.8935 7.91806 16.5366 7.38882C15.9234 6.48531 15.3563 5.55256 14.7806 4.62566C14.6909 4.45577 14.6149 4.27878 14.5532 4.09642C15.0944 4.26894 15.6787 4.28941 16.1911 4.57011C16.3494 5.1549 16.7668 5.61104 17.072 6.12566C17.3771 6.64028 17.6736 7.12274 18.0046 7.60227C17.9299 8.07138 17.8004 8.52978 17.6189 8.96777Z" fill="#E58DAD"/>
<path d="M17.5613 12.4035C17.6159 12.193 17.685 12.0643 17.9556 12.1608C18.3041 12.251 18.6472 12.3613 18.9833 12.4912C19.4381 13.3684 19.9936 14.1637 20.5147 14.9883C20.5961 15.0872 20.6594 15.2001 20.7018 15.3216C20.6039 15.7368 20.5089 16.152 20.4139 16.5643C20.3678 16.769 20.2268 16.7982 20.0541 16.7632C19.3488 15.4971 18.5342 14.2953 17.7512 13.0702C17.623 12.8726 17.5567 12.6401 17.5613 12.4035Z" fill="#DB94AE"/>
<path d="M46.9974 27.4474C46.5742 27.3538 46.4821 26.9416 46.2921 26.6492C45.4573 25.3714 44.6513 24.0731 43.8396 22.7807C43.7417 22.6228 43.5949 22.4883 43.6323 22.2573C43.7968 22.0364 43.9905 21.8396 44.208 21.6726C44.3923 22.3451 44.8615 22.8421 45.2098 23.4269C45.9409 24.6199 46.7153 25.7837 47.4723 26.9591C47.3493 27.1538 47.1875 27.3201 46.9974 27.4474Z" fill="#58B4B5"/>
<path d="M35.06 29.3947C35.1263 29.6801 35.2596 29.9449 35.4486 30.1666C35.9811 31.0438 36.5396 31.8771 37.0894 32.7309C36.7857 32.8835 36.4586 32.9824 36.1222 33.0233C36.0742 33.0521 36.0207 33.0701 35.9653 33.0764C35.9099 33.0826 35.8538 33.0768 35.8008 33.0594C35.7477 33.042 35.6989 33.0133 35.6576 32.9754C35.6162 32.9374 35.5833 32.891 35.5609 32.8391C35.0168 31.9619 34.4411 31.1023 33.9172 30.2075C33.828 30.0555 33.6553 29.8801 33.9172 29.7105C34.2808 29.5486 34.6658 29.4422 35.06 29.3947Z" fill="#F581AC"/>
<path d="M32.6622 4.8831C33.6668 6.50006 34.6771 8.11702 35.6904 9.72228C35.8055 9.90357 35.9092 10.1813 36.2201 10.1433C36.0073 10.2504 35.7771 10.3168 35.5407 10.3392C35.1636 10.5205 34.965 10.2603 34.8096 9.99421C34.2339 9.05269 33.638 8.13456 33.0565 7.20181C32.7312 6.68135 32.3916 6.16965 32.0893 5.63456C31.9915 5.45912 31.8015 5.29538 31.9828 5.06731C32.1931 4.95561 32.4251 4.89269 32.6622 4.8831Z" fill="#5BB9B4"/>
<path d="M15.5146 20.5907C15.0339 19.6257 14.3977 18.7632 13.8306 17.8538C13.6752 17.6053 13.6176 17.2486 13.2089 17.2836C13.5754 17.126 13.9638 17.0273 14.3603 16.9912C14.4042 16.9628 14.4533 16.9438 14.5047 16.9352C14.556 16.9266 14.6086 16.9286 14.6591 16.9412C14.7097 16.9537 14.7572 16.9766 14.7989 17.0083C14.8405 17.04 14.8754 17.08 14.9015 17.1258C15.5319 18.1404 16.1968 19.1316 16.7984 20.1638C16.8243 20.2047 16.7984 20.2573 16.7668 20.2953C16.3678 20.4618 15.9449 20.5615 15.5146 20.5907Z" fill="#BAADB2"/>
<path d="M42.1959 38.4094C41.7987 38.6696 41.3324 38.7018 40.8919 38.848C40.6041 38.9444 40.6214 38.652 40.5811 38.5234C40.3364 37.7456 40.1176 36.9591 39.8988 36.1842C39.7031 35.4912 39.516 34.7982 39.3231 34.1053C39.5505 33.8333 39.6714 34.1053 39.7492 34.2281C40.273 35.1228 40.866 35.9678 41.3986 36.8596C41.6001 37.193 41.816 37.5146 42.0117 37.8509C42.1182 38.0117 42.2794 38.1725 42.1959 38.4094Z" fill="#FC7CAC"/>
<path d="M17.5613 12.4035C17.752 12.8628 17.9986 13.296 18.2953 13.693C18.8308 14.5555 19.3892 15.4093 19.9246 16.2748C20.0081 16.4152 20.1578 16.5672 20.0513 16.7631C19.5821 16.5585 19.0438 16.576 18.612 16.2982C18.1888 15.6228 17.7887 14.9327 17.331 14.2778C17.2465 14.1239 17.201 13.951 17.1986 13.7748C17.3109 13.3187 17.4347 12.8655 17.5613 12.4035Z" fill="#D599AF"/>
<path d="M39.7204 13.3801C40.7135 14.6841 41.4879 16.1374 42.3917 17.5029C42.462 17.6127 42.4916 17.7443 42.4752 17.8742C42.0816 17.8224 41.6951 17.7243 41.3238 17.5818C41.0206 17.2204 40.7544 16.8285 40.5293 16.4122C40.2069 15.9268 39.9219 15.4122 39.5794 14.9502C39.4957 14.8308 39.4423 14.6922 39.424 14.5467L39.7204 13.3801Z" fill="#55AEB6"/>
<path d="M32.5845 42.2222L34.6772 45.6433C33.8539 45.5029 33.0479 45.2807 32.2362 45.076C31.9771 45.0117 31.9253 44.9035 31.9915 44.6462C32.2016 43.8421 32.3887 43.0321 32.5845 42.2222Z" fill="#C3A6B1"/>
<path d="M24.6598 0.552584C24.8786 0.178315 25.1175 0.102292 25.3996 0.494105C25.5176 0.660772 25.722 0.757262 25.794 0.961941C26.528 2.13153 27.2678 3.30112 27.9989 4.45609C28.1849 4.69818 28.3281 4.97125 28.4221 5.26311L27.9356 5.75726C27.8516 5.7318 27.774 5.68835 27.708 5.62984C27.6419 5.57133 27.589 5.49912 27.5528 5.41808C26.6489 3.97169 25.7402 2.52724 24.8268 1.08475C24.7318 0.923929 24.5821 0.774806 24.6598 0.552584Z" fill="#99A2B1"/>
<path d="M29.7923 34.0994C29.8793 34.1149 29.9614 34.151 30.0319 34.2049C30.1025 34.2587 30.1595 34.3288 30.1982 34.4094C30.8343 35.4152 31.4619 36.4299 32.0836 37.4416C32.2045 37.5963 32.2704 37.7879 32.2707 37.9854C31.8621 37.8528 31.4432 37.755 31.0186 37.693C30.3786 36.9826 29.867 36.163 29.5073 35.272L29.7923 34.0994Z" fill="#D09DAF"/>
<path d="M33.9058 29.7163C33.7878 30.0789 34.1015 30.2836 34.2397 30.5263C34.6916 31.3099 35.2098 32.0526 35.679 32.8216C35.7235 32.8974 35.79 32.9574 35.8693 32.9935C35.9486 33.0296 36.0369 33.04 36.1223 33.0234C35.6272 33.1813 35.1292 33.3304 34.6398 33.5029C34.4326 33.576 34.352 33.5029 34.3059 33.3158C33.9921 32.228 33.71 31.1315 33.3819 30.0467C33.2754 29.6929 33.6841 29.7602 33.9058 29.7163Z" fill="#EF86AD"/>
<path d="M18.0045 7.60239C17.8059 7.60239 17.7512 7.43572 17.6677 7.30999C17.1899 6.5556 16.7063 5.80414 16.2285 5.04391C16.1479 4.9094 15.9867 4.75151 16.1853 4.57899C16.928 4.73397 17.6591 4.92987 18.3874 5.14332C18.6148 5.21057 18.6752 5.25736 18.6004 5.48543C18.396 6.18133 18.2032 6.89186 18.0045 7.60239Z" fill="#EC88AD"/>
<path d="M11.9769 6.92688C12.4749 7.71051 12.9757 8.49121 13.4622 9.28069C13.6407 9.57308 13.9113 9.83624 13.8796 10.2281C13.1657 10.0292 12.4576 9.81285 11.7379 9.64326C11.3781 9.55846 11.2918 9.39179 11.3896 9.05846C11.5969 8.34501 11.784 7.63449 11.9769 6.92688Z" fill="#CBA1B0"/>
<path d="M43.0537 22.9415C43.1027 23.5263 43.5431 23.9064 43.8166 24.3684C44.5247 25.538 45.2846 26.7076 46.0273 27.8772C46.1021 27.9912 46.1568 28.1491 46.3382 28.1491L45.8546 28.6374C45.5437 28.6608 45.4602 28.386 45.348 28.1959C44.4844 26.7661 43.5575 25.3976 42.7083 23.9678C42.5989 23.7807 42.4205 23.6082 42.5759 23.3538C42.6997 23.1667 42.8148 22.9766 43.0537 22.9415Z" fill="#68B6B4"/>
<path d="M33.0422 36.7368C32.8723 36.7368 32.8004 36.6169 32.7198 36.4883C32.2333 35.7105 31.7353 34.9386 31.2517 34.1491C31.1855 34.0438 30.9898 33.8567 31.3093 33.7982C31.9714 33.9444 32.6363 34.0906 33.2955 34.2368C33.4883 34.2807 33.6899 34.3391 33.6093 34.6081C33.402 35.3187 33.3156 36.0526 33.0422 36.7368Z" fill="#DC94AF"/>
<path d="M42.196 38.4094C41.5915 37.2895 40.8661 36.2456 40.2012 35.1667C40.0313 34.8918 39.873 34.6111 39.706 34.3392C39.6197 34.1988 39.5765 33.9766 39.3261 34.0936C39.2397 33.8012 39.1706 33.5088 39.0641 33.2164C38.9979 33.038 39.0843 33.0234 39.2109 33.0117C39.4815 32.8743 39.6629 32.9942 39.8068 33.2281C40.7596 34.7661 41.7325 36.2895 42.6854 37.8216C42.766 37.9503 42.8782 38.0906 42.7573 38.2632C42.5882 38.3664 42.3931 38.4172 42.196 38.4094Z" fill="#F27FAC"/>
<path d="M42.5759 23.3421C42.6047 23.8451 42.9904 24.1696 43.2121 24.5673C43.736 25.5029 44.3462 26.3889 44.9392 27.2778C45.2415 27.7281 45.4142 28.2661 45.846 28.6258C45.7489 28.7839 45.618 28.9178 45.4631 29.0176C45.2127 29.0731 45.1234 28.8684 45.0256 28.7252C44.0958 27.2632 43.1459 25.7837 42.242 24.2895C42.1413 24.1258 42.0319 23.9503 42.1844 23.7544C42.2745 23.5826 42.4101 23.4398 42.5759 23.3421Z" fill="#71B2B3"/>
<path d="M28.4221 5.2631C28.1339 4.944 27.8908 4.5858 27.6996 4.19877C27.0605 3.21339 26.4474 2.21047 25.8228 1.21632C25.7709 1.13445 25.6932 1.06427 25.7882 0.964855C26.9396 1.99117 27.9529 3.14029 29.0525 4.20754C29.2338 4.38298 29.2482 4.49994 29.0525 4.66368C28.8568 4.82743 28.638 5.06135 28.4221 5.2631Z" fill="#8EA7B2"/>
<path d="M39.424 14.5496C40.1354 15.5066 40.7707 16.5195 41.3238 17.5789C40.561 17.4736 39.8442 17.1812 39.0987 17.0175C38.9058 16.9736 38.8108 16.9064 38.8972 16.6169C39.1188 15.9444 39.2541 15.2397 39.424 14.5496Z" fill="#59B5B5"/>
<path d="M42.8638 31.9649C43.0042 31.8687 43.1729 31.8243 43.3417 31.8392C43.5432 31.9094 43.6151 32.1023 43.713 32.2632C44.519 33.5585 45.3653 34.8304 46.1339 36.1521C46.2116 36.5088 46.5311 36.8187 46.3296 37.2281C46.0043 37.3743 45.8662 37.1316 45.728 36.9152C45.0343 35.848 44.3693 34.7602 43.6871 33.6842C43.4309 33.2749 43.1459 32.883 42.9214 32.4532C42.8408 32.2983 42.7141 32.1638 42.8638 31.9649Z" fill="#B199AF"/>
<path d="M36.2258 23.2631C36.4042 22.9904 36.6306 22.7535 36.8937 22.5643C37.4291 23.6052 38.1314 24.5438 38.7158 25.5555C38.8166 25.6803 38.8867 25.8276 38.9202 25.9854C38.7578 26.2082 38.5638 26.4052 38.3445 26.5702C38.1228 26.6257 38.0278 26.4503 37.9386 26.307C37.3945 25.4298 36.8534 24.5526 36.292 23.7017C36.1942 23.5731 36.0934 23.4327 36.2258 23.2631Z" fill="#BE94AF"/>
<path d="M36.2258 23.2632C36.5425 24.0293 37.0606 24.6667 37.4953 25.3567C37.7544 25.7749 37.9098 26.2749 38.3387 26.5702C38.1481 26.831 37.9223 27.0633 37.668 27.2603C37.4919 27.1796 37.3521 27.0345 37.2765 26.8538C36.7526 25.9766 36.2143 25.0994 35.6386 24.2486C35.5946 24.182 35.5634 24.1076 35.5465 24.0293C35.7998 23.7983 35.9207 23.4445 36.2258 23.2632Z" fill="#CE8EAE"/>
<path d="M25.2556 8.47953C25.1088 8.73099 24.9447 8.71637 24.7633 8.52046C24.4122 8.14814 24.0591 7.77777 23.704 7.40935C23.0851 6.3304 22.3914 5.30117 21.7466 4.23976C21.643 4.07017 21.4588 3.91812 21.5825 3.67543L21.9711 3.28362C22.0686 3.34026 22.1477 3.42462 22.1986 3.52631C23.183 5.03216 24.1272 6.5614 25.0771 8.08187C25.1687 8.197 25.2301 8.3338 25.2556 8.47953Z" fill="#E286AD"/>
<path d="M20.7017 15.3217C20.126 14.8509 19.9043 14.1287 19.4668 13.5673C19.3151 13.3605 19.1803 13.1415 19.0638 12.9124C18.9947 12.7866 18.8105 12.6726 18.9832 12.4971C19.6987 12.6411 20.406 12.8246 21.1018 13.0469C21.2774 13.0936 21.3177 13.2194 21.2688 13.3831C21.0826 14.0283 20.8936 14.6745 20.7017 15.3217Z" fill="#E190AE"/>
<path d="M42.8637 31.9649C42.8407 32.2573 43.048 32.4474 43.1775 32.6579C44.0583 34.0789 44.9622 35.4854 45.8574 36.8977C45.9726 37.076 46.0676 37.2719 46.3295 37.2281C46.1203 37.3384 45.8911 37.4041 45.6559 37.421C45.4257 37.4678 45.3537 37.2719 45.2645 37.1286C44.3059 35.6667 43.402 34.1754 42.4579 32.7047C42.3485 32.5322 42.2189 32.345 42.3801 32.1199C42.4438 32.0583 42.5204 32.0123 42.6042 31.9854C42.6881 31.9585 42.7768 31.9515 42.8637 31.9649Z" fill="#BB95AF"/>
<path d="M27.2706 6.43281L26.9827 6.72521C26.7121 6.77784 26.6258 6.54977 26.5193 6.3831C25.5924 4.91527 24.6645 3.44646 23.7357 1.97667C23.6816 1.91635 23.6483 1.8397 23.641 1.7584C23.6338 1.67711 23.6529 1.59563 23.6954 1.52638L23.9833 1.23398C24.0746 1.26357 24.1588 1.31247 24.2303 1.37748C24.3017 1.4425 24.3588 1.52214 24.3978 1.61118C25.316 3.07316 26.2458 4.51761 27.1468 5.99714C27.2332 6.14041 27.3368 6.2603 27.2706 6.43281Z" fill="#B199AF"/>
<path d="M42.1931 23.7427C42.1614 24.1053 42.4234 24.3451 42.5846 24.6199C43.4481 25.9971 44.3117 27.3568 45.1753 28.7135C45.2423 28.8365 45.3421 28.9378 45.4631 29.0059C45.3941 29.1346 45.3163 29.234 45.1753 29.0702C44.6888 28.4562 44.0239 28.0264 43.5201 27.4357C42.9962 26.4942 42.4176 25.5907 41.8275 24.693C41.7527 24.579 41.6231 24.4767 41.6865 24.3071C41.7671 24.0381 41.9887 23.8977 42.1931 23.7427Z" fill="#7AAFB3"/>
<path d="M22.6361 2.60522L23.0218 2.2134C23.3586 2.48533 23.4939 2.90639 23.7242 3.25141C24.5877 4.55843 25.4081 5.90346 26.2516 7.22802C26.2852 7.28378 26.3049 7.347 26.3091 7.41223L25.9234 7.80405C25.7104 7.85668 25.6499 7.67832 25.5693 7.54966C24.6252 6.06428 23.6983 4.57013 22.7483 3.09059C22.6649 2.94732 22.5152 2.80405 22.6361 2.60522Z" fill="#C98FAE"/>
<path d="M42.766 38.2748C42.5904 37.728 42.1902 37.304 41.9024 36.8128C41.2029 35.6432 40.4631 34.4912 39.7262 33.3333C39.6024 33.1344 39.47 32.9531 39.1965 33.0145C39.4062 32.9054 39.6352 32.8398 39.8701 32.8216C40.0572 32.7017 40.1378 32.8566 40.2069 32.9707C41.2115 34.614 42.2824 36.2134 43.2755 37.8625C43.3171 37.9328 43.3353 38.0148 43.3273 38.0964C43.1559 38.1984 42.964 38.2594 42.766 38.2748Z" fill="#E983AC"/>
<path d="M45.2646 37.5175C45.1003 37.6463 44.896 37.7106 44.6888 37.6988C44.2772 37.4883 44.1131 37.0702 43.8857 36.7018C43.0481 35.2398 42.0607 33.8947 41.2317 32.4386C41.4379 32.323 41.6672 32.256 41.9024 32.2427C42.3457 32.7222 42.6134 33.3187 42.9675 33.8597C43.7533 35.0643 44.5132 36.2895 45.2646 37.5175Z" fill="#CA8FAE"/>
<path d="M34.5764 16.6959C34.9433 16.7415 35.3019 16.84 35.6415 16.9883C35.9725 17.7954 36.5338 18.4649 36.9598 19.2164C37.0728 19.4083 37.1691 19.6099 37.2477 19.8187C37.1965 20.1214 37.1075 20.4162 36.9829 20.6959C36.7526 20.7456 36.695 20.5468 36.5914 20.4035C35.8631 19.3246 35.2097 18.1959 34.5016 17.1053C34.4382 17.0117 34.1216 16.7632 34.5764 16.6959Z" fill="#9FA0B1"/>
<path d="M23.6955 1.52924C23.6609 1.88304 23.9545 2.08187 24.1042 2.3304C24.9448 3.7076 25.8314 5.0614 26.6805 6.42397C26.7514 6.54899 26.8564 6.65053 26.9828 6.71637L26.5971 7.10818C26.3639 7.14035 26.3092 6.93274 26.2229 6.79824C25.2441 5.33625 24.3575 3.82163 23.3961 2.35087C23.3097 2.22222 23.1975 2.08479 23.3126 1.90935L23.6955 1.52924Z" fill="#BA95AF"/>
<path d="M31.9828 5.06728C31.9684 5.42985 32.2476 5.65207 32.4117 5.91231C33.2752 7.30997 34.159 8.69008 35.0225 10.0877C35.0721 10.1795 35.1488 10.2531 35.2418 10.2982C35.3347 10.3433 35.4393 10.3576 35.5407 10.3392C35.3029 10.459 35.043 10.5268 34.7779 10.538C34.5332 10.5731 34.513 10.3392 34.4267 10.2106C33.5113 8.81581 32.6506 7.38891 31.7496 5.9854C31.6863 5.88891 31.646 5.78072 31.5308 5.73686C31.3006 5.24564 31.5193 5.0702 31.9828 5.06728Z" fill="#63B7B4"/>
<path d="M26.5942 38.2134C26.1764 37.4383 25.7131 36.6893 25.2067 35.9707C24.9793 35.6286 24.8641 35.1988 24.4727 34.9795C24.6396 34.6871 24.8008 34.6696 25.0484 34.924C25.7479 35.6345 26.4617 36.3304 27.1958 37.0029C27.4836 37.2602 27.452 37.4269 27.1814 37.6491C26.9828 37.8216 26.7899 38.0117 26.5942 38.2134Z" fill="#B9AEB2"/>
<path d="M77.8902 21.1871C77.942 20.6205 77.9564 20.051 77.9334 19.4824C77.9334 19.3012 77.8585 19.2105 77.6772 19.2164H77.3404C72.7836 19.2164 68.2268 19.2164 63.673 19.2017C63.1692 19.2017 63.0713 19.3479 63.0742 19.8275C63.0944 24.0614 63.0742 28.307 63.0886 32.5321C63.0886 32.7251 63.1116 32.9181 63.126 33.1169C62.9274 33.0234 62.9936 32.8392 62.9936 32.6871C62.9936 28.3245 62.9936 23.9629 62.9936 19.6023C62.9936 19.2368 63.0973 19.1345 63.4571 19.1345C68.151 19.1462 72.8469 19.1462 77.5448 19.1345C77.9305 19.1345 78.0773 19.2485 78.0226 19.6316C77.9334 20.1462 78.1579 20.6871 77.8902 21.1871Z" fill="#B2B2B2"/>
<path d="M44.2167 37.8216C44.0714 37.9188 43.9038 37.9762 43.7302 37.9883C43.2945 37.4696 42.909 36.9095 42.5788 36.3158C41.816 35.114 41.0992 33.8801 40.2587 32.7281C40.4623 32.6025 40.6942 32.532 40.9323 32.5234C41.3007 32.8158 41.4677 33.2398 41.7095 33.614C42.4838 34.8216 43.238 36.0468 44.0123 37.2544C44.1246 37.4269 44.303 37.5789 44.2167 37.8216Z" fill="#DA89AD"/>
<path d="M25.2556 8.47958C24.6799 7.79537 24.2798 6.97958 23.7789 6.23689C23.2032 5.3597 22.6649 4.48251 22.1036 3.58777C22.0325 3.50543 21.9865 3.40383 21.9712 3.29537L22.354 2.90356C23.4162 4.53514 24.4381 6.19011 25.4686 7.83631C25.5091 7.88374 25.5371 7.94073 25.5502 8.00204C25.5633 8.06335 25.561 8.12702 25.5435 8.18719L25.2556 8.47958Z" fill="#D989AD"/>
<path d="M40.2615 32.7281C40.4889 32.7281 40.5782 32.9153 40.6818 33.0819L43.6928 37.848C43.7113 37.8929 43.7239 37.9401 43.7302 37.9884C43.6175 38.071 43.4804 38.1122 43.3416 38.1053C42.2823 36.4445 41.2268 34.7876 40.1752 33.1346C40.1003 33.0176 40.0773 32.8422 39.8873 32.8422C39.9881 32.7047 40.132 32.7486 40.2615 32.7281Z" fill="#E286AD"/>
<path d="M24.6598 0.552673L27.9414 5.75443L27.6535 6.04682C27.4059 6.09945 27.311 5.8977 27.216 5.75443C26.5683 4.6901 25.8515 3.66671 25.2298 2.58484C25.0139 2.20472 24.7202 1.87431 24.513 1.48834C24.4094 1.29536 24.2251 1.11408 24.3691 0.859692L24.6598 0.552673Z" fill="#A29FB0"/>
<path d="M25.5435 8.18717C24.7317 6.88307 23.9085 5.58775 23.1082 4.27781C22.8377 3.83044 22.4692 3.42693 22.3569 2.886C22.4548 2.78951 22.5498 2.69302 22.6448 2.5936C22.8434 3.14916 23.2378 3.58191 23.5314 4.07606C24.2568 5.29243 25.0282 6.47957 25.7853 7.67255C25.817 7.72518 25.8832 7.75149 25.9321 7.79243L25.5435 8.18717Z" fill="#D18CAE"/>
<path d="M48.7476 25.5965C48.074 24.8392 47.6394 23.9152 47.0723 23.0819C46.8909 22.8187 46.7355 22.538 46.5599 22.269C46.4793 22.1462 46.3613 22.041 46.4966 21.886C47.4753 22.7193 48.3158 23.7018 49.2485 24.5848C49.4845 24.807 49.4759 24.9445 49.2485 25.1345C49.0642 25.2749 48.9117 25.4386 48.7476 25.5965Z" fill="#4DA0B7"/>
<path d="M32.5585 16.0087C32.3203 16.1329 32.0576 16.2009 31.7899 16.2076C31.0771 15.2156 30.4151 14.1869 29.8066 13.1257C29.7404 13.0175 29.6799 12.8859 29.8584 12.807C30.0721 12.7036 30.3021 12.6393 30.5378 12.6169C31.2229 13.6364 31.8811 14.6754 32.5124 15.7339C32.5444 15.7709 32.5656 15.8162 32.5738 15.8647C32.5819 15.9132 32.5766 15.9631 32.5585 16.0087Z" fill="#BE94AF"/>
<path d="M16.7668 20.2924C16.1431 19.2963 15.5195 18.3002 14.8958 17.3041C14.7691 17.1052 14.6338 16.9298 14.3604 16.9883C14.7743 16.8349 15.1986 16.7118 15.6298 16.6199C15.6666 16.6029 15.7068 16.5951 15.7472 16.5972C15.7875 16.5992 15.8268 16.611 15.8617 16.6316C15.8966 16.6522 15.9262 16.681 15.948 16.7156C15.9697 16.7502 15.983 16.7895 15.9867 16.8304C16.2746 17.9327 16.5625 19.0351 16.8503 20.1374C16.8551 20.1531 16.8568 20.1697 16.8552 20.1861C16.8536 20.2025 16.8487 20.2184 16.8409 20.2329C16.8332 20.2473 16.8226 20.2601 16.8098 20.2703C16.7971 20.2805 16.7825 20.288 16.7668 20.2924Z" fill="#BFA9B2"/>
<path d="M55.7684 10.8392C55.8173 11.2895 56.0706 11.6754 56.1714 12.114C56.1846 12.1503 56.2057 12.1831 56.2331 12.2099C56.2605 12.2367 56.2935 12.2569 56.3297 12.269C56.4794 12.2924 56.5024 12.1374 56.5312 12.0439C56.6535 11.5825 56.8213 11.1348 57.032 10.7076C57.5473 10.6725 57.5502 10.6725 57.5502 11.1579C57.5502 11.6433 57.5502 12.1988 57.5502 12.7193C57.5502 12.9649 57.4897 13.1111 57.2134 12.9737V11.2485C56.8852 11.7427 56.8277 12.2076 56.6377 12.617C56.5571 12.7953 56.511 13.0292 56.3009 13.0322C56.0908 13.0351 56.0821 12.7719 56.0303 12.6023C55.9238 12.2339 55.6935 11.9123 55.6475 11.5205C55.4488 11.5205 55.5266 11.6784 55.5237 11.769C55.5237 12.1111 55.5237 12.4532 55.5237 12.7953C55.5237 12.924 55.4863 13.0205 55.3366 13.0205C55.3127 13.0239 55.2883 13.022 55.2653 13.0148C55.2422 13.0076 55.221 12.9954 55.2031 12.9789C55.1852 12.9624 55.1712 12.9421 55.1619 12.9195C55.1526 12.8969 55.1484 12.8724 55.1495 12.848C55.1047 12.1827 55.1134 11.5148 55.1754 10.8509C55.2243 10.5263 55.5582 10.6316 55.7684 10.8392Z" fill="#B2B2B2"/>
<path d="M44.2167 37.8216C43.5144 36.7017 42.8091 35.5848 42.1125 34.4649C41.7124 33.8216 41.3267 33.1696 40.9352 32.5234C41.0071 32.4064 41.1309 32.4561 41.223 32.4386C41.3958 32.4386 41.4706 32.5555 41.5397 32.69C42.2593 34.0731 43.2438 35.2895 43.9807 36.6608C44.1793 37.0263 44.447 37.3538 44.6802 37.6988C44.541 37.7852 44.3798 37.8279 44.2167 37.8216Z" fill="#D28CAE"/>
<path d="M34.5764 16.6959C34.3634 16.7193 34.4612 16.8509 34.5131 16.9328C35.3075 18.1755 36.1107 19.4152 36.9109 20.655C36.9109 20.6784 36.9656 20.6872 36.9915 20.7047C37.0116 21.1287 36.885 21.3743 36.4158 21.1755C35.699 19.9474 34.9276 18.7515 34.1561 17.5585C34.0352 17.3743 34.0813 17.1872 34.0381 17C34.11 16.7076 34.1935 16.4269 34.5764 16.6959Z" fill="#A99CB0"/>
<path d="M45.2645 37.5176C44.9766 37.4357 44.9076 37.1609 44.7751 36.9533C43.8655 35.5234 42.9645 34.0819 42.0664 32.6433C42.0007 32.5147 41.9458 32.3807 41.9023 32.2427C42.0376 32.0965 42.219 32.1667 42.3802 32.1316C42.4349 32.7515 42.9012 33.155 43.1891 33.6433C43.9087 34.8597 44.6974 36.0322 45.4631 37.2193C45.5206 37.2929 45.5852 37.3605 45.656 37.4211C45.5495 37.5527 45.4055 37.5059 45.2645 37.5176Z" fill="#C292AF"/>
<path d="M23.3126 1.921C23.4968 2.44439 23.8653 2.85667 24.1531 3.31574C24.9562 4.59059 25.696 5.9093 26.597 7.11691L26.3092 7.40931C26.0009 7.06412 25.7351 6.68218 25.5176 6.27188C24.8325 5.18416 24.1215 4.11106 23.4248 3.02919C23.251 2.7783 23.1151 2.50232 23.0219 2.21047L23.3126 1.921Z" fill="#C192AF"/>
<path d="M21.5769 3.68124C22.1066 4.70756 22.7801 5.64323 23.376 6.62569C23.5597 6.84959 23.6721 7.1249 23.6984 7.41516C22.7859 6.50288 21.8791 5.58475 20.9609 4.67832C20.7853 4.5058 20.8227 4.38592 20.9839 4.24557C21.1883 4.06428 21.3812 3.8713 21.5769 3.68124Z" fill="#EB82AD"/>
<path d="M24.3719 0.84507C24.5561 1.59361 25.1203 2.11408 25.4801 2.76028C26.0558 3.76905 26.7121 4.71934 27.3339 5.69887C27.4058 5.84346 27.5179 5.96342 27.6563 6.0439L27.2706 6.43279C26.217 4.6784 25.1318 2.92402 23.989 1.23103L24.3719 0.84507Z" fill="#A99CB0"/>
<path d="M38.9201 25.9854C38.5286 25.6609 38.3761 25.1667 38.0911 24.7691C37.7169 24.2515 37.4002 23.693 37.0519 23.155C36.9324 22.9854 36.8762 22.7781 36.8936 22.5702C37.0433 22.3041 37.2361 22.3129 37.429 22.5059C37.5729 22.6521 37.7543 22.7632 37.832 22.9679C38.2753 23.6316 38.6956 24.3158 39.1302 24.9854C39.2592 25.13 39.3486 25.3065 39.3893 25.4971C39.2645 25.6884 39.1053 25.8541 38.9201 25.9854Z" fill="#B299B0"/>
<path d="M186.228 30.386C186.176 30.4268 186.115 30.4527 186.05 30.461C185.985 30.4692 185.919 30.4595 185.859 30.4328C185.773 30.4036 185.689 30.3597 185.606 30.3276C185.151 30.155 184.691 29.9942 184.236 29.8217H184.213C184.005 29.7457 183.798 29.6667 183.594 29.5819C183.436 29.5031 183.259 29.4736 183.084 29.4971C182.987 29.316 182.837 29.1702 182.654 29.0801C182.471 28.9899 182.266 28.9599 182.065 28.9942C181.38 29.0322 180.692 28.9942 180.004 28.9708C180.003 28.9582 180.003 28.9455 180.004 28.9328C180.022 28.8991 180.05 28.8724 180.085 28.8568C180.196 28.8152 180.315 28.7963 180.433 28.8012H180.632H180.692H181.3C181.438 28.8094 181.575 28.826 181.711 28.8509C180.917 28.6346 180.114 28.2515 179.279 27.9738C178.541 27.6642 177.784 27.4025 177.013 27.1901C176.918 27.1726 176.786 27.1521 176.806 27.0205C176.806 27.0059 176.806 26.9854 176.823 26.965H177.664H177.888C177.973 26.9825 178.056 27.003 178.139 27.0264C178.304 27.0693 178.465 27.119 178.623 27.1755C179.069 27.3276 179.506 27.5176 179.941 27.6989H179.961C180.217 27.8042 180.473 27.9065 180.735 27.9913L181.092 28.12C182.532 28.6316 183.951 29.1609 185.361 29.7311L185.508 29.7895C185.698 29.8658 185.873 29.9746 186.026 30.1112L186.228 30.386Z" fill="#B697AF"/>
<path d="M29.8614 12.807C29.847 13.228 30.1751 13.4853 30.3593 13.804C30.7422 14.4766 31.1826 15.1169 31.6029 15.7689C31.7034 15.8954 31.769 16.0468 31.7929 16.2075C31.6246 16.3273 31.4225 16.3879 31.2172 16.3801C31.0654 16.2883 30.9395 16.1584 30.8516 16.0029C30.25 15.1257 29.7347 14.1812 29.1504 13.2894C29.1208 13.2505 29.1013 13.2047 29.0937 13.1561C29.0862 13.1076 29.0908 13.0579 29.1072 13.0116C29.3448 12.899 29.6001 12.8298 29.8614 12.807Z" fill="#CA8FAE"/>
<path d="M31.5309 5.73679C31.8187 5.60521 31.8187 5.89469 31.8907 6.00872C32.8608 7.51164 33.8165 9.02626 34.7693 10.538C34.6944 10.6491 34.5764 10.6169 34.4814 10.6315C34.1302 10.7894 34.0381 10.4999 33.9057 10.2836C33.3616 9.30989 32.7082 8.40931 32.1383 7.45317C32.0763 7.35999 31.9994 7.27797 31.9109 7.21047C31.79 6.71925 31.6633 6.22802 31.5309 5.73679Z" fill="#6AB5B3"/>
<path d="M35.5465 24.0293C35.7999 24.0468 35.797 24.3071 35.892 24.4474C36.5022 25.3743 37.0779 26.3217 37.668 27.2603C37.2305 27.7837 37.2305 27.7837 36.8045 27.2603C36.3525 26.465 35.8401 25.7077 35.3652 24.9211C35.2702 24.7632 35.1032 24.6287 35.1666 24.4036L35.5465 24.0293Z" fill="#DA89AD"/>
<path d="M187.411 32.2398L187.699 32.6286C186.836 32.6948 185.971 32.7065 185.108 32.6637C184.768 32.2283 184.474 31.7579 184.23 31.2602C184.256 31.0292 184.434 31.0643 184.552 31.1082C185.526 31.4275 186.481 31.8054 187.411 32.2398Z" fill="#5BB5B5"/>
<path d="M171.708 26.9591L171.832 26.6667C171.923 26.5992 172.031 26.5586 172.144 26.5493C172.257 26.54 172.37 26.5624 172.471 26.6141C174.247 27.2603 176.006 27.9474 177.77 28.6258C177.894 28.6725 178.147 28.6842 178.024 28.9562C177.649 28.9562 177.275 28.9562 176.898 28.9562C175.171 28.3714 173.493 27.6404 171.777 27.0205C171.75 27.0061 171.726 26.985 171.708 26.9591Z" fill="#5BB8B4"/>
<path d="M32.5586 16.0087C31.9167 14.9824 31.2776 13.9619 30.6328 12.9327C30.5688 12.8404 30.5355 12.7298 30.5378 12.6169C30.6815 12.5231 30.8511 12.479 31.0214 12.4912C31.1913 12.4415 31.2488 12.5848 31.3093 12.6842C31.9426 13.6783 32.5672 14.6783 33.1976 15.6754C33.2205 15.7185 33.2324 15.7668 33.2322 15.8157C33.023 15.9261 32.7937 15.9918 32.5586 16.0087Z" fill="#B299AF"/>
<path d="M26.6949 13.6696C26.0559 12.6638 25.4159 11.6579 24.7749 10.6521C24.7174 10.5767 24.6528 10.5071 24.582 10.4445C24.8152 10.2924 24.9131 9.61407 25.342 10.2456C25.9177 11.0848 26.4732 11.9532 26.9885 12.8421C27.0633 12.9737 27.2044 13.0965 27.0777 13.2749C26.9791 13.4325 26.8486 13.5671 26.6949 13.6696Z" fill="#F280AC"/>
<path d="M34.0352 17C34.1705 17.5147 34.5447 17.8772 34.8009 18.3275C35.2471 19.0936 35.7422 19.8305 36.2056 20.5878C36.3373 20.7536 36.4103 20.9595 36.4129 21.1726L35.6386 20.9036C35.0629 20.0439 34.5821 19.1053 33.9345 18.2895C33.8078 18.1287 33.897 17.9445 33.8395 17.7778L34.0352 17Z" fill="#B299B0"/>
<path d="M17.1956 13.7748C17.6044 14.4386 18.0074 15.1052 18.419 15.766C18.5376 15.9178 18.6042 16.1046 18.609 16.2982C18.0016 16.2836 17.4576 15.9736 16.8646 15.883C16.6775 15.8538 16.6919 15.6666 16.7437 15.4883C16.9078 14.9122 17.0344 14.3479 17.1956 13.7748Z" fill="#D09DB0"/>
<path d="M113.642 19.2632C113.466 19.2457 113.291 19.2135 113.118 19.2135C108.463 19.2135 103.809 19.2135 99.1569 19.2135C98.7021 19.2135 98.5639 19.3509 98.61 19.7983C98.656 20.2457 98.443 20.7603 98.6906 21.0293C98.9381 21.2983 99.5081 21.1258 99.9341 21.1287C101.442 21.1287 102.951 21.1287 104.459 21.1287C104.626 21.1287 104.813 21.0527 104.96 21.2047C102.988 21.2047 101.014 21.2047 99.0418 21.2047C98.656 21.2047 98.4805 21.1229 98.5179 20.696C98.5451 20.3066 98.5451 19.9158 98.5179 19.5264C98.5179 19.234 98.6301 19.1404 98.9122 19.1404C103.71 19.1404 108.507 19.1404 113.305 19.1404C113.429 19.1404 113.567 19.1141 113.642 19.2632Z" fill="#B2B2B2"/>
<path d="M185.016 28.5234C185.016 28.693 184.924 28.7105 184.843 28.693H184.794L184.728 28.655C184.714 28.6471 184.7 28.6412 184.685 28.6374C184.244 28.4795 183.804 28.3246 183.366 28.1608C182.773 27.9474 182.186 27.7252 181.602 27.4854C181.461 27.4328 181.314 27.3743 181.179 27.3158C181.043 27.2573 180.845 27.1491 181.003 26.9825C181.022 26.9609 181.043 26.9413 181.066 26.924H181.084H181.392L181.308 26.7953L181.343 26.7749H181.363C181.392 26.7556 181.421 26.738 181.452 26.7222C181.573 26.6768 181.706 26.6768 181.826 26.7222C182.716 27.0673 183.628 27.3509 184.489 27.769C184.696 27.9962 184.873 28.2498 185.016 28.5234Z" fill="#FB7DAC"/>
<path d="M171.708 26.9591C172.468 27.0205 173.119 27.427 173.821 27.6667C174.791 27.9942 175.735 28.3919 176.7 28.7661C176.751 28.7866 176.783 28.8597 176.826 28.9065C176.449 29.0351 176.061 28.9299 175.675 28.965C174.408 28.5147 173.168 27.9942 171.91 27.5235C171.753 27.4837 171.615 27.387 171.524 27.2515C171.525 27.1902 171.543 27.1304 171.575 27.0788C171.608 27.0271 171.654 26.9857 171.708 26.9591Z" fill="#55AFB6"/>
<path d="M46.1339 36.152C45.8837 35.9526 45.6859 35.6935 45.5581 35.3977C44.8126 34.2281 44.0814 33.0263 43.3474 31.8392C43.4879 31.7329 43.6588 31.6765 43.8339 31.6784C44.4096 32.3772 44.8241 33.2047 45.3365 33.9591C45.4516 34.1316 45.5322 34.3246 45.6618 34.4883C45.8733 35.0255 46.0315 35.5829 46.1339 36.152Z" fill="#AA9CB1"/>
<path d="M183.289 25.886C182.713 26.003 182.264 25.6199 181.76 25.465C181.256 25.31 180.741 25.0907 180.226 24.9182H180.188C180.164 24.8995 180.142 24.8779 180.122 24.8539L179.667 24.1433C179.667 24.1024 179.667 24.0615 179.667 24.0205C179.748 23.8568 179.889 23.8802 180.027 23.9299C180.954 24.2632 181.91 24.5147 182.77 25.0293C182.968 25.2988 183.141 25.5855 183.289 25.886Z" fill="#D897AF"/>
<path d="M41.7067 24.3187C42.313 25.1641 42.8732 26.0426 43.3849 26.9503C43.4887 27.0954 43.5432 27.2709 43.5403 27.4503C42.7516 26.7368 42.0262 25.959 41.2864 25.1988C41.1194 25.0263 41.0302 24.9064 41.2864 24.7339C41.4418 24.6199 41.4418 24.3275 41.7067 24.3187Z" fill="#84ABB3"/>
<path d="M29.5073 35.2807L31.0185 37.7018L29.467 37.3041C29.159 37.2252 29.0265 37.0761 29.1446 36.7193C29.2856 36.2574 29.3892 35.7603 29.5073 35.2807Z" fill="#C9A2B1"/>
<path d="M45.656 34.5029C45.6128 34.5029 45.5437 34.5029 45.5236 34.462C44.9479 33.5438 44.2916 32.6783 43.8281 31.693C44.7752 31.3011 44.7867 31.2982 45.0573 32.2368C45.2732 32.9737 45.4574 33.7339 45.656 34.5029Z" fill="#A1A0B1"/>
<path d="M185.773 29.6988C185.741 29.7326 185.7 29.757 185.656 29.7694C185.611 29.7817 185.564 29.7816 185.52 29.769C185.439 29.7449 185.36 29.7146 185.283 29.6784C183.888 29.1579 182.495 28.6316 181.104 28.0994L179.973 27.6696H179.952L179.144 27.3772C178.982 27.3187 178.746 27.3216 178.634 27.1608C178.606 27.1211 178.588 27.0748 178.582 27.0263C178.581 27.0049 178.581 26.9834 178.582 26.962H179.417L179.604 27.0322C181.418 27.7076 183.228 28.3889 185.03 29.0789C185.197 29.1377 185.353 29.2247 185.491 29.3362C185.655 29.3889 185.689 29.5614 185.773 29.6988Z" fill="#D28CAE"/>
<path d="M186.038 30.0906L182.713 28.8304C181.233 28.269 179.757 27.7046 178.274 27.1549C178.049 27.0843 177.819 27.0286 177.586 26.9883C177.614 26.9659 177.642 26.9453 177.673 26.9269H178.453C178.485 26.9463 178.515 26.9678 178.545 26.9912H178.576L185.531 29.6579C185.608 29.6767 185.688 29.6866 185.767 29.6871L186.038 30.0906Z" fill="#C492AF"/>
<path d="M31.9224 7.21055C32.1642 7.17838 32.2534 7.36259 32.3484 7.52926C32.8953 8.49125 33.5804 9.36552 34.0755 10.3538C34.1532 10.5088 34.254 10.6725 34.4756 10.6462C34.372 10.7632 34.2252 10.7281 34.0957 10.7456C33.7531 10.9006 33.5689 10.7018 33.3991 10.4357C33.0824 9.93569 32.8234 9.38891 32.3944 8.97371L31.9224 7.21055Z" fill="#73B2B3"/>
<path d="M29.1014 13.0118C29.8181 14.0527 30.3737 15.1989 31.148 16.2018C31.1785 16.2574 31.1999 16.3176 31.2113 16.3802C31.0683 16.4727 30.8997 16.5158 30.7306 16.503C30.4428 16.4153 30.3794 16.1492 30.2355 15.9416C29.8296 15.3568 29.5389 14.6696 29.0179 14.1521C28.9517 13.8919 28.8912 13.6287 28.8135 13.3714C28.7358 13.1141 28.8365 12.9913 29.1014 13.0118Z" fill="#D38CAE"/>
<path d="M182.759 25.0088C182.071 24.8479 181.446 24.5205 180.781 24.3012C180.427 24.1842 180.099 23.9415 179.696 24.0497L179.647 24.0234C179.609 24.0034 179.573 23.9809 179.538 23.9561L179.135 23.3216C179.131 23.274 179.131 23.226 179.135 23.1784C179.133 23.1706 179.133 23.1627 179.135 23.155C179.133 23.1423 179.133 23.1296 179.135 23.117C179.495 23 179.797 23.2105 180.096 23.3304C180.804 23.6228 181.579 23.7515 182.212 24.2222C182.432 24.455 182.617 24.7202 182.759 25.0088Z" fill="#CD9FB0"/>
<path d="M175.853 24.4123H175.816L175.413 25.0497H175.39H175.373C175.178 25.0119 174.986 24.9631 174.797 24.9036C174.542 24.8263 174.293 24.7346 174.048 24.6287C173.89 24.5644 173.732 24.4942 173.573 24.4211C173.487 24.3831 173.409 24.3158 173.447 24.193L173.936 23.4328C174.564 23.5059 175.088 23.8655 175.663 24.0673C175.714 24.0893 175.758 24.1258 175.789 24.1725C175.82 24.2192 175.838 24.2741 175.839 24.3305C175.839 24.3305 175.839 24.3304 175.839 24.3451C175.839 24.3597 175.853 24.4006 175.853 24.4123Z" fill="#F87FAC"/>
<path d="M33.2351 15.8158C32.5672 15.0468 32.1239 14.1258 31.5569 13.2895L31.0128 12.4913C31.1892 12.3902 31.3863 12.3321 31.5885 12.3217C32.1268 13.0264 32.5327 13.8158 33.0278 14.5439C33.1689 14.8973 33.2806 15.2622 33.3617 15.6345C33.4193 15.7895 33.3416 15.8041 33.2351 15.8158Z" fill="#AA9CB1"/>
<path d="M171.515 27.2515C172.601 27.6726 173.689 28.0819 174.765 28.5205C175.036 28.6316 175.39 28.5849 175.563 28.9065C175.217 29.0293 174.857 28.9328 174.506 28.965C173.539 28.6463 172.589 28.272 171.628 27.9065C171.471 27.8714 171.333 27.7787 171.239 27.6463L171.515 27.2515Z" fill="#4FA3B7"/>
<path d="M37.2564 19.8187C36.603 18.9941 36.1338 18.0497 35.5494 17.1871C35.4803 17.0848 35.5005 17.0058 35.6415 16.997C35.9095 16.9984 36.1732 17.0656 36.4101 17.1929C36.7555 17.8128 37.2737 18.3333 37.4522 19.0438C37.4349 19.2982 37.2334 19.5351 37.2564 19.8187Z" fill="#92A5B1"/>
<path d="M33.8395 17.7807C34.1735 18.5088 34.7031 19.1082 35.0888 19.807C35.2846 20.1667 35.5983 20.4679 35.6386 20.9065C35.3725 20.8913 35.1117 20.8248 34.8701 20.7105C34.4296 20.0146 33.8626 19.3889 33.6438 18.5614L33.8395 17.7807Z" fill="#BB95B0"/>
<path d="M35.155 24.4094L36.6432 26.7661C36.7502 26.9082 36.8033 27.0846 36.7929 27.2632C36.1337 26.6374 35.4831 26 34.8096 25.3889C34.5419 25.1462 34.4843 24.962 34.8096 24.731C34.93 24.6299 35.0453 24.5225 35.155 24.4094Z" fill="#E386AD"/>
<path d="M183.749 26.5702C183.461 26.7164 183.196 26.5702 182.935 26.4679C182.261 26.193 181.567 25.965 180.897 25.6784C180.831 25.6561 180.762 25.6452 180.692 25.6462H180.663L180.577 25.5878L180.171 24.9503C180.17 24.9328 180.17 24.9152 180.171 24.8977C180.171 24.8714 180.171 24.8451 180.171 24.8158C180.963 24.9474 181.674 25.3246 182.419 25.5936C182.712 25.6746 183.001 25.7722 183.283 25.886C183.465 26.0942 183.621 26.3239 183.749 26.5702Z" fill="#E38FAE"/>
<path d="M29.0179 14.152C29.3058 14.1813 29.4353 14.421 29.5677 14.6345C29.9592 15.2544 30.345 15.8801 30.7192 16.5029C30.7192 16.5029 30.7019 16.5351 30.6875 16.538C29.467 16.8889 29.8239 17.0058 29.4814 15.8976C29.3202 15.3216 29.1763 14.7339 29.0179 14.152Z" fill="#DC89AE"/>
<path d="M27.0721 13.2749C26.6438 12.4711 26.1749 11.6904 25.6673 10.9357C25.5151 10.7289 25.4028 10.4948 25.3363 10.2456C26.079 10.9854 26.8188 11.7281 27.5672 12.462C27.7025 12.5965 27.7082 12.693 27.5672 12.8158C27.4261 12.9386 27.2362 13.1228 27.0721 13.2749Z" fill="#E884AD"/>
<path d="M33.6438 18.5614C33.8827 18.9532 34.1102 19.3567 34.3663 19.731C34.5817 20.0278 34.7516 20.3561 34.8701 20.7047L33.4826 20.4123C33.2178 20.3538 33.2264 20.155 33.2754 19.9591C33.3905 19.4883 33.5201 19.0263 33.6438 18.5614Z" fill="#C691AF"/>
<path d="M185.494 29.3041C184.819 29.1199 184.16 28.8823 183.522 28.5936C182.114 28.076 180.721 27.5263 179.322 26.9883C179.35 26.9622 179.379 26.9387 179.411 26.9181H180.318L180.396 26.9766L180.425 26.9942C180.795 27.212 181.192 27.381 181.605 27.4971L181.87 27.5936C182.37 27.7836 182.868 27.9825 183.369 28.1784C183.821 28.3509 184.273 28.5205 184.731 28.6725L184.777 28.6901H184.826C184.944 28.7339 185.068 28.7749 185.189 28.8129C185.304 28.9766 185.462 29.0994 185.494 29.3041Z" fill="#E286AD"/>
<path d="M176.668 23.0321V23.0906L176.184 23.8567H176.161C175.721 23.5643 175.2 23.4649 174.722 23.2514C174.549 23.1725 174.357 23.1316 174.25 22.9591L174.716 22.2778C175.406 22.4082 176.067 22.6637 176.668 23.0321Z" fill="#DF92AE"/>
<path d="M181.8 23.541C181.602 23.7164 181.415 23.5848 181.225 23.541C180.404 23.2808 179.639 22.8626 178.792 22.6638H178.755L178.694 22.6229L178.335 22.0556C178.332 22.0313 178.332 22.0068 178.335 21.9825C178.332 21.9582 178.332 21.9337 178.335 21.9094C179.198 22.0264 179.952 22.462 180.758 22.7515C180.942 22.8254 181.137 22.8679 181.334 22.8772L181.8 23.541Z" fill="#BCABB2"/>
<path d="M182.215 24.2222C181.173 23.9151 180.2 23.4151 179.135 23.1549H179.12C179.077 23.1437 179.036 23.127 178.997 23.1052L178.741 22.7046C178.739 22.6852 178.739 22.6656 178.741 22.6461C178.741 22.6198 178.741 22.5935 178.741 22.5643C179.345 22.5204 179.808 22.9327 180.355 23.076C180.845 23.2017 181.282 23.4912 181.795 23.5438C181.971 23.7445 182.113 23.9738 182.215 24.2222Z" fill="#C3A6B1"/>
<path d="M177.048 22.462L176.688 23.0322H176.659C176.012 22.7719 175.324 22.6111 174.713 22.2485C174.818 22.036 174.95 21.8392 175.108 21.6638C175.347 21.5263 175.551 21.6959 175.735 21.7807C176.179 21.9854 176.714 21.9912 177.057 22.4094C177.057 22.4094 177.057 22.4094 177.057 22.4298C177.058 22.4325 177.059 22.4355 177.059 22.4386C177.06 22.4416 177.06 22.4448 177.059 22.4478C177.058 22.4507 177.057 22.4535 177.055 22.456C177.053 22.4584 177.051 22.4605 177.048 22.462Z" fill="#D19CB0"/>
<path d="M184.515 27.7457C183.686 27.6404 182.969 27.2018 182.189 26.9474C181.947 26.8293 181.68 26.7702 181.412 26.7749L181.369 26.7574L181.305 26.731L181.017 26.2895C181.021 26.2608 181.026 26.2324 181.035 26.2047V26.1843C181.033 26.1697 181.033 26.155 181.035 26.1404C181.087 26.1031 181.148 26.0789 181.211 26.0698C181.275 26.0606 181.339 26.0668 181.4 26.0878C182.307 26.4152 183.245 26.6726 184.086 27.1579C184.26 27.3286 184.405 27.5272 184.515 27.7457Z" fill="#F383AC"/>
<path d="M179.129 28.9035V28.9328C178.982 28.9621 178.831 28.967 178.683 28.9474L178.588 28.924C178.556 28.9183 178.524 28.9095 178.493 28.8977C178.345 28.8623 178.199 28.8194 178.055 28.769C177.434 28.5556 176.838 28.2632 176.219 28.0439C174.987 27.6053 173.772 27.117 172.549 26.6521C172.45 26.625 172.354 26.5898 172.261 26.5468C172.216 26.5212 172.18 26.4829 172.157 26.4366C172.134 26.3903 172.125 26.3381 172.131 26.2866C172.163 26.2515 172.192 26.2135 172.221 26.1754C172.445 26.1991 172.667 26.2441 172.883 26.3099C173.113 26.3821 173.34 26.4671 173.562 26.5643C173.798 26.6667 174.034 26.7778 174.273 26.8801L174.241 26.9328H174.336C174.335 26.923 174.335 26.9132 174.336 26.9035L174.463 26.9328H174.509C174.551 26.9413 174.592 26.953 174.633 26.9678L174.814 27.038H174.846L174.938 27.076L175.116 27.1433L175.168 27.1608C176.13 27.538 177.088 27.9211 178.047 28.2778L178.139 28.3099L178.648 28.4912C178.781 28.517 178.906 28.5708 179.017 28.6491C179.055 28.6787 179.085 28.7174 179.105 28.7619C179.124 28.8063 179.133 28.855 179.129 28.9035Z" fill="#71B2B3"/>
<path d="M184.118 27.1579C183.277 26.9591 182.503 26.5731 181.688 26.2953C181.485 26.2168 181.269 26.179 181.052 26.1842H181.038C181.005 26.179 180.973 26.1701 180.943 26.1579L180.655 25.7252V25.6462C180.653 25.6307 180.653 25.615 180.655 25.5994C181.084 25.4065 181.392 25.769 181.74 25.8772C182.411 26.0877 183.047 26.4123 183.738 26.5702C183.902 26.7385 184.031 26.9383 184.118 27.1579Z" fill="#EB89AD"/>
<path d="M75.7024 25.8948C72.4612 25.8948 69.2199 25.8773 65.9815 25.8948C65.5267 25.8948 65.377 25.8012 65.3914 25.31C65.4289 24.0907 65.3914 22.8685 65.4058 21.6463C65.4058 21.4942 65.331 21.3188 65.4951 21.196C65.4951 22.5469 65.5123 23.8977 65.4951 25.2486C65.4951 25.6755 65.5987 25.8012 66.0276 25.7983C69.076 25.7778 72.1215 25.7983 75.1699 25.7983C75.3426 25.7925 75.5499 25.7106 75.7024 25.8948Z" fill="#B2B2B2"/>
<path d="M33.0422 14.5439C32.7342 14.4678 32.6507 14.1696 32.5269 13.9591C32.2391 13.4123 31.7699 12.9561 31.5972 12.3333C32.3744 12.0175 32.3773 12.0175 32.5989 12.7953C32.7892 13.3662 32.9374 13.9506 33.0422 14.5439Z" fill="#A29FB1"/>
<path d="M175.85 24.3742C175.85 24.3742 175.85 24.4005 175.85 24.4122H175.813C175.798 24.4198 175.783 24.4257 175.767 24.4298C175.589 23.9444 175.062 24.0701 174.734 23.845C174.5 23.6783 174.158 23.6695 173.933 23.4619C174.034 23.2923 174.132 23.1227 174.221 22.9561C174.734 23.0935 175.194 23.3742 175.718 23.4882C175.812 23.5083 175.899 23.5517 175.972 23.6145C176.044 23.6772 176.101 23.7575 176.135 23.8479C176.137 23.8546 176.137 23.8616 176.135 23.8684C176.135 23.8684 176.135 23.8684 176.135 23.8859L175.85 24.3742Z" fill="#EC89AD"/>
<path d="M39.3894 25.4912C38.7984 24.7147 38.2635 23.8958 37.7889 23.0409C37.7889 23.0409 37.8177 22.9882 37.8321 22.9619C38.4078 23.4385 38.9231 24.0029 39.4614 24.535C39.9364 25.0204 39.9364 25.0233 39.3894 25.4912Z" fill="#AA9DB1"/>
<path d="M172.108 26.2982C172.425 26.6667 172.903 26.6871 173.306 26.8538C174.84 27.4766 176.418 27.9824 177.935 28.652C178.168 28.7544 178.441 28.7281 178.646 28.9064C178.556 28.9507 178.457 28.9736 178.358 28.9736C178.258 28.9736 178.16 28.9507 178.07 28.9064C177.082 28.4532 176.055 28.1082 175.042 27.7368C174.233 27.4444 173.432 27.1111 172.632 26.7982C172.38 26.6914 172.107 26.6483 171.835 26.6725L172.108 26.2982Z" fill="#67B6B4"/>
<path d="M37.4521 19.0351C37.1268 18.5176 36.7986 18.0029 36.4762 17.4825C36.4244 17.3977 36.3064 17.3129 36.41 17.1901C36.8908 17.2924 37.5874 17.2135 37.763 17.6316C37.9213 17.9825 37.5758 18.5556 37.4521 19.0351Z" fill="#89AAB3"/>
<path d="M104.992 32.6112C105.646 32.6599 106.302 32.6736 106.958 32.6521C107.217 32.6521 107.226 32.4884 107.226 32.2983C107.226 31.7135 107.226 31.158 107.226 30.5907C107.226 27.6297 107.226 24.6697 107.226 21.7106C107.226 21.5381 107.162 21.3509 107.3 21.196C107.3 24.8597 107.3 28.5264 107.3 32.1901C107.3 32.617 107.2 32.7749 106.768 32.7398C106.336 32.7047 105.87 32.7398 105.421 32.7398C105.28 32.7252 105.09 32.7895 104.992 32.6112Z" fill="#B2B2B2"/>
<path d="M153.418 32.6169C153.562 32.6169 153.706 32.652 153.847 32.652C158.021 32.652 162.195 32.652 166.371 32.652C166.515 32.652 166.659 32.6286 166.8 32.6169C166.671 32.8011 166.478 32.728 166.311 32.728H153.907C153.74 32.728 153.547 32.8011 153.418 32.6169Z" fill="#B2B2B2"/>
<path d="M166.8 19.2514C166.656 19.2368 166.512 19.2134 166.371 19.2134C162.197 19.2134 158.022 19.2134 153.847 19.2134C153.703 19.2134 153.559 19.2368 153.418 19.2514C153.55 19.0672 153.74 19.1432 153.907 19.1403C158.041 19.1403 162.175 19.1403 166.311 19.1403C166.478 19.1432 166.671 19.0672 166.8 19.2514Z" fill="#B2B2B2"/>
<path d="M32.4003 8.96199C32.6219 8.85088 32.6881 9.04971 32.7543 9.17252C33.0278 9.59357 33.307 10.0088 33.5546 10.4415C33.6 10.5457 33.6787 10.6313 33.778 10.6843C33.8772 10.7374 33.9912 10.7549 34.1015 10.7339C34.0785 10.7544 34.0583 10.7866 34.0295 10.7953C32.9357 11.1053 32.9386 11.1053 32.6708 9.97077C32.5902 9.63159 32.4895 9.29825 32.4003 8.96199Z" fill="#7CAFB3"/>
<path d="M185.197 28.8158C185.022 28.9883 184.866 28.8158 184.722 28.7661C183.317 28.2602 181.916 27.7398 180.514 27.2193C180.419 27.1842 180.278 27.1521 180.381 26.9883C180.381 26.9883 180.396 26.9737 180.404 26.9708C180.429 26.9494 180.455 26.9299 180.482 26.9123H181.058C181.07 26.9168 181.082 26.9238 181.092 26.9328L181.164 26.9912C181.164 27.0526 180.925 27.0819 181.138 27.1667C181.966 27.4903 182.792 27.8119 183.617 28.1316C184 28.2778 184.388 28.4064 184.768 28.5526C184.863 28.5877 184.944 28.6345 185.019 28.5263L185.197 28.8158Z" fill="#ED81AC"/>
<path d="M177.347 22.0029L177.059 22.459H177.036C176.432 22.1052 175.741 21.9678 175.108 21.6754L175.396 21.1842C175.422 21.1666 175.45 21.1315 175.476 21.1374C176.152 21.259 176.791 21.5338 177.347 21.9415C177.347 21.9415 177.347 21.9561 177.347 21.9649C177.347 21.9649 177.347 21.997 177.347 22.0029Z" fill="#C4A5B1"/>
<path d="M171.248 27.6461C172.244 28.0116 173.242 28.3742 174.238 28.7456C174.305 28.769 174.351 28.8508 174.408 28.9035C174.061 28.9984 173.696 28.9984 173.349 28.9035C172.966 28.5643 172.445 28.5409 172.007 28.3187C171.699 28.1666 171.366 28.0643 171.04 27.9385L171.248 27.6461Z" fill="#4A9AB8"/>
<path d="M187.411 32.2397C186.521 32.0409 185.701 31.6345 184.846 31.3362C184.653 31.269 184.463 31.0643 184.233 31.2602C184.066 31.1842 184.037 31 183.945 30.8684C183.838 30.6345 184.005 30.576 184.144 30.6345C185.16 30.9883 186.219 31.2193 187.131 31.845C187.293 31.9269 187.319 32.1023 187.411 32.2397Z" fill="#72B2B3"/>
<path d="M54.0642 11.0233L54.0297 12.5204C54.0297 12.7192 54.0988 13.0175 53.8138 13.0204C53.5288 13.0233 53.6842 12.728 53.6727 12.5672C53.6382 12.0555 53.6411 11.538 53.6296 11.0233C53.4482 10.9239 53.2496 10.9941 53.0538 10.9736C52.9589 10.9736 52.8495 10.9736 52.8408 10.8362C52.8322 10.6988 52.9387 10.6871 53.0366 10.6871C53.5662 10.6871 54.0959 10.6871 54.6227 10.6871C54.7205 10.6871 54.827 10.6871 54.827 10.8304C54.827 10.9736 54.7148 10.9619 54.6198 10.9736C54.4413 10.997 54.2427 10.921 54.0642 11.0233Z" fill="#B2B2B2"/>
<path d="M177.595 21.6082L177.362 21.9766H177.344H177.33C176.698 21.6737 176.049 21.4091 175.387 21.1842L175.764 20.614C175.796 20.8655 175.971 20.9269 176.184 21.0029C176.673 21.1442 177.146 21.3403 177.592 21.5877C177.592 21.5877 177.595 21.5994 177.595 21.6082Z" fill="#BCACB2"/>
<path d="M183.749 30.4854C183.576 30.4064 183.553 30.2222 183.461 30.0877C183.386 29.7953 183.579 29.8538 183.723 29.8831C183.955 29.9435 184.181 30.0268 184.397 30.1316C185.145 30.4474 185.948 30.6257 186.645 31.0643C186.775 31.1605 186.868 31.3003 186.907 31.4591C186.714 31.5907 186.538 31.4591 186.366 31.4064C185.652 31.1696 184.961 30.8743 184.256 30.6199C184.094 30.5523 183.923 30.507 183.749 30.4854Z" fill="#8FA7B2"/>
<path d="M96.0365 26.7603C96.0365 24.4211 96.0365 22.0819 96.0365 19.7281C96.0365 19.3275 95.9386 19.1726 95.5299 19.2076C94.9542 19.2603 94.3784 19.1579 93.8027 19.2632C94.0906 19 94.4418 19.1579 94.7613 19.1492C95.1873 19.1492 95.7285 18.9533 96.0106 19.231C96.2927 19.5088 96.1027 20.0644 96.1056 20.4971C96.1056 22.4123 96.1056 24.3305 96.1056 26.2457C96.1142 26.4182 96.1747 26.6082 96.0365 26.7603Z" fill="#B2B2B2"/>
<path d="M145.418 19.2222H136.322C136.115 19.2222 135.907 19.2456 135.7 19.2602C135.812 19.0906 135.988 19.1491 136.138 19.1491C139.097 19.1491 142.054 19.1491 145.009 19.1491C145.148 19.1403 145.292 19.0994 145.418 19.2222Z" fill="#B2B2B2"/>
<path d="M183.749 30.4853C183.864 30.1929 184.037 30.4093 184.164 30.4532C185.082 30.7807 185.995 31.1228 186.907 31.459C186.982 31.5877 187.129 31.6754 187.132 31.845L184.253 30.7865C184.132 30.7427 183.982 30.5906 183.939 30.8684C183.84 30.7624 183.774 30.6292 183.749 30.4853Z" fill="#7FADB3"/>
<path d="M131.285 26.5643C131.285 24.3011 131.264 22.0409 131.285 19.7807C131.285 19.3479 131.198 19.1637 130.735 19.1959C130.179 19.2456 129.618 19.228 129.057 19.2397C129.491 19 129.958 19.1462 130.407 19.1345C131.365 19.1082 131.368 19.1345 131.368 20.0994C131.368 22.0799 131.368 24.0594 131.368 26.038C131.359 26.2222 131.42 26.4093 131.285 26.5643Z" fill="#B2B2B2"/>
<path d="M118.452 26.6082C118.37 26.4253 118.345 26.2209 118.383 26.0234C118.383 23.924 118.383 21.8246 118.383 19.7252C118.383 19.3187 118.273 19.1813 117.873 19.2105C117.298 19.2515 116.722 19.2427 116.146 19.2544C116.598 19.0088 117.082 19.1638 117.548 19.1491C118.458 19.1199 118.458 19.1491 118.458 20.0673L118.452 26.6082Z" fill="#B2B2B2"/>
<path d="M186.645 31.0643C185.707 30.8274 184.837 30.3918 183.922 30.0877C183.784 30.0409 183.614 29.7953 183.461 30.0877L183.271 29.7953C183.162 29.5584 183.343 29.5029 183.473 29.5613C184.475 29.9444 185.545 30.1666 186.458 30.7777C186.51 30.8062 186.554 30.8473 186.587 30.8973C186.619 30.9472 186.639 31.0046 186.645 31.0643Z" fill="#9DA1B1"/>
<path d="M83.2069 26.3947C83.1359 26.2303 83.1138 26.0483 83.1436 25.8713C83.1436 23.8246 83.1292 21.8012 83.1436 19.7661C83.1436 19.3012 83.0025 19.1813 82.5679 19.2105C82.0094 19.2573 81.4452 19.1637 80.8896 19.2573C81.2523 19.0058 81.6611 19.155 82.0411 19.1462C83.1925 19.1228 83.1925 19.1462 83.1925 20.3158L83.2069 26.3947Z" fill="#B2B2B2"/>
<path d="M164.866 25.0001L156.268 24.9796C156.08 24.9796 155.882 25.041 155.709 24.9123H164.46C164.61 24.9094 164.762 24.8685 164.866 25.0001Z" fill="#B2B2B2"/>
<path d="M186.455 30.7719C185.531 30.421 184.61 30.0614 183.68 29.731C183.574 29.693 183.355 29.4386 183.268 29.7895L183.078 29.4971C183.234 29.1257 183.467 29.4152 183.623 29.4678C184.359 29.7193 185.082 30.0175 185.81 30.2924C185.946 30.3354 186.085 30.3696 186.225 30.3947C186.311 30.5087 186.438 30.6052 186.455 30.7719Z" fill="#AA9CB0"/>
<path d="M37.4579 30.5789C36.9714 30.2865 36.8131 29.7222 36.5022 29.2894C36.436 29.1988 36.3784 29.1052 36.3151 29.0146C36.9829 28.7222 37.0174 28.7222 37.1786 29.4122C37.3175 29.7883 37.4112 30.18 37.4579 30.5789Z" fill="#F481AD"/>
<path d="M174.837 25.9765L174.624 26.3157H174.601C174.027 26.164 173.465 25.9685 172.92 25.7309C172.788 25.6871 172.658 25.5964 172.696 25.4093L172.791 25.304C172.823 25.2678 172.864 25.2405 172.91 25.2246C172.956 25.2088 173.005 25.2049 173.052 25.2134C173.666 25.4093 174.302 25.5496 174.84 25.9356C174.841 25.9493 174.84 25.9631 174.837 25.9765Z" fill="#AF9AB0"/>
<path d="M173.349 28.9035H179.123C179.185 28.8537 179.256 28.8173 179.333 28.7967C179.409 28.7761 179.489 28.7716 179.567 28.7836C179.698 28.7747 179.829 28.801 179.947 28.8596C179.966 28.8776 179.985 28.8972 180.001 28.9181V28.9561C178.758 28.9561 177.514 28.9882 176.259 28.9941C175.16 28.9941 174.06 28.9941 172.957 28.9766C173.078 28.8713 173.214 28.9473 173.349 28.9035Z" fill="#8FA6B1"/>
<path d="M175.197 25.389L174.993 25.7135C174.994 25.7252 174.994 25.7369 174.993 25.7486H174.961H174.921C174.59 25.7866 174.325 25.5644 174.04 25.4562C173.671 25.3246 173.263 25.2603 172.96 24.9679C173.012 24.7821 173.111 24.6136 173.248 24.4796C173.668 24.8568 174.23 24.9123 174.719 25.1375C174.872 25.2077 175.056 25.2106 175.185 25.3451L175.197 25.389Z" fill="#D08EAF"/>
<path d="M174.613 26.3333L174.446 26.5965H174.411H174.394C173.735 26.3245 173.027 26.1579 172.405 25.7807L172.693 25.3976C173.024 25.7631 173.516 25.7719 173.928 25.9649C174.163 26.0473 174.393 26.1449 174.616 26.2573C174.617 26.268 174.617 26.2787 174.616 26.2894C174.62 26.3039 174.619 26.3196 174.613 26.3333Z" fill="#9DA2B1"/>
<path d="M135.7 32.617C136.336 32.617 136.975 32.617 137.614 32.655C137.943 32.655 137.902 32.4591 137.902 32.2427C137.902 30.9913 137.902 29.7427 137.902 28.4942C137.902 28.348 137.819 28.1667 137.994 28.0498C137.994 29.465 137.994 30.8772 137.994 32.2925C137.994 32.6316 137.897 32.7544 137.557 32.7369C137.065 32.7106 136.567 32.7369 136.072 32.7369C135.954 32.7281 135.792 32.772 135.7 32.617Z" fill="#B2B2B2"/>
<path d="M174.998 25.7661H174.967L174.837 25.9708H174.794C174.123 25.7398 173.499 25.3626 172.779 25.2895C172.779 25.2272 172.797 25.1662 172.83 25.1141C172.864 25.0621 172.913 25.0214 172.969 24.9971C173.671 25.1316 174.287 25.5322 174.984 25.6814V25.7223C174.991 25.736 174.996 25.7508 174.998 25.7661Z" fill="#BF94AF"/>
<path d="M107.295 21.1929C107.441 21.0438 107.629 21.1169 107.796 21.1169C109.554 21.1169 111.313 21.1169 113.072 21.1169C113.262 21.1169 113.452 21.0877 113.648 21.073C113.515 21.2894 113.299 21.1929 113.121 21.1929C111.172 21.1959 109.232 21.1929 107.295 21.1929Z" fill="#B2B2B2"/>
<path d="M174.414 26.579C174.415 26.5877 174.415 26.5966 174.414 26.6053C174.415 26.6258 174.41 26.6461 174.4 26.6641C174.391 26.6821 174.377 26.6972 174.359 26.7077C174.35 26.7172 174.338 26.7243 174.325 26.7281C174.313 26.7357 174.301 26.7416 174.287 26.7457C174.034 26.6989 173.784 26.6463 173.542 26.5761C173.308 26.5119 173.081 26.4267 172.862 26.3217C172.664 26.2352 172.476 26.1264 172.301 25.9971L172.408 25.7895C173.114 25.9398 173.792 26.2065 174.414 26.579Z" fill="#8EA7B2"/>
<path d="M174.224 26.9474H174.316V26.965L174.233 27.0527C173.838 26.7018 173.309 26.6784 172.862 26.4503C172.652 26.3421 172.402 26.3421 172.212 26.1813C172.246 26.117 172.281 26.0556 172.313 25.9913C172.998 26.2135 173.654 26.5176 174.359 26.6726C174.36 26.6823 174.36 26.6921 174.359 26.7018C174.361 26.7086 174.361 26.7155 174.359 26.7223L174.253 26.8889L174.224 26.9474Z" fill="#7FADB3"/>
<path d="M175.309 25.2076V25.2252L175.2 25.4006H175.171C174.595 25.3597 174.083 25.0088 173.519 24.883C173.441 24.8615 173.373 24.814 173.325 24.7483C173.277 24.6825 173.252 24.6023 173.254 24.5205L173.349 24.4211C173.579 24.5117 173.812 24.5877 174.049 24.6608C174.285 24.7339 174.552 24.8275 174.797 24.9357C174.964 25.007 175.125 25.0921 175.278 25.1901L175.309 25.2076Z" fill="#DF88AE"/>
<path d="M55.7684 10.8391C55.2618 10.5994 55.1927 10.6403 55.1927 11.1871C55.1927 11.6403 55.1927 12.0935 55.1927 12.5438C55.1927 12.6929 55.0747 12.9766 55.3481 12.9619C55.6216 12.9473 55.4748 12.6695 55.4805 12.5204C55.4978 12.1198 55.4805 11.7192 55.4805 11.304C55.6216 11.3391 55.6273 11.4356 55.6475 11.5204C55.4863 11.9093 55.6043 12.3157 55.5727 12.7105C55.5727 12.8918 55.5726 13.0818 55.3165 13.073C55.0603 13.0643 55.0891 12.8947 55.0891 12.7309C55.0891 12.1461 55.0891 11.5613 55.0891 10.9766C55.0891 10.8362 55.0574 10.6461 55.2618 10.6374C55.4661 10.6286 55.7022 10.5058 55.7684 10.8391Z" fill="#B2B2B2"/>
<path d="M65.3597 33.114C65.4576 31.6257 65.3597 30.1344 65.4087 28.6461C65.4087 28.383 65.305 28.1023 65.495 27.8596C65.495 29.4532 65.495 31.0438 65.495 32.6374C65.4893 32.8011 65.5728 33.0029 65.3597 33.114Z" fill="#B2B2B2"/>
<path d="M175.404 25.0176C175.407 25.035 175.407 25.0528 175.404 25.0702C175.407 25.0798 175.407 25.0899 175.404 25.0994L175.37 25.1579C175.35 25.1742 175.328 25.1862 175.304 25.193C175.304 25.193 175.289 25.193 175.283 25.193C174.742 25.0029 174.204 24.807 173.663 24.6257C173.536 24.5819 173.418 24.5439 173.375 24.4094C173.375 24.3363 173.375 24.2544 173.473 24.2135C174.046 24.6199 174.754 24.7456 175.404 25.0176Z" fill="#EC82AC"/>
<path d="M54.0642 11.0234C54.2427 10.8685 54.4615 10.9942 54.6543 10.9416C54.7148 10.924 54.7781 10.9123 54.7781 10.8275C54.7781 10.7427 54.7119 10.7223 54.6486 10.7223H53.0337C52.9733 10.7223 52.9071 10.7456 52.9099 10.8304C52.9128 10.9152 52.9733 10.9269 53.0366 10.9416C53.2295 10.9913 53.4482 10.8714 53.6296 11.0234C53.4367 11.0234 53.2467 11.0234 53.0539 11.0234C52.9186 11.0234 52.7919 11.003 52.7977 10.8187C52.8034 10.6345 52.9042 10.6345 53.028 10.6345H54.6515C54.7724 10.6345 54.8789 10.6638 54.8875 10.8129C54.8961 10.962 54.7752 11.0205 54.6371 11.0234C54.4442 11.0264 54.2542 11.0234 54.0642 11.0234Z" fill="#B2B2B2"/>
<path d="M191.363 32.6374L190.016 32.6199C190.016 32.4912 190.016 32.3626 190.036 32.2339C190.557 32.1053 190.94 32.4357 191.363 32.6374Z" fill="#9BA1B1"/>
<path d="M155.726 30.8626C155.617 30.807 155.637 30.7017 155.637 30.6082V26.924C155.637 26.8304 155.62 26.7281 155.726 26.6696V30.8626Z" fill="#B2B2B2"/>
<path d="M155.724 24.9152C155.623 24.8509 155.637 24.7486 155.637 24.655V21.2573C155.637 21.1638 155.617 21.0585 155.726 21.0029C155.726 22.307 155.725 23.6111 155.724 24.9152Z" fill="#B2B2B2"/>
<path d="M57.2076 12.9737C57.4466 13.0322 57.5243 12.921 57.5185 12.6813C57.5185 12.193 57.4897 11.7047 57.5185 11.2193C57.5473 10.8129 57.412 10.6345 57.0148 10.7017C57.5387 10.5614 57.5905 10.5877 57.5905 11.0877C57.5905 11.6345 57.5905 12.1842 57.5905 12.7339C57.5991 13.0409 57.5128 13.1813 57.2076 12.9737Z" fill="#B2B2B2"/>
<path d="M168.061 32.6286C168.924 32.6886 169.789 32.6886 170.652 32.6286C170.537 32.7953 170.364 32.7339 170.211 32.7368C169.509 32.7368 168.807 32.7368 168.101 32.7368C168.101 32.7368 168.067 32.7368 168.064 32.7193C168.059 32.6893 168.059 32.6588 168.061 32.6286Z" fill="#4591B9"/>
<path d="M147.355 32.6491C148.058 32.6491 148.757 32.6491 149.457 32.6491C149.586 32.6491 149.745 32.7222 149.834 32.5379C149.912 32.5964 149.943 32.7046 149.834 32.7046C149.008 32.7075 148.17 32.8245 147.355 32.6491Z" fill="#B2B2B2"/>
<path d="M185.111 32.6637L187.702 32.6286V32.7076L185.111 32.6637Z" fill="#5BB5B5"/>
<path d="M179.031 19.2427L176.628 19.2602C176.72 19.0965 176.878 19.1316 177.013 19.1433C177.684 19.193 178.369 19.0058 179.031 19.2427Z" fill="#B2B2B2"/>
<path d="M89.108 31.0731C88.6866 31.1959 88.2397 31.1959 87.8184 31.0731H89.108Z" fill="#B2B2B2"/>
<path d="M87.8413 32.9416H89.082C88.6787 33.0741 88.2446 33.0741 87.8413 32.9416Z" fill="#B2B2B2"/>
<path d="M123.086 32.9416H124.33C123.926 33.0732 123.491 33.0732 123.086 32.9416Z" fill="#B2B2B2"/>
<path d="M124.353 31.0731C123.932 31.1959 123.485 31.1959 123.063 31.0731H124.353Z" fill="#B2B2B2"/>
<path d="M80.9098 26.6492C80.9904 26.8376 81.0164 27.0456 80.9846 27.2486C80.8349 27.0644 80.927 26.848 80.9098 26.6492Z" fill="#B2B2B2"/>
<path d="M13.1082 20.9941C13.1945 21.073 13.2377 21.2192 13.396 21.2046C13.1139 21.3859 13.111 21.19 13.1082 20.9941Z" fill="#FCFCFC"/>
<path d="M116.158 26.8392C116.236 26.9962 116.261 27.1749 116.23 27.348C116.089 27.193 116.166 27.0117 116.158 26.8392Z" fill="#B2B2B2"/>
<path d="M180.666 28.9123H180.016H180.001L179.598 28.81L179.544 28.7954C178.392 28.4679 177.316 27.9474 176.184 27.5585C175.847 27.4109 175.501 27.2858 175.148 27.1843H175.093C175.039 27.173 174.984 27.1661 174.929 27.1638C174.863 27.1375 174.788 27.1375 174.722 27.1141C174.695 27.1038 174.669 27.0911 174.644 27.0761H174.259C174.259 27.0381 174.259 27.003 174.259 26.965H174.351H174.541L175.611 26.9971C175.799 27.0527 175.997 26.9971 176.187 27.0381L176.253 27.0615L176.397 27.1141C176.628 27.193 176.852 27.2778 177.08 27.3626L177.18 27.3948C177.227 27.4098 177.273 27.4273 177.318 27.4474L177.557 27.5352L177.845 27.6463C178.692 27.9679 179.532 28.2983 180.378 28.6141L180.485 28.6521C180.523 28.6628 180.558 28.6812 180.589 28.7064C180.62 28.7315 180.645 28.7628 180.663 28.7983C180.674 28.8355 180.675 28.8747 180.666 28.9123Z" fill="#8FA6B1"/>
<path d="M182.005 28.9122H181.34C181.193 28.8713 181.052 28.8304 180.902 28.7836C180.753 28.7368 180.614 28.6929 180.465 28.6432L180.358 28.6052C179.495 28.3128 178.669 27.9619 177.825 27.6374L177.537 27.5263L177.298 27.4385L177.059 27.3537C176.809 27.269 176.553 27.19 176.3 27.1081L176.158 27.0614C175.968 27.0321 175.767 27.1228 175.583 26.9883H176.835C178.617 27.4268 180.272 28.2456 182.005 28.9122Z" fill="#A99CB0"/>
<path d="M176.144 27.0614C176.72 26.9766 177.195 27.3011 177.698 27.4766C178.83 27.8684 179.941 28.3099 181.061 28.7368C181.163 28.7841 181.259 28.843 181.348 28.9123H180.675C180.052 28.5996 179.406 28.3357 178.743 28.1228C178.035 27.8304 177.304 27.5965 176.599 27.3245C176.427 27.28 176.27 27.1891 176.144 27.0614Z" fill="#9CA1B1"/>
<path d="M174.601 27.0613H174.889C176.04 27.4064 177.131 27.8976 178.257 28.3011C178.663 28.4473 179.066 28.5935 179.466 28.7631C179.541 28.7923 179.63 28.7923 179.601 28.9093H179.12C178.499 28.5029 177.767 28.3801 177.105 28.0906C176.279 27.728 175.401 27.4853 174.601 27.0613Z" fill="#7EADB2"/>
<path d="M179.604 28.9094L175.185 27.193C175.085 27.155 174.958 27.1609 174.898 27.0497C175.496 27.0293 175.994 27.3421 176.524 27.5527C177.675 27.9825 178.827 28.4474 179.978 28.8977L179.604 28.9094Z" fill="#7FADB3"/>
</g>
<defs>
<clipPath id="clip0_3_1028">
<rect width="192" height="50" fill="white" transform="translate(0.5)"/>
</clipPath>
</defs>
</svg>
