<svg width="49" height="50" viewBox="0 0 49 50" fill="none" xmlns="http://www.w3.org/2000/svg">
<path d="M8.45146 24.8977C8.45399 24.9612 8.44019 25.0242 8.41141 25.0806C8.38264 25.137 8.33989 25.1848 8.28739 25.2193C6.97764 26.4152 5.76289 27.7135 4.50496 28.962C4.2977 29.1667 4.14226 29.1989 3.92925 28.962C2.77782 27.6375 1.51125 26.4094 0.279231 25.1609C0.0777313 24.9533 0.0662171 24.7983 0.279231 24.5936C1.56499 23.3266 2.84786 22.0595 4.12786 20.7924C4.26891 20.6521 4.36966 20.6199 4.52223 20.7778C5.79167 22.1082 7.06976 23.4328 8.34208 24.7603C8.38236 24.8028 8.41896 24.8488 8.45146 24.8977Z" fill="#B2B2B2"/>
<path d="M28.6849 45.4621C28.6527 45.5974 28.5741 45.7166 28.4632 45.7983C27.4874 46.8305 26.5058 47.8597 25.5328 48.8919C25.2997 49.1375 25.0809 49.3977 24.865 49.655C24.724 49.8188 24.6146 49.8568 24.4361 49.6814C23.1657 48.4435 21.8914 47.2145 20.6134 45.9942C20.3255 45.7223 20.3255 45.5498 20.6134 45.2603C21.7878 44.041 22.9335 42.7954 24.082 41.5556C24.2749 41.3451 24.4275 41.2632 24.675 41.5059C25.9186 42.7252 27.1794 43.927 28.4171 45.1375C28.538 45.2369 28.6647 45.3217 28.6849 45.4621Z" fill="#B2B2B2"/>
<path d="M10.714 16.8829C10.714 17.0408 10.4722 17.0028 10.3369 17.0408C9.1855 17.3566 8.03407 17.6519 6.86538 17.956C6.3386 18.0905 5.80319 18.1958 5.29368 18.3742C4.97128 18.4882 4.89356 18.3332 4.83311 18.0818C4.39269 16.3537 3.96954 14.6198 3.51761 12.8946C3.44852 12.6344 3.47155 12.532 3.75653 12.4589C5.48367 12.0233 7.19065 11.5642 8.9034 11.1081C9.10202 11.0554 9.26034 10.994 9.33518 11.2894C9.77272 13.0437 10.2247 14.7981 10.6737 16.5525C10.6881 16.6315 10.691 16.6958 10.714 16.8829Z" fill="#B2B2B2"/>
<path d="M8.75084 38.8684C8.22406 38.728 7.74622 38.6082 7.27414 38.4678C6.01045 38.0965 4.75827 37.6754 3.48019 37.3567C3.04553 37.2456 3.13189 37.0409 3.19234 36.7924C3.54064 35.538 3.90622 34.2895 4.26316 33.038C4.38406 32.6199 4.51935 32.2047 4.60859 31.7836C4.68631 31.424 4.8619 31.3801 5.1843 31.4737C6.73009 31.9386 8.27588 32.3889 9.82454 32.8421C9.94544 32.8801 10.0692 32.9093 10.193 32.9444C10.429 33.0117 10.5269 33.1199 10.4434 33.4035C9.94832 35.0935 9.47336 36.7924 9.00415 38.4883C8.9437 38.6491 8.94082 38.8625 8.75084 38.8684Z" fill="#B2B2B2"/>
<path d="M17.6081 44.8245C17.6225 45.0117 17.4901 45.0204 17.3606 45.0526C15.5932 45.4912 13.8267 45.9347 12.0612 46.383C11.8107 46.4473 11.7733 46.3158 11.7301 46.114C11.3079 44.3187 10.8742 42.5243 10.429 40.731C10.3772 40.5146 10.4722 40.4883 10.6334 40.4386C12.4008 40 14.1673 39.5575 15.9328 39.1111C16.1084 39.0672 16.2207 39.0672 16.284 39.2982C16.7158 41.1228 17.162 42.9444 17.6024 44.7661C17.6053 44.7924 17.6053 44.8099 17.6081 44.8245Z" fill="#B2B2B2"/>
<path d="M12.3087 27.6929C12.1677 27.6929 12.1101 27.5759 12.0381 27.497C11.2926 26.7163 10.5557 25.9268 9.80725 25.1578C9.66044 25.0058 9.65756 24.9181 9.80725 24.7719C10.5864 24.0253 11.3598 23.2728 12.1274 22.5145C12.3087 22.3333 12.4469 22.3566 12.6138 22.5292C13.3565 23.2952 14.0992 24.0584 14.8505 24.8186C14.9858 24.9561 15.0261 25.0584 14.8649 25.2163C14.0848 25.9912 13.3162 26.7748 12.539 27.5555C12.4672 27.6093 12.39 27.6554 12.3087 27.6929Z" fill="#B2B2B2"/>
<path d="M16.1603 30.117C15.8724 31.1725 15.5586 32.2281 15.2621 33.2866C15.1873 33.5526 14.9743 33.5409 14.8016 33.4883C13.8114 33.1959 12.8211 32.9035 11.8338 32.6111C11.5977 32.5409 11.52 32.3918 11.5977 32.1287C11.8837 31.154 12.1591 30.1794 12.4239 29.2047C12.5131 28.8918 12.6225 28.7632 12.9996 28.886C13.9351 29.1988 14.8937 29.4474 15.8436 29.7252C16.0192 29.7895 16.2409 29.8246 16.1603 30.117Z" fill="#B2B2B2"/>
<path d="M16.8799 38.0672C16.7878 38.0994 16.782 37.9386 16.7532 37.8216C16.4798 36.7163 16.2178 35.6082 15.9357 34.5058C15.8753 34.2719 16.0336 34.3011 16.1372 34.2748C17.2167 34 18.3019 33.7339 19.3842 33.4561C19.5944 33.4006 19.6289 33.5234 19.6721 33.6754C19.9398 34.7748 20.2046 35.8713 20.4752 36.9678C20.5098 37.1052 20.4752 37.1813 20.3428 37.2163L16.8799 38.0672Z" fill="#B2B2B2"/>
<path d="M26.0941 38.2134C25.6345 38.7968 25.1363 39.3478 24.6031 39.8626C24.4505 40.0234 24.3411 40.1023 24.1396 39.9006C23.3912 39.1462 22.5765 38.4649 21.8684 37.6696C21.7446 37.5292 21.6036 37.421 21.7993 37.231C22.5449 36.5029 23.1523 35.6345 23.9726 34.9795C24.2375 34.9327 24.3382 35.1433 24.4476 35.3129C24.9629 36.117 25.4637 36.9269 25.9819 37.731C26.0711 37.8743 26.2179 38.0117 26.0941 38.2134Z" fill="#B2B2B2"/>
<path d="M11.9345 5.45617C12.019 4.85905 12.1597 4.27156 12.3548 3.70178C12.562 3.72225 12.6426 3.90353 12.7261 4.04681C14.0675 6.13453 15.3773 8.23979 16.7014 10.3363C16.7162 10.3648 16.7269 10.3953 16.7331 10.4269C16.6525 11.0761 16.6525 11.0761 16.0451 10.9211C15.7194 10.8771 15.4033 10.7783 15.1096 10.6287C14.079 8.96786 13.0543 7.30412 11.9777 5.67254C11.9537 5.64275 11.9373 5.60748 11.9298 5.56978C11.9222 5.53208 11.9239 5.49308 11.9345 5.45617Z" fill="#D996AF"/>
<path d="M41.8744 11.6139C43.0057 11.9063 44.1312 12.1987 45.2654 12.4765C45.5532 12.5437 45.6338 12.611 45.5532 12.9122C45.2424 14.0379 44.9574 15.1695 44.6609 16.3011C44.422 16.3361 44.3155 16.1549 44.2176 15.994C43.426 14.7133 42.5941 13.4589 41.8169 12.1665C41.7257 12.0521 41.667 11.9147 41.647 11.7689C41.6413 11.6139 41.6989 11.5116 41.8744 11.6139Z" fill="#4592B9"/>
<path d="M16.7331 10.4327C16.2552 10.0701 16.0451 9.5058 15.7313 9.02335C14.5799 7.26896 13.4774 5.48241 12.3548 3.70756C12.6426 3.55259 12.8672 3.76019 13.1176 3.80697C13.4352 3.88438 13.7477 3.98203 14.0531 4.09937C15.1211 5.69294 16.1545 7.31574 17.1188 8.97071C17.0598 9.47428 16.9299 9.96664 16.7331 10.4327Z" fill="#E091AE"/>
<path d="M44.2895 17.6725C44.2829 17.7842 44.2704 17.8954 44.2521 18.0058C44.183 18.3216 44.0794 18.5555 43.6764 18.3479C43.5003 18.2852 43.3159 18.2497 43.1295 18.2426C42.0932 16.3391 40.8266 14.576 39.7241 12.7192C39.632 12.5643 39.4564 12.4268 39.5687 12.2046C39.5399 11.8494 39.6204 11.4939 39.799 11.1871C39.9026 10.9444 40.1559 11.1315 40.3344 11.2192C40.6222 12.0467 41.1749 12.7105 41.6211 13.4385C42.4962 14.8625 43.3972 16.266 44.2895 17.6725Z" fill="#4EA2B7"/>
<path d="M37.332 46.1227C37.2687 46.3274 37.2025 46.4444 36.929 46.3596C36.5197 46.272 36.1152 46.1627 35.7172 46.0321C35.2307 45.4063 34.8536 44.6988 34.442 44.035C33.8663 43.1578 33.3337 42.2426 32.7407 41.3742C32.5643 41.1427 32.4709 40.857 32.4759 40.5642L32.7638 39.3947C33.1265 39.4619 33.2646 39.7835 33.4287 40.0438C34.0217 40.9736 34.6003 41.9093 35.1933 42.8362C35.8985 43.9297 36.5347 45.0818 37.332 46.1227Z" fill="#D09CAF"/>
<path d="M37.3321 46.1227C37.0788 46.1607 37.0068 45.9415 36.9118 45.7894C35.7604 43.9765 34.6224 42.1608 33.4978 40.342C33.2817 40.0019 33.035 39.6828 32.7609 39.3888C32.8099 39.1724 32.8818 39.0526 33.1524 39.1461C33.5338 39.232 33.9096 39.3414 34.2779 39.4736C34.8105 40.4531 35.4293 41.3684 36.031 42.3128C36.5577 43.1637 37.096 44.0058 37.6286 44.8508C37.5307 45.2748 37.4213 45.6988 37.3321 46.1227Z" fill="#D599AF"/>
<path d="M44.2895 17.6726C44.0736 17.655 44.0189 17.4591 43.9297 17.3188C42.7399 15.4396 41.5587 13.5556 40.3862 11.6667C40.32 11.5615 40.0552 11.3948 40.3401 11.2194C40.8654 11.2876 41.3805 11.4201 41.8744 11.6141C41.5261 11.7281 41.7938 11.9065 41.86 12.0118C42.5912 13.193 43.33 14.3695 44.0765 15.541C44.2492 15.81 44.3644 16.1258 44.6522 16.3012C44.5729 16.7687 44.4515 17.2277 44.2895 17.6726Z" fill="#4999B8"/>
<path d="M15.0146 20.5906C14.3191 20.8347 13.6108 21.0397 12.8931 21.2046C12.6657 21.3186 12.6829 21.0906 12.6052 20.9941C12.3174 19.9473 12.0641 18.9034 11.782 17.8596C11.7186 17.6227 11.782 17.4912 12.0151 17.4415C12.2483 17.3917 12.4757 17.3362 12.706 17.2836C12.965 17.1608 13.1349 17.2836 13.2615 17.497C13.8113 18.3742 14.3871 19.2514 14.9253 20.152C15.0059 20.2806 15.1384 20.4151 15.0146 20.5906Z" fill="#B2B2B2"/>
<path d="M38.0315 8.77185C38.3539 9.50576 38.3453 9.52038 37.4558 9.64904C37.168 9.78647 37.0039 9.61395 36.8801 9.39465C35.9532 7.91317 35.0225 6.43461 34.0879 4.95898C33.9814 4.78647 33.8288 4.60518 33.9987 4.37418C34.3003 4.2188 34.6269 4.11975 34.963 4.08179C35.6193 4.95898 36.1403 5.92974 36.7535 6.8391C37.1709 7.49992 37.4875 8.21629 38.0315 8.77185Z" fill="#50A6B7"/>
<path d="M11.9345 5.45618C13.0428 6.99126 13.9697 8.64623 15.0059 10.2252C15.0887 10.3464 15.1255 10.4938 15.1096 10.6404C14.5108 10.5936 13.9581 10.31 13.3824 10.2281C12.8489 9.28074 12.2732 8.36163 11.6553 7.4708C11.5527 7.30696 11.4905 7.1204 11.4739 6.92694C11.6409 6.43278 11.6812 5.91524 11.9345 5.45618Z" fill="#D19BAF"/>
<path d="M32.4759 40.5643C32.5824 41.0351 32.9077 41.383 33.1524 41.7749C33.9181 43.0059 34.7039 44.2222 35.4725 45.4532C35.5713 45.6402 35.6532 45.836 35.7172 46.038C35.192 45.9628 34.6759 45.8324 34.1771 45.6491C33.7597 45.3567 33.6014 44.8918 33.3308 44.4795C32.9797 43.9386 32.6342 43.3947 32.2974 42.8421C32.1792 42.6523 32.1062 42.437 32.0844 42.2135C32.214 41.6696 32.3464 41.117 32.4759 40.5643Z" fill="#C9A2B0"/>
<path d="M37.6286 44.8508C37.1593 44.5818 37.0097 44.0555 36.7333 43.6432C35.9216 42.4239 35.1616 41.1725 34.3844 39.9298C34.3038 39.7953 34.0966 39.6754 34.2779 39.4736C34.8357 39.5374 35.3838 39.6699 35.9101 39.8684C35.8892 40.014 35.9231 40.1622 36.005 40.2836C36.5808 41.1812 37.1363 42.0847 37.712 42.9795C37.7882 43.1009 37.8858 43.2069 37.9999 43.2923L37.6286 44.8508Z" fill="#DB94AE"/>
<path d="M33.9872 4.38599C34.0965 5.03803 34.5801 5.48248 34.8939 6.01757C35.556 7.14037 36.2756 8.23101 36.9607 9.34213C37.0026 9.43867 37.0724 9.52002 37.1608 9.57537C37.2492 9.63072 37.3521 9.65747 37.4558 9.65207C37.1198 9.80474 36.7624 9.90339 36.3965 9.94446C36.1864 10.0614 36.1087 9.88306 36.0281 9.75733C35.0321 8.21347 34.0706 6.64622 33.0804 5.09944C32.994 4.96786 32.8991 4.82166 33.02 4.65207C33.3192 4.49234 33.6494 4.40149 33.9872 4.38599Z" fill="#54ADB6"/>
<path d="M23.1033 11.4034C23.395 11.0467 23.722 10.7214 24.0791 10.4327C24.2605 10.3859 24.3411 10.5292 24.4102 10.6461C24.9542 11.5818 25.6163 12.4385 26.1373 13.383C26.1669 13.4213 26.1866 13.4665 26.1947 13.5145C26.2027 13.5625 26.1988 13.6117 26.1834 13.6578C25.892 14.0118 25.5692 14.3377 25.2191 14.6315C24.9916 14.766 24.8909 14.5789 24.7988 14.4414C24.2231 13.5643 23.6704 12.6871 23.135 11.8099C23.0659 11.6958 22.9939 11.5613 23.1033 11.4034Z" fill="#FC7CAB"/>
<path d="M38.0315 8.77195C37.8272 9.1199 37.7869 8.73394 37.7437 8.68131C37.1306 7.73101 36.5203 6.78072 35.9388 5.81289C35.602 5.24564 35.1328 4.75733 34.94 4.10528C35.4121 3.96786 35.8899 3.84505 36.3533 3.68715C36.621 3.59651 36.7074 3.66084 36.7736 3.93569C37.1824 5.55558 37.689 7.14037 38.0315 8.77195Z" fill="#4C9EB8"/>
<path d="M47.5682 26.2864C47.4104 26.543 47.2086 26.7688 46.9723 26.9531C46.7478 26.9531 46.6845 26.766 46.5981 26.6286C45.6626 25.1958 44.7731 23.7367 43.8549 22.2923C43.7397 22.111 43.567 21.921 43.708 21.6695L44.3903 21.0116C45.4208 22.611 46.4225 24.228 47.4502 25.8391C47.5337 25.9736 47.6402 26.1081 47.5682 26.2864Z" fill="#54ADB6"/>
<path d="M42.5538 22.9415C42.6344 22.617 42.9136 22.462 43.1295 22.2573C44.0535 23.5965 44.8768 25.0029 45.7576 26.3743C45.9937 26.7398 46.2297 27.1053 46.4945 27.4474C46.3049 27.7052 46.0834 27.9372 45.8353 28.1374C45.5734 28.2632 45.4957 28.0322 45.4007 27.8889C44.445 26.4269 43.5411 24.9445 42.6027 23.4795C42.5048 23.3187 42.4041 23.1374 42.5538 22.9415Z" fill="#5CB9B4"/>
<path d="M39.5745 12.2047C39.9544 12.8334 40.3286 13.4708 40.7259 14.0936C41.4369 15.2252 42.1652 16.3451 42.8819 17.4737C43.055 17.6908 43.1459 17.9635 43.1381 18.2427L41.9867 17.8743C41.1231 16.462 40.2394 15.041 39.3183 13.655C39.2711 13.5704 39.2417 13.4768 39.2319 13.3801C39.3499 12.9913 39.3586 12.5731 39.5745 12.2047Z" fill="#51A8B7"/>
<path d="M47.5682 26.2866C46.5837 24.7272 45.5993 23.1589 44.6148 21.5819C44.4748 21.4256 44.395 21.2231 44.3903 21.0118C44.4939 20.6492 44.6436 20.4972 44.966 20.8422C45.2884 21.1872 45.654 21.5381 45.9994 21.886C46.2552 22.3856 46.5437 22.8672 46.863 23.3276C47.2458 23.9621 47.6373 24.5936 48.0576 25.2077C48.1523 25.3185 48.2168 25.4525 48.2447 25.5966C48.0473 25.8534 47.8202 26.085 47.5682 26.2866Z" fill="#51A6B7"/>
<path d="M34.56 29.3947C34.9457 29.1579 35.3977 29.1404 35.815 29.0146C35.9906 28.9591 36.0309 29.114 36.0856 29.2135C36.3591 29.6784 36.6613 30.1228 36.9492 30.579C37.1432 31.0811 37.3105 31.5936 37.4501 32.114C37.5451 32.3801 37.5192 32.5293 37.2255 32.5907C37.0174 32.6651 36.8007 32.7123 36.5807 32.731C36.4051 32.7836 36.3648 32.6287 36.2929 32.5322C35.7431 31.655 35.1789 30.8041 34.6521 29.9211C34.5744 29.7632 34.4247 29.6082 34.56 29.3947Z" fill="#FC7CAB"/>
<path d="M29.2922 34.0995C29.3248 33.9928 29.3517 33.8845 29.3728 33.7749C29.4045 33.5176 29.5081 33.4123 29.7787 33.503C30.13 33.5696 30.4748 33.6675 30.8092 33.7954C30.8056 33.9586 30.8563 34.1183 30.9532 34.2486C31.4943 35.0673 31.9779 35.924 32.5421 36.7281C32.4702 37.1199 32.4241 37.5147 32.3176 37.8977C32.2111 38.2807 31.952 37.9182 31.7707 37.9796C31.1259 36.8919 30.4494 35.8275 29.773 34.7632C29.6233 34.5322 29.4477 34.3246 29.2922 34.0995Z" fill="#D599AF"/>
<path d="M23.1033 11.4034C23.17 11.6893 23.3044 11.9543 23.4948 12.1754C23.9467 12.921 24.4361 13.6374 24.9024 14.38C24.983 14.5087 25.055 14.6315 25.2248 14.6315C24.5512 15.4502 24.5512 15.4502 23.8143 14.7017C23.2386 14.1169 22.6629 13.5321 22.0872 12.9473C21.8857 12.7543 21.8281 12.6286 22.0728 12.4151C22.4297 12.111 22.7608 11.7543 23.1033 11.4034Z" fill="#F482AD"/>
<path d="M33.02 4.65796C33.1985 5.27784 33.6504 5.73691 33.9699 6.27199C34.6896 7.47667 35.4553 8.64919 36.1979 9.83632C36.2203 9.86947 36.2498 9.89698 36.2842 9.91674C36.3186 9.93651 36.3571 9.94801 36.3965 9.95036C36.1927 10.0763 35.9587 10.1431 35.7201 10.1433C35.3516 10.3042 35.2278 9.98837 35.0926 9.77784C34.4794 8.84217 33.8951 7.88895 33.2963 6.94159C32.9739 6.43574 32.6458 5.93281 32.3435 5.41527C32.2485 5.25153 32.0931 5.12287 32.1622 4.8831C32.4291 4.74707 32.7216 4.67032 33.02 4.65796Z" fill="#58B3B5"/>
<path d="M37.997 43.2924C37.8157 43.4035 37.7351 43.2602 37.6602 43.1403C37.0404 42.1657 36.4234 41.191 35.8093 40.2164C35.7114 40.0614 35.6308 39.924 35.8986 39.8684C36.7794 39.9824 37.6257 40.2953 38.4893 40.4678C38.7426 40.5175 38.6217 40.7339 38.5929 40.8626C38.4115 41.6754 38.2072 42.4854 37.997 43.2924Z" fill="#E190AE"/>
<path d="M17.1188 8.96778C16.6208 8.53795 16.3934 7.91807 16.0365 7.38883C15.4233 6.48533 14.8563 5.55258 14.2806 4.62567C14.1908 4.45578 14.1148 4.27879 14.0532 4.09644C14.5943 4.26895 15.1787 4.28942 15.6911 4.57012C15.8494 5.15491 16.2668 5.61105 16.5719 6.12567C16.877 6.64029 17.1735 7.12275 17.5045 7.60228C17.4298 8.07139 17.3003 8.52979 17.1188 8.96778Z" fill="#E58DAD"/>
<path d="M17.0612 12.4035C17.1159 12.1929 17.185 12.0643 17.4556 12.1608C17.8041 12.2509 18.1472 12.3613 18.4833 12.4912C18.9381 13.3684 19.4936 14.1637 20.0146 14.9883C20.0961 15.0872 20.1594 15.2 20.2018 15.3216C20.1039 15.7368 20.0089 16.152 19.9139 16.5643C19.8678 16.769 19.7268 16.7982 19.5541 16.7631C18.8488 15.497 18.0342 14.2953 17.2512 13.0701C17.123 12.8725 17.0567 12.6401 17.0612 12.4035Z" fill="#DB94AE"/>
<path d="M46.4974 27.4473C46.0742 27.3538 45.9821 26.9415 45.7921 26.6491C44.9574 25.3713 44.1514 24.0731 43.3396 22.7807C43.2417 22.6228 43.0949 22.4883 43.1323 22.2573C43.2968 22.0364 43.4906 21.8396 43.7081 21.6725C43.8923 22.345 44.3615 22.8421 44.7098 23.4269C45.4409 24.6199 46.2153 25.7836 46.9723 26.959C46.8494 27.1537 46.6876 27.3201 46.4974 27.4473Z" fill="#58B4B5"/>
<path d="M34.56 29.3947C34.6263 29.6801 34.7596 29.9449 34.9486 30.1666C35.4812 31.0438 36.0396 31.8771 36.5894 32.7309C36.2857 32.8835 35.9586 32.9824 35.6222 33.0233C35.5742 33.052 35.5207 33.0701 35.4653 33.0763C35.4099 33.0825 35.3538 33.0768 35.3008 33.0594C35.2477 33.0419 35.1989 33.0133 35.1576 32.9754C35.1162 32.9374 35.0833 32.8909 35.0609 32.8391C34.5168 31.9619 33.9411 31.1023 33.4172 30.2075C33.328 30.0555 33.1553 29.88 33.4172 29.7104C33.7808 29.5486 34.1658 29.4422 34.56 29.3947Z" fill="#F581AC"/>
<path d="M32.1621 4.88306C33.1668 6.50002 34.1771 8.11698 35.1904 9.72224C35.3055 9.90353 35.4092 10.1813 35.72 10.1433C35.5073 10.2503 35.2771 10.3167 35.0407 10.3392C34.6636 10.5205 34.465 10.2602 34.3096 9.99417C33.7338 9.05265 33.138 8.13452 32.5565 7.20177C32.2312 6.6813 31.8916 6.16961 31.5893 5.63452C31.4914 5.45908 31.3015 5.29534 31.4828 5.06727C31.693 4.95556 31.9251 4.89265 32.1621 4.88306Z" fill="#5BB9B4"/>
<path d="M15.0146 20.5907C14.5339 19.6257 13.8977 18.7632 13.3306 17.8538C13.1752 17.6053 13.1176 17.2486 12.7089 17.2836C13.0754 17.126 13.4638 17.0273 13.8603 16.9912C13.9042 16.9628 13.9533 16.9438 14.0047 16.9352C14.056 16.9266 14.1086 16.9286 14.1591 16.9412C14.2097 16.9537 14.2572 16.9766 14.2989 17.0083C14.3405 17.04 14.3754 17.08 14.4014 17.1257C15.0319 18.1404 15.6968 19.1316 16.2984 20.1638C16.3243 20.2047 16.2984 20.2573 16.2668 20.2953C15.8678 20.4618 15.4449 20.5615 15.0146 20.5907Z" fill="#BAADB2"/>
<path d="M41.696 38.4094C41.2987 38.6696 40.8324 38.7018 40.392 38.848C40.1041 38.9445 40.1214 38.6521 40.0811 38.5234C39.8364 37.7456 39.6176 36.9591 39.3989 36.1842C39.2031 35.4912 39.016 34.7983 38.8232 34.1053C39.0506 33.8333 39.1715 34.1053 39.2492 34.2281C39.7731 35.1228 40.3661 35.9678 40.8986 36.8597C41.1001 37.193 41.316 37.5146 41.5117 37.8509C41.6182 38.0117 41.7794 38.1725 41.696 38.4094Z" fill="#FC7CAC"/>
<path d="M17.0612 12.4034C17.2519 12.8627 17.4985 13.2959 17.7953 13.6929C18.3307 14.5555 18.8891 15.4093 19.4245 16.2748C19.508 16.4151 19.6577 16.5672 19.5512 16.7631C19.082 16.5584 18.5437 16.576 18.1119 16.2982C17.6888 15.6227 17.2886 14.9327 16.831 14.2777C16.7464 14.1238 16.7009 13.951 16.6985 13.7748C16.8108 13.3186 16.9346 12.8654 17.0612 12.4034Z" fill="#D599AF"/>
<path d="M39.2204 13.38C40.2135 14.6841 40.9878 16.1373 41.8917 17.5028C41.962 17.6126 41.9915 17.7442 41.9752 17.8742C41.5815 17.8224 41.1951 17.7243 40.8237 17.5818C40.5205 17.2203 40.2543 16.8284 40.0293 16.4122C39.7069 15.9268 39.4219 15.4122 39.0793 14.9502C38.9956 14.8307 38.9423 14.6921 38.9239 14.5467L39.2204 13.38Z" fill="#55AEB6"/>
<path d="M32.0844 42.2222L34.1772 45.6432C33.3539 45.5029 32.5479 45.2807 31.7361 45.076C31.4771 45.0116 31.4253 44.9035 31.4915 44.6461C31.7016 43.8421 31.8887 43.0321 32.0844 42.2222Z" fill="#C3A6B1"/>
<path d="M24.1597 0.552606C24.3785 0.178337 24.6174 0.102315 24.8995 0.494128C25.0176 0.660794 25.2219 0.757285 25.2939 0.961964C26.0279 2.13155 26.7677 3.30114 27.4989 4.45611C27.6849 4.69821 27.828 4.97127 27.922 5.26313L27.4356 5.75729C27.3516 5.73182 27.274 5.68837 27.2079 5.62987C27.1419 5.57136 27.0889 5.49915 27.0527 5.4181C26.1488 3.97171 25.2402 2.52727 24.3267 1.08477C24.2317 0.923951 24.082 0.774829 24.1597 0.552606Z" fill="#99A2B1"/>
<path d="M29.2922 34.0994C29.3792 34.1148 29.4613 34.1509 29.5319 34.2048C29.6024 34.2586 29.6594 34.3287 29.6981 34.4093C30.3343 35.4152 30.9618 36.4298 31.5836 37.4415C31.7044 37.5962 31.7704 37.7878 31.7707 37.9853C31.362 37.8527 30.9432 37.7549 30.5185 37.6929C29.8785 36.9825 29.3669 36.1629 29.0073 35.2719L29.2922 34.0994Z" fill="#D09DAF"/>
<path d="M33.4057 29.7163C33.2877 30.0789 33.6015 30.2836 33.7396 30.5262C34.1916 31.3099 34.7097 32.0526 35.1789 32.8216C35.2235 32.8974 35.2899 32.9574 35.3692 32.9935C35.4485 33.0296 35.5369 33.04 35.6222 33.0233C35.1271 33.1812 34.6291 33.3303 34.1398 33.5029C33.9325 33.576 33.8519 33.5029 33.8058 33.3157C33.4921 32.228 33.21 31.1315 32.8818 30.0467C32.7753 29.6929 33.1841 29.7602 33.4057 29.7163Z" fill="#EF86AD"/>
<path d="M17.5045 7.60237C17.3059 7.60237 17.2512 7.4357 17.1677 7.30997C16.6899 6.55559 16.2063 5.80412 15.7285 5.04389C15.6479 4.90939 15.4867 4.75149 15.6853 4.57898C16.428 4.73395 17.1591 4.92985 17.8874 5.1433C18.1148 5.21056 18.1752 5.25734 18.1004 5.48541C17.896 6.18132 17.7032 6.89184 17.5045 7.60237Z" fill="#EC88AD"/>
<path d="M11.4768 6.92688C11.9748 7.71051 12.4757 8.49121 12.9622 9.28068C13.1406 9.57308 13.4112 9.83623 13.3795 10.228C12.6657 10.0292 11.9575 9.81284 11.2379 9.64325C10.8781 9.55846 10.7917 9.39179 10.8896 9.05846C11.0968 8.34501 11.284 7.63448 11.4768 6.92688Z" fill="#CBA1B0"/>
<path d="M42.5538 22.9415C42.6027 23.5263 43.0431 23.9064 43.3166 24.3684C44.0247 25.538 44.7846 26.7076 45.5273 27.8772C45.6022 27.9912 45.6569 28.1491 45.8382 28.1491L45.3546 28.6374C45.0437 28.6608 44.9602 28.386 44.848 28.1959C43.9844 26.7661 43.0575 25.3977 42.2083 23.9678C42.099 23.7807 41.9205 23.6082 42.0759 23.3538C42.1997 23.1667 42.3148 22.9766 42.5538 22.9415Z" fill="#68B6B4"/>
<path d="M32.5421 36.7368C32.3723 36.7368 32.3003 36.6169 32.2197 36.4883C31.7333 35.7105 31.2353 34.9386 30.7517 34.1491C30.6855 34.0438 30.4897 33.8567 30.8092 33.7982C31.4713 33.9444 32.1363 34.0906 32.7954 34.2368C32.9883 34.2807 33.1898 34.3392 33.1092 34.6082C32.902 35.3187 32.8156 36.0526 32.5421 36.7368Z" fill="#DC94AF"/>
<path d="M41.696 38.4093C41.0915 37.2894 40.3661 36.2455 39.7011 35.1666C39.5313 34.8917 39.373 34.611 39.206 34.3391C39.1197 34.1988 39.0765 33.9765 38.826 34.0935C38.7397 33.8011 38.6706 33.5087 38.5641 33.2163C38.4979 33.0379 38.5842 33.0233 38.7109 33.0116C38.9815 32.8742 39.1628 32.9941 39.3068 33.228C40.2596 34.766 41.2325 36.2894 42.1853 37.8216C42.2659 37.9502 42.3782 38.0906 42.2573 38.2631C42.0882 38.3663 41.8931 38.4171 41.696 38.4093Z" fill="#F27FAC"/>
<path d="M42.0759 23.342C42.1047 23.845 42.4904 24.1695 42.7121 24.5672C43.236 25.5029 43.8462 26.3888 44.4392 27.2777C44.7415 27.728 44.9142 28.266 45.346 28.6257C45.2489 28.7838 45.118 28.9177 44.9631 29.0175C44.7127 29.073 44.6234 28.8684 44.5256 28.7251C43.5958 27.2631 42.6459 25.7836 41.742 24.2894C41.6412 24.1257 41.5319 23.9502 41.6844 23.7543C41.7745 23.5825 41.9101 23.4397 42.0759 23.342Z" fill="#71B2B3"/>
<path d="M27.922 5.26309C27.6339 4.94399 27.3907 4.58579 27.1995 4.19876C26.5605 3.21338 25.9473 2.21046 25.3227 1.21631C25.2709 1.13443 25.1932 1.06426 25.2882 0.964844C26.4396 1.99116 27.4528 3.14028 28.5524 4.20753C28.7338 4.38297 28.7482 4.49993 28.5524 4.66367C28.3567 4.82741 28.1379 5.06133 27.922 5.26309Z" fill="#8EA7B2"/>
<path d="M38.9239 14.5496C39.6353 15.5065 40.2706 16.5194 40.8237 17.5788C40.0609 17.4735 39.3442 17.1811 38.5986 17.0174C38.4058 16.9735 38.3108 16.9063 38.3971 16.6168C38.6188 15.9443 38.7541 15.2396 38.9239 14.5496Z" fill="#59B5B5"/>
<path d="M42.3638 31.9649C42.5042 31.8686 42.6729 31.8242 42.8416 31.8391C43.0431 31.9093 43.1151 32.1023 43.2129 32.2631C44.0189 33.5584 44.8652 34.8304 45.6338 36.152C45.7115 36.5087 46.0311 36.8187 45.8296 37.228C45.5043 37.3742 45.3661 37.1315 45.2279 36.9151C44.5342 35.8479 43.8693 34.7602 43.187 33.6842C42.9308 33.2748 42.6459 32.883 42.4213 32.4532C42.3407 32.2982 42.2141 32.1637 42.3638 31.9649Z" fill="#B199AF"/>
<path d="M35.7258 23.2632C35.9042 22.9905 36.1306 22.7536 36.3936 22.5643C36.929 23.6053 37.6314 24.5439 38.2158 25.5556C38.3166 25.6803 38.3866 25.8276 38.4201 25.9854C38.2578 26.2082 38.0638 26.4053 37.8444 26.5702C37.6228 26.6257 37.5278 26.4503 37.4385 26.307C36.8945 25.4298 36.3533 24.5526 35.792 23.7018C35.6941 23.5731 35.5934 23.4328 35.7258 23.2632Z" fill="#BE94AF"/>
<path d="M35.7258 23.2632C36.0425 24.0293 36.5606 24.6667 36.9953 25.3568C37.2543 25.7749 37.4098 26.2749 37.8387 26.5702C37.6481 26.831 37.4223 27.0633 37.168 27.2603C36.9918 27.1796 36.852 27.0345 36.7765 26.8538C36.2526 25.9766 35.7143 25.0994 35.1386 24.2486C35.0946 24.182 35.0633 24.1076 35.0465 24.0293C35.2998 23.7983 35.4207 23.4445 35.7258 23.2632Z" fill="#CE8EAE"/>
<path d="M24.7556 8.47948C24.6088 8.73094 24.4447 8.71632 24.2634 8.52041C23.9122 8.14809 23.5591 7.77772 23.2041 7.4093C22.5852 6.33035 21.8914 5.30111 21.2466 4.23971C21.143 4.07012 20.9588 3.91807 21.0826 3.67538L21.4712 3.28357C21.5687 3.34021 21.6477 3.42456 21.6986 3.52626C22.683 5.03211 23.6272 6.56135 24.5771 8.08181C24.6687 8.19695 24.7301 8.33375 24.7556 8.47948Z" fill="#E286AD"/>
<path d="M20.2017 15.3216C19.626 14.8509 19.4044 14.1286 18.9668 13.5672C18.8151 13.3605 18.6803 13.1414 18.5638 12.9123C18.4947 12.7865 18.3105 12.6725 18.4832 12.4971C19.1988 12.641 19.906 12.8245 20.6018 13.0468C20.7774 13.0936 20.8177 13.2193 20.7688 13.383C20.5827 14.0283 20.3936 14.6745 20.2017 15.3216Z" fill="#E190AE"/>
<path d="M42.3638 31.9649C42.3407 32.2573 42.548 32.4473 42.6775 32.6578C43.5584 34.0789 44.4622 35.4853 45.3575 36.8976C45.4726 37.076 45.5676 37.2719 45.8296 37.228C45.6203 37.3384 45.3911 37.404 45.156 37.421C44.9257 37.4678 44.8537 37.2719 44.7645 37.1286C43.8059 35.6666 42.9021 34.1754 41.9579 32.7046C41.8485 32.5321 41.719 32.345 41.8802 32.1198C41.9438 32.0582 42.0204 32.0122 42.1043 31.9853C42.1881 31.9585 42.2769 31.9515 42.3638 31.9649Z" fill="#BB95AF"/>
<path d="M26.7706 6.43284L26.4827 6.72524C26.2122 6.77787 26.1258 6.5498 26.0193 6.38313C25.0924 4.9153 24.1645 3.44648 23.2357 1.9767C23.1816 1.91638 23.1483 1.83973 23.1411 1.75843C23.1338 1.67714 23.1529 1.59566 23.1954 1.52641L23.4833 1.23401C23.5747 1.26359 23.6589 1.3125 23.7303 1.37751C23.8018 1.44252 23.8588 1.52217 23.8978 1.6112C24.8161 3.07319 25.7458 4.51763 26.6468 5.99716C26.7332 6.14044 26.8368 6.26032 26.7706 6.43284Z" fill="#B199AF"/>
<path d="M41.6931 23.7427C41.6614 24.1052 41.9234 24.345 42.0846 24.6199C42.9481 25.9971 43.8117 27.3567 44.6753 28.7134C44.7423 28.8364 44.842 28.9378 44.9631 29.0058C44.894 29.1345 44.8163 29.2339 44.6753 29.0702C44.1888 28.4561 43.5238 28.0263 43.0201 27.4357C42.4962 26.4941 41.9176 25.5906 41.3275 24.693C41.2527 24.5789 41.1231 24.4766 41.1864 24.307C41.267 24.038 41.4887 23.8976 41.6931 23.7427Z" fill="#7AAFB3"/>
<path d="M22.1361 2.60519L22.5218 2.21338C22.8586 2.48531 22.9939 2.90636 23.2242 3.25139C24.0878 4.55841 24.9082 5.90344 25.7516 7.228C25.7852 7.28376 25.8049 7.34698 25.8092 7.41221L25.4234 7.80402C25.2104 7.85666 25.15 7.67829 25.0694 7.54964C24.1252 6.06426 23.1983 4.5701 22.2484 3.09057C22.1649 2.9473 22.0152 2.80402 22.1361 2.60519Z" fill="#C98FAE"/>
<path d="M42.2659 38.2747C42.0903 37.728 41.6902 37.304 41.4023 36.8128C40.7028 35.6432 39.963 34.4911 39.2261 33.3332C39.1024 33.1344 38.9699 32.9531 38.6965 33.0145C38.9061 32.9054 39.1351 32.8398 39.3701 32.8215C39.5572 32.7016 39.6378 32.8566 39.7069 32.9706C40.7115 34.6139 41.7823 36.2133 42.7754 37.8625C42.8171 37.9327 42.8352 38.0148 42.8272 38.0964C42.6559 38.1984 42.4639 38.2594 42.2659 38.2747Z" fill="#E983AC"/>
<path d="M44.7645 37.5175C44.6003 37.6462 44.3959 37.7106 44.1888 37.6988C43.7771 37.4883 43.6131 37.0702 43.3857 36.7017C42.548 35.2398 41.5607 33.8947 40.7316 32.4386C40.9379 32.323 41.1671 32.256 41.4023 32.2427C41.8456 32.7222 42.1133 33.3187 42.4674 33.8596C43.2533 35.0643 44.0132 36.2895 44.7645 37.5175Z" fill="#CA8FAE"/>
<path d="M34.0764 16.6959C34.4433 16.7415 34.8019 16.84 35.1415 16.9883C35.4725 17.7953 36.0338 18.4649 36.4598 19.2164C36.5728 19.4083 36.6691 19.6099 36.7477 19.8187C36.6965 20.1214 36.6075 20.4162 36.4829 20.6959C36.2526 20.7456 36.195 20.5468 36.0914 20.4035C35.3631 19.3246 34.7097 18.1959 34.0015 17.1053C33.9382 17.0117 33.6216 16.7632 34.0764 16.6959Z" fill="#9FA0B1"/>
<path d="M23.1954 1.52917C23.1609 1.88298 23.4545 2.08181 23.6042 2.33034C24.4447 3.70754 25.3313 5.06134 26.1805 6.42391C26.2514 6.54893 26.3564 6.65047 26.4827 6.71631L26.097 7.10812C25.8639 7.14028 25.8092 6.93268 25.7228 6.79818C24.7441 5.33619 23.8575 3.82157 22.8961 2.35081C22.8097 2.22216 22.6974 2.08473 22.8126 1.90929L23.1954 1.52917Z" fill="#BA95AF"/>
<path d="M31.4828 5.06726C31.4684 5.42983 31.7476 5.65206 31.9117 5.91229C32.7753 7.30995 33.659 8.69007 34.5226 10.0877C34.5722 10.1794 34.6488 10.253 34.7418 10.2982C34.8348 10.3433 34.9393 10.3576 35.0407 10.3392C34.803 10.459 34.5431 10.5268 34.2779 10.538C34.0332 10.5731 34.0131 10.3392 33.9267 10.2105C33.0113 8.8158 32.1506 7.3889 31.2496 5.98539C31.1863 5.8889 31.146 5.78071 31.0309 5.73685C30.8006 5.24562 31.0194 5.07018 31.4828 5.06726Z" fill="#63B7B4"/>
<path d="M26.0942 38.2134C25.6764 37.4382 25.2131 36.6893 24.7067 35.9707C24.4793 35.6286 24.3641 35.1988 23.9727 34.9795C24.1396 34.6871 24.3008 34.6695 24.5484 34.9239C25.2479 35.6344 25.9618 36.3303 26.6958 37.0029C26.9836 37.2602 26.952 37.4268 26.6814 37.6491C26.4828 37.8216 26.2899 38.0116 26.0942 38.2134Z" fill="#B9AEB2"/>
<path d="M43.7167 37.8216C43.5714 37.9187 43.4038 37.9761 43.2302 37.9882C42.7946 37.4695 42.409 36.9094 42.0788 36.3157C41.316 35.114 40.5992 33.88 39.7587 32.728C39.9623 32.6024 40.1942 32.5319 40.4323 32.5233C40.8007 32.8157 40.9677 33.2397 41.2095 33.614C41.9838 34.8216 42.738 36.0467 43.5123 37.2543C43.6246 37.4268 43.8031 37.5789 43.7167 37.8216Z" fill="#DA89AD"/>
<path d="M24.7556 8.47959C24.1799 7.79538 23.7798 6.97959 23.2789 6.2369C22.7032 5.3597 22.1649 4.48251 21.6036 3.58777C21.5324 3.50543 21.4864 3.40383 21.4712 3.29538L21.854 2.90356C22.9162 4.53514 23.9381 6.19011 24.9686 7.83631C25.0091 7.88374 25.0371 7.94073 25.0502 8.00204C25.0633 8.06335 25.0609 8.12702 25.0435 8.18719L24.7556 8.47959Z" fill="#D989AD"/>
<path d="M39.7615 32.7281C39.989 32.7281 40.0782 32.9153 40.1818 33.082L43.1928 37.848C43.2113 37.8929 43.2239 37.9401 43.2302 37.9884C43.1175 38.071 42.9804 38.1122 42.8416 38.1053C41.7823 36.4445 40.7268 34.7876 39.6752 33.1346C39.6003 33.0176 39.5773 32.8422 39.3873 32.8422C39.4881 32.7048 39.632 32.7486 39.7615 32.7281Z" fill="#E286AD"/>
<path d="M24.1598 0.552612L27.4413 5.75436L27.1535 6.04676C26.9059 6.09939 26.8109 5.89764 26.7159 5.75436C26.0682 4.69004 25.3515 3.66665 24.7297 2.58477C24.5138 2.20466 24.2202 1.87425 24.0129 1.48828C23.9093 1.2953 23.7251 1.11402 23.869 0.859631L24.1598 0.552612Z" fill="#A29FB0"/>
<path d="M25.0435 8.18719C24.2317 6.8831 23.4084 5.58778 22.6082 4.27784C22.3376 3.83047 21.9692 3.42696 21.8569 2.88603C21.9548 2.78953 22.0498 2.69304 22.1447 2.59363C22.3434 3.14918 22.7377 3.58193 23.0313 4.07608C23.7567 5.29246 24.5282 6.47959 25.2853 7.67258C25.3169 7.72521 25.3831 7.75152 25.4321 7.79246L25.0435 8.18719Z" fill="#D18CAE"/>
<path d="M48.2476 25.5965C47.574 24.8392 47.1393 23.9152 46.5722 23.0819C46.3909 22.8187 46.2355 22.538 46.0599 22.269C45.9793 22.1462 45.8612 22.041 45.9965 21.886C46.9752 22.7193 47.8158 23.7018 48.7484 24.5848C48.9845 24.807 48.9758 24.9445 48.7484 25.1345C48.5642 25.2749 48.4116 25.4386 48.2476 25.5965Z" fill="#4DA0B7"/>
<path d="M32.0585 16.0088C31.8203 16.1329 31.5576 16.2009 31.29 16.2076C30.5772 15.2156 29.9152 14.1869 29.3066 13.1257C29.2404 13.0175 29.18 12.886 29.3584 12.807C29.5721 12.7036 29.8021 12.6393 30.0378 12.6169C30.7229 13.6364 31.3811 14.6754 32.0125 15.7339C32.0444 15.7709 32.0657 15.8162 32.0738 15.8647C32.0819 15.9132 32.0766 15.9631 32.0585 16.0088Z" fill="#BE94AF"/>
<path d="M16.2668 20.2923C15.6431 19.2962 15.0194 18.3001 14.3957 17.304C14.269 17.1052 14.1337 16.9298 13.8603 16.9882C14.2742 16.8349 14.6985 16.7118 15.1297 16.6198C15.1665 16.6029 15.2067 16.5951 15.2471 16.5971C15.2874 16.5992 15.3267 16.611 15.3616 16.6316C15.3966 16.6522 15.4261 16.681 15.4479 16.7156C15.4696 16.7501 15.4829 16.7895 15.4867 16.8303C15.7745 17.9327 16.0624 19.035 16.3502 20.1374C16.3551 20.1531 16.3567 20.1697 16.3551 20.1861C16.3535 20.2025 16.3487 20.2184 16.3409 20.2328C16.3331 20.2473 16.3225 20.26 16.3098 20.2702C16.297 20.2805 16.2824 20.288 16.2668 20.2923Z" fill="#BFA9B2"/>
<path d="M43.7167 37.8216C43.0143 36.7018 42.3091 35.5848 41.6125 34.4649C41.2123 33.8216 40.8266 33.1696 40.4351 32.5234C40.5071 32.4064 40.6309 32.4561 40.723 32.4386C40.8957 32.4386 40.9705 32.5556 41.0396 32.6901C41.7593 34.0731 42.7437 35.2895 43.4807 36.6608C43.6793 37.0263 43.947 37.3538 44.1801 37.6988C44.0409 37.7852 43.8797 37.8279 43.7167 37.8216Z" fill="#D28CAE"/>
<path d="M34.0764 16.6959C33.8634 16.7193 33.9613 16.8509 34.0131 16.9327C34.8076 18.1754 35.6107 19.4152 36.4109 20.655C36.4109 20.6784 36.4656 20.6871 36.4915 20.7047C36.5117 21.1287 36.385 21.3743 35.9158 21.1754C35.199 19.9474 34.4276 18.7515 33.6561 17.5585C33.5352 17.3743 33.5813 17.1871 33.5381 17C33.6101 16.7076 33.6936 16.4269 34.0764 16.6959Z" fill="#A99CB0"/>
<path d="M44.7645 37.5176C44.4766 37.4357 44.4075 37.1608 44.2751 36.9532C43.3655 35.5234 42.4645 34.0819 41.5664 32.6433C41.5007 32.5147 41.4458 32.3807 41.4023 32.2427C41.5376 32.0965 41.719 32.1667 41.8802 32.1316C41.9349 32.7515 42.4012 33.155 42.689 33.6433C43.4087 34.8597 44.1974 36.0322 44.9631 37.2193C45.0206 37.2929 45.0852 37.3605 45.156 37.4211C45.0495 37.5526 44.9055 37.5059 44.7645 37.5176Z" fill="#C292AF"/>
<path d="M22.8126 1.92102C22.9968 2.44441 23.3653 2.85669 23.6531 3.31576C24.4562 4.59061 25.196 5.90932 26.097 7.11693L25.8092 7.40932C25.5009 7.06414 25.2351 6.6822 25.0176 6.2719C24.3325 5.18418 23.6215 4.11108 22.9249 3.02921C22.751 2.77831 22.6151 2.50234 22.5219 2.21049L22.8126 1.92102Z" fill="#C192AF"/>
<path d="M21.0768 3.68127C21.6065 4.70759 22.2801 5.64326 22.8759 6.62572C23.0596 6.84963 23.1721 7.12494 23.1983 7.41519C22.2858 6.50291 21.3791 5.58478 20.4608 4.67835C20.2852 4.50584 20.3226 4.38595 20.4838 4.2456C20.6882 4.06432 20.8811 3.87133 21.0768 3.68127Z" fill="#EB82AD"/>
<path d="M23.8719 0.845093C24.0561 1.59363 24.6203 2.1141 24.9801 2.7603C25.5559 3.76907 26.2122 4.71936 26.8339 5.6989C26.9058 5.84348 27.0179 5.96345 27.1563 6.04392L26.7706 6.43281C25.7171 4.67843 24.6318 2.92404 23.489 1.23106L23.8719 0.845093Z" fill="#A99CB0"/>
<path d="M38.4201 25.9854C38.0286 25.6608 37.8761 25.1667 37.5911 24.769C37.2169 24.2515 36.9002 23.693 36.5519 23.155C36.4324 22.9854 36.3763 22.778 36.3936 22.5702C36.5433 22.3041 36.7362 22.3129 36.929 22.5059C37.073 22.6521 37.2543 22.7632 37.332 22.9678C37.7753 23.6316 38.1956 24.3158 38.6303 24.9854C38.7592 25.13 38.8486 25.3064 38.8893 25.4971C38.7646 25.6884 38.6054 25.854 38.4201 25.9854Z" fill="#B299B0"/>
<path d="M29.3613 12.8069C29.3469 13.2279 29.6751 13.4852 29.8593 13.804C30.2422 14.4765 30.6826 15.1168 31.1028 15.7689C31.2034 15.8953 31.269 16.0467 31.2928 16.2075C31.1246 16.3272 30.9224 16.3878 30.7171 16.38C30.5654 16.2882 30.4395 16.1583 30.3515 16.0028C29.7499 15.1256 29.2347 14.1812 28.6503 13.2893C28.6207 13.2505 28.6012 13.2046 28.5937 13.1561C28.5861 13.1075 28.5908 13.0578 28.6071 13.0116C28.8448 12.899 29.1001 12.8297 29.3613 12.8069Z" fill="#CA8FAE"/>
<path d="M31.0309 5.73673C31.3188 5.60515 31.3188 5.89463 31.3907 6.00866C32.3608 7.51159 33.3165 9.0262 34.2693 10.5379C34.1944 10.649 34.0764 10.6168 33.9814 10.6315C33.6302 10.7894 33.5381 10.4999 33.4057 10.2835C32.8617 9.30983 32.2082 8.40925 31.6383 7.45311C31.5763 7.35994 31.4994 7.27791 31.4109 7.21042C31.29 6.71919 31.1633 6.22796 31.0309 5.73673Z" fill="#6AB5B3"/>
<path d="M35.0465 24.0293C35.2998 24.0468 35.2969 24.3071 35.3919 24.4474C36.0022 25.3743 36.5779 26.3217 37.168 27.2603C36.7304 27.7837 36.7304 27.7837 36.3044 27.2603C35.8525 26.465 35.3401 25.7077 34.8651 24.9211C34.7701 24.7632 34.6032 24.6287 34.6665 24.4036L35.0465 24.0293Z" fill="#DA89AD"/>
<path d="M32.0585 16.0087C31.4166 14.9824 30.7776 13.9619 30.1328 12.9327C30.0688 12.8404 30.0355 12.7297 30.0378 12.6169C30.1814 12.5231 30.351 12.479 30.5214 12.4911C30.6912 12.4414 30.7488 12.5847 30.8092 12.6841C31.4425 13.6783 32.0672 14.6783 32.6976 15.6753C32.7205 15.7185 32.7324 15.7667 32.7321 15.8157C32.5229 15.926 32.2937 15.9917 32.0585 16.0087Z" fill="#B299AF"/>
<path d="M26.1949 13.6696C25.5559 12.6638 24.9159 11.6579 24.2749 10.6521C24.2174 10.5766 24.1528 10.5071 24.082 10.4445C24.3152 10.2924 24.4131 9.61406 24.842 10.2456C25.4177 11.0848 25.9733 11.9532 26.4885 12.8421C26.5634 12.9737 26.7044 13.0965 26.5778 13.2749C26.4791 13.4325 26.3486 13.5671 26.1949 13.6696Z" fill="#F280AC"/>
<path d="M33.5353 17C33.6705 17.5146 34.0448 17.8772 34.3009 18.3275C34.7471 19.0936 35.2422 19.8304 35.7057 20.5877C35.8373 20.7535 35.9103 20.9595 35.9129 21.1725L35.1386 20.9035C34.5629 20.0439 34.0822 19.1053 33.4345 18.2895C33.3078 18.1287 33.3971 17.9444 33.3395 17.7778L33.5353 17Z" fill="#B299B0"/>
<path d="M16.6957 13.7748C17.1044 14.4385 17.5074 15.1052 17.919 15.766C18.0376 15.9177 18.1043 16.1045 18.109 16.2982C17.5016 16.2836 16.9576 15.9736 16.3646 15.883C16.1775 15.8537 16.1919 15.6666 16.2437 15.4882C16.4078 14.9122 16.5345 14.3479 16.6957 13.7748Z" fill="#D09DB0"/>
<path d="M45.6338 36.1521C45.3836 35.9527 45.1858 35.6935 45.0581 35.3977C44.3126 34.2281 43.5814 33.0263 42.8474 31.8392C42.9878 31.733 43.1587 31.6765 43.3338 31.6784C43.9096 32.3772 44.3241 33.2047 44.8365 33.9591C44.9516 34.1316 45.0322 34.3246 45.1617 34.4883C45.3733 35.0255 45.5314 35.5829 45.6338 36.1521Z" fill="#AA9CB1"/>
<path d="M41.2066 24.3186C41.8129 25.164 42.3732 26.0425 42.8848 26.9502C42.9886 27.0953 43.0432 27.2708 43.0403 27.4502C42.2515 26.7367 41.5261 25.959 40.7863 25.1987C40.6194 25.0262 40.5302 24.9063 40.7863 24.7338C40.9418 24.6198 40.9418 24.3274 41.2066 24.3186Z" fill="#84ABB3"/>
<path d="M29.0072 35.2808L30.5185 37.7018L28.9669 37.3042C28.6589 37.2252 28.5265 37.0761 28.6445 36.7194C28.7856 36.2574 28.8892 35.7603 29.0072 35.2808Z" fill="#C9A2B1"/>
<path d="M45.156 34.5029C45.1128 34.5029 45.0437 34.5029 45.0236 34.4619C44.4479 33.5438 43.7915 32.6783 43.3281 31.6929C44.2751 31.3011 44.2867 31.2982 44.5572 32.2368C44.7731 32.9736 44.9574 33.7339 45.156 34.5029Z" fill="#A1A0B1"/>
<path d="M31.4224 7.21048C31.6642 7.17831 31.7534 7.36252 31.8484 7.52919C32.3953 8.49118 33.0804 9.36545 33.5755 10.3537C33.6533 10.5087 33.754 10.6725 33.9757 10.6461C33.872 10.7631 33.7252 10.728 33.5957 10.7456C33.2531 10.9005 33.0689 10.7017 32.8991 10.4356C32.5824 9.93562 32.3234 9.38884 31.8945 8.97363L31.4224 7.21048Z" fill="#73B2B3"/>
<path d="M28.6014 13.0117C29.3181 14.0527 29.8737 15.1989 30.648 16.2018C30.6785 16.2573 30.6999 16.3176 30.7113 16.3801C30.5683 16.4727 30.3997 16.5158 30.2306 16.5029C29.9428 16.4152 29.8794 16.1491 29.7355 15.9415C29.3296 15.3567 29.0389 14.6696 28.5179 14.1521C28.4517 13.8918 28.3912 13.6287 28.3135 13.3714C28.2358 13.1141 28.3365 12.9912 28.6014 13.0117Z" fill="#D38CAE"/>
<path d="M32.735 15.8158C32.0672 15.0468 31.6239 14.1257 31.0568 13.2895L30.5127 12.4912C30.6891 12.3902 30.8862 12.3321 31.0885 12.3217C31.6267 13.0263 32.0326 13.8158 32.5277 14.5439C32.6688 14.8973 32.7805 15.2621 32.8617 15.6345C32.9192 15.7895 32.8415 15.8041 32.735 15.8158Z" fill="#AA9CB1"/>
<path d="M36.7563 19.8187C36.1029 18.9941 35.6337 18.0497 35.0494 17.1871C34.9803 17.0848 35.0004 17.0058 35.1415 16.9971C35.4095 16.9984 35.6732 17.0656 35.9101 17.193C36.2555 17.8129 36.7736 18.3333 36.9521 19.0439C36.9348 19.2982 36.7333 19.5351 36.7563 19.8187Z" fill="#92A5B1"/>
<path d="M33.3395 17.7806C33.6734 18.5087 34.2031 19.1081 34.5888 19.807C34.7845 20.1666 35.0983 20.4678 35.1386 20.9064C34.8725 20.8912 34.6117 20.8247 34.37 20.7105C33.9296 20.0146 33.3625 19.3888 33.1438 18.5613L33.3395 17.7806Z" fill="#BB95B0"/>
<path d="M34.655 24.4093L36.1432 26.766C36.2502 26.9081 36.3033 27.0845 36.2929 27.2631C35.6337 26.6374 34.9831 25.9999 34.3096 25.3888C34.0419 25.1461 33.9843 24.9619 34.3096 24.7309C34.43 24.6298 34.5453 24.5224 34.655 24.4093Z" fill="#E386AD"/>
<path d="M28.5179 14.152C28.8058 14.1812 28.9353 14.421 29.0677 14.6344C29.4592 15.2543 29.8449 15.8801 30.2191 16.5029C30.2191 16.5029 30.2019 16.535 30.1875 16.5379C28.967 16.8888 29.3239 17.0058 28.9814 15.8976C28.8202 15.3216 28.6762 14.7338 28.5179 14.152Z" fill="#DC89AE"/>
<path d="M26.572 13.2748C26.1437 12.4711 25.6748 11.6903 25.1673 10.9357C25.0151 10.7289 24.9027 10.4948 24.8362 10.2456C25.5789 10.9854 26.3187 11.7281 27.0671 12.462C27.2024 12.5965 27.2082 12.693 27.0671 12.8158C26.9261 12.9386 26.7361 13.1228 26.572 13.2748Z" fill="#E884AD"/>
<path d="M33.1438 18.5614C33.3827 18.9532 33.6101 19.3567 33.8663 19.731C34.0817 20.0278 34.2515 20.3561 34.37 20.7047L32.9826 20.4123C32.7177 20.3538 32.7264 20.155 32.7753 19.9591C32.8904 19.4883 33.02 19.0263 33.1438 18.5614Z" fill="#C691AF"/>
<path d="M32.5421 14.5439C32.2341 14.4679 32.1507 14.1696 32.0269 13.9591C31.739 13.4123 31.2698 12.9562 31.0971 12.3334C31.8743 12.0176 31.8772 12.0176 32.0988 12.7953C32.2891 13.3662 32.4373 13.9507 32.5421 14.5439Z" fill="#A29FB1"/>
<path d="M38.8894 25.4912C38.2984 24.7147 37.7635 23.8958 37.2889 23.0409C37.2889 23.0409 37.3177 22.9882 37.3321 22.9619C37.9078 23.4385 38.423 24.0029 38.9613 24.535C39.4363 25.0204 39.4363 25.0233 38.8894 25.4912Z" fill="#AA9DB1"/>
<path d="M36.9521 19.0351C36.6268 18.5176 36.2987 18.0029 35.9763 17.4825C35.9244 17.3977 35.8064 17.3129 35.9101 17.1901C36.3908 17.2924 37.0874 17.2135 37.263 17.6316C37.4213 17.9825 37.0759 18.5556 36.9521 19.0351Z" fill="#89AAB3"/>
<path d="M31.9002 8.9619C32.1219 8.85079 32.1881 9.04962 32.2543 9.17243C32.5278 9.59348 32.807 10.0087 33.0545 10.4414C33.1 10.5456 33.1787 10.6312 33.2779 10.6843C33.3772 10.7373 33.4912 10.7548 33.6015 10.7338C33.5784 10.7543 33.5583 10.7865 33.5295 10.7952C32.4356 11.1052 32.4385 11.1052 32.1708 9.97068C32.0902 9.6315 31.9895 9.29816 31.9002 8.9619Z" fill="#7CAFB3"/>
<path d="M36.9579 30.5789C36.4714 30.2865 36.3131 29.7222 36.0022 29.2894C35.936 29.1988 35.8784 29.1052 35.8151 29.0146C36.4829 28.7222 36.5174 28.7222 36.6786 29.4122C36.8175 29.7883 36.9113 30.18 36.9579 30.5789Z" fill="#F481AD"/>
<path d="M12.6081 20.994C12.6945 21.073 12.7376 21.2192 12.896 21.2045C12.6139 21.3858 12.611 21.1899 12.6081 20.994Z" fill="#FCFCFC"/>
</svg>
