<svg width="339" height="238" viewBox="0 0 339 238" fill="none" xmlns="http://www.w3.org/2000/svg">
<path d="M325.737 0.013916C325.919 0.432365 326.114 0.850815 326.365 1.43664C279.771 27.4084 233.178 53.3802 186.584 79.3519C186.612 79.4356 186.64 79.5193 186.654 79.603C186.863 79.6309 187.058 79.6867 187.267 79.6727C190.531 79.3519 193.766 79.7006 196.96 80.3283C205.034 81.9044 214.085 89.7434 214.309 101.195C214.42 107.011 212.705 112.256 209.943 117.249C207.838 121.043 205.202 124.461 202.245 127.627C195.732 134.601 188.16 140.264 180.169 145.397C177.784 146.931 175.385 148.424 172.959 149.889C171.857 150.544 170.644 151.018 169.528 151.66C168.496 152.246 167.52 152.943 166.502 153.557C165.093 154.408 163.643 155.175 162.276 156.068C158.566 158.453 155.177 161.27 152.235 164.548C147.158 170.169 144.286 176.683 144.816 184.425C145.136 189.223 146.489 193.742 148.804 197.954C150.617 201.26 152.667 204.44 155.038 207.383C156.112 208.709 157.144 210.075 158.287 211.345C161.16 214.567 164.228 217.594 167.436 220.495C173.335 225.823 179.708 230.51 186.305 234.917C187.142 235.475 188.006 235.977 188.955 236.563C188.55 237.135 188.23 237.582 187.909 238.042C187.1 237.568 186.347 237.121 185.58 236.689C183.334 235.155 181.131 233.55 178.844 232.114C177.812 231.472 176.599 231.137 175.469 230.663C175.302 230.593 175.134 230.51 174.953 230.44C174.283 230.147 173.614 229.84 172.959 229.547C172.791 229.478 172.624 229.394 172.443 229.324C171.132 228.752 169.807 228.166 168.496 227.595C168.329 227.525 168.161 227.455 167.98 227.371C167.506 227.162 167.018 226.953 166.543 226.758C166.376 226.688 166.195 226.618 166.027 226.534C165.539 226.325 165.065 226.13 164.577 225.921C164.41 225.851 164.242 225.767 164.075 225.698C163.587 225.488 163.113 225.279 162.625 225.084C162.457 225.014 162.29 224.944 162.123 224.861C161.634 224.651 161.16 224.442 160.672 224.247C160.505 224.177 160.337 224.107 160.17 224.024C159.696 223.815 159.222 223.605 158.734 223.396C158.552 223.326 158.385 223.243 158.204 223.173C157.73 222.964 157.255 222.768 156.781 222.559C156.6 222.489 156.433 222.406 156.251 222.336C155.582 222.043 154.912 221.75 154.243 221.443C154.076 221.374 153.908 221.304 153.741 221.234C153.253 221.025 152.779 220.816 152.291 220.62C152.123 220.551 151.956 220.481 151.789 220.397C151.314 220.188 150.84 219.979 150.366 219.77C150.185 219.7 150.017 219.63 149.836 219.546C149.362 219.337 148.888 219.128 148.414 218.933C148.232 218.863 148.065 218.779 147.884 218.709C146.573 218.138 145.248 217.552 143.937 216.98C143.77 216.91 143.588 216.826 143.421 216.757C142.291 216.269 141.176 215.794 140.046 215.306C139.865 215.236 139.697 215.153 139.516 215.083C138.847 214.79 138.177 214.497 137.508 214.19C137.34 214.12 137.173 214.051 137.006 213.981C136.713 213.869 136.42 213.744 136.141 213.632C135.96 213.563 135.792 213.479 135.611 213.409C134.942 213.116 134.286 212.809 133.617 212.516C133.45 212.447 133.268 212.377 133.101 212.293C131.134 211.442 129.168 210.578 127.202 209.727C127.034 209.657 126.853 209.573 126.686 209.504C126.212 209.294 125.723 209.099 125.249 208.89C125.082 208.82 124.901 208.736 124.733 208.667C123.422 208.095 122.097 207.509 120.787 206.937C120.619 206.867 120.452 206.798 120.284 206.714C119.81 206.505 119.322 206.295 118.848 206.1C118.681 206.03 118.499 205.947 118.332 205.877C117.858 205.668 117.384 205.459 116.91 205.263C116.728 205.194 116.561 205.124 116.38 205.04C115.71 204.747 115.041 204.44 114.385 204.147C114.218 204.078 114.051 204.008 113.883 203.924C113.409 203.715 112.921 203.506 112.447 203.311C112.279 203.241 112.112 203.157 111.931 203.087C111.457 202.878 110.969 202.683 110.494 202.474C110.327 202.404 110.146 202.32 109.978 202.25C108.012 201.4 106.046 200.535 104.079 199.684C103.912 199.614 103.731 199.544 103.563 199.461C103.089 199.252 102.615 199.042 102.127 198.847C101.959 198.777 101.778 198.694 101.611 198.624C100.286 198.052 98.975 197.466 97.6501 196.894C97.4827 196.825 97.3154 196.755 97.148 196.671C95.1816 195.82 93.2152 194.955 91.2488 194.105C91.0815 194.035 90.9002 193.965 90.7328 193.881C90.2587 193.672 89.7706 193.463 89.2964 193.268C89.1291 193.198 88.9478 193.114 88.7804 193.045C88.3062 192.835 87.8321 192.64 87.3579 192.431C87.1766 192.361 87.0093 192.277 86.828 192.208C86.3538 191.998 85.8796 191.803 85.3915 191.594C85.2242 191.524 85.0429 191.441 84.8755 191.371C83.5646 190.799 82.2537 190.213 80.9288 189.641C80.7614 189.571 80.5801 189.488 80.4128 189.418C79.9386 189.209 79.4645 189.014 78.9763 188.804C78.809 188.735 78.6277 188.651 78.4603 188.581C77.1355 188.009 75.8245 187.437 74.4997 186.852C74.3323 186.782 74.165 186.712 73.9976 186.628C73.5235 186.419 73.0353 186.21 72.5612 186.001C72.3938 185.931 72.2125 185.847 72.0452 185.778C71.571 185.568 71.0968 185.359 70.6227 185.164C70.4414 185.094 70.274 185.01 70.0927 184.941C69.4233 184.648 68.7679 184.341 68.0984 184.048C67.9311 183.978 67.7637 183.894 67.5825 183.825C66.4528 183.337 65.3232 182.848 64.2075 182.374C64.0262 182.304 63.8589 182.221 63.6776 182.151C61.7112 181.3 59.7448 180.435 57.7923 179.584C57.625 179.515 57.4437 179.445 57.2763 179.361C55.3099 178.51 53.3436 177.646 51.3772 176.795C51.2098 176.725 51.0425 176.641 50.8612 176.572C49.7315 176.083 48.6159 175.595 47.4862 175.121C47.3049 175.051 47.1376 174.968 46.9563 174.898C44.9899 174.047 43.0235 173.182 41.0711 172.331C40.9037 172.262 40.7224 172.178 40.555 172.108C40.0809 171.899 39.6067 171.704 39.1186 171.494C38.9513 171.425 38.77 171.341 38.6026 171.271C37.2917 170.699 35.9808 170.114 34.6698 169.542C34.4885 169.472 34.3212 169.388 34.1399 169.318C33.4705 169.026 32.815 168.719 32.1456 168.426C31.9782 168.356 31.8109 168.286 31.6296 168.203C29.6632 167.352 27.6829 166.487 25.7165 165.636C25.5491 165.566 25.3818 165.483 25.2144 165.413C24.9355 165.301 24.6426 165.176 24.3637 165.064C24.1824 164.995 24.0011 164.911 23.8198 164.841C23.1644 164.534 22.5089 164.241 21.8534 163.934C21.6721 163.851 21.4908 163.781 21.3095 163.697C20.6541 163.404 19.9847 163.112 19.3292 162.833C19.1619 162.749 18.9806 162.679 18.8132 162.595C18.339 162.386 17.8649 162.191 17.3907 161.982C17.2094 161.898 17.0281 161.814 16.8608 161.731L16.805 161.717C16.6376 161.633 16.4703 161.563 16.3029 161.48C16.024 161.368 15.7311 161.256 15.4522 161.145C15.2709 161.061 15.0896 160.991 14.9083 160.908C14.6433 160.796 14.3644 160.684 14.0994 160.573C13.3464 160.21 12.5933 159.848 11.8402 159.485C12.3283 158.997 12.7746 158.467 13.3045 158.048C18.2833 154.045 23.2899 150.07 28.3941 145.997C28.0455 145.746 27.7387 145.481 27.404 145.313C21.3235 142.105 15.508 138.465 9.91564 134.462C9.84591 134.406 9.74828 134.406 9.65066 134.378C9.24623 133.946 8.82785 133.987 8.42341 134.378C7.14038 135.061 5.8434 135.731 4.56036 136.414C4.32328 136.484 4.0862 136.54 3.84911 136.61C3.5423 136.596 3.23549 136.582 2.92868 136.568C2.73343 136.512 2.53819 136.442 2.34294 136.387C0.418392 135.145 0.0418498 133.234 1.17358e-05 131.17C-0.0697184 127.613 1.35278 124.628 3.5423 121.936C4.44879 120.82 5.70394 120.179 6.90329 119.481C11.3939 116.859 15.9403 114.32 20.4449 111.712C26.4835 108.239 32.5221 104.738 38.5468 101.237C43.8463 98.1682 49.1597 95.0995 54.4592 92.0449C58.7825 89.5481 63.0918 87.0374 67.4151 84.5546C72.7564 81.472 78.0977 78.4034 83.4391 75.3208C87.8042 72.8101 92.1693 70.2994 96.5204 67.7748C102.057 64.5667 107.566 61.3307 113.102 58.1226C117.188 55.7653 121.303 53.4499 125.389 51.0787C130.284 48.2472 135.151 45.3878 140.046 42.5563C143.421 40.6174 146.824 38.7484 150.199 36.8096C154.522 34.3128 158.803 31.7603 163.113 29.2496C165.344 27.9524 167.589 26.6831 169.835 25.3998C173.056 23.5447 176.278 21.6756 179.499 19.8205C181.438 18.7047 183.39 17.6306 185.315 16.5148C186.946 15.5663 188.522 14.5481 190.182 13.6414C191.102 13.1393 192.12 12.8185 193.097 12.414C193.529 12.4279 193.975 12.4419 194.422 12.4558C196.486 13.5159 197.615 15.8592 197.197 18.5373C196.792 21.048 195.997 23.4331 194.561 25.5672C194.408 25.7904 194.198 25.9857 193.878 26.3483C192.525 24.549 191.214 22.8055 189.819 20.9503C188.885 20.6295 188.174 21.4804 187.337 21.8291C186.444 22.2057 185.649 22.8194 184.813 23.3355C182.958 24.4653 181.131 25.623 179.262 26.697C176.961 28.0221 174.59 29.2496 172.275 30.5747C169.932 31.9276 167.645 33.3783 165.33 34.7592C164.87 35.0381 164.326 35.1497 163.866 35.4287C161.927 36.5864 160.086 37.9115 158.078 38.9297C154.647 40.6593 151.37 42.6399 148.051 44.5509C145.401 46.0712 142.821 47.6753 140.185 49.2096C138.61 50.1302 136.978 50.9531 135.388 51.8598C133.966 52.6827 132.585 53.5894 131.162 54.4123C129.768 55.2213 128.331 55.9606 126.923 56.7556C123.771 58.555 120.619 60.3682 117.467 62.1815C115.71 63.1858 113.911 64.1343 112.238 65.2641C110.801 66.2405 109.114 66.7566 107.789 67.9701C107.05 68.6396 105.948 68.9046 105.041 69.4068C102.587 70.7876 100.16 72.2104 97.7198 73.6052C95.2653 75.014 92.769 76.353 90.3563 77.8315C88.0273 79.2543 85.6147 80.5515 83.2717 81.9602C81.8213 82.839 80.3988 83.7875 78.9345 84.6662C78.2372 85.0847 77.4144 85.2939 76.7589 85.7542C75.1273 86.9119 73.2585 87.6372 71.6128 88.8089C69.8417 90.0921 67.7498 90.929 65.8392 92.0309C64.0402 93.0631 62.3248 94.2347 60.5397 95.2669C58.6291 96.3688 56.6348 97.3452 54.7242 98.4471C53.1204 99.3677 51.6003 100.4 50.0105 101.334C49.1319 101.851 48.1696 102.213 47.291 102.715C45.7848 103.594 44.3205 104.556 42.8143 105.421C41.3221 106.286 39.788 107.039 38.3097 107.918C36.2457 109.132 34.2375 110.429 32.1735 111.642C30.8626 112.409 29.4819 113.051 28.157 113.804C26.8879 114.53 25.6607 115.325 24.4056 116.064C23.7919 116.427 23.1644 116.733 22.5507 117.082C20.933 118.031 19.3431 119.007 17.7115 119.941C16.4284 120.681 15.1036 121.378 13.8205 122.117C12.6909 122.759 11.5892 123.456 10.4735 124.112C9.70645 124.558 8.92547 124.991 8.15844 125.451C7.12643 126.065 6.12232 126.706 5.09031 127.306C4.83928 127.46 4.51852 127.488 3.96068 127.655C4.6022 128.241 5.06242 128.757 5.60631 129.133C10.2922 132.369 14.9641 135.633 19.7057 138.786C21.8813 140.222 24.1685 141.492 26.4556 142.747C32.1874 145.885 38.0308 148.801 44.0834 151.255C44.2926 151.339 44.5157 151.381 44.7389 151.437L44.8225 151.534L44.948 151.52C46.3566 152.05 47.7791 152.581 49.1876 153.111C49.2574 153.138 49.341 153.18 49.4108 153.208C50.4428 153.557 51.4748 153.892 52.5068 154.24C52.5905 154.282 52.6741 154.31 52.7578 154.352C52.9531 154.408 53.1623 154.464 53.3575 154.505C53.5388 154.575 53.7201 154.645 53.9014 154.715C54.6405 154.924 55.3797 155.147 56.1328 155.356C56.3141 155.426 56.5093 155.482 56.6906 155.552C56.858 155.579 57.0253 155.621 57.1787 155.649C57.2903 155.691 57.4018 155.733 57.5134 155.789C57.7087 155.83 57.9179 155.858 58.1131 155.9C58.2804 155.956 58.4617 156.012 58.6291 156.082C58.8243 156.123 59.0196 156.151 59.2009 156.193C59.3822 156.249 59.5635 156.305 59.7448 156.361C59.94 156.388 60.1492 156.43 60.3445 156.458C60.5118 156.5 60.6792 156.556 60.8326 156.598C61.0557 156.639 61.2649 156.681 61.488 156.723C61.7391 156.793 62.004 156.863 62.2551 156.918C65.2813 157.672 68.3495 158.299 71.4734 158.411C72.0173 158.481 72.5751 158.536 73.119 158.606C73.7745 158.634 74.416 158.676 75.0715 158.704C77.777 159.08 80.4686 159.08 83.1741 158.704C83.7319 158.676 84.3037 158.648 84.8616 158.62C85.4055 158.55 85.9494 158.495 86.4793 158.425C86.7722 158.397 87.065 158.369 87.3579 158.355C87.5811 158.299 87.8042 158.244 88.0413 158.188C88.376 158.146 88.7107 158.118 89.0314 158.076C89.2546 158.02 89.4917 157.965 89.7148 157.909C90.4121 157.783 91.1094 157.658 91.8067 157.532C91.988 157.462 92.1693 157.393 92.3506 157.323C92.6435 157.295 92.9224 157.267 93.2152 157.225C93.3826 157.17 93.5639 157.1 93.7312 157.044C95.5163 156.5 97.399 156.123 99.0865 155.356C102.238 153.92 105.362 152.371 108.361 150.628C111.568 148.745 114.343 146.262 116.993 143.668C119.978 140.738 122.572 137.475 125.152 134.183C127.787 130.835 130.479 127.515 133.143 124.196C133.338 123.945 133.505 123.666 133.687 123.401C134.816 122.103 135.946 120.806 137.048 119.495C137.271 119.23 137.382 118.881 137.55 118.575C137.647 118.477 137.745 118.379 137.843 118.282L137.815 118.296C137.954 118.184 138.094 118.072 138.219 117.975C138.637 117.473 139.056 116.984 139.488 116.482C139.907 115.98 140.325 115.478 140.743 114.976C141.259 114.348 141.761 113.707 142.291 113.093C143.965 111.154 145.652 109.229 147.354 107.304C147.87 106.732 148.428 106.202 148.971 105.658C149.041 105.589 149.111 105.505 149.181 105.435L149.25 105.421L149.236 105.352C149.278 105.212 149.32 105.087 149.362 104.947C150.812 103.51 152.263 102.06 153.713 100.623C153.783 100.553 153.853 100.484 153.922 100.414H153.992V100.344C154.062 100.274 154.131 100.205 154.201 100.135H154.271V100.065C154.341 99.9117 154.41 99.7583 154.494 99.6048C154.899 99.2003 155.303 98.7819 155.707 98.3774C155.861 98.3077 156 98.2379 156.154 98.1682H156.223V98.0984C156.293 98.0287 156.363 97.9589 156.433 97.8892H156.502V97.8195C156.572 97.7497 156.642 97.68 156.725 97.6102C157.102 97.2197 157.465 96.8012 157.869 96.4386C159.78 94.709 161.676 92.9655 163.615 91.2777C164.521 90.4827 165.539 89.8131 166.46 89.0181C169.626 86.2842 173.238 84.2896 176.933 82.3926C180.28 80.663 183.572 78.8219 186.863 76.9946C192.553 73.8284 198.229 70.6203 203.919 67.44C209.149 64.5109 214.392 61.6096 219.636 58.6945C223.597 56.4906 227.571 54.3007 231.532 52.083C236.608 49.2514 241.685 46.392 246.761 43.5466C251.614 40.8406 256.495 38.1486 261.349 35.4426C266.522 32.5693 271.683 29.682 276.857 26.8086C281.724 24.1026 286.591 21.4106 291.458 18.7186C302.378 12.665 313.284 6.61147 324.217 0.585797C324.677 0.30683 325.221 0.195244 325.737 0.013916Z" fill="#01030B"/>
<path d="M42.898 118.742C42.7446 118.812 42.6052 118.895 42.4518 118.965C41.6847 119.3 40.7783 119.384 40.2762 120.193L40.2623 120.207C39.5092 120.653 38.7561 121.085 38.003 121.532C37.8217 121.643 37.6404 121.755 37.473 121.866C36.2458 122.606 35.0185 123.345 33.7913 124.084C33.6937 124.07 33.6239 124.098 33.5682 124.182C32.9824 124.517 32.3967 124.851 31.811 125.186C31.7273 125.158 31.6576 125.186 31.6157 125.27C30.765 125.786 29.9282 126.302 29.0775 126.818C28.701 126.971 28.3384 127.139 27.9619 127.292C27.7945 127.292 27.6272 127.292 27.4737 127.292C26.5115 126.093 26.5673 125.939 27.8642 125.172C30.8905 123.401 33.8889 121.601 36.9013 119.802C38.3935 118.909 39.8857 118.017 41.3779 117.124C41.6987 116.957 42.0055 116.775 42.3263 116.608C43.4141 115.966 44.4879 115.311 45.5757 114.669C45.8825 114.474 46.1893 114.279 46.4822 114.097C47.1097 113.721 47.7373 113.358 48.3509 112.981C48.5322 112.884 48.7135 112.786 48.9088 112.688C49.383 112.423 49.8432 112.158 50.3173 111.893C50.4986 111.796 50.6799 111.684 50.8612 111.586C52.3953 110.75 53.9433 109.941 55.4634 109.062C59.4659 106.732 63.4545 104.375 67.4431 102.032C68.1543 101.613 68.8516 101.167 69.5489 100.735C69.7302 100.623 69.9115 100.525 70.0928 100.414C71.6269 99.563 73.1609 98.7401 74.6671 97.8474C80.5802 94.4022 86.4794 90.929 92.3785 87.4559C92.6854 87.2746 92.9643 87.0235 93.2432 86.8003C93.6755 86.5214 94.0939 86.2424 94.5262 85.9634C95.2235 85.6426 95.9627 85.3916 96.6181 85.001C98.7519 83.7596 100.872 82.4624 102.991 81.1931C103.284 80.9978 103.577 80.8165 103.87 80.6212C105.432 79.7006 107.008 78.7661 108.57 77.8455C108.891 77.6642 109.197 77.4829 109.518 77.3015C111.805 76.0043 114.093 74.6932 116.38 73.396C116.673 73.2007 116.979 73.0194 117.272 72.8241C117.9 72.4615 118.541 72.0988 119.169 71.7222C119.35 71.6106 119.531 71.513 119.713 71.4014C121.247 70.5506 122.795 69.7137 124.301 68.8349C128.15 66.5892 131.985 64.3436 135.806 62.0839C136.601 61.6097 137.354 61.0797 138.122 60.5775C138.303 60.4659 138.484 60.3543 138.665 60.2428C140.715 59.0572 142.766 57.8715 144.816 56.6859C145.122 56.4907 145.429 56.2954 145.75 56.1001C146.364 55.7375 146.991 55.3608 147.605 54.9982C147.786 54.9006 147.967 54.789 148.149 54.6913C148.33 54.5937 148.511 54.4961 148.707 54.3984C149.013 54.2171 149.334 54.0497 149.641 53.8684C150.268 53.5057 150.882 53.1291 151.51 52.7665C151.761 52.5991 152.012 52.4178 152.263 52.2504C152.946 51.8738 153.629 51.5111 154.313 51.1345C154.494 51.0229 154.675 50.9253 154.857 50.8137C157.269 49.4189 159.696 48.038 162.109 46.6432C162.541 46.3642 162.973 46.0992 163.406 45.8202C164.27 45.332 165.135 44.8438 166 44.3696C166.251 44.2022 166.502 44.0348 166.753 43.8674C168.37 42.9329 169.974 41.9984 171.592 41.0499C171.899 40.8546 172.206 40.6733 172.512 40.478C173.503 39.9201 174.493 39.3621 175.483 38.8042C175.664 38.7066 175.846 38.6089 176.027 38.4973C176.682 38.1347 177.338 37.7581 177.979 37.3954C178.23 37.2281 178.467 37.0467 178.718 36.8793C179.402 36.5027 180.085 36.1261 180.782 35.7495C181.257 35.4706 181.717 35.1776 182.191 34.8987L182.177 34.9126C182.54 34.9126 182.888 34.9126 183.251 34.9126L183.237 34.8987C183.321 35.4427 183.404 35.9866 183.474 36.5167C183.125 36.698 182.777 36.8933 182.428 37.0746C181.982 37.2978 181.522 37.507 181.103 37.7581C179.667 38.6368 178.244 39.5295 176.822 40.4222L176.836 40.4083C176.626 40.492 176.403 40.5617 176.208 40.6733C172.903 42.5981 169.584 44.537 166.279 46.4758C165.484 46.9361 164.731 47.4661 163.963 47.9543C163.699 48.1217 163.434 48.2891 163.169 48.4564C162.806 48.6657 162.443 48.8749 162.081 49.0841C161.788 49.2375 161.509 49.4049 161.216 49.5584C160.561 49.9489 159.905 50.3395 159.25 50.744L159.264 50.73C158.19 51.3716 157.116 52.0133 156.028 52.6688C155.805 52.7804 155.596 52.892 155.373 52.9896C155.066 53.171 154.773 53.3523 154.466 53.5336C154.299 53.6313 154.145 53.715 153.978 53.8126C153.49 54.0916 153.002 54.3705 152.514 54.6495C152.346 54.7332 152.179 54.8169 152.026 54.9006C151.747 55.0819 151.454 55.2493 151.175 55.4306C150.812 55.6398 150.45 55.849 150.087 56.0583C149.613 56.3233 149.139 56.5883 148.665 56.8533C148.483 56.951 148.302 57.0347 148.107 57.1323C147.354 57.6065 146.601 58.0668 145.848 58.5411L145.862 58.5271C145.387 58.8061 144.913 59.099 144.453 59.378L144.467 59.3501C143.979 59.643 143.491 59.9359 143.003 60.2149C142.849 60.2986 142.696 60.3962 142.542 60.4799C142.291 60.5915 142.026 60.6752 141.789 60.8146C138.582 62.6698 135.374 64.5249 132.18 66.4079C131.148 67.0077 130.158 67.6912 129.154 68.3188L129.168 68.3049C128.708 68.5839 128.248 68.8628 127.774 69.1418C127.592 69.2394 127.411 69.3371 127.216 69.4347C126.742 69.7137 126.267 69.9787 125.793 70.2576L125.807 70.2437C125.584 70.3134 125.347 70.3553 125.152 70.4669C122.837 71.8199 120.522 73.1868 118.207 74.5537C118.011 74.6653 117.872 74.8606 117.705 75.014L117.718 75.0001C117.342 75.1674 116.951 75.3069 116.589 75.5162C114.734 76.5623 112.865 77.6084 111.038 78.6964C109.895 79.3798 108.793 80.133 107.663 80.8584L107.677 80.8444C107.203 81.1234 106.743 81.4163 106.269 81.6953L106.283 81.6813C105.167 82.3369 104.051 82.9924 102.95 83.6341C102.768 83.7317 102.587 83.8293 102.406 83.927C101.29 84.5826 100.174 85.2381 99.0587 85.8937C98.5985 86.1727 98.1243 86.4516 97.6641 86.7167C97.3015 86.9119 96.925 87.1212 96.5624 87.3164C95.628 87.8604 94.6936 88.4183 93.7592 88.9623C93.5779 89.06 93.3966 89.1576 93.2153 89.2692C92.0996 89.9108 90.97 90.5385 89.8543 91.1801C86.0052 93.3979 82.1561 95.6296 78.307 97.8613C78.0699 98.0008 77.9026 98.2101 77.6934 98.3914L77.5958 98.4193C76.9403 98.7959 76.2709 99.1725 75.6154 99.5491L75.6294 99.5351C74.9739 99.9117 74.3184 100.274 73.663 100.651L73.6769 100.637C72.2823 101.418 70.8738 102.157 69.5071 102.966C68.5308 103.538 67.5965 104.208 66.6481 104.822C66.4947 104.919 66.3274 105.003 66.174 105.101C65.7137 105.379 65.2396 105.658 64.7794 105.937C64.5004 106.105 64.2076 106.272 63.9287 106.454C63.7474 106.509 63.5661 106.537 63.4127 106.635C61 108.016 58.5873 109.397 56.2026 110.791C55.6866 111.084 55.2263 111.461 54.7382 111.81L54.7522 111.796C54.5709 111.893 54.3896 112.005 54.2222 112.103C53.7481 112.368 53.2878 112.647 52.8137 112.912C52.3535 113.191 51.8793 113.47 51.4191 113.762C51.1402 113.93 50.8473 114.097 50.5684 114.265C50.3871 114.376 50.2058 114.474 50.0245 114.585C49.383 114.962 48.7275 115.339 48.086 115.701C47.9047 115.813 47.7234 115.91 47.5421 116.022C47.1655 116.231 46.8029 116.44 46.4264 116.65C45.5757 117.166 44.725 117.696 43.8603 118.212L43.8743 118.198C43.4419 118.212 43.0375 118.254 42.898 118.742Z" fill="white"/>
<path d="M74.5972 121.42C76.5357 120.318 78.4742 119.216 80.3988 118.114C84.8755 115.562 89.3521 113.009 93.8149 110.443C97.0782 108.56 100.314 106.649 103.563 104.766C108.458 101.934 113.381 99.1168 118.276 96.2713C123.129 93.4538 127.983 90.6083 132.836 87.8047C138.623 84.4571 144.425 81.1374 150.213 77.8038C151.496 77.0645 152.751 76.3113 154.02 75.572C154.996 76.939 154.968 77.2458 153.894 77.8595C149.948 80.1192 145.987 82.3788 142.054 84.6524C134.244 89.1437 126.435 93.649 118.639 98.1543C110.676 102.757 102.726 107.374 94.7771 111.977C88.864 115.394 82.9509 118.798 77.0378 122.215C69.5209 126.567 62.0319 130.947 54.515 135.299C53.3993 135.954 52.2557 136.554 51.1121 137.182C50.9587 137.182 50.8193 137.182 50.6659 137.168C50.5682 136.986 50.4567 136.805 50.359 136.61C50.1638 135.745 50.5403 135.313 51.3074 134.922C52.688 134.197 53.985 133.332 55.3099 132.509C55.6028 132.328 55.8956 132.132 56.1885 131.951L56.1745 131.965C56.7184 131.672 57.2623 131.379 57.8062 131.086C58.2804 130.835 58.7546 130.57 59.2287 130.319C61.3904 129.092 63.5659 127.878 65.7276 126.637C66.648 126.107 67.5266 125.521 68.4191 124.963C69.1722 124.517 69.9253 124.084 70.6645 123.638C71.6825 123.052 72.7006 122.466 73.7047 121.88C74.0255 121.727 74.3044 121.574 74.5972 121.42Z" fill="white"/>
<path d="M39.1183 131.56C38.9231 131.63 38.7418 131.7 38.5466 131.77C38.1282 131.616 37.6959 131.449 37.2775 131.295C37.1659 130.654 37.4867 130.277 38.0166 129.97C40.2759 128.701 42.5212 127.418 44.7525 126.135C45.2267 125.87 45.673 125.535 46.1193 125.242C46.3006 125.144 46.4818 125.047 46.6631 124.935C47.1373 124.67 47.5975 124.391 48.0717 124.126C48.5459 123.847 49.034 123.554 49.5081 123.275C50.7912 122.55 52.0882 121.825 53.3712 121.099C54.0266 120.709 54.6821 120.332 55.3376 119.942L55.3236 119.955C55.5747 119.858 55.8536 119.788 56.0907 119.649C58.2105 118.421 60.3302 117.166 62.464 115.938C69.4928 111.907 76.5495 107.89 83.5783 103.859C88.9196 100.804 94.2749 97.7358 99.6162 94.6533C100.411 94.193 101.164 93.6629 101.931 93.1747L101.917 93.1887C102.099 93.1329 102.294 93.119 102.447 93.0353C105.041 91.5707 107.621 90.1201 110.201 88.6415C112.935 87.0654 115.654 85.4753 118.388 83.8991C121.484 82.1137 124.58 80.3423 127.69 78.5569C128.457 78.1245 129.21 77.6642 129.977 77.2318C130.8 76.7855 131.078 76.8831 131.427 77.7758C131.511 77.9711 131.497 78.2082 131.553 78.5151C130.66 78.9893 129.795 79.4217 128.959 79.896C124.566 82.4066 120.173 84.9313 115.794 87.4559C109.588 91.0267 103.41 94.5975 97.2035 98.1543C92.2806 100.972 87.3437 103.72 82.4208 106.551C74.4855 111.112 66.5781 115.701 58.6567 120.276C52.1439 124.042 45.6311 127.794 39.1183 131.56Z" fill="white"/>
<path d="M139.53 116.441C139.112 116.943 138.693 117.431 138.261 117.933C138.122 118.045 137.982 118.156 137.857 118.254L137.884 118.24C137.787 118.338 137.689 118.435 137.592 118.533C136.852 118.031 136.364 118.7 135.876 118.993C133.115 120.667 130.381 122.397 127.662 124.154C123.576 126.79 119.504 129.468 115.417 132.105C110.899 135.02 106.366 137.907 101.834 140.808C100.914 141.394 99.9652 141.952 99.0448 142.496C98.0964 141.38 98.0964 141.38 98.5985 140.557C99.1424 140.195 99.6863 139.846 100.23 139.483C100.635 139.26 101.053 139.079 101.443 138.828C104.804 136.68 108.152 134.518 111.499 132.356C119.908 126.93 128.304 121.504 136.713 116.078C137.215 115.757 137.703 115.381 138.247 115.129C138.916 114.809 139.265 115.004 139.46 115.743C139.516 115.966 139.502 116.203 139.53 116.441Z" fill="white"/>
<path d="M169.081 66.924C169.291 66.8543 169.528 66.8124 169.723 66.7008C173.949 64.1901 178.16 61.6515 182.4 59.1548C186.765 56.6023 191.158 54.0916 195.537 51.553C196.653 50.8974 196.918 51.0369 197.392 52.5991C188.062 57.9971 178.732 63.409 169.472 68.7652C168.607 68.4304 168.565 67.8585 168.635 67.2169C168.789 67.1332 168.928 67.0216 169.081 66.924Z" fill="white"/>
<path d="M223.75 216.729C217.363 212.698 211.575 208.095 206.624 202.46C204.282 199.796 202.12 197.02 200.53 193.84C198.829 190.422 197.462 186.88 197.057 183.03C196.918 181.774 197.225 180.938 198.438 180.338C201.911 178.594 205.327 176.753 208.758 174.926C211.45 173.489 214.1 171.997 216.791 170.56C220.752 168.426 224.726 166.306 228.715 164.214C231.923 162.54 235.186 160.964 238.38 159.262C241.908 157.393 245.367 155.426 248.881 153.543C250.429 152.706 252.033 151.981 253.595 151.158C255.993 149.889 258.364 148.578 260.777 147.322C261.544 146.918 262.367 146.667 263.231 146.304C263.427 146.555 263.636 146.736 263.733 146.973C265.644 151.353 268.071 155.44 270.874 159.262C276.02 166.292 282.24 172.192 290.133 176.139C290.538 176.349 290.928 176.586 291.542 176.934C290.956 177.367 290.552 177.729 290.091 177.995C285.866 180.519 281.654 183.044 277.401 185.541C271.557 188.972 265.686 192.361 259.829 195.765C254.975 198.596 250.136 201.442 245.283 204.259C240.151 207.244 235.005 210.215 229.859 213.2C227.85 214.358 225.842 215.515 223.75 216.729Z" fill="#B7F005"/>
<path d="M339 1.46478C336.81 2.73408 334.649 3.98943 332.473 5.23083C323.101 10.5312 313.716 15.8315 304.344 21.1319C294.052 26.9623 283.76 32.7927 273.481 38.651C268.238 41.6359 263.008 44.6627 257.764 47.6337C253.078 50.2839 248.351 52.8643 243.665 55.5145C237.319 59.0992 231.002 62.7258 224.656 66.3244C220.054 68.9467 215.452 71.555 210.85 74.1634C210.403 74.4144 209.929 74.5958 209.469 74.8189C208.995 75.0421 208.576 75.07 208.256 74.5679C207.879 73.9681 208.242 73.6194 208.688 73.2986C208.953 73.1033 209.232 72.9359 209.511 72.7685C216.693 68.6817 223.875 64.5948 231.057 60.508C238.937 56.0445 246.803 51.5671 254.682 47.1315C261.557 43.2539 268.461 39.4321 275.322 35.5405C278.878 33.5319 282.379 31.4397 285.935 29.4032C293.759 24.9398 301.583 20.5042 309.42 16.0547C315.152 12.8048 320.884 9.54085 326.616 6.2909C330.13 4.31024 333.644 2.32958 337.159 0.348918C338.316 -0.278756 338.54 -0.167169 339 1.46478Z" fill="white"/>
<path d="M228.506 87.191C227.711 85.6846 227.725 85.587 228.952 84.8756C237.208 80.1332 245.464 75.4047 253.706 70.6623C260.149 66.966 266.578 63.2418 273.021 59.5455C277.052 57.244 281.11 54.9983 285.14 52.6968C289.296 50.3256 293.41 47.8847 297.552 45.5135C303.967 41.859 310.411 38.2464 316.826 34.5919C321.832 31.7465 326.811 28.8592 331.804 25.9998C332.529 25.5813 332.905 25.6232 333.226 26.1532C333.575 26.739 333.533 27.1156 332.836 27.5341C330.883 28.7058 328.903 29.8077 326.923 30.9375C323.785 32.7368 320.633 34.5361 317.495 36.3355C314.064 38.2882 310.634 40.2271 307.203 42.1938C302.406 44.9416 297.636 47.7312 292.839 50.4651C289.171 52.5574 285.461 54.6078 281.793 56.7C276.424 59.7686 271.097 62.8791 265.727 65.9338C259.075 69.7277 252.381 73.4659 245.729 77.2738C240.694 80.1611 235.688 83.1042 230.667 86.0194C229.97 86.4378 229.231 86.8004 228.506 87.191Z" fill="white"/>
<path d="M298.807 29.2915C299.63 30.7142 299.63 30.77 298.515 31.3977C293.829 34.0618 289.143 36.712 284.457 39.3622C275.155 44.6207 265.867 49.8792 256.565 55.1377C250.094 58.7922 243.623 62.4327 237.138 66.0871C231.392 69.3232 225.647 72.5592 219.901 75.7952C219.469 76.0323 219.008 76.2415 218.576 76.4507C217.725 75.1954 217.725 74.9304 218.827 74.2748C222.355 72.2105 225.898 70.1879 229.454 68.1794C230.988 67.3006 232.536 66.4637 234.084 65.6269C243.107 60.6752 252.019 55.5562 260.972 50.4929C268.001 46.5177 275.043 42.5424 282.072 38.5811C287.246 35.6659 292.42 32.7367 297.608 29.8355C297.985 29.6263 298.375 29.4868 298.807 29.2915Z" fill="white"/>
</svg>
