<svg width="25" height="20" viewBox="0 0 25 20" fill="none" xmlns="http://www.w3.org/2000/svg">
<path d="M0.833328 1C0.833328 0.734784 0.938685 0.480429 1.12622 0.292893C1.31376 0.105357 1.56811 0 1.83333 0H23.1667C23.4319 0 23.6862 0.105357 23.8738 0.292893C24.0613 0.480429 24.1667 0.734784 24.1667 1C24.1667 1.26522 24.0613 1.51957 23.8738 1.70711C23.6862 1.89464 23.4319 2 23.1667 2H1.83333C1.56811 2 1.31376 1.89464 1.12622 1.70711C0.938685 1.51957 0.833328 1.26522 0.833328 1ZM11.5 7C11.5 6.73478 11.6054 6.48043 11.7929 6.29289C11.9804 6.10536 12.2348 6 12.5 6H23.1667C23.4319 6 23.6862 6.10536 23.8738 6.29289C24.0613 6.48043 24.1667 6.73478 24.1667 7C24.1667 7.26522 24.0613 7.51957 23.8738 7.70711C23.6862 7.89464 23.4319 8 23.1667 8H12.5C12.2348 8 11.9804 7.89464 11.7929 7.70711C11.6054 7.51957 11.5 7.26522 11.5 7ZM11.5 13C11.5 12.7348 11.6054 12.4804 11.7929 12.2929C11.9804 12.1054 12.2348 12 12.5 12H23.1667C23.4319 12 23.6862 12.1054 23.8738 12.2929C24.0613 12.4804 24.1667 12.7348 24.1667 13C24.1667 13.2652 24.0613 13.5196 23.8738 13.7071C23.6862 13.8946 23.4319 14 23.1667 14H12.5C12.2348 14 11.9804 13.8946 11.7929 13.7071C11.6054 13.5196 11.5 13.2652 11.5 13ZM0.833328 19C0.833328 18.7348 0.938685 18.4804 1.12622 18.2929C1.31376 18.1054 1.56811 18 1.83333 18H23.1667C23.4319 18 23.6862 18.1054 23.8738 18.2929C24.0613 18.4804 24.1667 18.7348 24.1667 19C24.1667 19.2652 24.0613 19.5196 23.8738 19.7071C23.6862 19.8946 23.4319 20 23.1667 20H1.83333C1.56811 20 1.31376 19.8946 1.12622 19.7071C0.938685 19.5196 0.833328 19.2652 0.833328 19ZM7.652 5.792C7.80802 5.87861 7.93803 6.00539 8.02853 6.15919C8.11903 6.313 8.16672 6.48821 8.16666 6.66667V13.3333C8.16659 13.5117 8.11879 13.6869 8.02822 13.8406C7.93765 13.9943 7.80762 14.121 7.65159 14.2075C7.49557 14.294 7.31924 14.3372 7.1409 14.3326C6.96256 14.328 6.78869 14.2758 6.63733 14.1813L1.30399 10.848C1.16017 10.7581 1.04157 10.6331 0.959349 10.4848C0.877129 10.3364 0.833991 10.1696 0.833991 10C0.833991 9.83039 0.877129 9.66357 0.959349 9.51523C1.04157 9.36689 1.16017 9.24189 1.30399 9.152L6.63733 5.81867C6.78853 5.72433 6.9622 5.67211 7.14037 5.66742C7.31853 5.66273 7.4947 5.70574 7.65066 5.792H7.652ZM3.72 10L6.16666 11.5293V8.47067L3.72 10Z" fill="#1AAED3"/>
</svg>
